<svg xmlns="http://www.w3.org/2000/svg" viewBox="0 0 960 560"><path fill="#FAFAFA" d="M894.2-47.6c-.1-.1-.2-.3-.3-.4-.5 0-1-.1-1.5-.1-.3 1.3-.2 1.2-.9 1.8 0 .4-.1.7-.1 1.1.6-.1 1.3-.2 1.9-.2.3-.8.6-1.5.9-2.2zm90.3 6.2c-.2.4-.3.7-.5 1.1.6 0 1.2.1 1.9.1v-.4c-.5-.3-1-.6-1.4-.8zM150-97c.9-.6.6-.3.9-1.8.2.3.5.5.7.8.1-.1.3-.2.4-.3 0-.5.1-1 .1-1.5-1.5.6-2.1 0-4.4-.3.4.8.8 1.6 1.3 2.3.3.6.4 0 1 .8zm-4.1-.3c.8.4.6.2 1.1.8.2 0 .5 0 .7.1-.7-1.2-1.3-2.3-2-3.5-.2.4-.3.7-.5 1.1 0 1.6.1 1.7.6 2.6 0-.3 0-.7.1-1.1zm13.8-.4c-.2 0-.5 0-.7-.1.2.1.5.3.7.4v-.3zm817.7 76.5c-1.1-.5-1.3-1.9-3.6-1.8-13.4 1-34.2-3.7-46-7.1-8.2-2.3-18.6-1.9-26.3-1.6-10.5.5-21.8-3-32.6-2-5.3-.8-10.6-1.5-15.8-2.3-12.9-1.1-25.9-2.1-38.8-3.2-16.5 1.3-34.6-3.7-53.4-1.7-6.9-.8-13.8-1.5-20.7-2.3l-20.7-1.5c-11.4-2-20.7-.7-32.1-3.1l-9.3-.3c-7.8-1.1-16.5-1.1-23.6-2.4-9.1-1.7-19.3.4-26.3-1.2-7.1-1.6-20.1-2.3-28.5-1.3-10.8-1.2-21.6-2.3-32.5-3.5-5.3-.3-10.6-.5-15.9-.8-3.9-.2-7.9-.3-11.9-.5-9.7-.7-19.4-2.4-28.2-1.3-12.8-.4-25.7-.9-38.6-1.3-6.4.8-10.7-1.3-17.4-.5-12.3 1.4-31.4-.8-40.3-2.9-11.4-1.3-22.9-2.6-34.3-4-2.4-.2-4.7-.3-7-.5.1.3.2.5.3.8 8.2 1 16.5 2 24.7 2.9 1.7.3 1.3-.2 1.8 1.3.9-.6.3.1.8-1.1 1.5.4 2.9.7 4.4 1.1 2.2.3 1 .5 2.2.9-1.6 1.8-4.4-.2-6 .3-.2 0-.5 0-.7-.1 4.6.8 9.3 1.7 13.9 2.5h.4c-.2-1.6.4-.9-1-1.2.2-.4.3-.7.5-1.1.1-.1.3-.2.4-.3.1.4.2.8.3 1.1 1.5 0 1.2.2 1.9-.6.9.2 1.7.4 2.5.6-.9 1.5-1.6.9-2.7 1.3-.2 0-.5 0-.7-.1 1.9.3 3.7.5 5.5.8-.6-.2-1.2-.3-1.8-.5.4-1.4-.1-.8.9-1.4 2-.6 8.4.7 9.2 1.4 1 .1 2 .1 2.9.2-1 1-.9.5-2.3.2 0 .2 0 .5-.1.7 2.1.3 3.4.7 4.1-.8h.4c0 .5-.1 1-.1 1.5 2.1.3 4.2.6 6.3.8 0-.5.1-1 .1-1.5 1.6.3 1 .1 1 1.2 2.8-.2 7.1.9 9.4-.8 1 .4.4-.2.7.8 3.2-.5 9.2-3.2 13.1-.9.2 0 .5 0 .7.1 0 .2 0 .5-.1.7-1.1-.1-2.2-.2-3.3-.2 3.9 2.9 24.5.1 31.5 1.2 4.1.6 9.8.2 16.2.1-4.8-.3-9.4-.8-11.7-.9-2-.1-5.9.7-7.4-.2-.1-.1-.2-.3-.3-.4 2.8-.8 6 0 7.4-.2.9-.6.3.1.8-1.1 4.5.9 16.9 2.9 19.6 1.1 1.6.8 3 .4 5.1 1.1-.3.1-.5.2-.8.3-.6.2-1.5.4-2.6.4 1.6.1 3.2.3 4.8.5 19.8 2.6 37.2 2.1 56.5 5.2-2.1 6.1-.1 14.2-1.6 21.8-.5 7.9-.9 15.8-1.4 23.7l-1.8 14.7c-7.8-.6-13.3-2.6-19.9-2.5-7 0-15.7.1-20.7-1.5-6.2-2-15.7-.2-20.3-1.9-3.9-1.4-9.6-.3-12.6.2-1.1.2-15.5-2.3-15.5-2.3-2.4 0-4.7-.1-7.1-.1-6.3-3.2-17.4-1.6-24.2-4.4-2.2-.9-11 .8-14.1.1-10.5-2.3-18.8-1-30.4-1.8-11.2-.8-22.4-1.6-33.7-2.4-3.1-.2-7.3-2-8.8-1.8-.5.1-1.3 1.2-2 1.4-1.9-.7-6.2-1.1-7.7-.9-5 .4-15.8-4-17.8-.6h-.4c1.5-20.7 1.7-40.5 3.9-58.9 2.5.1 5 .1 7.4.2-3.5-2.1-8.8-.9-11.4-2-.4 0-.7-.1-1.1-.1.5 1.2.7 1 1.8 1.6-.4 3.3-.7 6.7-1.1 10 .4.2.7.3 1.1.5-1.5 2.6-.3 5.9-1.1 9.6-2.1 9.5 2 27.2-1.9 41.9-3.8 14.4-2 25.4-3.6 39.2-1.1 9.4-2.3 22-1.2 31.9 1.5 13.1-2.1 26.1-.6 38.6.7 6.2-.6 11.1.2 17.9.6 5.4 1 14.4 0 20.5-.6 13.8-1.3 27.7-1.9 41.5-2.1 10.4-2.4 17.5-2.5 28.8 0 5.3-1.5 11.9-.9 17.4 1.1 10.4-2.1 22.5-2.3 31.8-.2 9.3-1.2 21.3-.7 30.5-.1 2.6-.1 5.2-.2 7.8-.4 5.8-.8 11.6-1.3 17.4-2.9 15.1-1.6 32.7-4.4 45.8-.3 7.9-.7 15.8-1 23.7-2.6 12.3-1.5 31.2-3.9 43.6-1.7 8.4-1.8 15.4-2.6 25.1-.2 2.6-2 4.3-1.9 5.8.3 4.9.9 11.1-.1 17.1l-2.4 17.7c-.6 22.3-3.9 43.6-6 61.7-1.6 14-1.5 28.9-5 43.5-2.9 11.9-.8 26.6-4.2 38-6.3.4-19.8-2.4-30-1.4-7.7-.1-15.4-.1-23-.2l-15.9-1.2c-6.3-.5-12.6-.9-18.9-1.4-13.8.6-35.5-2.8-49.5-5.1h-15.6c-4-.8-8.1-1.6-12.1-2.4-1.9.3-3.9 2.1-5.4 2.6-3.2 1-7.2-1.4-9.5-1.8-2.1-8.9 1.5-19.7.9-28.2-1.4-22.7 3.3-46.9 3.1-68.6 0-6.1 3.1-17.3 2.2-25.1-1-8.1.6-14 .5-22.3 0-3.2-1.7-7-.3-10.8 1.7-4.8 2.4-15.2 2.3-21.8-.3-22.1 1.6-48.4 6.5-68.3.8-5.4 1.5-10.8 2.3-16.2 1-13.1 1.9-26.1 2.8-39.2 2.2-10.7.9-25.9 3.3-35.5 2-7.7 1.3-18.7 2.6-26.2 5.4-29.2 2.7-61.6 6.1-88.8 1.5-17.7 3.1-35.5 4.6-53.2 0-7.1 0-14.1.1-21.2 1.1-8.9 3.1-21.9 2-32.2.3-4.6.7-9.1 1-13.7-1.1-9.2-.1-19-.3-26.4-.1-4.4 1.6-12.2.4-15.6.1-1 .1-2 .2-2.9-.1.1-.3.2-.4.3-.7-.5-.6-.6-1-1.2.4 0 .7.1 1.1.1 1.2-7.3 0-18.2.1-26.8.1-12.8 3-27.9 1.8-39.3l.6-7.8c-.2-4.7-.3-9.4-.5-14.2.1-2.3 1.7-4.9.9-7 1-.6 1.5-.6 2.3-.6-.1-.3-.2-.5-.3-.8v-.4c.9-.1 1.8-.1 2.6-.2 0 .4-.1.7-.1 1.1 4.4-.2 11.7.4 13.4-.1 6.3.5 4.3-1.3 6.9-2.5.4 0 .7.1 1.1.1.9.1 1.3 1.2 2.9 1 1-.1 3-1.1 4.9-.4.3.4.7.8 1 1.2 7.8-.7 18.9.1 26.1-.3 1.9-.1 4.2 1.2 5.1 1.5 1.2.4 8.5.5 13.7.6.1-.2.3-.5.4-.7.1.2.2.5.3.7h4.9c.8.7.3-.1.7 1.2 1 .1 2 .1 2.9.2 1-.3.4.3.8-.7 8.3 1.5 17.5 3.1 25.3 4.8-.7.7-1.7.5-2.7.9h-.4v.4c1.7.1 3.4.3 5.2.4v-.4c-.5-.2-1-.3-1.5-.5.3-.5.6-1 .9-1.4 4-.3 10.3 2.3 13.6 2.5 5.8.3 13.6 0 19.9 2.2.3-.4.6-.7.8-1.1h.4v-.4c-4.6-1.5-12.7-.7-18.1-2.1-17-4.2-33.8-3.1-49.7-7.3-12.4-.8-24.9-1.6-37.4-2.4l-28.2-.9c-4.8-.5-9.6-1-14.4-1.4-3.7-.2-3.9 1.5-6.5 2.5-.1 2.5-.1 5-.2 7.4-.3 2.3-.7 5 .4 5.2-2.5 6.6 1.8 14.9-.2 22.7-1.3 5.2-1.1 12.2-.6 17.8.7 6.6-1.5 11.5-.6 18.9.9 8-2.3 19.3 0 25.7-.1 1-.1 2-.2 2.9.6-.5.4-.2.8-1.1.2 0 .5 0 .7.1-.1.1-.3.2-.4.3-.5 1.5 0 .5-1.2 1-.2 2.3-.3 2.1 1 2.3-3.4 10.2-.3 24.6-.9 37.5.2 0 .5 0 .7.1 0 .2 0 .5-.1.7-.2 0-.5 0-.7-.1-.1 1.3-.2 2.5-.3 3.7-1.1 18.3-2.2 36.5-3.2 54.8.7 6.6.6 14.3 0 21.6.2.1.4.2.6.4h-.4c-.1.1-.2.2-.3.2-.4 5.3-1.1 10.4-1.9 14.5-1.7 8.7-.8 22.4-2.5 29.2-2.7 10.8 1.4 20.5-1.7 28.9.5.2 1 .3 1.5.5-2.8 4-.9 10.6-1.9 15.9-2.7 13.6-.4 30.8-4 44.7-.4 5.7-.8 11.4-1.2 17-2 7.7-.3 18.7-2.8 28.1-1.2 11.3-2.4 22.6-3.6 34-.2 4.9-.5 9.9-.7 14.8-6.4 34.1-10.2 73.2-11.3 109.2-.4 11-.9 22-1.3 33 .5 4.6.1 10.3-.6 13.3-.3 8.9-.6 17.8-.8 26.7-1.4 19.6-2.8 39.2-4.3 58.8-1.2 7 1.8 20.4-2.5 24.4 0 2.2.5 2.8 1.2 4.2 10.7 3.7 29.8-.9 41.9 1.6 7.7 1.1 15.5 2.1 23.2 3.2 4.1.3 8.1.6 12.2.9 7.5.6 15 1.1 22.6 1.7 4.1-.2 10.3 1.1 14.8.7 8.1.6 16.3 1.2 24.4 1.8 6.7-.5 15.9.5 22.3-.2 4.7.3 9.4.7 14.1 1 6.1-.8 16.1.1 22.6.9 13.9 1.8 30.9-.8 46.3 2.6 13.2 2.9 29.2 1.8 42.9 2.7 10.5.8 26.5 3.4 32.9 2 5.9.6 11.8 1.1 17.7 1.7 11.6-.7 22.4 2.8 35.2 1.8 3.3.4 6.7.7 10 1.1 4.2.1 8.4.1 12.6.2l13.2 2.4c7.6.3 15.3.6 23 .9 10.1 2.6 26.4 2.9 37.8 1.6 6.8.6 13.5 1.2 20.3 1.9 8.4-.3 22.4 2 30.9 4.1 3.1 0 6.2 0 9.3-.1 13.7 1.3 27.3 2.5 41 3.7 5.7 1.6 12.2 1.1 18 2.4 6.9 1.5 17.5 4.1 25.1 3.3 17.9 2.1 35.9 4.1 53.9 6.2 16.2.4 35.3 2.9 50.4 7 4.9.4 9.9.7 14.8 1.1 7.6 1.1 15.2 2.1 22.8 3.1 3.8.4 7.6.8 11.5 1.2 6.1 1.7 33.7 5.3 37.1 1.6.1-.2.3-.5.4-.7-1.5-.6-2.6-1-3.6-1.8 1.3-18.6 3.4-31.9 2.9-49.6.5-4.7.9-9.4 1.4-14-.5-4.3 1-11.5.4-16-1.1-8.2-.4-21.4 1-28.9.3-5.6.6-11.1.8-16.7.5-10.8 1.1-21.5 1.6-32.2.5-5.8 1.1-11.6 1.6-17.3.3-.5.6-1 .9-1.4-1-6.8.3-22.9 1.8-29.3.7-10.9 1.3-21.7 2-32.6 1.5-6.4-.6-14.7.8-21.2 1.9-8.9 1.8-18.7 2.4-27.3.3-4.4.7-8.9 1-13.3-.9-8.2.2-18.4 2.1-23.6.7-1.9-.7-2.6-.9-3.4.4-3.6.8-7.1 1.2-10.7 1.3-15.5 2.5-31 3.8-46.6 3.8-14.3 2.7-29.9 5.9-45.7 2.8-13.9 5-38.7 8.1-55.2.9-4.9 1.7-9.8 2.5-14.7.6-.3 1.3-.7 1.9-1 .3-1.2-1.2-1.3-1.4-2-.9-2.8.7-5.1 1.3-7.3l.9-12.6c2.9-12.7 4.8-29.2 6.9-43.4.5-7 1-14.1 1.5-21.1 2.3-7.6 2.1-19.9 3.9-27.6.7-2.5 1.4-5.1 2.1-7.6.8-8.9 1.5-17.7 2.3-26.6.4-2.3 1.4-2.3 3.2-2.7v-.4c-.5-.2-1-.3-1.5-.5-.4-.2-.7-.3-1.1-.5 1-14.1 2.5-28.1 6-40.8 2-7.2 0-14.8 4.1-20.2 0-.6.1-1.2.1-1.9-1.2.7-3.4 1.9-5.4.9zM410.7-61.6c-.3.2-.5.5-.8.7-.6-.2-1.2-.3-1.8-.5 0-.2 0-.5.1-.7.9.1 1.7.1 2.6.2-.1 0-.1.2-.1.3zm2.9.6c0 .2 0 .5-.1.7-.4 0-.7-.1-1.1-.1.4-1.1.3-.8.9-1.4.1.1.2.3.3.4v.4zm22.9 2c.1.3.2.5.3.8-.7-.5-.4 0-.3-.8zm1.5.5c-.1.1-.3.2-.4.3 0-.2 0-.5.1-.7.2.1.5.3.7.4h-.4zm8.4 1c-.4 0-.7-.1-1.1-.1 0-.2 0-.5.1-.7.9-.1 1.8-.1 2.6-.2.6 0 1.2.1 1.9.1-1.2.3-2.3.6-3.5.9zm26.1.4c-2.2.2-4.1.2-5.2-.8h-.4v-.4c4.2.5 13.1 1.6 14.9-.4.2.3.5.5.7.8 0 0 6 .3 6.7.1.6 0 1.2.1 1.9.1-1.8 1.9-17.3.5-18.6.6zm56.4 1.1c-.9-.1-1.7-.1-2.6-.2.5-1.2.3-.5.5-1.5 1 .5.8.6 2.2.9-.1.3-.1.6-.1.8zm6.2.8c-.2 0-.5 0-.7-.1 0-.2 0-.5.1-.7.2 0 .5 0 .7.1 0 .2-.1.5-.1.7zm10 .7c-.9-.1-1.7-.1-2.6-.2 0-.2 0-.5.1-.7.9.1 1.7.1 2.6.2 0 .3-.1.5-.1.7zm5.6.1c-.7-.5-.4.1-.3-.8.6 0 1.2.1 1.9.1-.8 1-1.1.7-1.6.7zm8.5.2c.4-.2.8-.4 1.2-.7.6 0 1.2.1 1.9.1-.8.9-1.4.8-3.1.6zm20.7 1.9c-1.1-.4-.8-.2-1.4-.9.5.2 1 .3 1.5.5-.1.2-.1.3-.1.4zM343.7-65.7c.2.1.5.3.7.4h-.4c-.1.1-.3.2-.4.3 0-.3 0-.5.1-.7zm-.4 25.2h.4c0 .2 0 .5-.1.7h-.4c.1-.2.1-.5.1-.7zM177.1-86.4c.7.6.5.6 1.8.9v.4c-.1.1-.3.2-.4.3-.5-.3-1-.6-1.4-.9v-.7zm-2.3.2c.4 0 .7.1 1.1.1.1.1.2.3.3.4-.1.2-.3.5-.4.7-1.4-.6-1-.1-1-1.2zm-1.8-.2c.2.1.5.3.7.4h-.4c-.1.1-.3.2-.4.3.1-.2.1-.4.1-.7zm-10.8.7c.1.3.2.5.3.8-.2 0-.5 0-.7-.1.1-.2.2-.4.4-.7zm-5.3 0c0 .4-.1.7-.1 1.1h-.4c-.1-.4-.2-.8-.3-1.1h.8zM155.2-62c-.2 0-.5 0-.7-.1 0-.2 0-.5.1-.7.2.1.5.3.7.4-.1.2-.1.3-.1.4zm-1.6-18.3c.4.2.7.3 1.1.5-.1.5-1.1.2-1.1-.5zm-.1 37.5h.4c0 .2 0 .5-.1.7h-.4c0-.2 0-.4.1-.7zm-.6 48.7c.1.4.2.8.3 1.1-.2 0-.5 0-.7-.1.1-.3.2-.6.4-1zm-.3 24.5c0 .2 0 .5-.1.7h-.4c.2-.4.3-.7.5-1.1v.4zM140.8 249h.4c0 .2 0 .5-.1.7h-.4c0-.3.1-.5.1-.7zM962.6-21.8c0 .2 0 .5-.1.7-1.4-.3-1.7-.1-2.5-.9.9 0 1.7.1 2.6.2zm-113.5-9.8l19.2 1.8c13.8.8 27.7 1.5 41.5 2.3-1.4 8 1.2 19.7-1.3 28.2-.6 5.9-1.1 11.8-1.7 17.7-1.5 5.2-1.9 8.7-1.9 15.1-17.2-1.2-32.6-.5-47.4-3.1-4.3-.7-11.3.3-15.1-1.9-1-1.9.1-14.5 1-18.1 2.7-11.5.4-23.5 4.3-34.3.5-2.5 1-5.1 1.4-7.7zm48.8 66v.4c-1 .3-2.4.4-3 .2-.6 0-1.2-.1-1.9-.1v-.4c.4-.2.8-.4 1.2-.7.6.2 1.2.3 1.8.5.6 0 1.3.1 1.9.1zm-10.8-.4v.4c-.1.1-.3.2-.4.3l-3.3-.6 1.5-.6c.8.2 1.5.3 2.2.5zm-13.7-.6v.4c-.1.1-.3.2-.4.3-.7-.2-1.5-.4-2.2-.5 0-.2 0-.5.1-.7.4.2.7.3 1.1.5.4-.1.9 0 1.4 0zm-9.9-1.5c0 .4-.1.7-.1 1.1-1.8-.4-1.4-.1-1.4-1.2.5 0 1 .1 1.5.1zm-43.4-68.6c-.4.7-.1.3-.7-.1.2.1.5.1.7.1zm-3.7-.2c0 .2 0 .5-.1.7-.8-.4-.6-.2-1.1-.8.5 0 .8 0 1.2.1zm-2.6-.2c.1.3.2.5.3.8-.5 0-1-.1-1.5-.1.5-.3.9-.5 1.2-.7zm-17-1.3c.7.1 1.5.1 2.2.2 0 .2 0 .5-.1.7-.7-.1-1.5-.1-2.2-.2.1-.2.1-.4.1-.7zm-3 .2c.3-.1.5-.2.8-.3.4 0 .7.1 1.1.1.1.1.2.3.3.4v.4c-.7-.1-1.5-.1-2.2-.2v-.4zm-75.5-4c.5 0 1 .1 1.5.1l-1.5.6c-.1-.2 0-.5 0-.7zm-8.5-1.4c2.3.4 4.6.8 7 1.3-2.1 1.2-8.1.5-10-.7h-.4c1.4-.6 2.6 0 3.4-.6zm-9.3.1c.8-.1 1.5-.1 2.3-.2.6 0 1.2.1 1.9.1 0 .2 0 .5-.1.7-1.2-.1-2.5-.2-3.7-.3h-.4v-.3zm-6.6-.9c.6.2 1.2.3 1.8.5.9-.6.3.1.8-1.1 1.6.7 1.3.9 2.9 1.3-1.7-.1-3.4-.3-5.2-.4h-.4c.1 0 .1-.2.1-.3zm-7.3-2c.1.3.2.5.3.8 2.4-.1 3.2-.7 5.2.8.4.2.7.3 1.1.5v.4l-6.6-.9c-.1-.6-.1-1.1 0-1.6zm-44.8-2.9c1.2.1 2.5.2 3.7.3v.4c-.1.1-.3.2-.4.3-1.1-.1-2.2-.2-3.3-.2v-.8zm-58.3 13.7c.2-4.3 3-9.2 2.4-13.2.2-.4.3-.7.5-1.1 3.9.3 8.2.6 11.2.1-.3.1-.5.2-.8.3 1 .3.3.5 1.1-.3.2 0 .5 0 .7.1-.1.2-.3.5-.4.7 9.3-.5 21.3 2.6 30.8 1.5 7-.9 19.4-.3 26.6 1.6 2.8.1 5.7.2 8.5.3 10.1 1.7 20.4 1 29.9 3.7 10 .7 20 1.5 30 2.2 15.8 2.7 34.7 2 51.4 3.7l16-.3c10.2.7 20.5 1.5 30.7 2.2 6.2.6 12.3 1.2 18.5 1.7 1.2.1 2.5.2 3.7.3-1.3 3.3.4 8.9-.7 15.2-2 10.6-2.7 22.8-3.5 32.5-.3 4.2-3.3 8.6-2.4 11.7 0 .4-.1.7-.1 1.1-9.9-1.3-24.7-1.2-33.6-2.8-2.4.2-4.7.4-7.1.6-9.7-2.1-24.6-2.5-36-5.2l-17.4-.9c-7.6-.6-15.3-1.1-22.9-1.7-1.8.1-17.1.2-17.1.2-5.5-2.1-11.6-1.7-17.4-1.3-8.3.7-20.4-1.9-28.9-1.4l-28.5-2.4c-15.1 1-32.9-1.7-47-3-.9-12.9 1.4-33.8 1.8-46.1zM835 29.5c-.4.2-.8.4-1.2.7-.2 0-.5 0-.7-.1.4-.7.4-.5.8-1.1.4.2.7.3 1.1.5zm-4.8 0v.4c-2.4.2-4-.4-4.3-1.8 1.3.3 3.3.5 4 1.4h.3zm-21.4-2.7c-.4.7-.4.5-.8 1.1-1.4-.5-.9 0-1.4-1.2.7 0 1.5.1 2.2.1zm-14.5-.3c0 .2 0 .5-.1.7-.4 0-.7-.1-1.1-.1 0-.2 0-.5.1-.7.4.1.8.1 1.1.1zm-9.2 66.3c-2.3 11-.7 20.6-2.6 30.7-.6 3.3-.2 12.3-.6 13.3-2.2 14.6-4.4 29.2-6.5 43.8-11.3-.9-25.8-2.3-35.8-3.3-8-.5-16.1-.9-24.1-1.4-9-2.3-26.4-2.1-34.9-1.1-6.2-.2-12.4-.4-18.5-.6l-42.6-2.4c-1.2-.1-2.5-.2-3.7-.3 1.4-17.6 2.8-35.3 4.2-52.9 3.7-14.1 3.2-29 3.1-42.9.7-4 1.3-8.1 2-12.1.3-5.4.5-10.9.8-16.3 1.8-9.9 3.7-19.8 5.5-29.7.9-.1 7.8-.5 7.8-.5 3.4.5 7.9 2.1 11.9.5 1.3.4.4.2 1.1.8 4.3 2.2 16.4.2 21.1 1.5 3 .8 11-1 11.9.5 1 .1 2 .1 2.9.2-.2-.1-.5-.3-.7-.4v-.4c7.2.6 22.5 0 27 2 2 .9 5-.4 6.3.1.3-.2.5-.5.8-.7h.4c-.8-1-.2-.6-1.5-.5.2-.5.3-1 .5-1.5 7.8 2.2 12.6 3.4 20.6 2.6 2.2-.2 3.3 1.6 5.5.8 1 .4.4-.2.7.8 6.9.1 17.3 1.1 24 2.8 5.3.8 10.6 1.5 15.8 2.3.6 0 1.2.1 1.9.1 1 6.1.4 12.8.4 20.1-.3 2.7-.6 5.4-1 8.1.8 9.5-1.4 24.7-3.7 36zm-21 165.8c-.9 6-1.9 12-2.8 18-.2 5.1-.5 10.1-.7 15.2.2 5.4-2.4 16.9-3.9 22.4-2 7.7-1.5 18.7-3.8 26.1-.3 2.3-.6 4.7-.9 7-.3 1.4-.4 1.4-.9 2.2-15.2-1.5-34.9-.3-50.6-4.4-4.9-.4-9.9-.7-14.8-1.1-30.9-3.7-61.9-7.5-92.9-11.2 1.7-31.6 4.7-63.6 13.1-93.5 2-7.2 1.9-15.2 3.8-21.6.2-3.3.5-6.7.7-10 1.4-7 2.7-13.9 4.1-20.9.3-1.7.5-3.4.8-5.2.3-2.7.6-5.4 1-8.1 20.3 1 40.5 2 60.8 2.9 14.8-1.8 33.8 1.8 48.9 2.1 16.6.3 34.3 1.3 49.5 4.3-3.6 8-3.5 25.4-5.1 33.8-2.4 12.7-3 26.9-6.5 38.2.1 1.3.1 2.6.2 3.8zm-24.5 198.7c-1.7 14.6-3.4 29.3-5.1 43.9-20.5-1.7-40.9-3.5-61.3-5.2-11.4-1.7-23.1.5-33.7-1.7l-42.6-2.7c-7.2-.7-14.5-1.3-21.8-2 2.3-21.9 2.8-45.4 7.4-66.4 2.2-10.1 1.2-20.4 3.6-29.1l.9-12.6c1.7-6.5 1.8-16.8 3.6-23.9l.9-12.9c.2-3.3.5-6.7.7-10 39.5 4.7 78.9 9.5 118.3 14.2 12.2.8 24.4 1.5 36.6 2.3 1.9.1 3.5.1 4.4 1.1-1.5 13.6-3 27.3-4.5 40.9-.6 8.1-1.2 16.3-1.8 24.4 1.1 9.1-2.9 27.8-5.6 39.7zm-165.9 30.3c-1.1 4.1-23.8-.2-29-.6-12.4-.9-27.8-.7-37.3-3.1-6.2-1.6-13.9-.6-20.3-2.2-7.3-1.9-14.5-1.7-21-3.4-2.3-.3-4.7-.6-7-.9-3.2-.2-6.4-.5-9.6-.7 6.4-48.7 10-110.5 13.4-158.9l35.7 4.5c6.7.5 13.3 1 20 1.5 2 .5 3.9 1 5.8 1.6 8.4.2 19.4 1.6 28.3 3.9 10.1 1.5 20.1 2.9 30.2 4.4 2.4.3 4.9.6 7.4.9-1.7 23.1-4.5 46.1-8 68.9-1.3 8.1-1.3 19.7-2.6 25.9-2.9 13-3.3 24.9-4.3 38.4-.3 6.7-2.9 14.8-1.7 19.8zM468.8 227.4c.4-4.9.7-9.9 1.1-14.8l3-36.6c1.1-3.8 2.4-9.8 2.1-13.2.1-.2.3-.5.4-.7 13.4 1.5 26.8 2.9 40.2 4.4 6.4.5 12.8.9 19.2 1.4 10.6 2.4 21.7 2.9 28.1 2.4l47.4 2.7c1.2.2 2.4.4 3.7.6l-.9 12.6c-1.9 6.4-2.9 15.6-4.5 21.6-.3 3.4-.5 6.9-.8 10.4-3.3 9.6-3.6 24.2-6.6 34.9-6.7 23.5-9 53.8-10.6 79.2-15.3-1.3-31.9-3.2-46.3-7.1-9-1.2-17.9-2.3-26.9-3.4l-12.9-.9c-12.3-2.3-29.4-1.4-40.9-5.6 2.2-28.1 6.1-59.9 5.2-87.9zM676.4 17.6c.2.1.5.3.7.4v.4c-1-.4-.5.2-.7-.8zm9.9 1.1c0-.2 0-.5.1-.7.6 0 1.2.1 1.9.1v.4c-.1.1-.3.2-.4.3-.6-.1-1.1-.1-1.6-.1zm25.6 1.5c0-.2 0-.5.1-.7.2.1.5.3.7.4h-.4c-.2 0-.3.1-.4.3zm1.5-.3c0-.2 0-.5.1-.7.7.1 1.5.1 2.2.2.1.1.2.3.3.4v.4c-.9-.2-1.7-.2-2.6-.3zm21.5.1c1 .1 2 .1 2.9.2-.2.4-.3.7-.5 1.1-1.7 0-2.1 0-2.4-1.3zm12.6 1.6c0-.2 0-.5.1-.7.9.1 1.7.1 2.6.2v.4c-.1.1-.3.2-.4.3-.9-.1-1.6-.1-2.3-.2zm4.8.7c.2-.4.3-.7.5-1.1 1.2.1 2.5.2 3.7.3.1.1.2.3.3.4-1.1.2-2.3.3-3.4.5-.4 0-.8 0-1.1-.1zm15.1.4c2.1.3 4.2.6 6.3.8.1.1.2.3.3.4 0 .2 0 .5-.1.7-2.1-.1-6.5-.3-6.5-1.9zm8 2.8v-.4c.4-.3.8-.7 1.2-1 .5 0 1 .1 1.5.1.1.1.2.3.3.4 0 .2 0 .5-.1.7-.8.2-1.5.4-2.3.6-.1-.1-.3-.2-.6-.4zm13.7 1.4c0-.2 0-.5.1-.7l1.5-.3c.5 0 1 .1 1.5.1.1.1.2.3.3.4-.4.2-.8.4-1.2.7-.7-.1-1.5-.2-2.2-.2zM586.8 12.2c-.1.2-.3.5-.4.7-.9-.2-1.7-.4-2.5-.6 0-.2 0-.5.1-.7.9.1 1.7.1 2.6.2-.1.1.1.2.2.4zm-26.6-3.5c.5 0 1 .1 1.5.1.1.1.2.3.3.4 0 .2 0 .5-.1.7-.7-.1-1.5-.1-2.2-.2.2-.2.4-.6.5-1zm-2.9-.2c.1.1.2.3.3.4-.1.1-.3.2-.4.3-.3.1-.5.2-.8.3-.3-.4-.7-.8-1-1.2.6.1 1.3.2 1.9.2zM513.7 5c.1.1.2.3.3.4 0 .2 0 .5-.1.7-1.3-.4-1.1-.3-1.8-1.3.6.1 1.1.2 1.6.2zm-24.6 21.2c.6-6.7 1.2-13.3 1.8-20 2.1-2.4 5.7.3 9.3-.1 11.5.8 22.9 1.7 34.4 2.5 2.2-.2 1.4-1 2-1.7.1-.1.3-.2.4-.3.1.1.2.3.3.4-.5 1-.6.8-.9 2.2 15.2 1 31.5 1.3 45.1 4 4.7 1 15.5 1.6 16.3.8.2 0 .5 0 .7.1-.1.2-.3.5-.4.7 7.2-1.7 19.8 2.2 28.2 1.3.2.3.5.5.7.8 1.6 11.7-1.9 25.7-4.1 36.1-.8 3.6.7 10.8-.8 16.7-1 3.6-.7 7.6-.4 10.8.4 5-1.9 12.6-1.1 20-1.1 9.5-2.1 18.9-3.2 28.4-1.1 12.9-2.1 25.9-3.2 38.8-.2 1.2-.4 2.4-.6 3.7-9-.5-18-1.1-27-1.6-6.1-.3-12.1-.6-18.1-1-11.5.6-31.1-1.4-41-3.3-10.8-2.1-20-.9-28.1-2.8-3.2-.8-8.9.6-12.2-1.3-3.6-.3-7.1-.5-10.7-.8-1.9-1.4 2.8-20.4 2-26.6-.7-.7.9-4.3.8-5.9 1-9 2.1-17.9 3.1-26.9 2.6-15.5 4-34.2 5.3-52.4.3-8.5-.1-16.6 1.4-22.6zM367.6-6.4c.1.1.2.3.3.4 1.1.1 2.2.2 3.3.2 0 .4-.1.7-.1 1.1-.2-.1-.5-.3-.7-.4-1.2-.1-2.5-.2-3.7-.3.5-.6.5-.5.9-1zm-29.7 117.6c-2.1-17.3 1.4-37-.5-54-.9-7.6 1.8-14.2 1.1-20.4-.9-8 .9-24 2.6-30.7 1.3-4.9-1-8.5 1.3-12.2.1 0 .5.4 1.1.8.7.5 3.8.3 4.9-1.1.9.8.2 0 .3 1.1 4.3-.1 16.9.1 20.3 1.9.7.1 1.5.1 2.2.2v-.4c-.4-.2-.7-.3-1.1-.5h-.4v-.4c5 1.3 18.4 3.6 20.4 1.5.1.4.2.8.3 1.1 4.7.4 13.4 2.2 16.7.1 1 .4-.1.1.7.8 1.8 1.5 8.1-.5 11.2.1 1.6.4 3.2.7 4.8 1.1.7-.2 4.3-1.5 5.3-1.1 1.7 2.4 12.3.5 15.5 1.5 0 0 11.4 2.2 13.3 1.7.6-.2.8-1.1 1.9-1 8.7 1.3 18.5 3.2 28 3.5l-3.6 60.3c-.9 6.5-1.7 13-2.5 19.5-.3 3.6-.5 7.1-.8 10.7-.6 5-1.2 10.1-1.9 15.1-4.1 15.1-3.9 33.1-5.8 49.4-6.4-1-12.7-1.9-19.1-2.9-4.7-.3-9.4-.7-14.1-1-11.8-1.9-23.5-3.7-35.3-5.5-6.9-.3-13.8-.5-20.8-.8-5.5-1-13.1-2.1-18-3.5-5.4-.1-10.9-.3-16.3-.4-4-.8-9.2-3.2-11.7-3.1-2.6-9.8 1.4-19.3 0-31.4zm-8.1 156.4c1.2-23.3 2.4-46.7 3.6-70 0-12.3 3.8-23.8 2.6-36.2-.4-4.4 2.4-9.6.7-14.1 0-.2 0-.5.1-.7 43.7 3.1 87.7 9.6 136.1 15.5-1.1 8.3-2.2 16.7-3.3 25.1-1.1 40.8-4.9 83.2-8.2 128.1-19.4-1.4-46.2-2.5-65-6.6-9.5-2.1-19.8-1.1-27.7-3.1-7.4-1.9-19.2-.9-25.8-3-2.8-.9-9.7-4-12.8-3.2-.5 0-1-.1-1.5-.1 2.6-9.5-.8-21.3 1.2-31.7zm-9 133.9c.5-10.4 1-20.8 1.5-31.1.8-4.3 2-10.7 2.2-14.7.4-9.1.7-15.7 1.4-23.7.5-5.2 1-10.3 1.5-15.5.3-7.2-.7-11.7 4.4-14.2 17.1 3.7 39 3.2 57.8 7.9 9.1 2.3 22.5 1.5 31.3 3.4 9.4 2 28.6-.2 34.7 3.3 1.9.3 3.7.5 5.5.8-.9 11.2-.9 19.3-2.2 30l-1.2 11.1c-.3 7.5-.6 15.1-.9 22.6-.9 7.4-1.8 14.7-2.7 22.1-.2 4.7-.3 11.4-1.6 16.6-2.7 11.4-.1 21.2-3.1 32.9-1.4 5.4.9 11.4-1.5 15.5-.3 2.7-.6 5.4-1 8.1-37.2-2.7-70.6-8.6-104.2-9.4-8-.2-24.5-5-28.1-2.1h-.4c2.3-21.3 4.5-42.4 6.6-63.6zm-9.7 241c-1-.4-.4.2-.7-.8.2.1.5.3.7.4v.4zm29.2 1.7c-1.6-.4-1.3.2-1.4-.9.5.2 1 .3 1.5.5 0 .2-.1.3-.1.4zm4.8.4v-.4c.3-.1.5-.2.8-.3.1.3.2.5.3.8-.3 0-.7-.1-1.1-.1zm83.8-16.6c-.5 5.7-1.1 11.3-1.6 17-.2.9-.4 1.7-.6 2.5-13.5-.7-26.9-1.5-40.4-2.2-8.1.8-20.6.3-28.5-1.7-8.9-.8-17.7-1.5-26.6-2.3-10.4-.5-20.8-1-31.1-1.5-1.6-.4-1.5-.6-2.5-1.3-.6-10.1 1.6-22.5 3.5-33.6 1.4-8 .8-17 3-25.8.2-4.1.3-8.1.5-12.2 1.9-7.1.5-15.2 2.4-22.1 2-7.3 2.9-19.7 2.8-28.1 1-12.3 2.1-24.6 3-37l.9-12.6c0-.2 0-.5.1-.7 3.4 1.2 7.6 0 11.1.8 3.8.9 8.7 2 12.5 2 2.2 0 4.5.1 6.7.1 7.8 2 25.6 2.9 34.8 2.2l21 3 6-.3c3.9.3 7.9.6 11.9.9 8.9-.2 18.9 2.5 29.5 3.3-1.4 12.2-2.7 24.3-4.1 36.5-.4 4.9-.7 9.9-1.1 14.8-1.3 4.5-3.2 14.5-3.4 21-.2 8.4-1.3 22.1-3.8 31.3-2.1 7.7-1.9 16.8-3.6 24.7-1.6 7-3.1 14.8-2.4 21.3zm51.7 25.3c-1-.4-.4.2-.7-.8.2 0 .5 0 .7.1.1.2 0 .5 0 .7zm2.6.6c-.4-.2-.7-.3-1.1-.5-.6-.6.1-.1.4-.7 1.9.3 3.7.5 5.5.8-1.6.1-3.2.3-4.8.4zm13 .2c.9.1 1.7.1 2.6.2-1 1-1.7.6-2.6-.2zm4.8 1.1c-.2-.1-.5-.3-.7-.4h-.4c.4-.2.8-.4 1.2-.7.4 0 .7.1 1.1.1-.6.7-.7.5-1.2 1zm2.9-.2c-1.1-.4-.8-.2-1.4-.9.5 0 1 .1 1.5.1 0 .3-.1.6-.1.8zm4.8.4c-1.1-.3-2.2-.7-3.3-1 1.1.1 2.2.2 3.3.2.1.3.1.5 0 .8zm43.6 3.9c-.2 0-.5 0-.7-.1 0-.2 0-.5.1-.7.2 0 .5 0 .7.1 0 .2 0 .4-.1.7zm68.8 5c-1.1-.3-2.2-.7-3.3-1 1.1.1 2.2.2 3.3.2.1.3 0 .6 0 .8zm8.5 1c-.5-.3-1-.6-1.4-.9.5 0 1 .1 1.5.1-.1.3-.1.6-.1.8zm7.4.5c-.3.1-.5.2-.8.3-.4 0-.7-.1-1.1-.1 0-.2 0-.5.1-.7.6 0 1.2.1 1.9.1-.1.2-.1.3-.1.4zm1.5.1c-.2-.1-.5-.3-.7-.4.3-.1.5-.2.8-.3 1 .2 2 .4 2.9.6-1 .5-2.3.5-3 .1zm4.9-.3c2.1.2 4.2.3 6.3.5-1.1.9-5 .4-6.3-.5zm11 1.5c-1.7-.1-2.2-.2-2.9-1 2.4.2 4.7.3 7 .5-1.3.2-2.7.3-4.1.5zm7.4.5c-.4 0-.7-.1-1.1-.1-1.6-.4-1.3.2-1.4-.9.9.1 1.7.1 2.6.2-.1.3-.1.6-.1.8zm4.1.3c-2 .9-3.1 0-3.3-1l3.3.6v.4zm3.3.6c-1.1-.4-.8-.2-1.4-.9.5 0 1 .1 1.5.1-.1.3-.1.6-.1.8zm9.6.7c-2.6-.1-4.3-.1-5.5-1.2 1.7.1 3.4.3 5.2.4.1.1.2.3.3.4v.4zm5.5.8c-.1.1-.3.2-.4.3-1-.2-2-.4-2.9-.6 0-.2 0-.5.1-.7l3.3.6c-.1.2-.1.3-.1.4zm16.9 2.4c-1.1-.4-.8-.2-1.4-.9.5 0 1 .1 1.5.1 0 .3-.1.5-.1.8zm9.8-1.9c0 .4-.1.7-.1 1.1-8.8-1.3-17.7-2.5-26.5-3.8-10.7-1-21.4-2.1-32.1-3.1-9.7-1.6-21.6.2-31.1-2.3-16.8-4.3-43-6-59.5-4.3l-14.4-1.8c-7.9-.3-15.8-.7-23.7-1-5.5-.8-11.1-1.6-16.6-2.3-20.2.7-37.8-4.4-60.3-3.6-4.7.2-11.5-1.9-16.3-1.6-1-4.3 1.2-9.7 1-13.3.7-10.9 1.3-21.7 2-32.6 1-4.9 2-9.8 2.9-14.7 1.8-12.3 3.5-24.5 5.3-36.8 2.4-9.2 1.1-17.9 3.4-26.5.4-4.9.7-9.9 1.1-14.8l3.3-30.6c19.7 1.5 39.7 4.8 58.2 7.9 6.7.2 13.3.5 20 .7 15.3 1.4 30.6 2.7 45.8 4.1-.8 14.9-1.7 29.9-2.5 44.8-.1 4.3-.1 8.7-.2 13-3.3 18.5-6.6 43-6.1 62.8-.6 4.2-1.1 8.3-1.7 12.5-.2 5.9-.4 11.9-.6 17.8-.5 3.5-1.9 5.3-.3 8.5.6.7 1.5 1.1 2.1 1.7.8-.1 1.5-.1 2.3-.2.4-.6.8-1.2 1.3-1.8-.5-.9-2.2-.5-3.2-1.4-2.5-4.8 2.2-25.8 1.7-34.1-.5-10.5.5-31.7 3.5-43.6l2.1-24c.4-5.9.9-11.9 1.3-17.7-1-9.9 4-24.8 1.2-31.9.3-2.1.6-4.2.8-6.3 28.2 2.1 56.5 4.1 84.7 6.2 7.9-.9 18.7 1.7 25.6 1.1l15.9 1.2c8.4 2 27.7 0 32.5 3.5-1.7 12.4-3.3 24.8-4.9 37.2-.3 3.8-.6 7.6-.8 11.5-2.4 9-2.2 17.6-3.4 26.1-2.7 19.5-7 36.4-8.7 57.8-1 8-1.9 16-2.8 24-.7 2.7-3.2 7.8-2.2 10.6zm45.2 8.1c-.6 0-1.2-.1-1.9-.1v-.4c.3-.1.5-.2.8-.3.4.2.7.3 1.1.5v.3zm7.4.5c-.1.1-.3.2-.4.3-.7-.1-1.5-.1-2.2-.2v-.4c.3-.1.5-.2.8-.3.6 0 1.2.1 1.9.1-.1.3-.1.4-.1.5zm11 1.9c-2.2-.2-2.1-.1-2.2-1.3.7.2 1.5.4 2.2.5v.8zm25.1 2.6c-1.6-.2-1.8-.2-2.5-.9.9.1 1.7.1 2.6.2 0 .2-.1.5-.1.7zm5.1 1.1c-.1-.1-.2-.3-.3-.4-1.7-.1-2.5-.2-3.3-1 1.1.1 2.2.2 3.3.2.1.1.2.3.3.4.1.3.1.6 0 .8zm.4-.3c.4-.2.8-.4 1.2-.7.4.2.7.3 1.1.5-.8.1-1.5.1-2.3.2zm5.5.8c-1.7-.1-2.2-.2-2.9-1 1 .1 2 .1 2.9.2.1.3.1.5 0 .8zm4.4 1c-2.2-.1-2.7-.3-3.6-1.4 1.1.1 2.2.2 3.3.2.1.1.2.3.3.4.1.3 0 .6 0 .8zm2.2.5c-1.6-.4-1.2 0-1.8-1.3 1 .1 2 .1 2.9.2.4 0 .7.1 1.1.1-.5.8-1.3.6-2.2 1zm4.4.7c-1.1-.7-.6-.1-.7-1.2.2 0 .5 0 .7.1.1.4.1.8 0 1.1zm2.3.2c-.5-.2-1-.3-1.5-.5h-.4c.4-.2.8-.4 1.2-.7.2.1.5.3.7.4v.8zm1.1.1c-.2 0-.5 0-.7-.1 0-.2 0-.5.1-.7 1.1.1 2.2.2 3.3.2.1.1.2.3.3.4-1 .1-2 .1-3 .2zm9.2 1c-1.7-.1-3.4-.3-5.2-.4-.6-.6.1-.1.4-.7 1 .2 2 .4 2.9.6.6 0 1.2.1 1.9.1v.4zm7.7 1c-2 0-2.9.2-4-1 1.2.1 2.5.2 3.7.3.1.1.2.3.3.4.1 0 0 .2 0 .3zm8.5.9c-.7-.2-1.5-.4-2.2-.5-1.7-.1-2.2-.2-2.9-1 .6 0 1.2.1 1.9.1 1.8.2 2.3.4 3.3 1-.1.2-.1.3-.1.4zm2.6.2c-.4 0-.7-.1-1.1-.1 0-.2 0-.5.1-.7.4.2.7.3 1.1.5-.1.1-.1.2-.1.3zm4.8.4c-.1.1-.3.2-.4.3-1-.2-2-.4-2.9-.6-.2-.1-.5-.3-.7-.4.3-.1.5-.2.8-.3l3.3.6c-.1.1-.1.3-.1.4zm25.4 3.3c-2.6.3-8.5.3-11.1-1.2-1.7-.1-2.5-.2-3.3-1l14.4 1.8v.4zm5.9.8c-.4 0-.7-.1-1.1-.1 0-.2 0-.5.1-.7.4.2.7.3 1.1.5-.1.1-.1.2-.1.3zm1.2-.2c.2 0 .5 0 .7.1-.4.5-.1.2-.7-.1zm26.5-134.6c-.2 4.8-.5 9.6-.7 14.5-.9 13.4-1.7 26.9-2.5 40.3 1.4 12.3 0 32.4-1.6 42.6-2.1 13.5.3 26.2-4.5 36.8-14.3 1.7-29.5-4.5-45-5.1-17.2-.7-42.5-3.3-60.8-8.1-7.2-.8-14.5-1.6-21.8-2.3-10.5-1-20.9-2-31.4-3l-13.2-2.4c-5.6-.3-16.2.3-20.7-2.3.2-3.3.5-6.7.7-10l4.2-36.9c1.8-10.5 3.5-21.1 5.3-31.6l.9-12.9c1.1-6.7 2.2-13.5 3.3-20.2 0-1.3-.1-2.5-.1-3.7.7-5 1.5-10.1 2.2-15.1.2-11 1.6-26.3 4.6-38 4.2.7 8.3 1.4 12.5 2 8.8.5 17.5 1 26.3 1.6 3.9.4 7.9.8 11.8 1.2 12.9-.5 35.6 1.7 52.1 4.2 6.6.2 13.1.5 19.7.7 12.8 1.3 26.5.3 38.8 3.6 7.9 2.1 16 .3 21.7 3.4.2.1.5.3.7.4-.9 13.1-3.6 27.3-2.5 40.3zm8.4-126.2c-.4 3.2-.7 6.4-1.1 9.6.6 3.8-1.2 10.1-.4 15.6 1.1 7.7-1.6 15.3-1.7 23.3-.8 11-1.6 21.9-2.4 32.9-9.7-.6-24.8-.1-34.4-2.5-4.5-1.1-9.6-2.4-15.1-1.9l-17.4-.9c-8.3 1-20.7.5-29.3-1.8-7.4-2-16.9-.8-24.8-2.2-5.4-.1-10.9-.3-16.3-.4-7.1-.6-14.3-1.3-21.4-1.9-6-.4-14.4.6-19.2-2.2-2-.3-3.9-.5-5.9-.8 1.6-14.6 2.4-31.6 6.3-46 1.3-9.6 2.6-19.1 3.9-28.7.7-9 1.3-18 2-27 1.7-15.9 3.3-31.7 5-47.6 10.3.3 24.3 1.6 35 4.4 28.1 2.5 56.2 5.1 84.2 7.6 11.8.9 25.1.8 34.3 3.6 8.3 2.6 16.6.4 22.3 4.6-.7 10.7-1.3 21.5-2 32.2.9 8.1-1.3 20.4-1.6 30.1zm4.2-67.4c-14.6-.9-30.8-2.3-43.6-4.3-6.6-.4-13.1-.7-19.6-1.1-17.8-1.8-35.7-3.6-53.5-5.4-12.4-2.4-24.6-.8-36.2-3.7-6-1.5-14 .6-18.8-2.1-1.5-.2-2.9-.5-4.4-.7 1.1-6.9 2.3-13.7 3.3-20.6 1.8-9.5 1.8-19.4 4.3-29.1.7-8.4 1.5-16.7 2.2-25.1 4.3-15.4 4.3-39.3 7.5-51.9 2.4-9.6 1.8-18.9 4.2-27.6.7-3.9 1.3-7.8 2-11.8 0-.2 0-.5.1-.7 11.9.7 23.7 1.5 35.6 2.2 7.1.1 14.1.3 21.2.4 8.6 2.3 18.7 1.1 28 3.5 6.8 1.8 18.6 2.8 27 2 6.5-.7 14.2 1.9 20.8 1.1 12.9.9 25.9 1.9 38.8 2.8.9.2 1.7.4 2.5.6-11.3 56.2-16.4 114.8-21.4 171.5zM967 75.2c-1.9 12.9-3.9 25.8-5.8 38.6-.3 12.5-1.5 26.1-4.6 37.6-1.4 9.9-2.7 19.9-4 29.8-.8 3.3.1 7.4-1.8 9.9-9.1 5.2-32.6-3.2-45.6-1.5-9.9 1.3-15.9-.5-26.7-1.2-11.9-.8-25.9-1.2-38-3.9-7.8-1.8-19.7-1.7-28.2-1.3-11.6-.7-23.2-1.4-34.8-2.2.3-5.6 1.4-11.5 2.6-16.2l.9-12.9c3.4-15.5 5.7-43.8 5.7-57.6 0-10 3.8-21.8 3.7-29.9.6-5 1.2-10.1 1.9-15.1.2-4.2.4-8.4.5-12.6.6-2.1 1.6-5.4 1.3-7.3 2.4 0 4.7.1 7.1.1 10.9-1.2 21.5.6 31.5 1.9 3.2.4 15.4.9 16.2 1.9 2.1.2 3.5.6 3.7-.5 6.7 1.4 13.1 1 20.3 2.2 2.8.3 5.7.7 8.5 1 1.2-.3 6.5-1.6 9.7-.4 4.7 1.8 13 1.7 18.5 1.7 8.9 0 13 2.5 21.1 1.2 2.1.4 4.2.8 6.2 1.2l15.9 1.2c4.5 1.8 11.1 3.1 16.8 3.4-.8 10.4-1.7 20.6-2.6 30.9zm-56.2-39.5c0-.2 0-.5.1-.7.7.1 1.5.1 2.2.2.4 0 .7.1 1.1.1-.1.2-.3.5-.4.7l-3-.3zm6.3.5c0-.2 0-.5.1-.7h.4c0 .2 0 .5-.1.7h-.4zm2.6.2c0-.2 0-.5.1-.7.4 0 .7.1 1.1.1 0 .2 0 .5-.1.7-.4-.1-.8-.1-1.1-.1zm18.1 1.3c.4 0 .7.1 1.1.1 0 .2 0 .5-.1.7-1.2-.3-.8.2-1-.8zm7.7 1.7V39c.3-.1.5-.2.8-.3.4 0 .7.1 1.1.1 0 .2 0 .5-.1.7-.4 0-.7-.1-1.1-.1h-.7zm30.2-36.5c-3.2 11.6-5 25.7-5.3 36.4-12.4-2.6-28.9-.9-41.7-4.1L912.8 34c-2-.1-2.9-.4-4-1 .9-14.1 3-32.4 3.1-48.5 0-3.6 2.9-8.3 2.3-10.6 0-.4.1-.7.1-1.1 21.8 1.8 42.6 8.7 62.9 9.8-.6 6.7-1.1 13.5-1.5 20.3zM236-83.2c.2 0 .5 0 .7.1v-.1c-.2 0-.5-.1-.7 0zm-23.4-.6c-1.2.5-5.6.5-10.6.4 13.4 2.5 28.1-.3 42 3.4 3.7 1 7.1.2 9.9 1.8 2.4.1 1.6.1 2.3-1-8.8-3.3-20.6-3-32.1-3.8-3.9-.3-7.7-.5-11.5-.8zM183-85.3c.1.3.2.5.3.8 2.2 1.8 8 .9 13.2.7-5.6-.4-10.8-.9-11.7-1.4-.6 0-1.3 0-1.8-.1zm13.5 1.6c1.8.1 3.7.2 5.5.3h-.2c-1.5-.4-3.4-.4-5.3-.3zM181.4-85c0 .2 0 .5-.1.7.3-.1.5-.2.8-.3 0-.2 0-.5.1-.7-.2.1-.5.2-.8.3zm85.7 8.1c-2.2-1.7-7.5-1.7-10.3-1.9-.5.9 7.9 1.8 10.3 1.9zm45.2 2.9c0-.2 0-.5.1-.7-1.5-.1-2.9-.2-4.4-.3.5.3 1 .6 1.4.9.9 0 1.9.1 2.9.1zm5.1.4c-1-.3-2-.6-2.9-1-.7 1.2 1.6.9 2.9 1zm-3.6-.6c-.2 0-.5 0-.7-.1.2.1.5.3.7.4v-.3zm16.2 1.9c.2 0 .5 0 .7.1v-.4c-4.3-.4-8.6-.9-12.9-1.3-.7 1.4 10.9 2.2 12.2 1.6zm4.1.3c.2 0 .5 0 .7.1l-1.8-.9-1.5.3c.8.6 1.5.9 2.6.5zm-66.2-4.9c.1-.1.3-.2.4-.3-.2 0-.5 0-.7-.1.1.3.2.5.3.8v-.4zm70.3 4.8c1.7 1.2 5.9 1.6 8.4 1.7-1.6-1.2-5.9-1.6-8.4-1.7zm-56-2.6v-.4c-2.8-.5-5.6-.9-8.4-1.4 1.1 1.3 5.7.9 7.3 1.7.4.1.7.1 1.1.1zm72.9 5c-2-1.6-5.8-1.2-8.1-1.3 2.1 1.7 5 1.2 8.1 1.3zm17.3 1.9v-.4c-5.2-.8-10.3-1.5-15.5-2.3-.4.1-.8.2-1.1.3 2.3 1.9 8 .1 11.4 2 1.8.2 3.5.3 5.2.4zM160.2-84.3c-.2 0-.5 0-.7-.1.2.1.5.3.7.4v-.3zM297-73.6h.4v-.4c-5-.5-10.1-1-15.1-1.5 1.5 1.3 13 2.5 14.7 1.9zm3.3.6v-.4c-.9-.2-1.7-.4-2.5-.6.2.3.5.5.7.8.6.1 1.2.1 1.8.2zm210.5 16.9c3.7.2 7.5.4 10.2.2-3.5-.3-6.9-.3-10.2-.2zM303.2-72.4c0-.2 0-.5.1-.7-.9-.1-1.7-.1-2.6-.2l1.8.9c.2-.1.5 0 .7 0zm3.4.6c.4-.1.8-.2 1.1-.3.1-.1.3-.2.4-.3-1.5-.2-2.9-.5-4.4-.7.6.8 1.9.8 2.9 1.3zm3.6.3c1.9.1 3.7.3 5.6.4-.5-.4-.9-.8-1.4-1.2-1 .6-2 .3-4.1.1 0 .2 0 .4-.1.7zm-1-.5c.1-.1.3-.2.4-.3-.2 0-.5 0-.7-.1.1.2-.2.7.3.4zm9.9 1.5c1.2.1 2.5.2 3.7.3 0-.2 0-.5.1-.7-2.2-.2-4.4-.3-6.7-.5.9.2 1.9.6 2.9.9zm7 .5l-1.8-.9c-.7 1.1.5.8 1.8.9zm6.3.5c-.6-.2-1.2-.3-1.8-.5.8.9.2.3 1.8.5zm6.7.5c.2 0 .5 0 .7.1-.4-.2-.7-.3-1.1-.5.3.4.1.2.4.4zm19.9 2.5v-.4c.1-.1.3-.2.4-.3-.5-.2-1-.3-1.5-.5.2.9-.2.4 1.1 1.2zm10.3 1.1c.4 0 .7.1 1.1.1 0-.2 0-.5.1-.7-3.4-.4-6.9-.8-10.3-1.1 1.9 2 7 .3 9.1 1.7zm9.9 1.1c-2.1-1.4-4.9-1.2-8.1-1.3 1.8 1.1 5.4 1.2 8.1 1.3zm4.1.3h.4c-1.2-.3-2.4-.7-3.6-1-.7 1.1 1.3.7 2.2 1.3.3-.1.6-.2 1-.3zm2.6.2c-.6-.2-1.2-.3-1.8-.5.6.7.5.6 1.8.9v-.4zm.4 0c1.4.2 2.7.4 4 .7-.7-.3-1.5-.6-2.2-.9-.6.1-1.2.1-1.8.2zM401-62c-2.3-1.6-6.6-1.3-9.9-1.5 2.1 1.4 6.7 1.4 9.9 1.5zm471.1 36.5c.2-.9.4-1.7.6-2.5-.7-.1-1.5-.1-2.2-.2-.1.2-.3.5-.4.7-.1.7-.1 1.5-.2 2.2l1.5-.3c.2.1.4.1.7.1zm-443.8-33c-2-.3-3.9-.5-5.9-.8 1.3.9 3.3.7 5.9.8zm-208.3-4c-.8-1.9-1.2-2.4-1.2-3.8-2.3-1-3.6-2-6.2-2.3-.5 1.6-1 3.1-1.5 4.7 2.1 6.5 5 16.4 13.7 15.5-.3 3-1.6 2.9-3.2 3.8-.3 2.8.2 3.2 2.3 3.9l18.5 1.7h.4c-.2-.3-.5-.5-.7-.8.3-.1.5-.2.8-.3 1.3.6.6-.2 1 1.2h.4c1.5-4.5 2.7-9 3.1-12.8.5-4.1-.7-9.8 2.4-12.1-.4-.7-.4-.4-.6-1.5-5.6-.4-4.6 4.6-7.2 7.6 0 1.5-.2 1.5.6 2.3v.4c-1.2.1-.3-.6-1.1.3-2.4-2-3.7-11.2-5.3-14.5l-1.8-.9c-.4.2-.8.4-1.2.7-.5 3.5-1.2 6.8-.7 9.2-.1.7-.1 1.5-.2 2.2-2-1.4-2.1-4.1-4.1-4.4.3-.5.6-1 .9-1.4-2.5-1.5-4.4-3.3-5.9-5.6l-1.5.3-1.8 3.6c.3.8.6 1.5 1 2.3 0 .2 0 .5-.1.7-.3.1-.6 0-.8 0zm26.1 3.4c.4 0 .7.1 1.1.1v.4c-.4.2-.8.4-1.2.7-1-.5-.2-.3.1-1.2zm-2.1 3.2c.4.2.7.3 1.1.5-.3 1.1-.7 2.2-1 3.3v.4c-.2 0-.5 0-.7-.1.2-1.4.4-2.8.6-4.1zm-18.3 6.8v.4c-.7-.5-.6-.6-1-1.2 0-.2 0-.5.1-.7.5 0 1 .1 1.5.1-.3.5-.4 1-.6 1.4zm6.5 8v.4h-.4c0-.6.1-1.2.1-1.9.2.3.5.5.7.8-.2.2-.3.4-.4.7zm7.4-.2c-1.8-.4-1.4-.1-1.4-1.2.5 0 1 .1 1.5.1 0 .3 0 .7-.1 1.1zm-4-10.7c.3-.8.1-1.8-.6-2.6.2-2.7.2-4.8-.3-5.6-.1-.1-.2-.3-.3-.4.6-.3 1.3-.7 1.9-1 1.6 3.4 1 8.8 3.2 11.8 0 .2 0 .5-.1.7h-5.2c-.5-.8.7-1.4 1.4-2.9zm-2.4 2v.4c-1-.4-.4.2-.7-.8.2.1.4.3.7.4zm-.7 4.4c0-.2 0-.5.1-.7.1.3.2.5.3.8 2.7.1 4.8-.3 6.6.9v.4c-1.7 1.7-7.4-.2-9.6-.7.1-.2.3-.5.4-.7.7-.1 1.4 0 2.2 0zm-5.1-17.1h.4c-.2.4-.3.7-.5 1.1-.2 0-.5 0-.7-.1-.1-.1-.2-.3-.3-.4.3-.1.7-.4 1.1-.6zm4.4 11.5c0 .4-.1.7-.1 1.1-1.5-.2-2.9-.5-4.4-.7-1.4-.3-1.4-.4-2.2-.9.3-1.3.6-1.8 1.3-2.5-.2-3.4-1.8-4.6-2.4-8.3 4.6 2.2 5.5 7.1 7.8 11.3zm-7.9.9c0 .5-.1 1-.1 1.5-.1-.6-.2-1.3-.2-1.9.1.2.2.3.3.4zm-5.4-12.3h.4c0 .2 0 .5-.1.7h-.4c0-.2.1-.4.1-.7zm-2.4 8h-.4l-.3-1.5c.2 0 .5 0 .7.1v1.4zm4.9 4.1v.4c-1.3-.8.1-1.1-2.1-1.7 0-.5.1-1 .1-1.5.4 0 .7.1 1.1.1.5.9.6 1 1.4 1.6-.2.4-.4.7-.5 1.1zm1.3-2.9h.4c0 .2 0 .5-.1.7h-.4c0-.2 0-.4.1-.7zm-.3-1.1c0 .2 0 .5-.1.7-3.6-1-6.6-5.7-6.4-8.6 3.1 1.6 4.4 5.4 6.5 7.9zM931.9.8c.8-.6 1.6-1.1 2.4-1.7 0 0-.9-5.8 1-8.1.2-2.4 0-3.1-.8-4.5-1.2-.3-3.5.4-4.1.1-.8-.4-1.1-1.2-3.2-1.4-.9.8-1.9 1.9-3.1 2.4-.1 3.6 1 8.1 2.2 11 1.8.7 3.7 1.5 5.6 2.2zm-1.5-9.4c.4 0 .7.1 1.1.1-.4 1-.9 1.9-1.3 2.9 0 .2 0 .5-.1.7-.2 0-.5 0-.7-.1.3-1.2.6-2.3 1-3.6zm13.4 5.1c.2 4.5 4.2 2.2 5.6 5.2 6.7.3 4.2-7.9 7.5-11.7-.3-.6-.7-1.3-1-1.9-1.7-1.2-8.4-1.3-11.4-1.6-.7.9-1.4 1.9-2.1 2.8.3 1.2 1.4 2.3 1.6 3.1 0 1.4-.1 2.7-.2 4.1zm-69.3-3.9c2.8.1 5.7-1 7.9-.9 3.7.2 8.5 3 11.8 1.6 1.7-.1 1.6-.4 2.7-.9-.2-1.4-.4-1.7-.9-2.7-6.1-.9-13.1-2.6-19.8-3.3-.4.1-.8.2-1.1.3-.4.6-.8 1.2-1.3 1.8-.1 1.6-.1 2.2.5 3 0 .3.1.7.2 1.1zm-8.1-1.4c.1-1.7.1-2.7-.5-3.7-.6-.9-.9-1.2-2.1-1.7-.4.1-.8.2-1.1.3-.6.9-.5.9-1.6 1.4-.2 2.4.2 3 .8 4.5 2.3.1 2.9-.3 4.5-.8zM277.8-55.3c.1-.1.3-.2.4-.3-.2 0-.5 0-.7-.1.2.2-.1.7.3.4zm-108.7-7.9c-.4.1-.8.2-1.1.3v.4c1.2-.2.8-.3 1.1-.7zM377.7-22c.9.4 2.2-.4 2.5.6 3.4-.3 5-2.3 7-4.3 1.9 4.4 5.8 7.4 7.3 12l1.5-.3c-.2-6.6-4.2-10.2-4.9-14.1.4-2.4.9-4.9 1.3-7.3-.5-2.5-7.3-11.5-10.3-12.3-2 .7-4.1 1.4-6.1 2.2-6.3 5.3-6.3 20.1 1.7 23.5zm1.5-21.5c.5 0 1 .1 1.5.1 1.4 2.4 3.7 2.3 5.7 4.1 1.1 1.8 2.2 3.6 3.3 5.5-.2.7-.4 1.5-.5 2.2-.8 1-2.4.8-3.1 1.6-2.1 2.5-.6 3.9-4.1 4.9-1.1 0-2.3.1-3.3.1-6.1-6.8-6.6-12 .5-18.5zM203.3-17.6c0 .2 0 .5-.1.7.9.1 1.7.1 2.6.2.8-2.7 5.7-.1 9.7-.8 6.9-1.1 18 2.6 23 .2 1 .4.4-.2.7.8 5.9-.2 10.2.7 17.4 1.3h5.2c2.5 1.1 8.8 3.9 12.1 2.4.1.4.2.8.3 1.1 1.5 1.1 6.1-.2 7.8.6 2.2.1 2.5-.2 3.8-.8.5-4.2.7-14.1 1.7-21.3 0-.2-.1-.3-.1-.5h.2c.5-3.2 1.2-5.8 2.2-6.9.2-2.2.2-3.9-.4-5.2-5.3-.4-17.9-.4-21.7-2.7-3.3-.3-3 .5-4.6 1.9 0 .6-.1 1.2-.1 1.9 1.7.4 1.6.7 2.6-.6.1.4.2.8.3 1.1 1.1-.1 1.2-.1 1.9-.6 0 .2 0 .5-.1.7 2.5.2 2.1.3 2.3-1.3.2 0 .5 0 .7.1 0 .6-.1 1.2-.1 1.9 2.8.2 4.3.2 6.1-1.4h.4c-.4.3-.8.7-1.2 1v.4c3.6.3 6.7.5 8.4 1.7.4.2.7.3 1.1.5.7 5.7-.8 13.7-1 18.9-.5-.2-1-.3-1.5-.5.5 1.2 0 .7 1.4 1.2-.3 2-.5 3.9-.8 5.9 0 .2 0 .5-.1.7-1.9-.1-3.7-.3-5.6-.4-2.2 0-2.6-.4-2.9-1v-.4c-4.9-.7-19.4-4-23.2-2.4h-.4v.4c4.1.2 8.2-.1 11.1 1.6.5 0 1 .1 1.5.1-2.1 2.3-8.8.2-11.9.3-10.3.1-26.1-2.7-36.3-1.9-2.8.2-5.7-1.7-7.4-.2-.5-.3-1-.6-1.4-.9 2.5-2.6 15.4.3 18.7-.9.2 0 .5 0 .7.1v-.4c-6.1-.2-12.1-.4-18.2-.6-8.4 1-17.1 1.5-23.7-1.7-.2 1-.4 2-.6 2.9-.2 0-.5 0-.7-.1 1.3-10.4-1.8-21.9-1.8-32.1 1.3.1 6.8-.6 6.8-.6 1.2 1.2 11.9 3.8 14.2 4.4.3-.7.6-1.5.9-2.2-.2-.8-.4-1.5-.6-2.3-6.9-1.5-18.2-3.6-23.9-4-1.6.2-1.8.5-2.7 1.3-.8.9 3.1 8.3 3.7 9.9 2.3 5.9 1 21.4.9 23.5-.1 2.5-.2 4.5-1.2 5.5l.3 1.5c4.7 1.1 19.5-2.2 24.3-2.3-.2.1-.4.2-.7.3zm75.5-26.1c-.4 0-.7-.1-1.1-.1 0-.2 0-.5.1-.7.4 0 .7.1 1.1.1 0 .2-.1.4-.1.7zm6.8 29.5c-.1.1-.3.2-.4.3v.4c-.1-.4-.2-.8-.3-1.1.2.1.5.3.7.4zm-5.2.4c.4 0 .7.1 1.1.1-.6 1.1-.6.7-.5 1.8-.2-.1-.5-.3-.7-.4 0-.5 0-1 .1-1.5zm-5.9-.5c.2.1.5.3.7.4h-.4c-.1.1-.3.2-.4.3 0-.2 0-.4.1-.7zm-1.5-.1h.4c-.1.1-.3.2-.4.3s-.3.2-.4.3c-.1-.4-.2-.8-.3-1.1.2.2.5.4.7.5zm-3.8.5c.4-1.6.5-1.2 1.3-2.2.3.8-.6 1.8-.9 2.2v.4c-.2 0-.5 0-.7-.1l.3-.3zm-3.2-1c.1.4.2.8.3 1.1-.2 0-.5 0-.7-.1.1-.3.2-.6.4-1zM232.7-18c.1.3.2.5.3.8-.2 0-.5 0-.7-.1.1-.3.3-.5.4-.7zm-31.1-32.8c0 .4-.1.7-.1 1.1h-.4c-.1-.4-.2-.8-.3-1.1h.8zm-8.7-1.8v.4c-1-.4-.4.2-.7-.8.2.2.4.3.7.4zm-12.5 2.1h-.4c0-.2 0-.5.1-.7h.4c-.1.2-.1.5-.1.7zm2 33.6h-.4c-.4-1.2-.2-.6-.3-1.5.2.1.5.3.7.4.1.4.1.8 0 1.1zm23-3.9c.4.2.7.3 1.1.5v.4c-.4 0-.7-.1-1.1-.1v-.8zm680 23.1c-2.6-.7-3.9-1.3-6.1-2.7-2.6 1.1-2.8 1.2-4.7 3 .1 1.7.4 2.1 1.3 3.1.5 1.7 9.1-.4 11.8 1.6 3.5.3 6.9.6 9-.5.1-2.4-.4-2.9-1.6-4.2-1.7-1-6 .7-9.7-.3zm-18.8 2c0-2.4-1.5-3.3-3.4-4-1.4 1.2-2.1 2.4-3.2 3.8.3.5.7 1 1 1.6 3.1.3 3.8-.4 5.6-1.4zm54.8 18.1c3.4.5 8.3 1.4 11.2.1 2.1-1.7 2.5-7.2 2.7-11.7-.3-.5-.7-1-1-1.6-4.2.2-5.9 1.2-10.7-.8-.7.9-1 1.5-2 2.1-.6 3.5.1 8.6-.2 11.9zm4.8-4.1s-.6-1.4-.6-1.5c1.3.4 1.8.5.6 1.5zm22.9-7.7c-1.2.8-2.4 1.6-3.5 2.4 0 .2 0 .5-.1.7.3-.2.5-.5.8-.7.8 2.6.2 6.7.4 10.1 1.8.8 4.5.3 5.4 1.9 1.8.1 2.4-.1 3.4-.5.2-4.1-.3-6.2 1.8-8.8.2-2 0-3-.4-4.1-2.7-.3-5.2-.6-7.8-1zm3.5 7.7c-.2.4-.3.7-.5 1.1-.5 0-1-.1-1.5-.1.5-2.2.7-2 1.7-3.2.2.1.5.3.7.4-.1.6-.3 1.2-.4 1.8zm-740.3-52c-1.5-.7-2-2.3-2.3-3.9-5.1-.3-8.5 2-11.3 1.8-.5 0-1-.1-1.5-.1.3-.1.5-.2.8-.3.1-.7.1-1.5.2-2.2-.3.1-.5.2-.8.3-.4 0-.7-.1-1.1-.1.7-2 1.5-1-.2-2.6-1.2.7-1.3.3-2 1.7-.6 1.5.5 5.5 1.3 7.1 0 .2 0 .5-.1.7 2.6.3 7.5-1.7 9.1-2.7.9.2 1.7.4 2.5.6.2.8.4 1.5.6 2.3 2.3 2.7 13.7.9 18.1 2.1 2.6.7 5.7.9 6.7-.3.1.4.2.8.3 1.1.1.1.2.3.3.4 0-.5.1-1 .1-1.5.7 1 .3.4.3 1.5 5.8.2 25.2 5.7 32.1 3.1 1.7-.1 1.6-.4 2.7-.9l-.6-1.5c.5-.7.6-.6 1.2-1h.4v-.4c-4.1-.3-8.3 1-12.3.6-6.9-.7-18.2-2.3-26.4-4.5-6-.4-12.1-.8-18.1-1.3zm-8.8-1.7c-.1.1-.3.2-.4.3 0-.2 0-.5.1-.7.2.1.5.3.7.4h-.4zm2.2.1h-.4c.2-.4.3-.7.5-1.1.2.1.5.3.7.4-.2.3-.5.5-.8.7zm19.4 5.2h-.4c0-.5.1-1 .1-1.5.4.2.7.3 1.1.5-.4.6-.4.4-.8 1zm28 3.5c.2.1.5.3.7.4v.4c-.2 0-.5 0-.7-.1-.1-.2-.1-.4 0-.7zm-13.6-2.5c2.2.5 2.4 1.4 4.4 1.1 0 .4-.1.7-.1 1.1-1-.2-2-.4-2.9-.6-.6 0-1.2-.1-1.9-.1.2-.5.3-1 .5-1.5zm48.2-3.5c0-.4.1-.7.1-1.1h-.2c0 .2-.1.3-.1.5.1.1.2.4.2.6zm679.1 50.1c-.5-.3-1-.6-1.4-.9.5.9-.1.2.7.8-.6.8.1.2-.8.7v.4c1.2-.4.7-.3 1.5-1zM894.1 20c.2 0 .5 0 .7.1-.1-.8-.1-1.5-.2-2.3-.5-1.3-2.2-2.8-3.5-3.2-1.8.2-3.5.5-5.3.7-4.2-.9-6.7-2.4-11.3-2.7-.5.8-1 1.2-1.6 1.8-.2 3.6 1 3.3 2.2 5.4 2.2-.1 17 .9 19 .2zm-28.9-6.5c-.6 0-1.2-.1-1.9-.1-.4.2-.8.4-1.2.7-.1.2-.3.5-.4.7 0 1.1.1 2.3.1 3.3.4.3.7.6 1.1.8 2.2 0 2.1-.5 3.4-1.2-.1-1-.1-2-.2-3-.6-.6-.5-.4-.9-1.2zM270.6-28.3c-.3.4-.6.7-.8 1.1v.4l1.5-.6c-.4-1 .1-.3-.7-.9zm-.9 2.2v-.4c-.2 0-.5 0-.7-.1.3.2.5.3.7.5zm12.7 4.6h.4c-.1-.3-.2-.5-.3-.8 0 .3 0 .6-.1.8zm-106.9-7.8c-.2.7-.4 1.5-.5 2.2.2 0 .5 0 .7.1 0-.8-.1-1.5-.2-2.3zm1.7 2.8c.4 0 .7.1 1.1.1-.2-1.8-.2-1.5-1.7-2-.3 1.5-.3.8.6 1.9zm7.7 1.2c.4 0 .7.1 1.1.1-.1-.1-.2-.3-.3-.4-.5-.6-.2-.4-1.1-.8.1 1-.2.1.3 1.1zm-10.7-.7c.3.8.3.6.7 1.2.2 0 .5 0 .7.1l-.6-1.5c-.3 0-.6.1-.8.2zm53.2 4.9c-.2 0-.5 0-.7-.1 2.6 1.3 7-.6 10.8 0 4.7.6 9.3 1.2 14 1.8-2.9-2.2-14.9-2.2-19.5-2.5-1.6.4-3.1.6-4.6.8zm-50.7-3.6c-.2 0-.5 0-.7-.1.6.4.1.5.7.1zM261-13c-.6-.9.1-.3-1.1-.8-.6 1-.1.5 1.1.8zm-35.5-2.2c-.2 0-.5 0-.7-.1.2 0 .4 0 .7.1zm3.3-.5c-1.1.2-2.3.3-3.4.5 1.7.1 3.4.3 5.2.4l-1.8-.9zm3.3.6c5.4.5 10.8 1 16.3 1.6-2.2-1.5-8.6-1.5-12.9-1.7-1.1 0-2.2 0-3.4.1zm19.3 1.4c.2 0 .5 0 .7.1v-.4c-.5 0-1-.1-1.5-.1-.6.1-1.3.2-1.9.2 1 .1 1.8.1 2.7.2zm5.9.8v-.4h.4v-.4c-1-.1-2-.1-2.9-.2.3.5.7.3 2.5 1zM209.5-16c0-.2 0-.5.1-.7-.7-.1-1.5-.1-2.2-.2.6.7.6.7 2.1.9zm1.9-.3c1.2.2 2.4.4 3.7.6l-1.8-.9c-.7.2-1.3.3-1.9.3zm11.5.9c-2.1-.3-4.2-.6-6.3-.8.5 1.5 3 1.1 6.3.8zm1.4.5v-.4c.1-.1.3-.2.4-.3-.2 0-.5 0-.7-.1.1.2.2.5.3.8zM353.7-4.8c-.2 0-.5 0-.7-.1.2.1.5.3.7.4v-.3zm372.6 51.7c-3.5 3-10.9.1-16 .3-3.8-.3-7.6-.6-11.5-.8-9.6.9-24.4.8-34.5-1.8-4.8-.5-9.6-1-14.4-1.4l-3 .9c-.1.7-.1 1.5-.2 2.2 0 0 14.8.5 17.8.2 7.1-.8 20.3 2.2 29.3 1.8 7.8-.4 16.3.2 21.8 1.2 3.7.7 10.5-1.5 12 3.1.6-.3 1.3-.7 1.9-1-.2-2.4-1.2-3.1-2.3-4.6-.2-.1-.5-.1-.9-.1zM363.4 26.4c12-1.5 24.4 1.8 38.1 2.4-4.1-2.7-10.7-.8-17.3-2.7-5.6-1.7-14-3.3-20.1-4.4-.7 1-.9 1.2-2 1.7l.3 1.5c.3.8.5.8 1 1.5zm68.1 4.9l2.4.3c-.8-.2-1.6-.3-2.4-.3zm0 0c-3.1-.4-6.3-.9-8.9-1 2.5 2 5.5.9 8.9 1zm10 4.5c0-.4.1-.7.1-1.1.7.1 1.5.1 2.2.2-.1-.8-.1-1.5-.2-2.3-.5-1.2-.8-1.2-2.1-1.7-2.1.8-4.7.9-7.6.6.5.1 1 .3 1.6.5 2 .8 4.4 2.6 6 3.8zm-34.9-6.2c-1-.3-2-.6-2.9-1 .4.3.7.6 1.1.8.6.1 1.2.1 1.8.2zm1.2-.7c-.2 0-.5 0-.7-.1.2.1.5.3.7.4v-.3zm5.5 1.2c-1-.7-2.3-.9-4-1 .4.3.7.6 1.1.8.9 0 1.9.1 2.9.2zm4.8.3V30c-1.5-.2-2.9-.5-4.4-.7.5.3 1 .6 1.4.9 1 .1 2 .1 3 .2zm24.1 5.8c-.1-.3-.2-.5-.3-.8-.6.2-.3.6.3.8zM220 34.6c.2-.5.3-1 .5-1.5l1.5-.3c1.4.1 2.7.2 4.1.3-.1-.1-.2-.3-.3-.4.8-2.4 6.5-.4 10.5-1.1 8.1.3 16.3.7 24.5 1 2.6 0 3.6.1 4.3 1.8 2 .3 2.7.5 4.1-.4.4 0 .7.1 1.1.1-.3.7-.6 1.5-.9 2.2v.4c2 .2 3 0 4.1-.4-.2-1.1-.2-.8-.6-1.5 1.2-.3 1.2-.5 2.6-.6-1.9-2.6-17.8-2.4-22.4-3.1-3.9-.2-7.9-.3-11.9-.5-3.1.1-10.7.2-15.3.4-3.9-.3-7.9-.6-11.9-.9-2.9-.2-5.9-.4-8.9-.7-1.2.2-.9.3-1.9.6-.1 2.7.6 3 1.5 4.6 5 0 10.3-1.9 15.3 0zm51.6 1.1c0 .2 0 .5-.1.7-.8-.7-.3.1-.7-1.2.3.3.5.4.8.5zm-3.9-2.5h.4c0 .2 0 .5-.1.7h-.4c0-.2.1-.4.1-.7zm-50.9-1.5h.4c-.1.1-.3.2-.4.3-.1.1-.3.2-.4.3-.1-.4-.2-.8-.3-1.1.3.2.5.4.7.5zm-8.9.5c.4 0 .7.1 1.1.1v.4c-.4.1-.8.2-1.1.3-.1-.3-.1-.6 0-.8zm-13.8-5.1c-.6 0-1.2-.1-1.9-.1-1.2 1.6-1.8 3-3 5 0 1.7.2 1.8.5 3 .6.2 1.2.3 1.8.5.4-.2 1.2.2.8-.7h-.4c.9-1 2-.9 3-.5.8-2.5 0-4.2-.8-7.2zm-1.1 5.1c-.4 0-.7-.1-1.1-.1.3-.7.6-1.5.9-2.2.8.6.2-.1.7.8.4.5-.2.6-.5 1.5zm504.7 34.2c-2.3-.4-7.1-1.4-8.4-1.4-2.8 0-5.7.1-8.6.1-8.1-2.4-21-3.8-30.9-4.5-.4.2-.8.4-1.2.7-.1.2-.3.5-.4.7 0 2 .2 1.9.9 3 2.9 0 4.9-.8 7.9-1.3 5.9.4 11.9.9 17.7 1.3.7.3 1.5.6 2.2.9 9.7-.9 28.3 1.3 37.6 4.2.1-.1.3-.2.4-.3 0-1.1-.1-2.3-.1-3.3-5.2-.1-10.8.9-17.1-.1zM363.2 44.3c1.6 1.1 14.9.5 18.1 1.3l9.3.3h.4c-5.1-3.4-20.7-2.4-26-5.2-.7.6-1.4 1-2.3 1.3-.1 1.5-.2 1.5.5 2.3zm-120.6-9.6v-.4c-.6-.2-1.2-.3-1.8-.5 0 .2 0 .5-.1.7.7.2 1.3.2 1.9.2zm148.7 11.6h-.4v.4c2.9.3 8.8.1 9.3.3 2.6 1.3 11.4 2.8 14.7 2.9 3.6.3 7.1.5 10.7.8 2.8.9 2.7 1.8 6.2 1.6-.1-.8-.1-1.5-.2-2.3-8.8-.7-18.9-2-26.9-2.7-4.9-.5-9.4-2.9-13.4-1zM194.6 35c-.1-.3-.2-.5-.3-.8-.6.1-.3.6.3.8zm-1.1-.1c-.2 0-.5 0-.7-.1.2.1.5.3.7.4v-.3zm516 43.4c-1.8.7-4.3-.1-6-.1-11.4.6-23.8-2.5-34.9-1.4-4.4.4-8.3-2.3-11.9-.5-.2 0-.5 0-.7-.1-.1.2-.3.5-.4.7.1 1.9.3 1.6.9 2.7 4.5.3 6.7-1.4 10.9-1.8 7.1-.7 18.4 1.9 25.6 1.1 5.3-.6 15.8.4 17.7 2.4l1.5-.3c-.1-.8-.1-1.5-.2-2.3-.8 0-1.7-.2-2.5-.4zm-329-16.8c3.1-.2 5.3 2.1 7.4.2 0 .2 0 .5-.1.7 2.8.8 6.9 1.5 7.3 2h.4c-.5-5-21.4-4.2-25.7-5.2-3.1-.3-6.2-.7-9.2-1-.5.8-.8.9-1.6 1.4 0 .5-.1 1-.1 1.5 5.5 1.5 16 .8 21.6.4zm-104.3-3.1h-20.5l12.6.9c3.4.2 3.9 1 5.4 2.6.6.2 1.9-.4 3-.5-.3.1-.5.2-.8.3 0 .2 0 .5-.1.7.6-.2 1.3-.4 1.9-.6.8.7.3-.1.7 1.2 1.8-.1 3.5-.2 5.2-.4-.2-.8-.4-1.5-.6-2.3.6-.1 1.3-.2 1.9-.2-2.2-1.5-5.6-1.5-8.7-1.7zm6.1 3.8h-.4c0-.2 0-.5.1-.7h.4c-.1.2-.1.4-.1.7zm-44.7 1.2c-1.7-1.2-6.4-1.5-7-.9-.5 0-1-.1-1.5-.1V62c1.4-.4 1.9-1.7 3.1-2 .3-.1.5-.1.7-.1-3.5 0-6.9 0-9.3.3l-15.9-1.5c-.8.4-.9.6-1.6 1 .2 1.1.3 2.3.5 3.4 0 .2 0 .5-.1.7 9.5.9 19.6-1.1 31.1-.4zm-10.3-1.5c.5 0 1 .1 1.5.1-1 .2-2 .4-3 .5.4-.2 1-.4 1.5-.6zm-17.2 1c.2.1.5.3.7.4-.1.1-.3.2-.4.3-.2 0-.5 0-.7-.1.1-.2.3-.4.4-.6zm22.9-3h1.1c-.4-.1-.7-.1-1.1 0zm3.3 0c0 .5-.1 1-.1 1.5.5.2 1 .3 1.5.5h.4c-.4-.8-.6-.9-1-1.6 2.6-.2 5.2-.4 7.8-.5 2 .2 2.1-.1 2.2.9 1.3-.4.6.2.8-1.1 2.2-.6 5.9-.7 7.4.5v-.4c.2-.4.3-.7.5-1.1-1.7-.1-3.4-.3-5.2-.4-3.2 1.6-10.1 1.6-16.5 1.5.8.3 1.4.5 2.2.2zm48.2 2.4c-.1-.3-.2-.5-.3-.8 0 .2 0 .5-.1.7.2.1.3.1.4.1zm-15.6-.4c1.5.1 2.9.2 4.4.3-1.6-1.1-2.7-.8-4.4-1.4.1.4 0 .8 0 1.1zm-2.2-.5c0 .2 0 .5-.1.7.7.1 1.5.1 2.2.2v-.4c-.5-.3-1-.6-1.4-.9-.2.2-.4.3-.7.4zm-4.1.8c.2 0 .5 0 .7.1 0-.2 0-.5.1-.7-.7-.1-1.5-.1-2.2-.2-.3.1-.5.2-.8.3.7.2 1.5.3 2.2.5zm-8.2-.2c1.3-.1.9-.2 1.2-.7-.4.1-.8.2-1.1.3-.1.1-.1.3-.1.4zm3.4.2v-.4c-.4-.2-.7-.3-1.1-.5-.7 1.1-.1.7 1.1.9zm-105.8-8c0 .2 0 .5-.1.7.1-.2.1-.5.1-.7zm37.2 4.9c.1 1.9.3 1.6.9 2.7 2.4 0 2.4-.6 3.8-1.6-.4-1.6-.9-2.4-2.4-3.1l-1.5.6c-.9.5-.2-.1-.8.7v.7zm60.4 2.9h-.4v.4c.9-.1 1.8-.1 2.6-.2.6 0 1.2.1 1.9.1v-.4c-.9-.2-1.7-.4-2.5-.6-.6.3-1.1.5-1.6.7zm9.7 0c-.2 0-.5 0-.7-.1.2.1.5.3.7.4-.1-.1 0-.2 0-.3zm-15.7.3v.4c.6 0 1.2.1 1.9.1v-.4c-.4-.2-.7-.3-1.1-.5-.3.2-.5.3-.8.4zm3.3.3v-.4c-.2 0-.5 0-.7-.1.3.2.5.3.7.5zm-6.3.6c-.5-.3-1-.6-1.4-.9-.8 1.1.1.7 1.4.9zm-18.2 29.9c1.1.1 2.2.2 3.3.2-.1-.3-.2-.5-.3-.8.7-1.7 1.3-1.4 2.3-.6.7.1 1.5.1 2.2.2-.2-.1-.5-.3-.7-.4v-.4c2.8.7 13.6-.3 13.8-.1 1.7.4 4.3-1.5 5.2 0 .5 0 1 .1 1.5.1-.2-.3-.5-.5-.7-.8v-.4c2.7.3 9.3 2.2 10.3 1.9 2.7-.9 7.8-1.4 10.1-.8 5.1 1.3 7.4 3.2 13.9 4 .1-.2.3-.5.4-.7 0 0-.2.4-.4.7 1 .1 2.1.2 3.3.3-.4-.2-.7-.3-1.1-.5l.9-1.8c1.7.1 2.4.1 3.4-.5h.4v-.4c-1.9.1-3.5.4-5.2-.8-1.4-.3-1.4-.4-2.2-.9-3.7 1.5-10.3-1.4-15.6-.8-10.9 1.3-22-1.4-32.3-.1-6.2.7-19.4-3-22.5-2.4-1.2.2-.9.3-1.9.6-.6 1.9-.4 2.7-.7 4 4.1 2.4 8.9-.3 12.6 1.2zm-32.3-.1c2.8.1 2.7-.6 4.5-1.2-.1-.1-.2-.3-.3-.4 0-2.3-.4-2.1-1.2-3.4-.7-.1-1.5-.1-2.2-.2-1.1 1.3-2.1 1.9-1 4 0 .5.1.8.2 1.2zm93.1 2.3zm-6.1 28.6v.4c2.5-.4 6.1-.1 8.5.3.6-.5.3-.4 1.2-.7v-.4c-.8-.5-.8-.6-2.2-.9v-.4c.6-.1 1.3-.2 1.9-.2 0-.2 0-.5.1-.7-7.8-2.7-18.4.2-28.2-.6.6.9-.1.3 1.1.8-.5.7-.6.6-1.2 1-.1-.4-.2-.8-.3-1.1-11-2.8-30.9-.2-39.4-5.8-2.1 0-2.4.5-3.8 1.2-.2 2.7.2 2.8 1.2 4.2 4 .6 9 1.1 11.9.5-.3.1-.5.2-.8.3 2.1.2 4.2.3 6.3.5-.4-.3-.7-.6-1.1-.8-.1-.3-.2-.5-.3-.8h.4c2.1-.7 6 1.1 7.4.9 1.9.4 1.8.3 2.1 2 .2-.5.3-1 .5-1.5 2.1.2 1.9.2 2.5 1.7 1.9.3 3.7.5 5.5.8h.4c-.1-.3-.2-.5-.3-.8 0-.4.1-.7.1-1.1 3.4-.3 7.7 1.3 10.4 0 .3-.1.5-.2.8-.3-.5-.2-1-.3-1.5-.5h-.4c1.4-.9 4.3.2 5.6-.7 1.3.4.4.2 1.1.8v.4c.4-.2 1.2.2.8-.7h-.4c.4-.2.8-.4 1.2-.7 2.6.1 3.8.4 5.1 1.5-.4.8-.2.6-.8 1.1v.4c1.3 0 2.5-.1 3.7-.1 0-.2 0-.5.1-.7h-.4c.6-.2 1.3-.4 1.9-.6.2 0 .5 0 .7.1-.7 1-.4.6-1.4 1.2zm3.8-1.2c.2.1.5.3.7.4h.4c0 .2 0 .5-.1.7-1.5-.5-1 0-1-1.1zm-5.7 1.1c-.6 0-1.2-.1-1.9-.1 0-.2 0-.5.1-.7.6 0 1.2.1 1.9.1-.1.2-.1.4-.1.7zm-82.5-10.1l-2.4 2.4c.2 1 .4 2 .5 3 .4-.1.8-.2 1.1-.3 1.8 0 2.1-.2 3.4-.5.2-2.9-.6-3.9-2.6-4.6zm96.3 9.2c-.1-.3-.2-.5-.3-.8-.6.1-.3.6.3.8zm-18.1-1.3c-1 .2-2 .4-3 .5 1.2.7 2.8.7 4 1v-.4c.1-.2.3-.5.4-.7-.4-.1-.9-.3-1.4-.4zm-2 2.1l3.3.6c-.9-.3-1.7-.6-2.5-.9-.3.1-.6.2-.8.3zm-3.3-.3c.2.3.5.5.7.8h.4c-.7-.9 0-.3-1.1-.8zm-8.3.9c.4 0 .7.1 1.1.1v-.4c-.4-.2-.7-.3-1.1-.5.1.3 0 .6 0 .8zm-109 10.7c0 .2 0 .5-.1.7l.1-.1c.1-.2.1-.4 0-.6.1 0 .1 0 0 0zm45.8 9.3c-.4-1.1-.8-1.1-1.4-2-.4 0-.7-.1-1.1-.1-.4.1-.8.2-1.1.3-.3.4-.6.7-.8 1.1-.1 2.2.2 2.5.8 3.8 2.6.2 4.4-1 3.6-3.1zm98.2 11.2h.4c.1-.1.3-.2.4-.3l-.3-1.5c-5-3.9-18-.5-25.1-2.2-4.1-.3-8.1-.6-12.2-.9-13-.2-30.7-1.1-41.9-6-.9.8-1.9 1.6-2.8 2.4 0 1.1.1 2.3.1 3.3 4.6 1.1 10.7.9 15.2.7-.2-.3-.5-.5-.7-.8v-.4c1.8.3 1.5.1 2.2 1.3.4 0 .7.1 1.1.1-.2-.1-.5-.3-.7-.4 0-.2 0-.5.1-.7.7.2 1.5.4 2.2.5 0 .4-.1.7-.1 1.1.9-.6.3.1.8-1.1 2.2.6 2.9-.3 4.8.7.2 0 .5 0 .7.1-.1-.3-.2-.5-.3-.8 5.1 1.1 8.4 3.4 15 2.9-.7-.2-1.5-.4-2.2-.5v-.4c.9-.4 1-.3 1.6-1 1.7.5 2.3.6 2.8 2.1.5-.2.3-.1.4-.3.7-1.4 1.1-.8 2.3-1.3h.4v-.4c-1 .1-2 .1-3 .2-.1-.1-.2-.3-.3-.4 0-.2 0-.5.1-.7 2.2.2 4.4.3 6.7.5v.4h-.4c-.7-.1-1.5-.1-2.2-.2-.1.1-.3.2-.4.3 1.5 1.5 3.6.5 5.1 1.1.2 0 .5 0 .7.1 0 .4-.1.7-.1 1.1-1.7-.3-3.4-.5-5.2-.8.4.3.7.6 1.1.8 2 .1 3.9.3 5.9.4-.3-.9-.2-.6-.7-1.2v-.4c.4-.1.8-.2 1.1-.3.4 1.1.5.7.2 1.9.4 0 .7.1 1.1.1 1-.5.2-.6 1.2-1.4 2.4.2 4.9.4 7.4.5v.4c-2.2 0-4.5-.1-6.7-.1 0 .2 0 .5-.1.7 2.4 0 4.7.1 7.1.1.9.1 1.7.1 2.6.2-.1-.1-.2-.3-.3-.4.9-1.1 1.7-.6 2.3-1 1.5.5 1.3.3 1.8 1.6.5 0 1 .1 1.5.1-.3-.4-.7-.8-1-1.2.1-.1.3-.2.4-.3 3.4 1.3 4.7 2.4 9.9 2.6l-1.8-.9h-.4c.6-.1 1.3-.2 1.9-.2-.1-.4-.2-.8-.3-1.1.7.8.2 0 .6 1.3zm-30.3-3.7c-.4.1-.8.2-1.1.3-.2-.3-.5-.5-.7-.8.6 0 1.2.1 1.9.1-.1.1-.1.3-.1.4zm17.3 2.7c-.2.4-.3.7-.5 1.1 1.1-.6 1 0 .5-1.1zm530.5 57.6c4.4.4 8.9.9 13.3 1.3 11.7-1.2 29.2 2.8 41.4 3.7 6.5.5 27.7 1.3 29.1 4.3 2.8.1 2.6-.5 3.9-2 0-1.6-.2-1.6-.6-2.6-8 1.1-18.1-1.3-24.1-.6-8.6.9-19.7-.7-28.4-2.8-3.7-.1-7.4-.3-11.1-.4-11.9-3-25.2-2.2-36.8-4.5-1.7 1.9-2.7 1.9-1.4 4.4 4.2.3 10-.3 14.7-.8zm-321.2-20.8c18.1 1 39.9 2.4 57.2 6 3.4.7 22 3.5 22 3.5.8-.4.6-.5 1.2-1-.7-3.2-15.5-1.9-21.7-3.1-16.9-2.5-33.9-4.9-50.8-7.4-2.7-.8-5.3-1.6-8-2.4-.7.6-1.3 1.2-2 1.7.4 1.9 1.1 1.6 2.1 2.7zm24 12.6c-5.1-.7-11.1-.2-15.9-1.9-.8.2-1.5.4-2.3.6-.9.4-1.8.9-2.7 1.3 1.2 5.7 8.4.3 13.3 1.3 9.6 2.1 24.8.6 34.7 3.6 2.9.9 5.3-.1 7 1.6 1.8.1 2.4-.1 3.4-.5 0-.4.1-.7.1-1.1-6.2-1.7-15.4-.5-22.5-2.4-5.1-.8-10.1-1.7-15.1-2.5zm370.9 33.3c-.1-1.4-.2-1.4-.6-2.3-28.3-2.1-52.2-6.5-81.9-8.6-1 .1-2 .1-3 .2-.8.6-1.6 1.1-2.4 1.7l.3 1.5c5 1.3 8.7-1.8 13.8-.9 15.7 3 33.4 2.5 49.1 5.1 5.7.9 23.6 3.8 24.7 3.3zm-393.6-17.9c.1.4.2.8.3 1.1 3.4.5 5.1-.4 7.9-.9 3.1.2 6.2.5 9.2.7 6.6 1.4 19.8 0 25 4l1.5-.3c.1-.2.3-.5.4-.7-9.1-4.3-29.5-6-42.6-6.8-1.1 1-2.1 1.3-1.7 2.9zm307.4 27.6c-.7.8-.8 1-2 1.4 0 2.3.4 2.1 1.2 3.4 3.1 0 4-1.3 6.1-1.8 4 0 7.9.1 11.9.1 9.9.6 19.8 1.2 29.6 1.8 3.9-.3 13.4 3.1 14.3 2.9.4-.1.8-.2 1.1-.3-.1-.9-.1-1.8-.2-2.6-12.6-.9-25.5-2.7-37.3-3.1-8.2-.2-19.1-.2-24.7-1.8zm104.1 29.9c-.9-.7-5.4.9-8.2.1l-19.2-1.8c-.9.2-1.8.4-2.6.6-25.6-5.5-53.1-4.1-81.9-8.9-.7.6-1.5 1-2.3 1.3.2 1.4.4 1.4 1 2.3 3.4-.3 6.7-.5 10.1-.8 6.3.6 12.5 1.2 18.8 1.8 4.1.3 8.1.6 12.2.9 10.5.7 19.5 1.3 28.4 2.8 3.7.6 11.2.4 15.5 1.5 6.9 1.8 23.4-.3 26.1 4.1 2.7.1 2.6-.6 3.9-2-.4-1.4-.5-1.3-1.8-1.9zM523 352.6c-8.3-1.3-14.1.1-22.2-2-8-.8-16-1.7-24-2.5-.8.6-1.6 1.1-2.4 1.7.2 2.1.7 1.9 1.6 3.1 3-.1 4.3-1.1 6.1-1.8 7.3.5 14.6 1.1 21.8 1.6 19.2 1.4 36.8 1.7 53.6 5 .1.1.2.3.3.4-.1.7-.1 1.5-.2 2.2 1.3-.3 2.5-.6 3.8-.8.1-.2.3-.5.4-.7.1-1 .1-2 .2-2.9l-15.9-1.2c-7.6-.7-15.4-1.4-23.1-2.1zm158.9 18.3c-7.3-2-16.8-.8-24.7-2.9-4.7-.6-9.3-1.2-14-1.8-9.9-2.6-22.4-3.3-31.6-5.3-.8.4-1.6.9-2.3 1.3.1.8.1 1.5.2 2.3 3.8 1 9.4-.4 13 .6l54.6 6.6c10.6 2.7 21.7.1 29 4.7.3-.9.6-1.7.9-2.5-6.1-4.8-14.8-.3-25.1-3zm-184.1-4.5c-6.5-1-13-2-19.5-2.9l-2.4 2.1c1.3 2.6 13.7 1.7 20.3 2.2 10.7.8 20.2.8 29.3 1.9l-1.2-.3c-6.4-1.5-18.7-1.3-26.5-3zm53.5 5.4c-1.5-.4-3.6.7-4.5.4-5.3-1.7-12.2-1.4-18.1-2.1 2.7.4 5.4 1 8.1 1.7 2.7.3 5.4.6 8.1 1 1.7.6 7.1 4.3 6.4-.3v-.7zm-22.6-1.7c-1-.2-2.1-.3-3.1-.4.9.2 2 .3 3.1.4zM656 385c-5.3-1.5-14.8-2.7-19.9-2.5-7.6.2-17-4.5-22.2-2 0 1.6.1 1.7.6 2.6 3 .3 5.2-.3 8.2-.5 5.9.7 11.8 1.4 17.7 2 10.4 2.4 23.9 1.4 33.6 3.9 5.6 1.5 15.1-.6 18.4 2.8 2.7.2 3-.3 4.5-1.2 0-.5.1-1 .1-1.5-11.5-.8-22.5-.3-33.2-3.2-2.7 0-5.3-.2-7.8-.4zm-158.9.7c-4.1-.1-11.7-.7-15.1-2.2-.8.3-1.5.6-2.3 1-.4.2-.8.4-1.2.7.1.6.2 1.3.2 1.9 3.5 1 5.1.2 8.2-.1 10.2.7 20.5 1.5 30.7 2.2 3.3.1 6.7.2 10 .4 2.1.5 4.4 3 6.1 2.7.2 0 .5 0 .7.1.1-.9.1-1.7.2-2.6 0-.2 0-.5.1-.7-9.1-.5-18.3-1.1-27.4-1.6-3.3-.8-6.7-1.3-10.2-1.8zm119.3 11.6c-.7.6-1.3 1.2-2 1.7-.1 1.7.1 2 .5 3 3 .1 4.6-.7 6.8-1l31.8 2.7c5.8.8 13.2-1.2 17.3 2.4.8-.4.9-.6 1.6-1-.1-1-.1-2-.2-3-15.7-1.5-39.3-.2-55.8-4.8zm295.2 113c1.7-.1.8-.1 1.5-.6 0-.4.1-.7.1-1.1-.5 0-1-.1-1.5-.1 0 .6-.1 1.2-.1 1.8zm-438-1.4c14.8 1.3 29.6 2.6 44.3 4 5.2 1.2 12.8.5 16.1 3.4.8-.1 1.5-.1 2.3-.2 0-1.5 0-1.8-.6-2.6 0-.2 0-.5.1-.7-3.8-.5-10.3.8-16-.4-17.4-3.6-37.1-2.8-51.9-6.8-1.1.6-1.8.9-2.7 1.7.1.8.1 1.5.2 2.3 3.5.7 5.3-.7 8.2-.7zm-91.8-4.4c-13-3-30.8-4-46.6-8.2-.6.2-1.3.4-1.9.6-1 .4-.9.5-1.6 1 .1 1.7.4 1.6.9 2.7 3.3.2 5.5-.6 7.9-.9 5.4.8 10.8 1.5 16.2 2.3 11.6 2.4 22.2 2.4 32.7 5.4 6.8 1.9 17.1-.1 22 3.5.7.1 1.5.1 2.2.2-.2-1.8-.8-2-1.2-3.4-8.7-2.4-20.3-.9-30.6-3.2zm396.8 29.6l49.2 3.6c-6.1-3.5-15.6-.9-22.5-2.7-14.4-1.4-28.8-2.8-43.2-4.3-.4.5-.8.9-1.2 1.4 0 .6-.1 1.2-.1 1.9 0-.1 14.7.4 17.8.1zm88.1 6c-12.1 0-25.1-1.8-38.5-2.8 3.8 3.8 23.7 1.6 28.7 4.3 3.7.2 4.5.7 6.2 2.3h.4c1.9 0 2.2-.3 3.4-.9-.1-.8-.1-1.5-.2-2.3-.1-.1 0-.3 0-.6zm-362.2-10c-8.1-1-16.2-1.9-24.3-2.9-4.2-.8-8.3-1.6-12.5-2.4-.6.6-1.1 1-2 1.4.2 1.4.4 1.4 1 2.3 3.1.8 5-.2 7.8-.2 9.8 1 19.7 1.9 29.5 2.9 4.4 1.1 8.7.7 11.3 3 1.6-.3 1.4-.5 2.3-1.3l-.3-1.5c-2.6-2-9.5-.7-12.8-1.3zm-98.8-1.9c-12-.2-27.5-2.3-39.8-5.5-9.9-2.6-23.3-2.2-32.7-5.7-.7.5-1.3.9-2 1.4.1.6.2 1.3.2 1.9.9 1.5 17.1 1.7 22.5 2.4 11.9 1.6 22.7 2.5 33.4 5.4 6 1.6 13.6.4 16.8 4.2 1.7.1 3.7-.8 2.4-2.4-.1-1-.4-1-.8-1.7zM823 557.4c-11.3-1.2-22.6-2.4-34-3.6-7.4-.6-20.5-4-24.1-1.4.1 1.4.2 1.4.6 2.3 2.8.4 3.3-.2 5.3-.7 5.2.4 10.4.8 15.5 1.1 8.8-.6 25.3.6 34.4 2.9 5.4 1.4 14.7-.4 19.9 2.5.4.2.7.3 1.1.5-.1.7-.1 1.5-.2 2.2 3 .4 4-.7 3.9-2.7 0-.2 0-.5.1-.7-5.7-1.7-16-1-22.5-2.4zM508.8 552c-6.3-.5-12.6-.9-18.9-1.4l-22.5-2.4c-3-.7-6.1-1.4-9.1-2.2-.4.2-.8.4-1.2.7-.1.2-.3.5-.4.7.2 1.4.4 1.4 1 2.3 17.1 1.6 41.3 2.6 62.5 4.2 4.5.3 24.8 3.8 25 3.7.2 0 .5 0 .7.1.1-1 .1-2 .2-2.9-7-.5-14.1-1-21.1-1.5-5.3-.5-10.7-.9-16.2-1.3zm-129.1-9.7c-2.5 1.6-6.9.1-10 0-9.4-.2-27.5-3.8-39.2-2.5 0 .6-.1 1.2-.1 1.9 0 .4-.1.7-.1 1.1 4.1.9 6.6-.3 11.2-.7 11.6.7 23.2 1.4 34.8 2.2 1.2.8 2.4 1.7 3.5 2.5.5-.3 1-.7 1.6-1-.1-.8-.1-1.5-.2-2.3-.5-.8-.6-.8-1.5-1.2zM828.2 579c-7.1-.6-14.3-1.3-21.4-1.9-11.8-2.2-25.5-2.7-38.4-3.5-1 .1-2 .1-3 .2-.8.4-1.6.9-2.3 1.3 0 .6-.1 1.2-.1 1.9 3.5.9 5.2-.4 7.9-.9 4.6.1 9.2.2 13.7.3 10.2.9 20.5 1.7 30.7 2.6 8 .8 20.9.5 25.4 3.7 2.3.3 2.3.7 2.8 2.4l3-.9-.3-1.5c-4.2-3.3-12-2.4-18-3.7zm-73.7 15.1c0 .2 0 .5-.1.7.2.4.4.8.7 1.2 5.6.7 12.4-1.2 18.6-.1 8.7 1.5 19.6 1.6 28.7 3.9 3.8.5 7.6 1.1 11.4 1.6.5 0 1 .1 1.5.1 0-.2 0-.5.1-.7-19.4-2.8-38.8-5.6-58.2-8.3-.8.4-1.8 1-2.7 1.6zM532 576.4c-4.7 1.9-9.9-1-14.8-.7-16.3 1-43.1-6.1-58.2-2.7-.1.2-.3.5-.4.7.1 1.7.4 1.6.9 2.7 3.5.4 5.6-1.5 8.7-2 8 .5 16.1.9 24.1 1.4 7.5-.9 23.7.1 31.1 1.9 3.1.2 6.2.5 9.2.7.9.5 1.3 1.5 2.8 2.1.5-.8.9-1.2 1.6-1.8-.2-1.2-.3-1.1-.6-1.9-1.5-.2-2.9-.3-4.4-.4zm-198.5-11.1c-.2.5-.3 1-.5 1.5.7.6.6.3 1 1.2 6.4.9 14.8 1.5 22.2 2-3.2-2.4-15.9-5.4-21.2-5.6-.5.2-1 .6-1.5.9zm482.2 35.8c3.5 3.5 17.1.3 20.1 5.6.7.1 1.5.1 2.2.2.1-.2.3-.5.4-.7-.1-.9-.1-1.8-.2-2.6-7.4-.9-14.9-1.7-22.5-2.5zm-520.2 57c-.8 1.1-2.3 1.7-3.9 2l.3 1.5c1.6-.3 1.1.1 1.6-1.4.7.9 1.4 1.8 2 2.7.2 0 .5 0 .7.1.6-.8 1.1-1.7 1.7-2.5.3-.5-.1-1-.2-2.3-.7 0-1.5-.1-2.2-.1zm-.2 2.2c-.1.1-.3.2-.4.3l-.3-1.5c.4 0 .7.1 1.1.1-.1.4-.2.8-.4 1.1zM94.2 643.8c0 .4-.1.7-.1 1.1.4-.1.8-.2 1.1-.3-.5-.9.2-.3-1-.8zm3.6 1.8c.5.6.2.4 1.1.8-.6-.9.1-.3-1.1-.8z"/></svg>