<?xml version="1.0" encoding="utf-8"?>
<!-- Generator: Adobe Illustrator 18.1.0, SVG Export Plug-In . SVG Version: 6.00 Build 0)  -->
<!DOCTYPE svg PUBLIC "-//W3C//DTD SVG 1.1//EN" "http://www.w3.org/Graphics/SVG/1.1/DTD/svg11.dtd">
<svg version="1.1" id="Layer_1" xmlns="http://www.w3.org/2000/svg" xmlns:xlink="http://www.w3.org/1999/xlink" x="0px" y="0px"
	 viewBox="0 0 960 560" enable-background="new 0 0 960 560" xml:space="preserve">
<g>
	<g>
		<path fill="#FAFAFA" d="M894.2-47.6c-0.1-0.1-0.2-0.3-0.3-0.4c-0.5,0-1-0.1-1.5-0.1c-0.3,1.3-0.2,1.2-0.9,1.8
			c0,0.4-0.1,0.7-0.1,1.1c0.6-0.1,1.3-0.2,1.9-0.2C893.6-46.2,893.9-46.9,894.2-47.6z M984.5-41.4c-0.2,0.4-0.3,0.7-0.5,1.1
			c0.6,0,1.2,0.1,1.9,0.1c0-0.1,0-0.2,0-0.4C985.4-40.9,984.9-41.2,984.5-41.4z M150-97c0.9-0.6,0.6-0.3,0.9-1.8
			c0.2,0.3,0.5,0.5,0.7,0.8c0.1-0.1,0.3-0.2,0.4-0.3c0-0.5,0.1-1,0.1-1.5c-1.5,0.6-2.1,0-4.4-0.3c0.4,0.8,0.8,1.6,1.3,2.3
			C149.3-97.2,149.4-97.8,150-97z M145.9-97.3c0.8,0.4,0.6,0.2,1.1,0.8c0.2,0,0.5,0,0.7,0.1c-0.7-1.2-1.3-2.3-2-3.5
			c-0.2,0.4-0.3,0.7-0.5,1.1c0,1.6,0.1,1.7,0.6,2.6C145.8-96.5,145.8-96.9,145.9-97.3z M159.7-97.7c-0.2,0-0.5,0-0.7-0.1
			c0.2,0.1,0.5,0.3,0.7,0.4C159.7-97.5,159.7-97.6,159.7-97.7z M977.4-21.2c-1.1-0.5-1.3-1.9-3.6-1.8c-13.4,1-34.2-3.7-46-7.1
			c-8.2-2.3-18.6-1.9-26.3-1.6c-10.5,0.5-21.8-3-32.6-2c-5.3-0.8-10.6-1.5-15.8-2.3c-12.9-1.1-25.9-2.1-38.8-3.2
			c-16.5,1.3-34.6-3.7-53.4-1.7c-6.9-0.8-13.8-1.5-20.7-2.3c-6.9-0.5-13.8-1-20.7-1.5c-11.4-2-20.7-0.7-32.1-3.1
			c-3.1-0.1-6.2-0.2-9.3-0.3c-7.8-1.1-16.5-1.1-23.6-2.4c-9.1-1.7-19.3,0.4-26.3-1.2c-7.1-1.6-20.1-2.3-28.5-1.3
			c-10.8-1.2-21.6-2.3-32.5-3.5c-5.3-0.3-10.6-0.5-15.9-0.8c-3.9-0.2-7.9-0.3-11.9-0.5c-9.7-0.7-19.4-2.4-28.2-1.3
			c-12.8-0.4-25.7-0.9-38.6-1.3c-6.4,0.8-10.7-1.3-17.4-0.5c-12.3,1.4-31.4-0.8-40.3-2.9c-11.4-1.3-22.9-2.6-34.3-4
			c-2.4-0.2-4.7-0.3-7-0.5c0.1,0.3,0.2,0.5,0.3,0.8c8.2,1,16.5,2,24.7,2.9c1.7,0.3,1.3-0.2,1.8,1.3c0.9-0.6,0.3,0.1,0.8-1.1
			c1.5,0.4,2.9,0.7,4.4,1.1c2.2,0.3,1,0.5,2.2,0.9c-1.6,1.8-4.4-0.2-6,0.3c-0.2,0-0.5,0-0.7-0.1c4.6,0.8,9.3,1.7,13.9,2.5
			c0.1,0,0.2,0,0.4,0c-0.2-1.6,0.4-0.9-1-1.2c0.2-0.4,0.3-0.7,0.5-1.1c0.1-0.1,0.3-0.2,0.4-0.3c0.1,0.4,0.2,0.8,0.3,1.1
			c1.5,0,1.2,0.2,1.9-0.6c0.9,0.2,1.7,0.4,2.5,0.6c-0.9,1.5-1.6,0.9-2.7,1.3c-0.2,0-0.5,0-0.7-0.1c1.9,0.3,3.7,0.5,5.5,0.8
			c-0.6-0.2-1.2-0.3-1.8-0.5c0.4-1.4-0.1-0.8,0.9-1.4c2-0.6,8.4,0.7,9.2,1.4c1,0.1,2,0.1,2.9,0.2c-1,1-0.9,0.5-2.3,0.2
			c0,0.2,0,0.5-0.1,0.7c2.1,0.3,3.4,0.7,4.1-0.8c0.1,0,0.2,0,0.4,0c0,0.5-0.1,1-0.1,1.5c2.1,0.3,4.2,0.6,6.3,0.8
			c0-0.5,0.1-1,0.1-1.5c1.6,0.3,1,0.1,1,1.2c2.8-0.2,7.1,0.9,9.4-0.8c1,0.4,0.4-0.2,0.7,0.8c3.2-0.5,9.2-3.2,13.1-0.9
			c0.2,0,0.5,0,0.7,0.1c0,0.2,0,0.5-0.1,0.7c-1.1-0.1-2.2-0.2-3.3-0.2c3.9,2.9,24.5,0.1,31.5,1.2c4.1,0.6,9.8,0.2,16.2,0.1
			c-4.8-0.3-9.4-0.8-11.7-0.9c-2-0.1-5.9,0.7-7.4-0.2c-0.1-0.1-0.2-0.3-0.3-0.4c2.8-0.8,6,0,7.4-0.2c0.9-0.6,0.3,0.1,0.8-1.1
			c4.5,0.9,16.9,2.9,19.6,1.1c1.6,0.8,3,0.4,5.1,1.1c-0.3,0.1-0.5,0.2-0.8,0.3c-0.6,0.2-1.5,0.4-2.6,0.4c1.6,0.1,3.2,0.3,4.8,0.5
			c19.8,2.6,37.2,2.1,56.5,5.2c-2.1,6.1-0.1,14.2-1.6,21.8c-0.5,7.9-0.9,15.8-1.4,23.7c-0.6,4.9-1.2,9.8-1.8,14.7
			c-7.8-0.6-13.3-2.6-19.9-2.5c-7,0-15.7,0.1-20.7-1.5c-6.2-2-15.7-0.2-20.3-1.9c-3.9-1.4-9.6-0.3-12.6,0.2
			c-1.1,0.2-15.5-2.3-15.5-2.3c-2.4,0-4.7-0.1-7.1-0.1c-6.3-3.2-17.4-1.6-24.2-4.4c-2.2-0.9-11,0.8-14.1,0.1
			c-10.5-2.3-18.8-1-30.4-1.8c-11.2-0.8-22.4-1.6-33.7-2.4c-3.1-0.2-7.3-2-8.8-1.8c-0.5,0.1-1.3,1.2-2,1.4c-1.9-0.7-6.2-1.1-7.7-0.9
			c-5,0.4-15.8-4-17.8-0.6c-0.1,0-0.2,0-0.4,0c1.5-20.7,1.7-40.5,3.9-58.9c2.5,0.1,5,0.1,7.4,0.2c-3.5-2.1-8.8-0.9-11.4-2
			c-0.4,0-0.7-0.1-1.1-0.1c0.5,1.2,0.7,1,1.8,1.6c-0.4,3.3-0.7,6.7-1.1,10c0.4,0.2,0.7,0.3,1.1,0.5c-1.5,2.6-0.3,5.9-1.1,9.6
			c-2.1,9.5,2,27.2-1.9,41.9c-3.8,14.4-2,25.4-3.6,39.2c-1.1,9.4-2.3,22-1.2,31.9c1.5,13.1-2.1,26.1-0.6,38.6
			c0.7,6.2-0.6,11.1,0.2,17.9c0.6,5.4,1,14.4,0,20.5c-0.6,13.8-1.3,27.7-1.9,41.5c-2.1,10.4-2.4,17.5-2.5,28.8
			c0,5.3-1.5,11.9-0.9,17.4c1.1,10.4-2.1,22.5-2.3,31.8c-0.2,9.3-1.2,21.3-0.7,30.5c-0.1,2.6-0.1,5.2-0.2,7.8
			c-0.4,5.8-0.8,11.6-1.3,17.4c-2.9,15.1-1.6,32.7-4.4,45.8c-0.3,7.9-0.7,15.8-1,23.7c-2.6,12.3-1.5,31.2-3.9,43.6
			c-1.7,8.4-1.8,15.4-2.6,25.1c-0.2,2.6-2,4.3-1.9,5.8c0.3,4.9,0.9,11.1-0.1,17.1c-0.8,5.9-1.6,11.8-2.4,17.7
			c-0.6,22.3-3.9,43.6-6,61.7c-1.6,14-1.5,28.9-5,43.5c-2.9,11.9-0.8,26.6-4.2,38c-6.3,0.4-19.8-2.4-30-1.4
			c-7.7-0.1-15.4-0.1-23-0.2c-5.3-0.4-10.6-0.8-15.9-1.2c-6.3-0.5-12.6-0.9-18.9-1.4c-13.8,0.6-35.5-2.8-49.5-5.1
			c-5.2,0-10.4,0-15.6,0c-4-0.8-8.1-1.6-12.1-2.4c-1.9,0.3-3.9,2.1-5.4,2.6c-3.2,1-7.2-1.4-9.5-1.8c-2.1-8.9,1.5-19.7,0.9-28.2
			c-1.4-22.7,3.3-46.9,3.1-68.6c0-6.1,3.1-17.3,2.2-25.1c-1-8.1,0.6-14,0.5-22.3c0-3.2-1.7-7-0.3-10.8c1.7-4.8,2.4-15.2,2.3-21.8
			c-0.3-22.1,1.6-48.4,6.5-68.3c0.8-5.4,1.5-10.8,2.3-16.2c1-13.1,1.9-26.1,2.8-39.2c2.2-10.7,0.9-25.9,3.3-35.5
			c2-7.7,1.3-18.7,2.6-26.2c5.4-29.2,2.7-61.6,6.1-88.8c1.5-17.7,3.1-35.5,4.6-53.2c0-7.1,0-14.1,0.1-21.2c1.1-8.9,3.1-21.9,2-32.2
			c0.3-4.6,0.7-9.1,1-13.7c-1.1-9.2-0.1-19-0.3-26.4c-0.1-4.4,1.6-12.2,0.4-15.6c0.1-1,0.1-2,0.2-2.9c-0.1,0.1-0.3,0.2-0.4,0.3
			c-0.7-0.5-0.6-0.6-1-1.2c0.4,0,0.7,0.1,1.1,0.1c1.2-7.3,0-18.2,0.1-26.8c0.1-12.8,3-27.9,1.8-39.3c0.2-2.6,0.4-5.2,0.6-7.8
			c-0.2-4.7-0.3-9.4-0.5-14.2c0.1-2.3,1.7-4.9,0.9-7c1-0.6,1.5-0.6,2.3-0.6c-0.1-0.3-0.2-0.5-0.3-0.8c0-0.1,0-0.2,0-0.4
			c0.9-0.1,1.8-0.1,2.6-0.2c0,0.4-0.1,0.7-0.1,1.1c4.4-0.2,11.7,0.4,13.4-0.1c6.3,0.5,4.3-1.3,6.9-2.5c0.4,0,0.7,0.1,1.1,0.1
			c0.9,0.1,1.3,1.2,2.9,1c1-0.1,3-1.1,4.9-0.4c0.3,0.4,0.7,0.8,1,1.2c7.8-0.7,18.9,0.1,26.1-0.3c1.9-0.1,4.2,1.2,5.1,1.5
			c1.2,0.4,8.5,0.5,13.7,0.6c0.1-0.2,0.3-0.5,0.4-0.7c0.1,0.2,0.2,0.5,0.3,0.7c2.8,0,4.9,0,4.9,0c0.8,0.7,0.3-0.1,0.7,1.2
			c1,0.1,2,0.1,2.9,0.2c1-0.3,0.4,0.3,0.8-0.7c8.3,1.5,17.5,3.1,25.3,4.8c-0.7,0.7-1.7,0.5-2.7,0.9c-0.1,0-0.2,0-0.4,0
			c0,0.1,0,0.2,0,0.4c1.7,0.1,3.4,0.3,5.2,0.4c0-0.1,0-0.2,0-0.4c-0.5-0.2-1-0.3-1.5-0.5c0.3-0.5,0.6-1,0.9-1.4
			c4-0.3,10.3,2.3,13.6,2.5c5.8,0.3,13.6,0,19.9,2.2c0.3-0.4,0.6-0.7,0.8-1.1c0.1,0,0.2,0,0.4,0c0-0.1,0-0.2,0-0.4
			c-4.6-1.5-12.7-0.7-18.1-2.1c-17-4.2-33.8-3.1-49.7-7.3c-12.4-0.8-24.9-1.6-37.4-2.4c-9.4-0.3-18.8-0.6-28.2-0.9
			c-4.8-0.5-9.6-1-14.4-1.4c-3.7-0.2-3.9,1.5-6.5,2.5c-0.1,2.5-0.1,5-0.2,7.4c-0.3,2.3-0.7,5,0.4,5.2c-2.5,6.6,1.8,14.9-0.2,22.7
			c-1.3,5.2-1.1,12.2-0.6,17.8c0.7,6.6-1.5,11.5-0.6,18.9c0.9,8-2.3,19.3,0,25.7c-0.1,1-0.1,2-0.2,2.9c0.6-0.5,0.4-0.2,0.8-1.1
			c0.2,0,0.5,0,0.7,0.1c-0.1,0.1-0.3,0.2-0.4,0.3c-0.5,1.5,0,0.5-1.2,1c-0.2,2.3-0.3,2.1,1,2.3c-3.4,10.2-0.3,24.6-0.9,37.5
			c0.2,0,0.5,0,0.7,0.1c0,0.2,0,0.5-0.1,0.7c-0.2,0-0.5,0-0.7-0.1c-0.1,1.3-0.2,2.5-0.3,3.7c-1.1,18.3-2.2,36.5-3.2,54.8
			c0.7,6.6,0.6,14.3,0,21.6c0.2,0.1,0.4,0.2,0.6,0.4c-0.1,0-0.2,0-0.4,0c-0.1,0.1-0.2,0.2-0.3,0.2c-0.4,5.3-1.1,10.4-1.9,14.5
			c-1.7,8.7-0.8,22.4-2.5,29.2c-2.7,10.8,1.4,20.5-1.7,28.9c0.5,0.2,1,0.3,1.5,0.5c-2.8,4-0.9,10.6-1.9,15.9
			c-2.7,13.6-0.4,30.8-4,44.7c-0.4,5.7-0.8,11.4-1.2,17c-2,7.7-0.3,18.7-2.8,28.1c-1.2,11.3-2.4,22.6-3.6,34
			c-0.2,4.9-0.5,9.9-0.7,14.8c-6.4,34.1-10.2,73.2-11.3,109.2c-0.4,11-0.9,22-1.3,33c0.5,4.6,0.1,10.3-0.6,13.3
			c-0.3,8.9-0.6,17.8-0.8,26.7c-1.4,19.6-2.8,39.2-4.3,58.8c-1.2,7,1.8,20.4-2.5,24.4c0,2.2,0.5,2.8,1.2,4.2
			c10.7,3.7,29.8-0.9,41.9,1.6c7.7,1.1,15.5,2.1,23.2,3.2c4.1,0.3,8.1,0.6,12.2,0.9c7.5,0.6,15,1.1,22.6,1.7
			c4.1-0.2,10.3,1.1,14.8,0.7c8.1,0.6,16.3,1.2,24.4,1.8c6.7-0.5,15.9,0.5,22.3-0.2c4.7,0.3,9.4,0.7,14.1,1
			c6.1-0.8,16.1,0.1,22.6,0.9c13.9,1.8,30.9-0.8,46.3,2.6c13.2,2.9,29.2,1.8,42.9,2.7c10.5,0.8,26.5,3.4,32.9,2
			c5.9,0.6,11.8,1.1,17.7,1.7c11.6-0.7,22.4,2.8,35.2,1.8c3.3,0.4,6.7,0.7,10,1.1c4.2,0.1,8.4,0.1,12.6,0.2
			c4.4,0.8,8.8,1.6,13.2,2.4c7.6,0.3,15.3,0.6,23,0.9c10.1,2.6,26.4,2.9,37.8,1.6c6.8,0.6,13.5,1.2,20.3,1.9
			c8.4-0.3,22.4,2,30.9,4.1c3.1,0,6.2,0,9.3-0.1c13.7,1.3,27.3,2.5,41,3.7c5.7,1.6,12.2,1.1,18,2.4c6.9,1.5,17.5,4.1,25.1,3.3
			c17.9,2.1,35.9,4.1,53.9,6.2c16.2,0.4,35.3,2.9,50.4,7c4.9,0.4,9.9,0.7,14.8,1.1c7.6,1.1,15.2,2.1,22.8,3.1
			c3.8,0.4,7.6,0.8,11.5,1.2c6.1,1.7,33.7,5.3,37.1,1.6c0.1-0.2,0.3-0.5,0.4-0.7c-1.5-0.6-2.6-1-3.6-1.8c1.3-18.6,3.4-31.9,2.9-49.6
			c0.5-4.7,0.9-9.4,1.4-14c-0.5-4.3,1-11.5,0.4-16c-1.1-8.2-0.4-21.4,1-28.9c0.3-5.6,0.6-11.1,0.8-16.7c0.5-10.8,1.1-21.5,1.6-32.2
			c0.5-5.8,1.1-11.6,1.6-17.3c0.3-0.5,0.6-1,0.9-1.4c-1-6.8,0.3-22.9,1.8-29.3c0.7-10.9,1.3-21.7,2-32.6c1.5-6.4-0.6-14.7,0.8-21.2
			c1.9-8.9,1.8-18.7,2.4-27.3c0.3-4.4,0.7-8.9,1-13.3c-0.9-8.2,0.2-18.4,2.1-23.6c0.7-1.9-0.7-2.6-0.9-3.4c0.4-3.6,0.8-7.1,1.2-10.7
			c1.3-15.5,2.5-31,3.8-46.6c3.8-14.3,2.7-29.9,5.9-45.7c2.8-13.9,5-38.7,8.1-55.2c0.9-4.9,1.7-9.8,2.5-14.7c0.6-0.3,1.3-0.7,1.9-1
			c0.3-1.2-1.2-1.3-1.4-2c-0.9-2.8,0.7-5.1,1.3-7.3c0.3-4.2,0.6-8.4,0.9-12.6c2.9-12.7,4.8-29.2,6.9-43.4c0.5-7,1-14.1,1.5-21.1
			c2.3-7.6,2.1-19.9,3.9-27.6c0.7-2.5,1.4-5.1,2.1-7.6c0.8-8.9,1.5-17.7,2.3-26.6c0.4-2.3,1.4-2.3,3.2-2.7c0-0.1,0-0.2,0-0.4
			c-0.5-0.2-1-0.3-1.5-0.5c-0.4-0.2-0.7-0.3-1.1-0.5c1-14.1,2.5-28.1,6-40.8c2-7.2,0-14.8,4.1-20.2c0-0.6,0.1-1.2,0.1-1.9
			C981.6-21.4,979.4-20.2,977.4-21.2z M410.7-61.6c-0.3,0.2-0.5,0.5-0.8,0.7c-0.6-0.2-1.2-0.3-1.8-0.5c0-0.2,0-0.5,0.1-0.7
			c0.9,0.1,1.7,0.1,2.6,0.2C410.7-61.9,410.7-61.7,410.7-61.6z M413.6-61c0,0.2,0,0.5-0.1,0.7c-0.4,0-0.7-0.1-1.1-0.1
			c0.4-1.1,0.3-0.8,0.9-1.4c0.1,0.1,0.2,0.3,0.3,0.4C413.6-61.3,413.6-61.2,413.6-61z M436.5-59c0.1,0.3,0.2,0.5,0.3,0.8
			C436.1-58.7,436.4-58.2,436.5-59z M438-58.5c-0.1,0.1-0.3,0.2-0.4,0.3c0-0.2,0-0.5,0.1-0.7c0.2,0.1,0.5,0.3,0.7,0.4
			C438.2-58.5,438.1-58.5,438-58.5z M446.4-57.5c-0.4,0-0.7-0.1-1.1-0.1c0-0.2,0-0.5,0.1-0.7c0.9-0.1,1.8-0.1,2.6-0.2
			c0.6,0,1.2,0.1,1.9,0.1C448.7-58.1,447.6-57.8,446.4-57.5z M472.5-57.1c-2.2,0.2-4.1,0.2-5.2-0.8c-0.1,0-0.2,0-0.4,0
			c0-0.1,0-0.2,0-0.4c4.2,0.5,13.1,1.6,14.9-0.4c0.2,0.3,0.5,0.5,0.7,0.8c0,0,6,0.3,6.7,0.1c0.6,0,1.2,0.1,1.9,0.1
			C489.3-55.8,473.8-57.2,472.5-57.1z M528.9-56c-0.9-0.1-1.7-0.1-2.6-0.2c0.5-1.2,0.3-0.5,0.5-1.5c1,0.5,0.8,0.6,2.2,0.9
			C528.9-56.5,528.9-56.2,528.9-56z M535.1-55.2c-0.2,0-0.5,0-0.7-0.1c0-0.2,0-0.5,0.1-0.7c0.2,0,0.5,0,0.7,0.1
			C535.2-55.7,535.1-55.4,535.1-55.2z M545.1-54.5c-0.9-0.1-1.7-0.1-2.6-0.2c0-0.2,0-0.5,0.1-0.7c0.9,0.1,1.7,0.1,2.6,0.2
			C545.2-54.9,545.1-54.7,545.1-54.5z M550.7-54.4c-0.7-0.5-0.4,0.1-0.3-0.8c0.6,0,1.2,0.1,1.9,0.1
			C551.5-54.1,551.2-54.4,550.7-54.4z M559.2-54.2c0.4-0.2,0.8-0.4,1.2-0.7c0.6,0,1.2,0.1,1.9,0.1C561.5-53.9,560.9-54,559.2-54.2z
			 M579.9-52.3c-1.1-0.4-0.8-0.2-1.4-0.9c0.5,0.2,1,0.3,1.5,0.5C579.9-52.5,579.9-52.4,579.9-52.3z M343.7-65.7
			c0.2,0.1,0.5,0.3,0.7,0.4c-0.1,0-0.2,0-0.4,0c-0.1,0.1-0.3,0.2-0.4,0.3C343.6-65.3,343.6-65.5,343.7-65.7z M343.3-40.5
			c0.1,0,0.2,0,0.4,0c0,0.2,0,0.5-0.1,0.7c-0.1,0-0.2,0-0.4,0C343.3-40,343.3-40.3,343.3-40.5z M177.1-86.4c0.7,0.6,0.5,0.6,1.8,0.9
			c0,0.1,0,0.2,0,0.4c-0.1,0.1-0.3,0.2-0.4,0.3c-0.5-0.3-1-0.6-1.4-0.9C177.1-85.9,177.1-86.2,177.1-86.4z M174.8-86.2
			c0.4,0,0.7,0.1,1.1,0.1c0.1,0.1,0.2,0.3,0.3,0.4c-0.1,0.2-0.3,0.5-0.4,0.7C174.4-85.6,174.8-85.1,174.8-86.2z M173-86.4
			c0.2,0.1,0.5,0.3,0.7,0.4c-0.1,0-0.2,0-0.4,0c-0.1,0.1-0.3,0.2-0.4,0.3C173-85.9,173-86.1,173-86.4z M162.2-85.7
			c0.1,0.3,0.2,0.5,0.3,0.8c-0.2,0-0.5,0-0.7-0.1C161.9-85.2,162-85.4,162.2-85.7z M156.9-85.7c0,0.4-0.1,0.7-0.1,1.1
			c-0.1,0-0.2,0-0.4,0c-0.1-0.4-0.2-0.8-0.3-1.1C156.4-85.7,156.7-85.7,156.9-85.7z M155.2-62c-0.2,0-0.5,0-0.7-0.1
			c0-0.2,0-0.5,0.1-0.7c0.2,0.1,0.5,0.3,0.7,0.4C155.2-62.2,155.2-62.1,155.2-62z M153.6-80.3c0.4,0.2,0.7,0.3,1.1,0.5
			C154.6-79.3,153.6-79.6,153.6-80.3z M153.5-42.8c0.1,0,0.2,0,0.4,0c0,0.2,0,0.5-0.1,0.7c-0.1,0-0.2,0-0.4,0
			C153.4-42.3,153.4-42.5,153.5-42.8z M152.9,5.9c0.1,0.4,0.2,0.8,0.3,1.1c-0.2,0-0.5,0-0.7-0.1C152.6,6.6,152.7,6.3,152.9,5.9z
			 M152.6,30.4c0,0.2,0,0.5-0.1,0.7c-0.1,0-0.2,0-0.4,0c0.2-0.4,0.3-0.7,0.5-1.1C152.6,30.2,152.6,30.3,152.6,30.4z M140.8,249
			c0.1,0,0.2,0,0.4,0c0,0.2,0,0.5-0.1,0.7c-0.1,0-0.2,0-0.4,0C140.7,249.4,140.8,249.2,140.8,249z M962.6-21.8c0,0.2,0,0.5-0.1,0.7
			c-1.4-0.3-1.7-0.1-2.5-0.9C960.9-22,961.7-21.9,962.6-21.8z M849.1-31.6c6.4,0.6,12.8,1.2,19.2,1.8c13.8,0.8,27.7,1.5,41.5,2.3
			c-1.4,8,1.2,19.7-1.3,28.2c-0.6,5.9-1.1,11.8-1.7,17.7c-1.5,5.2-1.9,8.7-1.9,15.1c-17.2-1.2-32.6-0.5-47.4-3.1
			c-4.3-0.7-11.3,0.3-15.1-1.9c-1-1.9,0.1-14.5,1-18.1c2.7-11.5,0.4-23.5,4.3-34.3C848.2-26.4,848.7-29,849.1-31.6z M897.9,34.4
			c0,0.1,0,0.2,0,0.4c-1,0.3-2.4,0.4-3,0.2c-0.6,0-1.2-0.1-1.9-0.1c0-0.1,0-0.2,0-0.4c0.4-0.2,0.8-0.4,1.2-0.7
			c0.6,0.2,1.2,0.3,1.8,0.5C896.6,34.3,897.3,34.4,897.9,34.4z M887.1,34c0,0.1,0,0.2,0,0.4c-0.1,0.1-0.3,0.2-0.4,0.3
			c-1.1-0.2-2.2-0.4-3.3-0.6c0.5-0.2,1-0.4,1.5-0.6C885.7,33.7,886.4,33.8,887.1,34z M873.4,33.4c0,0.1,0,0.2,0,0.4
			c-0.1,0.1-0.3,0.2-0.4,0.3c-0.7-0.2-1.5-0.4-2.2-0.5c0-0.2,0-0.5,0.1-0.7c0.4,0.2,0.7,0.3,1.1,0.5
			C872.4,33.3,872.9,33.4,873.4,33.4z M863.5,31.9c0,0.4-0.1,0.7-0.1,1.1c-1.8-0.4-1.4-0.1-1.4-1.2C862.5,31.8,863,31.9,863.5,31.9z
			 M820.1-36.7c-0.4,0.7-0.1,0.3-0.7-0.1C819.6-36.7,819.9-36.7,820.1-36.7z M816.4-36.9c0,0.2,0,0.5-0.1,0.7
			c-0.8-0.4-0.6-0.2-1.1-0.8C815.7-37,816-37,816.4-36.9z M813.8-37.1c0.1,0.3,0.2,0.5,0.3,0.8c-0.5,0-1-0.1-1.5-0.1
			C813.1-36.7,813.5-36.9,813.8-37.1z M796.8-38.4c0.7,0.1,1.5,0.1,2.2,0.2c0,0.2,0,0.5-0.1,0.7c-0.7-0.1-1.5-0.1-2.2-0.2
			C796.8-37.9,796.8-38.1,796.8-38.4z M793.8-38.2c0.3-0.1,0.5-0.2,0.8-0.3c0.4,0,0.7,0.1,1.1,0.1c0.1,0.1,0.2,0.3,0.3,0.4
			c0,0.1,0,0.2,0,0.4c-0.7-0.1-1.5-0.1-2.2-0.2C793.8-38,793.8-38.1,793.8-38.2z M718.3-42.2c0.5,0,1,0.1,1.5,0.1
			c-0.5,0.2-1,0.4-1.5,0.6C718.2-41.7,718.3-42,718.3-42.2z M709.8-43.6c2.3,0.4,4.6,0.8,7,1.3c-2.1,1.2-8.1,0.5-10-0.7
			c-0.1,0-0.2,0-0.4,0C707.8-43.6,709-43,709.8-43.6z M700.5-43.5c0.8-0.1,1.5-0.1,2.3-0.2c0.6,0,1.2,0.1,1.9,0.1
			c0,0.2,0,0.5-0.1,0.7c-1.2-0.1-2.5-0.2-3.7-0.3c-0.1,0-0.2,0-0.4,0C700.5-43.3,700.5-43.4,700.5-43.5z M693.9-44.4
			c0.6,0.2,1.2,0.3,1.8,0.5c0.9-0.6,0.3,0.1,0.8-1.1c1.6,0.7,1.3,0.9,2.9,1.3c-1.7-0.1-3.4-0.3-5.2-0.4c-0.1,0-0.2,0-0.4,0
			C693.9-44.1,693.9-44.3,693.9-44.4z M686.6-46.4c0.1,0.3,0.2,0.5,0.3,0.8c2.4-0.1,3.2-0.7,5.2,0.8c0.4,0.2,0.7,0.3,1.1,0.5
			c0,0.1,0,0.2,0,0.4c-2.2-0.3-4.4-0.6-6.6-0.9C686.5-45.4,686.5-45.9,686.6-46.4z M641.8-49.3c1.2,0.1,2.5,0.2,3.7,0.3
			c0,0.1,0,0.2,0,0.4c-0.1,0.1-0.3,0.2-0.4,0.3c-1.1-0.1-2.2-0.2-3.3-0.2C641.8-48.8,641.8-49,641.8-49.3z M583.5-35.6
			c0.2-4.3,3-9.2,2.4-13.2c0.2-0.4,0.3-0.7,0.5-1.1c3.9,0.3,8.2,0.6,11.2,0.1c-0.3,0.1-0.5,0.2-0.8,0.3c1,0.3,0.3,0.5,1.1-0.3
			c0.2,0,0.5,0,0.7,0.1c-0.1,0.2-0.3,0.5-0.4,0.7c9.3-0.5,21.3,2.6,30.8,1.5c7-0.9,19.4-0.3,26.6,1.6c2.8,0.1,5.7,0.2,8.5,0.3
			c10.1,1.7,20.4,1,29.9,3.7c10,0.7,20,1.5,30,2.2c15.8,2.7,34.7,2,51.4,3.7c5.3-0.1,10.7-0.2,16-0.3c10.2,0.7,20.5,1.5,30.7,2.2
			c6.2,0.6,12.3,1.2,18.5,1.7c1.2,0.1,2.5,0.2,3.7,0.3c-1.3,3.3,0.4,8.9-0.7,15.2c-2,10.6-2.7,22.8-3.5,32.5
			c-0.3,4.2-3.3,8.6-2.4,11.7c0,0.4-0.1,0.7-0.1,1.1c-9.9-1.3-24.7-1.2-33.6-2.8c-2.4,0.2-4.7,0.4-7.1,0.6c-9.7-2.1-24.6-2.5-36-5.2
			c-5.8-0.3-11.6-0.6-17.4-0.9c-7.6-0.6-15.3-1.1-22.9-1.7c-1.8,0.1-17.1,0.2-17.1,0.2c-5.5-2.1-11.6-1.7-17.4-1.3
			c-8.3,0.7-20.4-1.9-28.9-1.4c-9.5-0.8-19-1.6-28.5-2.4c-15.1,1-32.9-1.7-47-3C580.8-2.4,583.1-23.3,583.5-35.6z M835,29.5
			c-0.4,0.2-0.8,0.4-1.2,0.7c-0.2,0-0.5,0-0.7-0.1c0.4-0.7,0.4-0.5,0.8-1.1C834.3,29.2,834.6,29.3,835,29.5z M830.2,29.5
			c0,0.1,0,0.2,0,0.4c-2.4,0.2-4-0.4-4.3-1.8c1.3,0.3,3.3,0.5,4,1.4C829.9,29.5,830.1,29.5,830.2,29.5z M808.8,26.8
			c-0.4,0.7-0.4,0.5-0.8,1.1c-1.4-0.5-0.9,0-1.4-1.2C807.3,26.7,808.1,26.8,808.8,26.8z M794.3,26.5c0,0.2,0,0.5-0.1,0.7
			c-0.4,0-0.7-0.1-1.1-0.1c0-0.2,0-0.5,0.1-0.7C793.6,26.5,794,26.5,794.3,26.5z M785.1,92.8c-2.3,11-0.7,20.6-2.6,30.7
			c-0.6,3.3-0.2,12.3-0.6,13.3c-2.2,14.6-4.4,29.2-6.5,43.8c-11.3-0.9-25.8-2.3-35.8-3.3c-8-0.5-16.1-0.9-24.1-1.4
			c-9-2.3-26.4-2.1-34.9-1.1c-6.2-0.2-12.4-0.4-18.5-0.6c-14.2-0.8-28.4-1.6-42.6-2.4c-1.2-0.1-2.5-0.2-3.7-0.3
			c1.4-17.6,2.8-35.3,4.2-52.9c3.7-14.1,3.2-29,3.1-42.9c0.7-4,1.3-8.1,2-12.1c0.3-5.4,0.5-10.9,0.8-16.3c1.8-9.9,3.7-19.8,5.5-29.7
			c0.9-0.1,7.8-0.5,7.8-0.5c3.4,0.5,7.9,2.1,11.9,0.5c1.3,0.4,0.4,0.2,1.1,0.8c4.3,2.2,16.4,0.2,21.1,1.5c3,0.8,11-1,11.9,0.5
			c1,0.1,2,0.1,2.9,0.2c-0.2-0.1-0.5-0.3-0.7-0.4c0-0.1,0-0.2,0-0.4c7.2,0.6,22.5,0,27,2c2,0.9,5-0.4,6.3,0.1
			c0.3-0.2,0.5-0.5,0.8-0.7c0.1,0,0.2,0,0.4,0c-0.8-1-0.2-0.6-1.5-0.5c0.2-0.5,0.3-1,0.5-1.5c7.8,2.2,12.6,3.4,20.6,2.6
			c2.2-0.2,3.3,1.6,5.5,0.8c1,0.4,0.4-0.2,0.7,0.8c6.9,0.1,17.3,1.1,24,2.8c5.3,0.8,10.6,1.5,15.8,2.3c0.6,0,1.2,0.1,1.9,0.1
			c1,6.1,0.4,12.8,0.4,20.1c-0.3,2.7-0.6,5.4-1,8.1C789.6,66.3,787.4,81.5,785.1,92.8z M764.1,258.6c-0.9,6-1.9,12-2.8,18
			c-0.2,5.1-0.5,10.1-0.7,15.2c0.2,5.4-2.4,16.9-3.9,22.4c-2,7.7-1.5,18.7-3.8,26.1c-0.3,2.3-0.6,4.7-0.9,7
			c-0.3,1.4-0.4,1.4-0.9,2.2c-15.2-1.5-34.9-0.3-50.6-4.4c-4.9-0.4-9.9-0.7-14.8-1.1c-30.9-3.7-61.9-7.5-92.9-11.2
			c1.7-31.6,4.7-63.6,13.1-93.5c2-7.2,1.9-15.2,3.8-21.6c0.2-3.3,0.5-6.7,0.7-10c1.4-7,2.7-13.9,4.1-20.9c0.3-1.7,0.5-3.4,0.8-5.2
			c0.3-2.7,0.6-5.4,1-8.1c20.3,1,40.5,2,60.8,2.9c14.8-1.8,33.8,1.8,48.9,2.1c16.6,0.3,34.3,1.3,49.5,4.3c-3.6,8-3.5,25.4-5.1,33.8
			c-2.4,12.7-3,26.9-6.5,38.2C764,256.1,764,257.4,764.1,258.6z M739.6,457.3c-1.7,14.6-3.4,29.3-5.1,43.9
			c-20.5-1.7-40.9-3.5-61.3-5.2c-11.4-1.7-23.1,0.5-33.7-1.7c-14.2-0.9-28.4-1.8-42.6-2.7c-7.2-0.7-14.5-1.3-21.8-2
			c2.3-21.9,2.8-45.4,7.4-66.4c2.2-10.1,1.2-20.4,3.6-29.1c0.3-4.2,0.6-8.4,0.9-12.6c1.7-6.5,1.8-16.8,3.6-23.9
			c0.3-4.3,0.6-8.6,0.9-12.9c0.2-3.3,0.5-6.7,0.7-10c39.5,4.7,78.9,9.5,118.3,14.2c12.2,0.8,24.4,1.5,36.6,2.3
			c1.9,0.1,3.5,0.1,4.4,1.1c-1.5,13.6-3,27.3-4.5,40.9c-0.6,8.1-1.2,16.3-1.8,24.4C746.3,426.7,742.3,445.4,739.6,457.3z
			 M573.7,487.6c-1.1,4.1-23.8-0.2-29-0.6c-12.4-0.9-27.8-0.7-37.3-3.1c-6.2-1.6-13.9-0.6-20.3-2.2c-7.3-1.9-14.5-1.7-21-3.4
			c-2.3-0.3-4.7-0.6-7-0.9c-3.2-0.2-6.4-0.5-9.6-0.7c6.4-48.7,10-110.5,13.4-158.9c11.9,1.5,23.8,3,35.7,4.5c6.7,0.5,13.3,1,20,1.5
			c2,0.5,3.9,1,5.8,1.6c8.4,0.2,19.4,1.6,28.3,3.9c10.1,1.5,20.1,2.9,30.2,4.4c2.4,0.3,4.9,0.6,7.4,0.9c-1.7,23.1-4.5,46.1-8,68.9
			c-1.3,8.1-1.3,19.7-2.6,25.9c-2.9,13-3.3,24.9-4.3,38.4C575.1,474.5,572.5,482.6,573.7,487.6z M468.8,227.4
			c0.4-4.9,0.7-9.9,1.1-14.8c1-12.2,2-24.4,3-36.6c1.1-3.8,2.4-9.8,2.1-13.2c0.1-0.2,0.3-0.5,0.4-0.7c13.4,1.5,26.8,2.9,40.2,4.4
			c6.4,0.5,12.8,0.9,19.2,1.4c10.6,2.4,21.7,2.9,28.1,2.4c15.8,0.9,31.6,1.8,47.4,2.7c1.2,0.2,2.4,0.4,3.7,0.6
			c-0.3,4.2-0.6,8.4-0.9,12.6c-1.9,6.4-2.9,15.6-4.5,21.6c-0.3,3.4-0.5,6.9-0.8,10.4c-3.3,9.6-3.6,24.2-6.6,34.9
			c-6.7,23.5-9,53.8-10.6,79.2c-15.3-1.3-31.9-3.2-46.3-7.1c-9-1.2-17.9-2.3-26.9-3.4c-4.3-0.3-8.6-0.6-12.9-0.9
			c-12.3-2.3-29.4-1.4-40.9-5.6C465.8,287.2,469.7,255.4,468.8,227.4z M676.4,17.6c0.2,0.1,0.5,0.3,0.7,0.4c0,0.1,0,0.2,0,0.4
			C676.1,18,676.6,18.6,676.4,17.6z M686.3,18.7c0-0.2,0-0.5,0.1-0.7c0.6,0,1.2,0.1,1.9,0.1c0,0.1,0,0.2,0,0.4
			c-0.1,0.1-0.3,0.2-0.4,0.3C687.3,18.7,686.8,18.7,686.3,18.7z M711.9,20.2c0-0.2,0-0.5,0.1-0.7c0.2,0.1,0.5,0.3,0.7,0.4
			c-0.1,0-0.2,0-0.4,0C712.1,19.9,712,20,711.9,20.2z M713.4,19.9c0-0.2,0-0.5,0.1-0.7c0.7,0.1,1.5,0.1,2.2,0.2
			c0.1,0.1,0.2,0.3,0.3,0.4c0,0.1,0,0.2,0,0.4C715.1,20,714.3,20,713.4,19.9z M734.9,20c1,0.1,2,0.1,2.9,0.2
			c-0.2,0.4-0.3,0.7-0.5,1.1C735.6,21.3,735.2,21.3,734.9,20z M747.5,21.6c0-0.2,0-0.5,0.1-0.7c0.9,0.1,1.7,0.1,2.6,0.2
			c0,0.1,0,0.2,0,0.4c-0.1,0.1-0.3,0.2-0.4,0.3C748.9,21.7,748.2,21.7,747.5,21.6z M752.3,22.3c0.2-0.4,0.3-0.7,0.5-1.1
			c1.2,0.1,2.5,0.2,3.7,0.3c0.1,0.1,0.2,0.3,0.3,0.4c-1.1,0.2-2.3,0.3-3.4,0.5C753,22.4,752.6,22.4,752.3,22.3z M767.4,22.7
			c2.1,0.3,4.2,0.6,6.3,0.8c0.1,0.1,0.2,0.3,0.3,0.4c0,0.2,0,0.5-0.1,0.7C771.8,24.5,767.4,24.3,767.4,22.7z M775.4,25.5
			c0-0.1,0-0.2,0-0.4c0.4-0.3,0.8-0.7,1.2-1c0.5,0,1,0.1,1.5,0.1c0.1,0.1,0.2,0.3,0.3,0.4c0,0.2,0,0.5-0.1,0.7
			c-0.8,0.2-1.5,0.4-2.3,0.6C775.9,25.8,775.7,25.7,775.4,25.5z M789.1,26.9c0-0.2,0-0.5,0.1-0.7c0.5-0.1,1-0.2,1.5-0.3
			c0.5,0,1,0.1,1.5,0.1c0.1,0.1,0.2,0.3,0.3,0.4c-0.4,0.2-0.8,0.4-1.2,0.7C790.6,27,789.8,26.9,789.1,26.9z M586.8,12.2
			c-0.1,0.2-0.3,0.5-0.4,0.7c-0.9-0.2-1.7-0.4-2.5-0.6c0-0.2,0-0.5,0.1-0.7c0.9,0.1,1.7,0.1,2.6,0.2C586.5,11.9,586.7,12,586.8,12.2
			z M560.2,8.7c0.5,0,1,0.1,1.5,0.1c0.1,0.1,0.2,0.3,0.3,0.4c0,0.2,0,0.5-0.1,0.7c-0.7-0.1-1.5-0.1-2.2-0.2
			C559.9,9.5,560.1,9.1,560.2,8.7z M557.3,8.5c0.1,0.1,0.2,0.3,0.3,0.4c-0.1,0.1-0.3,0.2-0.4,0.3c-0.3,0.1-0.5,0.2-0.8,0.3
			c-0.3-0.4-0.7-0.8-1-1.2C556,8.4,556.7,8.5,557.3,8.5z M513.7,5c0.1,0.1,0.2,0.3,0.3,0.4c0,0.2,0,0.5-0.1,0.7
			c-1.3-0.4-1.1-0.3-1.8-1.3C512.7,4.9,513.2,5,513.7,5z M489.1,26.2c0.6-6.7,1.2-13.3,1.8-20c2.1-2.4,5.7,0.3,9.3-0.1
			c11.5,0.8,22.9,1.7,34.4,2.5c2.2-0.2,1.4-1,2-1.7c0.1-0.1,0.3-0.2,0.4-0.3c0.1,0.1,0.2,0.3,0.3,0.4c-0.5,1-0.6,0.8-0.9,2.2
			c15.2,1,31.5,1.3,45.1,4c4.7,1,15.5,1.6,16.3,0.8c0.2,0,0.5,0,0.7,0.1c-0.1,0.2-0.3,0.5-0.4,0.7c7.2-1.7,19.8,2.2,28.2,1.3
			c0.2,0.3,0.5,0.5,0.7,0.8c1.6,11.7-1.9,25.7-4.1,36.1c-0.8,3.6,0.7,10.8-0.8,16.7c-1,3.6-0.7,7.6-0.4,10.8c0.4,5-1.9,12.6-1.1,20
			c-1.1,9.5-2.1,18.9-3.2,28.4c-1.1,12.9-2.1,25.9-3.2,38.8c-0.2,1.2-0.4,2.4-0.6,3.7c-9-0.5-18-1.1-27-1.6
			c-6.1-0.3-12.1-0.6-18.1-1c-11.5,0.6-31.1-1.4-41-3.3c-10.8-2.1-20-0.9-28.1-2.8c-3.2-0.8-8.9,0.6-12.2-1.3
			c-3.6-0.3-7.1-0.5-10.7-0.8c-1.9-1.4,2.8-20.4,2-26.6c-0.7-0.7,0.9-4.3,0.8-5.9c1-9,2.1-17.9,3.1-26.9c2.6-15.5,4-34.2,5.3-52.4
			C488,40.3,487.6,32.2,489.1,26.2z M367.6-6.4c0.1,0.1,0.2,0.3,0.3,0.4c1.1,0.1,2.2,0.2,3.3,0.2c0,0.4-0.1,0.7-0.1,1.1
			c-0.2-0.1-0.5-0.3-0.7-0.4c-1.2-0.1-2.5-0.2-3.7-0.3C367.2-6,367.2-5.9,367.6-6.4z M337.9,111.2c-2.1-17.3,1.4-37-0.5-54
			c-0.9-7.6,1.8-14.2,1.1-20.4c-0.9-8,0.9-24,2.6-30.7c1.3-4.9-1-8.5,1.3-12.2c0.1,0,0.5,0.4,1.1,0.8c0.7,0.5,3.8,0.3,4.9-1.1
			c0.9,0.8,0.2,0,0.3,1.1c4.3-0.1,16.9,0.1,20.3,1.9c0.7,0.1,1.5,0.1,2.2,0.2c0-0.1,0-0.2,0-0.4c-0.4-0.2-0.7-0.3-1.1-0.5
			c-0.1,0-0.2,0-0.4,0c0-0.1,0-0.2,0-0.4c5,1.3,18.4,3.6,20.4,1.5c0.1,0.4,0.2,0.8,0.3,1.1c4.7,0.4,13.4,2.2,16.7,0.1
			c1,0.4-0.1,0.1,0.7,0.8c1.8,1.5,8.1-0.5,11.2,0.1c1.6,0.4,3.2,0.7,4.8,1.1c0.7-0.2,4.3-1.5,5.3-1.1c1.7,2.4,12.3,0.5,15.5,1.5
			c0,0,11.4,2.2,13.3,1.7c0.6-0.2,0.8-1.1,1.9-1c8.7,1.3,18.5,3.2,28,3.5c-1.2,20.1-2.4,40.2-3.6,60.3c-0.9,6.5-1.7,13-2.5,19.5
			c-0.3,3.6-0.5,7.1-0.8,10.7c-0.6,5-1.2,10.1-1.9,15.1c-4.1,15.1-3.9,33.1-5.8,49.4c-6.4-1-12.7-1.9-19.1-2.9
			c-4.7-0.3-9.4-0.7-14.1-1c-11.8-1.9-23.5-3.7-35.3-5.5c-6.9-0.3-13.8-0.5-20.8-0.8c-5.5-1-13.1-2.1-18-3.5
			c-5.4-0.1-10.9-0.3-16.3-0.4c-4-0.8-9.2-3.2-11.7-3.1C335.3,132.8,339.3,123.3,337.9,111.2z M329.8,267.6
			c1.2-23.3,2.4-46.7,3.6-70c0-12.3,3.8-23.8,2.6-36.2c-0.4-4.4,2.4-9.6,0.7-14.1c0-0.2,0-0.5,0.1-0.7c43.7,3.1,87.7,9.6,136.1,15.5
			c-1.1,8.3-2.2,16.7-3.3,25.1c-1.1,40.8-4.9,83.2-8.2,128.1c-19.4-1.4-46.2-2.5-65-6.6c-9.5-2.1-19.8-1.1-27.7-3.1
			c-7.4-1.9-19.2-0.9-25.8-3c-2.8-0.9-9.7-4-12.8-3.2c-0.5,0-1-0.1-1.5-0.1C331.2,289.8,327.8,278,329.8,267.6z M320.8,401.5
			c0.5-10.4,1-20.8,1.5-31.1c0.8-4.3,2-10.7,2.2-14.7c0.4-9.1,0.7-15.7,1.4-23.7c0.5-5.2,1-10.3,1.5-15.5c0.3-7.2-0.7-11.7,4.4-14.2
			c17.1,3.7,39,3.2,57.8,7.9c9.1,2.3,22.5,1.5,31.3,3.4c9.4,2,28.6-0.2,34.7,3.3c1.9,0.3,3.7,0.5,5.5,0.8c-0.9,11.2-0.9,19.3-2.2,30
			c-0.4,3.7-0.8,7.4-1.2,11.1c-0.3,7.5-0.6,15.1-0.9,22.6c-0.9,7.4-1.8,14.7-2.7,22.1c-0.2,4.7-0.3,11.4-1.6,16.6
			c-2.7,11.4-0.1,21.2-3.1,32.9c-1.4,5.4,0.9,11.4-1.5,15.5c-0.3,2.7-0.6,5.4-1,8.1c-37.2-2.7-70.6-8.6-104.2-9.4
			c-8-0.2-24.5-5-28.1-2.1c-0.1,0-0.2,0-0.4,0C316.5,443.8,318.7,422.7,320.8,401.5z M311.1,642.5c-1-0.4-0.4,0.2-0.7-0.8
			c0.2,0.1,0.5,0.3,0.7,0.4C311.1,642.3,311.1,642.4,311.1,642.5z M340.3,644.2c-1.6-0.4-1.3,0.2-1.4-0.9c0.5,0.2,1,0.3,1.5,0.5
			C340.4,644,340.3,644.1,340.3,644.2z M345.1,644.6c0-0.1,0-0.2,0-0.4c0.3-0.1,0.5-0.2,0.8-0.3c0.1,0.3,0.2,0.5,0.3,0.8
			C345.9,644.7,345.5,644.6,345.1,644.6z M428.9,628c-0.5,5.7-1.1,11.3-1.6,17c-0.2,0.9-0.4,1.7-0.6,2.5
			c-13.5-0.7-26.9-1.5-40.4-2.2c-8.1,0.8-20.6,0.3-28.5-1.7c-8.9-0.8-17.7-1.5-26.6-2.3c-10.4-0.5-20.8-1-31.1-1.5
			c-1.6-0.4-1.5-0.6-2.5-1.3c-0.6-10.1,1.6-22.5,3.5-33.6c1.4-8,0.8-17,3-25.8c0.2-4.1,0.3-8.1,0.5-12.2c1.9-7.1,0.5-15.2,2.4-22.1
			c2-7.3,2.9-19.7,2.8-28.1c1-12.3,2.1-24.6,3-37c0.3-4.2,0.6-8.4,0.9-12.6c0-0.2,0-0.5,0.1-0.7c3.4,1.2,7.6,0,11.1,0.8
			c3.8,0.9,8.7,2,12.5,2c2.2,0,4.5,0.1,6.7,0.1c7.8,2,25.6,2.9,34.8,2.2c7,1,14,2,21,3c2-0.1,4-0.2,6-0.3c3.9,0.3,7.9,0.6,11.9,0.9
			c8.9-0.2,18.9,2.5,29.5,3.3c-1.4,12.2-2.7,24.3-4.1,36.5c-0.4,4.9-0.7,9.9-1.1,14.8c-1.3,4.5-3.2,14.5-3.4,21
			c-0.2,8.4-1.3,22.1-3.8,31.3c-2.1,7.7-1.9,16.8-3.6,24.7C429.7,613.7,428.2,621.5,428.9,628z M480.6,653.3c-1-0.4-0.4,0.2-0.7-0.8
			c0.2,0,0.5,0,0.7,0.1C480.7,652.8,480.6,653.1,480.6,653.3z M483.2,653.9c-0.4-0.2-0.7-0.3-1.1-0.5c-0.6-0.6,0.1-0.1,0.4-0.7
			c1.9,0.3,3.7,0.5,5.5,0.8C486.4,653.6,484.8,653.8,483.2,653.9z M496.2,654.1c0.9,0.1,1.7,0.1,2.6,0.2
			C497.8,655.3,497.1,654.9,496.2,654.1z M501,655.2c-0.2-0.1-0.5-0.3-0.7-0.4c-0.1,0-0.2,0-0.4,0c0.4-0.2,0.8-0.4,1.2-0.7
			c0.4,0,0.7,0.1,1.1,0.1C501.6,654.9,501.5,654.7,501,655.2z M503.9,655c-1.1-0.4-0.8-0.2-1.4-0.9c0.5,0,1,0.1,1.5,0.1
			C504,654.5,503.9,654.8,503.9,655z M508.7,655.4c-1.1-0.3-2.2-0.7-3.3-1c1.1,0.1,2.2,0.2,3.3,0.2
			C508.8,654.9,508.8,655.1,508.7,655.4z M552.3,659.3c-0.2,0-0.5,0-0.7-0.1c0-0.2,0-0.5,0.1-0.7c0.2,0,0.5,0,0.7,0.1
			C552.4,658.8,552.4,659,552.3,659.3z M621.1,664.3c-1.1-0.3-2.2-0.7-3.3-1c1.1,0.1,2.2,0.2,3.3,0.2
			C621.2,663.8,621.1,664.1,621.1,664.3z M629.6,665.3c-0.5-0.3-1-0.6-1.4-0.9c0.5,0,1,0.1,1.5,0.1
			C629.6,664.8,629.6,665.1,629.6,665.3z M637,665.8c-0.3,0.1-0.5,0.2-0.8,0.3c-0.4,0-0.7-0.1-1.1-0.1c0-0.2,0-0.5,0.1-0.7
			c0.6,0,1.2,0.1,1.9,0.1C637,665.6,637,665.7,637,665.8z M638.5,665.9c-0.2-0.1-0.5-0.3-0.7-0.4c0.3-0.1,0.5-0.2,0.8-0.3
			c1,0.2,2,0.4,2.9,0.6C640.5,666.3,639.2,666.3,638.5,665.9z M643.4,665.6c2.1,0.2,4.2,0.3,6.3,0.5
			C648.6,667,644.7,666.5,643.4,665.6z M654.4,667.1c-1.7-0.1-2.2-0.2-2.9-1c2.4,0.2,4.7,0.3,7,0.5
			C657.2,666.8,655.8,666.9,654.4,667.1z M661.8,667.6c-0.4,0-0.7-0.1-1.1-0.1c-1.6-0.4-1.3,0.2-1.4-0.9c0.9,0.1,1.7,0.1,2.6,0.2
			C661.8,667.1,661.8,667.4,661.8,667.6z M665.9,667.9c-2,0.9-3.1,0-3.3-1c1.1,0.2,2.2,0.4,3.3,0.6
			C665.9,667.7,665.9,667.8,665.9,667.9z M669.2,668.5c-1.1-0.4-0.8-0.2-1.4-0.9c0.5,0,1,0.1,1.5,0.1
			C669.2,668,669.2,668.3,669.2,668.5z M678.8,669.2c-2.6-0.1-4.3-0.1-5.5-1.2c1.7,0.1,3.4,0.3,5.2,0.4c0.1,0.1,0.2,0.3,0.3,0.4
			C678.8,669,678.8,669.1,678.8,669.2z M684.3,670c-0.1,0.1-0.3,0.2-0.4,0.3c-1-0.2-2-0.4-2.9-0.6c0-0.2,0-0.5,0.1-0.7
			c1.1,0.2,2.2,0.4,3.3,0.6C684.3,669.8,684.3,669.9,684.3,670z M701.2,672.4c-1.1-0.4-0.8-0.2-1.4-0.9c0.5,0,1,0.1,1.5,0.1
			C701.3,671.9,701.2,672.1,701.2,672.4z M711,670.5c0,0.4-0.1,0.7-0.1,1.1c-8.8-1.3-17.7-2.5-26.5-3.8c-10.7-1-21.4-2.1-32.1-3.1
			c-9.7-1.6-21.6,0.2-31.1-2.3c-16.8-4.3-43-6-59.5-4.3c-4.8-0.6-9.6-1.2-14.4-1.8c-7.9-0.3-15.8-0.7-23.7-1
			c-5.5-0.8-11.1-1.6-16.6-2.3c-20.2,0.7-37.8-4.4-60.3-3.6c-4.7,0.2-11.5-1.9-16.3-1.6c-1-4.3,1.2-9.7,1-13.3
			c0.7-10.9,1.3-21.7,2-32.6c1-4.9,2-9.8,2.9-14.7c1.8-12.3,3.5-24.5,5.3-36.8c2.4-9.2,1.1-17.9,3.4-26.5c0.4-4.9,0.7-9.9,1.1-14.8
			c1.1-10.2,2.2-20.4,3.3-30.6c19.7,1.5,39.7,4.8,58.2,7.9c6.7,0.2,13.3,0.5,20,0.7c15.3,1.4,30.6,2.7,45.8,4.1
			c-0.8,14.9-1.7,29.9-2.5,44.8c-0.1,4.3-0.1,8.7-0.2,13c-3.3,18.5-6.6,43-6.1,62.8c-0.6,4.2-1.1,8.3-1.7,12.5
			c-0.2,5.9-0.4,11.9-0.6,17.8c-0.5,3.5-1.9,5.3-0.3,8.5c0.6,0.7,1.5,1.1,2.1,1.7c0.8-0.1,1.5-0.1,2.3-0.2c0.4-0.6,0.8-1.2,1.3-1.8
			c-0.5-0.9-2.2-0.5-3.2-1.4c-2.5-4.8,2.2-25.8,1.7-34.1c-0.5-10.5,0.5-31.7,3.5-43.6c0.7-8,1.4-16,2.1-24
			c0.4-5.9,0.9-11.9,1.3-17.7c-1-9.9,4-24.8,1.2-31.9c0.3-2.1,0.6-4.2,0.8-6.3c28.2,2.1,56.5,4.1,84.7,6.2
			c7.9-0.9,18.7,1.7,25.6,1.1c5.3,0.4,10.6,0.8,15.9,1.2c8.4,2,27.7,0,32.5,3.5c-1.7,12.4-3.3,24.8-4.9,37.2
			c-0.3,3.8-0.6,7.6-0.8,11.5c-2.4,9-2.2,17.6-3.4,26.1c-2.7,19.5-7,36.4-8.7,57.8c-1,8-1.9,16-2.8,24
			C712.5,662.6,710,667.7,711,670.5z M756.2,678.6c-0.6,0-1.2-0.1-1.9-0.1c0-0.1,0-0.2,0-0.4c0.3-0.1,0.5-0.2,0.8-0.3
			c0.4,0.2,0.7,0.3,1.1,0.5C756.2,678.3,756.2,678.5,756.2,678.6z M763.6,679.1c-0.1,0.1-0.3,0.2-0.4,0.3c-0.7-0.1-1.5-0.1-2.2-0.2
			c0-0.1,0-0.2,0-0.4c0.3-0.1,0.5-0.2,0.8-0.3c0.6,0,1.2,0.1,1.9,0.1C763.6,678.9,763.6,679,763.6,679.1z M774.6,681
			c-2.2-0.2-2.1-0.1-2.2-1.3c0.7,0.2,1.5,0.4,2.2,0.5C774.6,680.6,774.6,680.8,774.6,681z M799.7,683.6c-1.6-0.2-1.8-0.2-2.5-0.9
			c0.9,0.1,1.7,0.1,2.6,0.2C799.8,683.1,799.7,683.4,799.7,683.6z M804.8,684.7c-0.1-0.1-0.2-0.3-0.3-0.4c-1.7-0.1-2.5-0.2-3.3-1
			c1.1,0.1,2.2,0.2,3.3,0.2c0.1,0.1,0.2,0.3,0.3,0.4C804.9,684.2,804.9,684.5,804.8,684.7z M805.2,684.4c0.4-0.2,0.8-0.4,1.2-0.7
			c0.4,0.2,0.7,0.3,1.1,0.5C806.7,684.3,806,684.3,805.2,684.4z M810.7,685.2c-1.7-0.1-2.2-0.2-2.9-1c1,0.1,2,0.1,2.9,0.2
			C810.8,684.7,810.8,684.9,810.7,685.2z M815.1,686.2c-2.2-0.1-2.7-0.3-3.6-1.4c1.1,0.1,2.2,0.2,3.3,0.2c0.1,0.1,0.2,0.3,0.3,0.4
			C815.2,685.7,815.1,686,815.1,686.2z M817.3,686.7c-1.6-0.4-1.2,0-1.8-1.3c1,0.1,2,0.1,2.9,0.2c0.4,0,0.7,0.1,1.1,0.1
			C819,686.5,818.2,686.3,817.3,686.7z M821.7,687.4c-1.1-0.7-0.6-0.1-0.7-1.2c0.2,0,0.5,0,0.7,0.1
			C821.8,686.7,821.8,687.1,821.7,687.4z M824,687.6c-0.5-0.2-1-0.3-1.5-0.5c-0.1,0-0.2,0-0.4,0c0.4-0.2,0.8-0.4,1.2-0.7
			c0.2,0.1,0.5,0.3,0.7,0.4C824,687.1,824,687.4,824,687.6z M825.1,687.7c-0.2,0-0.5,0-0.7-0.1c0-0.2,0-0.5,0.1-0.7
			c1.1,0.1,2.2,0.2,3.3,0.2c0.1,0.1,0.2,0.3,0.3,0.4C827.1,687.6,826.1,687.6,825.1,687.7z M834.3,688.7c-1.7-0.1-3.4-0.3-5.2-0.4
			c-0.6-0.6,0.1-0.1,0.4-0.7c1,0.2,2,0.4,2.9,0.6c0.6,0,1.2,0.1,1.9,0.1C834.3,688.5,834.3,688.6,834.3,688.7z M842,689.7
			c-2,0-2.9,0.2-4-1c1.2,0.1,2.5,0.2,3.7,0.3c0.1,0.1,0.2,0.3,0.3,0.4C842.1,689.4,842,689.6,842,689.7z M850.5,690.6
			c-0.7-0.2-1.5-0.4-2.2-0.5c-1.7-0.1-2.2-0.2-2.9-1c0.6,0,1.2,0.1,1.9,0.1c1.8,0.2,2.3,0.4,3.3,1
			C850.5,690.4,850.5,690.5,850.5,690.6z M853.1,690.8c-0.4,0-0.7-0.1-1.1-0.1c0-0.2,0-0.5,0.1-0.7c0.4,0.2,0.7,0.3,1.1,0.5
			C853.1,690.6,853.1,690.7,853.1,690.8z M857.9,691.2c-0.1,0.1-0.3,0.2-0.4,0.3c-1-0.2-2-0.4-2.9-0.6c-0.2-0.1-0.5-0.3-0.7-0.4
			c0.3-0.1,0.5-0.2,0.8-0.3c1.1,0.2,2.2,0.4,3.3,0.6C857.9,690.9,857.9,691.1,857.9,691.2z M883.3,694.5c-2.6,0.3-8.5,0.3-11.1-1.2
			c-1.7-0.1-2.5-0.2-3.3-1c4.8,0.6,9.6,1.2,14.4,1.8C883.3,694.3,883.3,694.4,883.3,694.5z M889.2,695.3c-0.4,0-0.7-0.1-1.1-0.1
			c0-0.2,0-0.5,0.1-0.7c0.4,0.2,0.7,0.3,1.1,0.5C889.2,695.1,889.2,695.2,889.2,695.3z M890.4,695.1c0.2,0,0.5,0,0.7,0.1
			C890.7,695.7,891,695.4,890.4,695.1z M916.9,560.5c-0.2,4.8-0.5,9.6-0.7,14.5c-0.9,13.4-1.7,26.9-2.5,40.3
			c1.4,12.3,0,32.4-1.6,42.6c-2.1,13.5,0.3,26.2-4.5,36.8c-14.3,1.7-29.5-4.5-45-5.1c-17.2-0.7-42.5-3.3-60.8-8.1
			c-7.2-0.8-14.5-1.6-21.8-2.3c-10.5-1-20.9-2-31.4-3c-4.4-0.8-8.8-1.6-13.2-2.4c-5.6-0.3-16.2,0.3-20.7-2.3c0.2-3.3,0.5-6.7,0.7-10
			c1.4-12.3,2.8-24.6,4.2-36.9c1.8-10.5,3.5-21.1,5.3-31.6c0.3-4.3,0.6-8.6,0.9-12.9c1.1-6.7,2.2-13.5,3.3-20.2
			c0-1.3-0.1-2.5-0.1-3.7c0.7-5,1.5-10.1,2.2-15.1c0.2-11,1.6-26.3,4.6-38c4.2,0.7,8.3,1.4,12.5,2c8.8,0.5,17.5,1,26.3,1.6
			c3.9,0.4,7.9,0.8,11.8,1.2c12.9-0.5,35.6,1.7,52.1,4.2c6.6,0.2,13.1,0.5,19.7,0.7c12.8,1.3,26.5,0.3,38.8,3.6
			c7.9,2.1,16,0.3,21.7,3.4c0.2,0.1,0.5,0.3,0.7,0.4C918.5,533.3,915.8,547.5,916.9,560.5z M925.3,434.3c-0.4,3.2-0.7,6.4-1.1,9.6
			c0.6,3.8-1.2,10.1-0.4,15.6c1.1,7.7-1.6,15.3-1.7,23.3c-0.8,11-1.6,21.9-2.4,32.9c-9.7-0.6-24.8-0.1-34.4-2.5
			c-4.5-1.1-9.6-2.4-15.1-1.9c-5.8-0.3-11.6-0.6-17.4-0.9c-8.3,1-20.7,0.5-29.3-1.8c-7.4-2-16.9-0.8-24.8-2.2
			c-5.4-0.1-10.9-0.3-16.3-0.4c-7.1-0.6-14.3-1.3-21.4-1.9c-6-0.4-14.4,0.6-19.2-2.2c-2-0.3-3.9-0.5-5.9-0.8
			c1.6-14.6,2.4-31.6,6.3-46c1.3-9.6,2.6-19.1,3.9-28.7c0.7-9,1.3-18,2-27c1.7-15.9,3.3-31.7,5-47.6c10.3,0.3,24.3,1.6,35,4.4
			c28.1,2.5,56.2,5.1,84.2,7.6c11.8,0.9,25.1,0.8,34.3,3.6c8.3,2.6,16.6,0.4,22.3,4.6c-0.7,10.7-1.3,21.5-2,32.2
			C927.8,412.3,925.6,424.6,925.3,434.3z M929.5,366.9c-14.6-0.9-30.8-2.3-43.6-4.3c-6.6-0.4-13.1-0.7-19.6-1.1
			c-17.8-1.8-35.7-3.6-53.5-5.4c-12.4-2.4-24.6-0.8-36.2-3.7c-6-1.5-14,0.6-18.8-2.1c-1.5-0.2-2.9-0.5-4.4-0.7
			c1.1-6.9,2.3-13.7,3.3-20.6c1.8-9.5,1.8-19.4,4.3-29.1c0.7-8.4,1.5-16.7,2.2-25.1c4.3-15.4,4.3-39.3,7.5-51.9
			c2.4-9.6,1.8-18.9,4.2-27.6c0.7-3.9,1.3-7.8,2-11.8c0-0.2,0-0.5,0.1-0.7c11.9,0.7,23.7,1.5,35.6,2.2c7.1,0.1,14.1,0.3,21.2,0.4
			c8.6,2.3,18.7,1.1,28,3.5c6.8,1.8,18.6,2.8,27,2c6.5-0.7,14.2,1.9,20.8,1.1c12.9,0.9,25.9,1.9,38.8,2.8c0.9,0.2,1.7,0.4,2.5,0.6
			C939.6,251.6,934.5,310.2,929.5,366.9z M967,75.2c-1.9,12.9-3.9,25.8-5.8,38.6c-0.3,12.5-1.5,26.1-4.6,37.6
			c-1.4,9.9-2.7,19.9-4,29.8c-0.8,3.3,0.1,7.4-1.8,9.9c-9.1,5.2-32.6-3.2-45.6-1.5c-9.9,1.3-15.9-0.5-26.7-1.2
			c-11.9-0.8-25.9-1.2-38-3.9c-7.8-1.8-19.7-1.7-28.2-1.3c-11.6-0.7-23.2-1.4-34.8-2.2c0.3-5.6,1.4-11.5,2.6-16.2
			c0.3-4.3,0.6-8.6,0.9-12.9c3.4-15.5,5.7-43.8,5.7-57.6c0-10,3.8-21.8,3.7-29.9c0.6-5,1.2-10.1,1.9-15.1c0.2-4.2,0.4-8.4,0.5-12.6
			c0.6-2.1,1.6-5.4,1.3-7.3c2.4,0,4.7,0.1,7.1,0.1c10.9-1.2,21.5,0.6,31.5,1.9c3.2,0.4,15.4,0.9,16.2,1.9c2.1,0.2,3.5,0.6,3.7-0.5
			c6.7,1.4,13.1,1,20.3,2.2c2.8,0.3,5.7,0.7,8.5,1c1.2-0.3,6.5-1.6,9.7-0.4c4.7,1.8,13,1.7,18.5,1.7c8.9,0,13,2.5,21.1,1.2
			c2.1,0.4,4.2,0.8,6.2,1.2c5.3,0.4,10.6,0.8,15.9,1.2c4.5,1.8,11.1,3.1,16.8,3.4C968.8,54.7,967.9,64.9,967,75.2z M910.8,35.7
			c0-0.2,0-0.5,0.1-0.7c0.7,0.1,1.5,0.1,2.2,0.2c0.4,0,0.7,0.1,1.1,0.1c-0.1,0.2-0.3,0.5-0.4,0.7C912.8,35.9,911.8,35.8,910.8,35.7z
			 M917.1,36.2c0-0.2,0-0.5,0.1-0.7c0.1,0,0.2,0,0.4,0c0,0.2,0,0.5-0.1,0.7C917.3,36.2,917.2,36.2,917.1,36.2z M919.7,36.4
			c0-0.2,0-0.5,0.1-0.7c0.4,0,0.7,0.1,1.1,0.1c0,0.2,0,0.5-0.1,0.7C920.4,36.4,920,36.4,919.7,36.4z M937.8,37.7
			c0.4,0,0.7,0.1,1.1,0.1c0,0.2,0,0.5-0.1,0.7C937.6,38.2,938,38.7,937.8,37.7z M945.5,39.4c0-0.1,0-0.2,0-0.4
			c0.3-0.1,0.5-0.2,0.8-0.3c0.4,0,0.7,0.1,1.1,0.1c0,0.2,0,0.5-0.1,0.7c-0.4,0-0.7-0.1-1.1-0.1C946,39.4,945.7,39.4,945.5,39.4z
			 M975.7,2.9c-3.2,11.6-5,25.7-5.3,36.4c-12.4-2.6-28.9-0.9-41.7-4.1c-5.3-0.4-10.6-0.8-15.9-1.2c-2-0.1-2.9-0.4-4-1
			c0.9-14.1,3-32.4,3.1-48.5c0-3.6,2.9-8.3,2.3-10.6c0-0.4,0.1-0.7,0.1-1.1c21.8,1.8,42.6,8.7,62.9,9.8
			C976.6-10.7,976.1-3.9,975.7,2.9z M236-83.2c0.2,0,0.5,0,0.7,0.1c0,0,0,0,0-0.1C236.5-83.2,236.2-83.3,236-83.2L236-83.2z
			 M212.6-83.8c-1.2,0.5-5.6,0.5-10.6,0.4c13.4,2.5,28.1-0.3,42,3.4c3.7,1,7.1,0.2,9.9,1.8c2.4,0.1,1.6,0.1,2.3-1
			c-8.8-3.3-20.6-3-32.1-3.8C220.2-83.3,216.4-83.5,212.6-83.8z M183-85.3c0.1,0.3,0.2,0.5,0.3,0.8c2.2,1.8,8,0.9,13.2,0.7
			c-5.6-0.4-10.8-0.9-11.7-1.4C184.2-85.2,183.5-85.2,183-85.3z M196.5-83.7c1.8,0.1,3.7,0.2,5.5,0.3c-0.1,0-0.1,0-0.2,0
			C200.3-83.8,198.4-83.8,196.5-83.7z M181.4-85c0,0.2,0,0.5-0.1,0.7c0.3-0.1,0.5-0.2,0.8-0.3c0-0.2,0-0.5,0.1-0.7
			C182-85.2,181.7-85.1,181.4-85z M267.1-76.9c-2.2-1.7-7.5-1.7-10.3-1.9C256.3-77.9,264.7-77,267.1-76.9z M312.3-74
			c0-0.2,0-0.5,0.1-0.7c-1.5-0.1-2.9-0.2-4.4-0.3c0.5,0.3,1,0.6,1.4,0.9C310.3-74.1,311.3-74,312.3-74z M317.4-73.6
			c-1-0.3-2-0.6-2.9-1C313.8-73.4,316.1-73.7,317.4-73.6z M313.8-74.2c-0.2,0-0.5,0-0.7-0.1c0.2,0.1,0.5,0.3,0.7,0.4
			C313.8-74,313.8-74.1,313.8-74.2z M330-72.3c0.2,0,0.5,0,0.7,0.1c0-0.1,0-0.2,0-0.4c-4.3-0.4-8.6-0.9-12.9-1.3
			C317.1-72.5,328.7-71.7,330-72.3z M334.1-72c0.2,0,0.5,0,0.7,0.1c-0.6-0.3-1.2-0.6-1.8-0.9c-0.5,0.1-1,0.2-1.5,0.3
			C332.3-71.9,333-71.6,334.1-72z M267.9-76.9c0.1-0.1,0.3-0.2,0.4-0.3c-0.2,0-0.5,0-0.7-0.1c0.1,0.3,0.2,0.5,0.3,0.8
			C267.9-76.6,267.9-76.7,267.9-76.9z M338.2-72.1c1.7,1.2,5.9,1.6,8.4,1.7C345-71.6,340.7-72,338.2-72.1z M282.2-74.7
			c0-0.1,0-0.2,0-0.4c-2.8-0.5-5.6-0.9-8.4-1.4c1.1,1.3,5.7,0.9,7.3,1.7C281.5-74.7,281.8-74.7,282.2-74.7z M355.1-69.7
			c-2-1.6-5.8-1.2-8.1-1.3C349.1-69.3,352-69.8,355.1-69.7z M372.4-67.8c0-0.1,0-0.2,0-0.4c-5.2-0.8-10.3-1.5-15.5-2.3
			c-0.4,0.1-0.8,0.2-1.1,0.3c2.3,1.9,8,0.1,11.4,2C369-68,370.7-67.9,372.4-67.8z M160.2-84.3c-0.2,0-0.5,0-0.7-0.1
			c0.2,0.1,0.5,0.3,0.7,0.4C160.2-84,160.2-84.2,160.2-84.3z M297-73.6c0.1,0,0.2,0,0.4,0c0-0.1,0-0.2,0-0.4c-5-0.5-10.1-1-15.1-1.5
			C283.8-74.2,295.3-73,297-73.6z M300.3-73c0-0.1,0-0.2,0-0.4c-0.9-0.2-1.7-0.4-2.5-0.6c0.2,0.3,0.5,0.5,0.7,0.8
			C299.1-73.1,299.7-73.1,300.3-73z M510.8-56.1c3.7,0.2,7.5,0.4,10.2,0.2C517.5-56.2,514.1-56.2,510.8-56.1z M303.2-72.4
			c0-0.2,0-0.5,0.1-0.7c-0.9-0.1-1.7-0.1-2.6-0.2c0.6,0.3,1.2,0.6,1.8,0.9C302.7-72.5,303-72.4,303.2-72.4z M306.6-71.8
			c0.4-0.1,0.8-0.2,1.1-0.3c0.1-0.1,0.3-0.2,0.4-0.3c-1.5-0.2-2.9-0.5-4.4-0.7C304.3-72.3,305.6-72.3,306.6-71.8z M310.2-71.5
			c1.9,0.1,3.7,0.3,5.6,0.4c-0.5-0.4-0.9-0.8-1.4-1.2c-1,0.6-2,0.3-4.1,0.1C310.3-72,310.3-71.8,310.2-71.5z M309.2-72
			c0.1-0.1,0.3-0.2,0.4-0.3c-0.2,0-0.5,0-0.7-0.1C309-72.2,308.7-71.7,309.2-72z M319.1-70.5c1.2,0.1,2.5,0.2,3.7,0.3
			c0-0.2,0-0.5,0.1-0.7c-2.2-0.2-4.4-0.3-6.7-0.5C317.1-71.2,318.1-70.8,319.1-70.5z M326.1-70c-0.6-0.3-1.2-0.6-1.8-0.9
			C323.6-69.8,324.8-70.1,326.1-70z M332.4-69.5c-0.6-0.2-1.2-0.3-1.8-0.5C331.4-69.1,330.8-69.7,332.4-69.5z M339.1-69
			c0.2,0,0.5,0,0.7,0.1c-0.4-0.2-0.7-0.3-1.1-0.5C339-69,338.8-69.2,339.1-69z M359-66.5c0-0.1,0-0.2,0-0.4c0.1-0.1,0.3-0.2,0.4-0.3
			c-0.5-0.2-1-0.3-1.5-0.5C358.1-66.8,357.7-67.3,359-66.5z M369.3-65.4c0.4,0,0.7,0.1,1.1,0.1c0-0.2,0-0.5,0.1-0.7
			c-3.4-0.4-6.9-0.8-10.3-1.1C362.1-65.1,367.2-66.8,369.3-65.4z M379.2-64.3c-2.1-1.4-4.9-1.2-8.1-1.3
			C372.9-64.5,376.5-64.4,379.2-64.3z M383.3-64c0.1,0,0.2,0,0.4,0c-1.2-0.3-2.4-0.7-3.6-1c-0.7,1.1,1.3,0.7,2.2,1.3
			C382.6-63.8,382.9-63.9,383.3-64z M385.9-63.8c-0.6-0.2-1.2-0.3-1.8-0.5c0.6,0.7,0.5,0.6,1.8,0.9
			C385.9-63.6,385.9-63.7,385.9-63.8z M386.3-63.8c1.4,0.2,2.7,0.4,4,0.7c-0.7-0.3-1.5-0.6-2.2-0.9
			C387.5-63.9,386.9-63.9,386.3-63.8z M401-62c-2.3-1.6-6.6-1.3-9.9-1.5C393.2-62.1,397.8-62.1,401-62z M872.1-25.5
			c0.2-0.9,0.4-1.7,0.6-2.5c-0.7-0.1-1.5-0.1-2.2-0.2c-0.1,0.2-0.3,0.5-0.4,0.7c-0.1,0.7-0.1,1.5-0.2,2.2c0.5-0.1,1-0.2,1.5-0.3
			C871.6-25.5,871.8-25.5,872.1-25.5z M428.3-58.5c-2-0.3-3.9-0.5-5.9-0.8C423.7-58.4,425.7-58.6,428.3-58.5z M220-62.5
			c-0.8-1.9-1.2-2.4-1.2-3.8c-2.3-1-3.6-2-6.2-2.3c-0.5,1.6-1,3.1-1.5,4.7c2.1,6.5,5,16.4,13.7,15.5c-0.3,3-1.6,2.9-3.2,3.8
			c-0.3,2.8,0.2,3.2,2.3,3.9l18.5,1.7c0.1,0,0.2,0,0.4,0c-0.2-0.3-0.5-0.5-0.7-0.8c0.3-0.1,0.5-0.2,0.8-0.3c1.3,0.6,0.6-0.2,1,1.2
			c0.1,0,0.2,0,0.4,0c1.5-4.5,2.7-9,3.1-12.8c0.5-4.1-0.7-9.8,2.4-12.1c-0.4-0.7-0.4-0.4-0.6-1.5c-5.6-0.4-4.6,4.6-7.2,7.6
			c0,1.5-0.2,1.5,0.6,2.3c0,0.1,0,0.2,0,0.4c-1.2,0.1-0.3-0.6-1.1,0.3c-2.4-2-3.7-11.2-5.3-14.5c-0.6-0.3-1.2-0.6-1.8-0.9
			c-0.4,0.2-0.8,0.4-1.2,0.7c-0.5,3.5-1.2,6.8-0.7,9.2c-0.1,0.7-0.1,1.5-0.2,2.2c-2-1.4-2.1-4.1-4.1-4.4c0.3-0.5,0.6-1,0.9-1.4
			c-2.5-1.5-4.4-3.3-5.9-5.6c-0.5,0.1-1,0.2-1.5,0.3c-0.6,1.2-1.2,2.4-1.8,3.6c0.3,0.8,0.6,1.5,1,2.3c0,0.2,0,0.5-0.1,0.7
			C220.5-62.4,220.2-62.5,220-62.5z M246.1-59.1c0.4,0,0.7,0.1,1.1,0.1c0,0.1,0,0.2,0,0.4c-0.4,0.2-0.8,0.4-1.2,0.7
			C245-58.4,245.8-58.2,246.1-59.1z M244-55.9c0.4,0.2,0.7,0.3,1.1,0.5c-0.3,1.1-0.7,2.2-1,3.3c0,0.1,0,0.2,0,0.4
			c-0.2,0-0.5,0-0.7-0.1C243.6-53.2,243.8-54.6,244-55.9z M225.7-49.1c0,0.1,0,0.2,0,0.4c-0.7-0.5-0.6-0.6-1-1.2
			c0-0.2,0-0.5,0.1-0.7c0.5,0,1,0.1,1.5,0.1C226-50,225.9-49.5,225.7-49.1z M232.2-41.1c0,0.1,0,0.2,0,0.4c-0.1,0-0.2,0-0.4,0
			c0-0.6,0.1-1.2,0.1-1.9c0.2,0.3,0.5,0.5,0.7,0.8C232.4-41.6,232.3-41.4,232.2-41.1z M239.6-41.3c-1.8-0.4-1.4-0.1-1.4-1.2
			c0.5,0,1,0.1,1.5,0.1C239.7-42.1,239.7-41.7,239.6-41.3z M235.6-52c0.3-0.8,0.1-1.8-0.6-2.6c0.2-2.7,0.2-4.8-0.3-5.6
			c-0.1-0.1-0.2-0.3-0.3-0.4c0.6-0.3,1.3-0.7,1.9-1c1.6,3.4,1,8.8,3.2,11.8c0,0.2,0,0.5-0.1,0.7c-1.7,0-3.5,0-5.2,0
			C233.7-49.9,234.9-50.5,235.6-52z M233.2-50c0,0.1,0,0.2,0,0.4c-1-0.4-0.4,0.2-0.7-0.8C232.7-50.3,232.9-50.1,233.2-50z
			 M232.5-45.6c0-0.2,0-0.5,0.1-0.7c0.1,0.3,0.2,0.5,0.3,0.8c2.7,0.1,4.8-0.3,6.6,0.9c0,0.1,0,0.2,0,0.4c-1.7,1.7-7.4-0.2-9.6-0.7
			c0.1-0.2,0.3-0.5,0.4-0.7C231-45.7,231.7-45.6,232.5-45.6z M227.4-62.7c0.1,0,0.2,0,0.4,0c-0.2,0.4-0.3,0.7-0.5,1.1
			c-0.2,0-0.5,0-0.7-0.1c-0.1-0.1-0.2-0.3-0.3-0.4C226.6-62.2,227-62.5,227.4-62.7z M231.8-51.2c0,0.4-0.1,0.7-0.1,1.1
			c-1.5-0.2-2.9-0.5-4.4-0.7c-1.4-0.3-1.4-0.4-2.2-0.9c0.3-1.3,0.6-1.8,1.3-2.5c-0.2-3.4-1.8-4.6-2.4-8.3
			C228.6-60.3,229.5-55.4,231.8-51.2z M223.9-50.3c0,0.5-0.1,1-0.1,1.5c-0.1-0.6-0.2-1.3-0.2-1.9C223.7-50.5,223.8-50.4,223.9-50.3z
			 M218.5-62.6c0.1,0,0.2,0,0.4,0c0,0.2,0,0.5-0.1,0.7c-0.1,0-0.2,0-0.4,0C218.4-62.1,218.5-62.3,218.5-62.6z M216.1-54.6
			c-0.1,0-0.2,0-0.4,0c-0.1-0.5-0.2-1-0.3-1.5c0.2,0,0.5,0,0.7,0.1C216.1-55.6,216.1-55.1,216.1-54.6z M221-50.5c0,0.1,0,0.2,0,0.4
			c-1.3-0.8,0.1-1.1-2.1-1.7c0-0.5,0.1-1,0.1-1.5c0.4,0,0.7,0.1,1.1,0.1c0.5,0.9,0.6,1,1.4,1.6C221.3-51.2,221.1-50.9,221-50.5z
			 M222.3-53.4c0.1,0,0.2,0,0.4,0c0,0.2,0,0.5-0.1,0.7c-0.1,0-0.2,0-0.4,0C222.2-52.9,222.2-53.1,222.3-53.4z M222-54.5
			c0,0.2,0,0.5-0.1,0.7c-3.6-1-6.6-5.7-6.4-8.6C218.6-60.8,219.9-57,222-54.5z M931.9,0.8c0.8-0.6,1.6-1.1,2.4-1.7
			c0,0-0.9-5.8,1-8.1c0.2-2.4,0-3.1-0.8-4.5c-1.2-0.3-3.5,0.4-4.1,0.1c-0.8-0.4-1.1-1.2-3.2-1.4c-0.9,0.8-1.9,1.9-3.1,2.4
			c-0.1,3.6,1,8.1,2.2,11C928.1-0.7,930,0.1,931.9,0.8z M930.4-8.6c0.4,0,0.7,0.1,1.1,0.1c-0.4,1-0.9,1.9-1.3,2.9
			c0,0.2,0,0.5-0.1,0.7c-0.2,0-0.5,0-0.7-0.1C929.7-6.2,930-7.3,930.4-8.6z M943.8-3.5c0.2,4.5,4.2,2.2,5.6,5.2
			c6.7,0.3,4.2-7.9,7.5-11.7c-0.3-0.6-0.7-1.3-1-1.9c-1.7-1.2-8.4-1.3-11.4-1.6c-0.7,0.9-1.4,1.9-2.1,2.8c0.3,1.2,1.4,2.3,1.6,3.1
			C944-6.2,943.9-4.9,943.8-3.5z M874.5-7.4c2.8,0.1,5.7-1,7.9-0.9c3.7,0.2,8.5,3,11.8,1.6c1.7-0.1,1.6-0.4,2.7-0.9
			c-0.2-1.4-0.4-1.7-0.9-2.7c-6.1-0.9-13.1-2.6-19.8-3.3c-0.4,0.1-0.8,0.2-1.1,0.3c-0.4,0.6-0.8,1.2-1.3,1.8c-0.1,1.6-0.1,2.2,0.5,3
			C874.3-8.2,874.4-7.8,874.5-7.4z M866.4-8.8c0.1-1.7,0.1-2.7-0.5-3.7c-0.6-0.9-0.9-1.2-2.1-1.7c-0.4,0.1-0.8,0.2-1.1,0.3
			c-0.6,0.9-0.5,0.9-1.6,1.4c-0.2,2.4,0.2,3,0.8,4.5C864.2-7.9,864.8-8.3,866.4-8.8z M277.8-55.3c0.1-0.1,0.3-0.2,0.4-0.3
			c-0.2,0-0.5,0-0.7-0.1C277.7-55.5,277.4-55,277.8-55.3z M169.1-63.2c-0.4,0.1-0.8,0.2-1.1,0.3c0,0.1,0,0.2,0,0.4
			C169.2-62.7,168.8-62.8,169.1-63.2z M377.7-22c0.9,0.4,2.2-0.4,2.5,0.6c3.4-0.3,5-2.3,7-4.3c1.9,4.4,5.8,7.4,7.3,12
			c0.5-0.1,1-0.2,1.5-0.3c-0.2-6.6-4.2-10.2-4.9-14.1c0.4-2.4,0.9-4.9,1.3-7.3c-0.5-2.5-7.3-11.5-10.3-12.3c-2,0.7-4.1,1.4-6.1,2.2
			C369.7-40.2,369.7-25.4,377.7-22z M379.2-43.5c0.5,0,1,0.1,1.5,0.1c1.4,2.4,3.7,2.3,5.7,4.1c1.1,1.8,2.2,3.6,3.3,5.5
			c-0.2,0.7-0.4,1.5-0.5,2.2c-0.8,1-2.4,0.8-3.1,1.6c-2.1,2.5-0.6,3.9-4.1,4.9c-1.1,0-2.3,0.1-3.3,0.1
			C372.6-31.8,372.1-37,379.2-43.5z M203.3-17.6c0,0.2,0,0.5-0.1,0.7c0.9,0.1,1.7,0.1,2.6,0.2c0.8-2.7,5.7-0.1,9.7-0.8
			c6.9-1.1,18,2.6,23,0.2c1,0.4,0.4-0.2,0.7,0.8c5.9-0.2,10.2,0.7,17.4,1.3c1.7,0,3.5,0,5.2,0c2.5,1.1,8.8,3.9,12.1,2.4
			c0.1,0.4,0.2,0.8,0.3,1.1c1.5,1.1,6.1-0.2,7.8,0.6c2.2,0.1,2.5-0.2,3.8-0.8c0.5-4.2,0.7-14.1,1.7-21.3c0-0.2-0.1-0.3-0.1-0.5
			c0.1,0,0.1,0,0.2,0c0.5-3.2,1.2-5.8,2.2-6.9c0.2-2.2,0.2-3.9-0.4-5.2c-5.3-0.4-17.9-0.4-21.7-2.7c-3.3-0.3-3,0.5-4.6,1.9
			c0,0.6-0.1,1.2-0.1,1.9c1.7,0.4,1.6,0.7,2.6-0.6c0.1,0.4,0.2,0.8,0.3,1.1c1.1-0.1,1.2-0.1,1.9-0.6c0,0.2,0,0.5-0.1,0.7
			c2.5,0.2,2.1,0.3,2.3-1.3c0.2,0,0.5,0,0.7,0.1c0,0.6-0.1,1.2-0.1,1.9c2.8,0.2,4.3,0.2,6.1-1.4c0.1,0,0.2,0,0.4,0
			c-0.4,0.3-0.8,0.7-1.2,1c0,0.1,0,0.2,0,0.4c3.6,0.3,6.7,0.5,8.4,1.7c0.4,0.2,0.7,0.3,1.1,0.5c0.7,5.7-0.8,13.7-1,18.9
			c-0.5-0.2-1-0.3-1.5-0.5c0.5,1.2,0,0.7,1.4,1.2c-0.3,2-0.5,3.9-0.8,5.9c0,0.2,0,0.5-0.1,0.7c-1.9-0.1-3.7-0.3-5.6-0.4
			c-2.2,0-2.6-0.4-2.9-1c0-0.1,0-0.2,0-0.4c-4.9-0.7-19.4-4-23.2-2.4c-0.1,0-0.2,0-0.4,0c0,0.1,0,0.2,0,0.4
			c4.1,0.2,8.2-0.1,11.1,1.6c0.5,0,1,0.1,1.5,0.1c-2.1,2.3-8.8,0.2-11.9,0.3c-10.3,0.1-26.1-2.7-36.3-1.9c-2.8,0.2-5.7-1.7-7.4-0.2
			c-0.5-0.3-1-0.6-1.4-0.9c2.5-2.6,15.4,0.3,18.7-0.9c0.2,0,0.5,0,0.7,0.1c0-0.1,0-0.2,0-0.4c-6.1-0.2-12.1-0.4-18.2-0.6
			c-8.4,1-17.1,1.5-23.7-1.7c-0.2,1-0.4,2-0.6,2.9c-0.2,0-0.5,0-0.7-0.1c1.3-10.4-1.8-21.9-1.8-32.1c1.3,0.1,6.8-0.6,6.8-0.6
			c1.2,1.2,11.9,3.8,14.2,4.4c0.3-0.7,0.6-1.5,0.9-2.2c-0.2-0.8-0.4-1.5-0.6-2.3c-6.9-1.5-18.2-3.6-23.9-4c-1.6,0.2-1.8,0.5-2.7,1.3
			c-0.8,0.9,3.1,8.3,3.7,9.9c2.3,5.9,1,21.4,0.9,23.5c-0.1,2.5-0.2,4.5-1.2,5.5c0.1,0.5,0.2,1,0.3,1.5c4.7,1.1,19.5-2.2,24.3-2.3
			C203.8-17.8,203.6-17.7,203.3-17.6z M278.8-43.7c-0.4,0-0.7-0.1-1.1-0.1c0-0.2,0-0.5,0.1-0.7c0.4,0,0.7,0.1,1.1,0.1
			C278.9-44.2,278.8-44,278.8-43.7z M285.6-14.2c-0.1,0.1-0.3,0.2-0.4,0.3c0,0.1,0,0.2,0,0.4c-0.1-0.4-0.2-0.8-0.3-1.1
			C285.1-14.5,285.4-14.3,285.6-14.2z M280.4-13.8c0.4,0,0.7,0.1,1.1,0.1c-0.6,1.1-0.6,0.7-0.5,1.8c-0.2-0.1-0.5-0.3-0.7-0.4
			C280.3-12.8,280.3-13.3,280.4-13.8z M274.5-14.3c0.2,0.1,0.5,0.3,0.7,0.4c-0.1,0-0.2,0-0.4,0c-0.1,0.1-0.3,0.2-0.4,0.3
			C274.4-13.8,274.4-14,274.5-14.3z M273-14.4c0.1,0,0.2,0,0.4,0c-0.1,0.1-0.3,0.2-0.4,0.3s-0.3,0.2-0.4,0.3
			c-0.1-0.4-0.2-0.8-0.3-1.1C272.5-14.7,272.8-14.5,273-14.4z M269.2-13.9c0.4-1.6,0.5-1.2,1.3-2.2c0.3,0.8-0.6,1.8-0.9,2.2
			c0,0.1,0,0.2,0,0.4c-0.2,0-0.5,0-0.7-0.1C269-13.7,269.1-13.8,269.2-13.9z M266-14.9c0.1,0.4,0.2,0.8,0.3,1.1
			c-0.2,0-0.5,0-0.7-0.1C265.7-14.2,265.8-14.5,266-14.9z M232.7-18c0.1,0.3,0.2,0.5,0.3,0.8c-0.2,0-0.5,0-0.7-0.1
			C232.4-17.6,232.6-17.8,232.7-18z M201.6-50.8c0,0.4-0.1,0.7-0.1,1.1c-0.1,0-0.2,0-0.4,0c-0.1-0.4-0.2-0.8-0.3-1.1
			C201.2-50.8,201.4-50.8,201.6-50.8z M192.9-52.6c0,0.1,0,0.2,0,0.4c-1-0.4-0.4,0.2-0.7-0.8C192.4-52.8,192.6-52.7,192.9-52.6z
			 M180.4-50.5c-0.1,0-0.2,0-0.4,0c0-0.2,0-0.5,0.1-0.7c0.1,0,0.2,0,0.4,0C180.4-51,180.4-50.7,180.4-50.5z M182.4-16.9
			c-0.1,0-0.2,0-0.4,0c-0.4-1.2-0.2-0.6-0.3-1.5c0.2,0.1,0.5,0.3,0.7,0.4C182.5-17.6,182.5-17.2,182.4-16.9z M205.4-20.8
			c0.4,0.2,0.7,0.3,1.1,0.5c0,0.1,0,0.2,0,0.4c-0.4,0-0.7-0.1-1.1-0.1C205.4-20.3,205.4-20.5,205.4-20.8z M885.4,2.3
			c-2.6-0.7-3.9-1.3-6.1-2.7c-2.6,1.1-2.8,1.2-4.7,3c0.1,1.7,0.4,2.1,1.3,3.1c0.5,1.7,9.1-0.4,11.8,1.6c3.5,0.3,6.9,0.6,9-0.5
			c0.1-2.4-0.4-2.9-1.6-4.2C893.4,1.6,889.1,3.3,885.4,2.3z M866.6,4.3c0-2.4-1.5-3.3-3.4-4c-1.4,1.2-2.1,2.4-3.2,3.8
			c0.3,0.5,0.7,1,1,1.6C864.1,6,864.8,5.3,866.6,4.3z M921.4,22.4c3.4,0.5,8.3,1.4,11.2,0.1c2.1-1.7,2.5-7.2,2.7-11.7
			c-0.3-0.5-0.7-1-1-1.6c-4.2,0.2-5.9,1.2-10.7-0.8c-0.7,0.9-1,1.5-2,2.1C921,14,921.7,19.1,921.4,22.4z M926.2,18.3
			c0,0-0.6-1.4-0.6-1.5C926.9,17.2,927.4,17.3,926.2,18.3z M949.1,10.6c-1.2,0.8-2.4,1.6-3.5,2.4c0,0.2,0,0.5-0.1,0.7
			c0.3-0.2,0.5-0.5,0.8-0.7c0.8,2.6,0.2,6.7,0.4,10.1c1.8,0.8,4.5,0.3,5.4,1.9c1.8,0.1,2.4-0.1,3.4-0.5c0.2-4.1-0.3-6.2,1.8-8.8
			c0.2-2,0-3-0.4-4.1C954.2,11.3,951.7,11,949.1,10.6z M952.6,18.3c-0.2,0.4-0.3,0.7-0.5,1.1c-0.5,0-1-0.1-1.5-0.1
			c0.5-2.2,0.7-2,1.7-3.2c0.2,0.1,0.5,0.3,0.7,0.4C952.9,17.1,952.7,17.7,952.6,18.3z M212.3-33.7c-1.5-0.7-2-2.3-2.3-3.9
			c-5.1-0.3-8.5,2-11.3,1.8c-0.5,0-1-0.1-1.5-0.1c0.3-0.1,0.5-0.2,0.8-0.3c0.1-0.7,0.1-1.5,0.2-2.2c-0.3,0.1-0.5,0.2-0.8,0.3
			c-0.4,0-0.7-0.1-1.1-0.1c0.7-2,1.5-1-0.2-2.6c-1.2,0.7-1.3,0.3-2,1.7c-0.6,1.5,0.5,5.5,1.3,7.1c0,0.2,0,0.5-0.1,0.7
			c2.6,0.3,7.5-1.7,9.1-2.7c0.9,0.2,1.7,0.4,2.5,0.6c0.2,0.8,0.4,1.5,0.6,2.3c2.3,2.7,13.7,0.9,18.1,2.1c2.6,0.7,5.7,0.9,6.7-0.3
			c0.1,0.4,0.2,0.8,0.3,1.1c0.1,0.1,0.2,0.3,0.3,0.4c0-0.5,0.1-1,0.1-1.5c0.7,1,0.3,0.4,0.3,1.5c5.8,0.2,25.2,5.7,32.1,3.1
			c1.7-0.1,1.6-0.4,2.7-0.9c-0.2-0.5-0.4-1-0.6-1.5c0.5-0.7,0.6-0.6,1.2-1c0.1,0,0.2,0,0.4,0c0-0.1,0-0.2,0-0.4
			c-4.1-0.3-8.3,1-12.3,0.6c-6.9-0.7-18.2-2.3-26.4-4.5C224.4-32.8,218.3-33.2,212.3-33.7z M203.5-35.4c-0.1,0.1-0.3,0.2-0.4,0.3
			c0-0.2,0-0.5,0.1-0.7c0.2,0.1,0.5,0.3,0.7,0.4C203.7-35.4,203.6-35.4,203.5-35.4z M205.7-35.3c-0.1,0-0.2,0-0.4,0
			c0.2-0.4,0.3-0.7,0.5-1.1c0.2,0.1,0.5,0.3,0.7,0.4C206.3-35.7,206-35.5,205.7-35.3z M225.1-30.1c-0.1,0-0.2,0-0.4,0
			c0-0.5,0.1-1,0.1-1.5c0.4,0.2,0.7,0.3,1.1,0.5C225.5-30.5,225.5-30.7,225.1-30.1z M253.1-26.6c0.2,0.1,0.5,0.3,0.7,0.4
			c0,0.1,0,0.2,0,0.4c-0.2,0-0.5,0-0.7-0.1C253-26.1,253-26.3,253.1-26.6z M239.5-29.1c2.2,0.5,2.4,1.4,4.4,1.1
			c0,0.4-0.1,0.7-0.1,1.1c-1-0.2-2-0.4-2.9-0.6c-0.6,0-1.2-0.1-1.9-0.1C239.2-28.1,239.3-28.6,239.5-29.1z M287.7-32.6
			c0-0.4,0.1-0.7,0.1-1.1c-0.1,0-0.1,0-0.2,0c0,0.2-0.1,0.3-0.1,0.5C287.6-33.1,287.7-32.8,287.7-32.6z M966.8,17.5
			c-0.5-0.3-1-0.6-1.4-0.9c0.5,0.9-0.1,0.2,0.7,0.8c-0.6,0.8,0.1,0.2-0.8,0.7c0,0.1,0,0.2,0,0.4C966.5,18.1,966,18.2,966.8,17.5z
			 M894.1,20c0.2,0,0.5,0,0.7,0.1c-0.1-0.8-0.1-1.5-0.2-2.3c-0.5-1.3-2.2-2.8-3.5-3.2c-1.8,0.2-3.5,0.5-5.3,0.7
			c-4.2-0.9-6.7-2.4-11.3-2.7c-0.5,0.8-1,1.2-1.6,1.8c-0.2,3.6,1,3.3,2.2,5.4C877.3,19.7,892.1,20.7,894.1,20z M865.2,13.5
			c-0.6,0-1.2-0.1-1.9-0.1c-0.4,0.2-0.8,0.4-1.2,0.7c-0.1,0.2-0.3,0.5-0.4,0.7c0,1.1,0.1,2.3,0.1,3.3c0.4,0.3,0.7,0.6,1.1,0.8
			c2.2,0,2.1-0.5,3.4-1.2c-0.1-1-0.1-2-0.2-3C865.5,14.1,865.6,14.3,865.2,13.5z M270.6-28.3c-0.3,0.4-0.6,0.7-0.8,1.1
			c0,0.1,0,0.2,0,0.4c0.5-0.2,1-0.4,1.5-0.6C270.9-28.4,271.4-27.7,270.6-28.3z M269.7-26.1c0-0.1,0-0.2,0-0.4c-0.2,0-0.5,0-0.7-0.1
			C269.3-26.4,269.5-26.3,269.7-26.1z M282.4-21.5c0.1,0,0.2,0,0.4,0c-0.1-0.3-0.2-0.5-0.3-0.8C282.5-22,282.5-21.7,282.4-21.5z
			 M175.5-29.3c-0.2,0.7-0.4,1.5-0.5,2.2c0.2,0,0.5,0,0.7,0.1C175.7-27.8,175.6-28.5,175.5-29.3z M177.2-26.5c0.4,0,0.7,0.1,1.1,0.1
			c-0.2-1.8-0.2-1.5-1.7-2C176.3-26.9,176.3-27.6,177.2-26.5z M184.9-25.3c0.4,0,0.7,0.1,1.1,0.1c-0.1-0.1-0.2-0.3-0.3-0.4
			c-0.5-0.6-0.2-0.4-1.1-0.8C184.7-25.4,184.4-26.3,184.9-25.3z M174.2-26c0.3,0.8,0.3,0.6,0.7,1.2c0.2,0,0.5,0,0.7,0.1
			c-0.2-0.5-0.4-1-0.6-1.5C174.7-26.2,174.4-26.1,174.2-26z M227.4-21.1c-0.2,0-0.5,0-0.7-0.1c2.6,1.3,7-0.6,10.8,0
			c4.7,0.6,9.3,1.2,14,1.8c-2.9-2.2-14.9-2.2-19.5-2.5C230.4-21.5,228.9-21.3,227.4-21.1z M176.7-24.7c-0.2,0-0.5,0-0.7-0.1
			C176.6-24.4,176.1-24.3,176.7-24.7z M261-13c-0.6-0.9,0.1-0.3-1.1-0.8C259.3-12.8,259.8-13.3,261-13z M225.5-15.2
			c-0.2,0-0.5,0-0.7-0.1C225-15.3,225.2-15.3,225.5-15.2L225.5-15.2z M228.8-15.7c-1.1,0.2-2.3,0.3-3.4,0.5c1.7,0.1,3.4,0.3,5.2,0.4
			C230-15.1,229.4-15.4,228.8-15.7z M232.1-15.1c5.4,0.5,10.8,1,16.3,1.6c-2.2-1.5-8.6-1.5-12.9-1.7
			C234.4-15.2,233.3-15.2,232.1-15.1z M251.4-13.7c0.2,0,0.5,0,0.7,0.1c0-0.1,0-0.2,0-0.4c-0.5,0-1-0.1-1.5-0.1
			c-0.6,0.1-1.3,0.2-1.9,0.2C249.7-13.8,250.5-13.8,251.4-13.7z M257.3-12.9c0-0.1,0-0.2,0-0.4c0.1,0,0.2,0,0.4,0c0-0.1,0-0.2,0-0.4
			c-1-0.1-2-0.1-2.9-0.2C255.1-13.4,255.5-13.6,257.3-12.9z M209.5-16c0-0.2,0-0.5,0.1-0.7c-0.7-0.1-1.5-0.1-2.2-0.2
			C208-16.2,208-16.2,209.5-16z M211.4-16.3c1.2,0.2,2.4,0.4,3.7,0.6c-0.6-0.3-1.2-0.6-1.8-0.9C212.6-16.4,212-16.3,211.4-16.3z
			 M222.9-15.4c-2.1-0.3-4.2-0.6-6.3-0.8C217.1-14.7,219.6-15.1,222.9-15.4z M224.3-14.9c0-0.1,0-0.2,0-0.4c0.1-0.1,0.3-0.2,0.4-0.3
			c-0.2,0-0.5,0-0.7-0.1C224.1-15.5,224.2-15.2,224.3-14.9z M353.7-4.8c-0.2,0-0.5,0-0.7-0.1c0.2,0.1,0.5,0.3,0.7,0.4
			C353.7-4.5,353.7-4.7,353.7-4.8z M726.3,46.9c-3.5,3-10.9,0.1-16,0.3c-3.8-0.3-7.6-0.6-11.5-0.8c-9.6,0.9-24.4,0.8-34.5-1.8
			c-4.8-0.5-9.6-1-14.4-1.4c-1,0.3-2,0.6-3,0.9c-0.1,0.7-0.1,1.5-0.2,2.2c0,0,14.8,0.5,17.8,0.2c7.1-0.8,20.3,2.2,29.3,1.8
			c7.8-0.4,16.3,0.2,21.8,1.2c3.7,0.7,10.5-1.5,12,3.1c0.6-0.3,1.3-0.7,1.9-1c-0.2-2.4-1.2-3.1-2.3-4.6
			C727,46.9,726.7,46.9,726.3,46.9z M363.4,26.4c12-1.5,24.4,1.8,38.1,2.4c-4.1-2.7-10.7-0.8-17.3-2.7c-5.6-1.7-14-3.3-20.1-4.4
			c-0.7,1-0.9,1.2-2,1.7c0.1,0.5,0.2,1,0.3,1.5C362.7,25.7,362.9,25.7,363.4,26.4z M431.5,31.3c0.8,0.1,1.6,0.2,2.4,0.3
			C433.1,31.4,432.3,31.3,431.5,31.3z M431.5,31.3c-3.1-0.4-6.3-0.9-8.9-1C425.1,32.3,428.1,31.2,431.5,31.3z M441.5,35.8
			c0-0.4,0.1-0.7,0.1-1.1c0.7,0.1,1.5,0.1,2.2,0.2c-0.1-0.8-0.1-1.5-0.2-2.3c-0.5-1.2-0.8-1.2-2.1-1.7c-2.1,0.8-4.7,0.9-7.6,0.6
			c0.5,0.1,1,0.3,1.6,0.5C437.5,32.8,439.9,34.6,441.5,35.8z M406.6,29.6c-1-0.3-2-0.6-2.9-1c0.4,0.3,0.7,0.6,1.1,0.8
			C405.4,29.5,406,29.5,406.6,29.6z M407.8,28.9c-0.2,0-0.5,0-0.7-0.1c0.2,0.1,0.5,0.3,0.7,0.4C407.8,29.2,407.8,29,407.8,28.9z
			 M413.3,30.1c-1-0.7-2.3-0.9-4-1c0.4,0.3,0.7,0.6,1.1,0.8C411.3,29.9,412.3,30,413.3,30.1z M418.1,30.4c0-0.1,0-0.2,0-0.4
			c-1.5-0.2-2.9-0.5-4.4-0.7c0.5,0.3,1,0.6,1.4,0.9C416.1,30.3,417.1,30.3,418.1,30.4z M442.2,36.2c-0.1-0.3-0.2-0.5-0.3-0.8
			C441.3,35.6,441.6,36,442.2,36.2z M220,34.6c0.2-0.5,0.3-1,0.5-1.5c0.5-0.1,1-0.2,1.5-0.3c1.4,0.1,2.7,0.2,4.1,0.3
			c-0.1-0.1-0.2-0.3-0.3-0.4c0.8-2.4,6.5-0.4,10.5-1.1c8.1,0.3,16.3,0.7,24.5,1c2.6,0,3.6,0.1,4.3,1.8c2,0.3,2.7,0.5,4.1-0.4
			c0.4,0,0.7,0.1,1.1,0.1c-0.3,0.7-0.6,1.5-0.9,2.2c0,0.1,0,0.2,0,0.4c2,0.2,3,0,4.1-0.4c-0.2-1.1-0.2-0.8-0.6-1.5
			c1.2-0.3,1.2-0.5,2.6-0.6c-1.9-2.6-17.8-2.4-22.4-3.1c-3.9-0.2-7.9-0.3-11.9-0.5c-3.1,0.1-10.7,0.2-15.3,0.4
			c-3.9-0.3-7.9-0.6-11.9-0.9c-2.9-0.2-5.9-0.4-8.9-0.7c-1.2,0.2-0.9,0.3-1.9,0.6c-0.1,2.7,0.6,3,1.5,4.6
			C209.7,34.6,215,32.7,220,34.6z M271.6,35.7c0,0.2,0,0.5-0.1,0.7c-0.8-0.7-0.3,0.1-0.7-1.2C271.1,35.5,271.3,35.6,271.6,35.7z
			 M267.7,33.2c0.1,0,0.2,0,0.4,0c0,0.2,0,0.5-0.1,0.7c-0.1,0-0.2,0-0.4,0C267.6,33.7,267.7,33.5,267.7,33.2z M216.8,31.7
			c0.1,0,0.2,0,0.4,0c-0.1,0.1-0.3,0.2-0.4,0.3c-0.1,0.1-0.3,0.2-0.4,0.3c-0.1-0.4-0.2-0.8-0.3-1.1
			C216.4,31.4,216.6,31.6,216.8,31.7z M207.9,32.2c0.4,0,0.7,0.1,1.1,0.1c0,0.1,0,0.2,0,0.4c-0.4,0.1-0.8,0.2-1.1,0.3
			C207.8,32.7,207.8,32.4,207.9,32.2z M194.1,27.1c-0.6,0-1.2-0.1-1.9-0.1c-1.2,1.6-1.8,3-3,5c0,1.7,0.2,1.8,0.5,3
			c0.6,0.2,1.2,0.3,1.8,0.5c0.4-0.2,1.2,0.2,0.8-0.7c-0.1,0-0.2,0-0.4,0c0.9-1,2-0.9,3-0.5C195.7,31.8,194.9,30.1,194.1,27.1z
			 M193,32.2c-0.4,0-0.7-0.1-1.1-0.1c0.3-0.7,0.6-1.5,0.9-2.2c0.8,0.6,0.2-0.1,0.7,0.8C193.9,31.2,193.3,31.3,193,32.2z M697.7,66.4
			c-2.3-0.4-7.1-1.4-8.4-1.4c-2.8,0-5.7,0.1-8.6,0.1c-8.1-2.4-21-3.8-30.9-4.5c-0.4,0.2-0.8,0.4-1.2,0.7c-0.1,0.2-0.3,0.5-0.4,0.7
			c0,2,0.2,1.9,0.9,3c2.9,0,4.9-0.8,7.9-1.3c5.9,0.4,11.9,0.9,17.7,1.3c0.7,0.3,1.5,0.6,2.2,0.9c9.7-0.9,28.3,1.3,37.6,4.2
			c0.1-0.1,0.3-0.2,0.4-0.3c0-1.1-0.1-2.3-0.1-3.3C709.6,66.4,704,67.4,697.7,66.4z M363.2,44.3c1.6,1.1,14.9,0.5,18.1,1.3
			c3.1,0.1,6.2,0.2,9.3,0.3c0.1,0,0.2,0,0.4,0c-5.1-3.4-20.7-2.4-26-5.2c-0.7,0.6-1.4,1-2.3,1.3C362.6,43.5,362.5,43.5,363.2,44.3z
			 M242.6,34.7c0-0.1,0-0.2,0-0.4c-0.6-0.2-1.2-0.3-1.8-0.5c0,0.2,0,0.5-0.1,0.7C241.4,34.7,242,34.7,242.6,34.7z M391.3,46.3
			c-0.1,0-0.2,0-0.4,0c0,0.1,0,0.2,0,0.4c2.9,0.3,8.8,0.1,9.3,0.3c2.6,1.3,11.4,2.8,14.7,2.9c3.6,0.3,7.1,0.5,10.7,0.8
			c2.8,0.9,2.7,1.8,6.2,1.6c-0.1-0.8-0.1-1.5-0.2-2.3c-8.8-0.7-18.9-2-26.9-2.7C399.8,46.8,395.3,44.4,391.3,46.3z M194.6,35
			c-0.1-0.3-0.2-0.5-0.3-0.8C193.7,34.3,194,34.8,194.6,35z M193.5,34.9c-0.2,0-0.5,0-0.7-0.1c0.2,0.1,0.5,0.3,0.7,0.4
			C193.5,35.1,193.5,35,193.5,34.9z M709.5,78.3c-1.8,0.7-4.3-0.1-6-0.1c-11.4,0.6-23.8-2.5-34.9-1.4c-4.4,0.4-8.3-2.3-11.9-0.5
			c-0.2,0-0.5,0-0.7-0.1c-0.1,0.2-0.3,0.5-0.4,0.7c0.1,1.9,0.3,1.6,0.9,2.7c4.5,0.3,6.7-1.4,10.9-1.8c7.1-0.7,18.4,1.9,25.6,1.1
			c5.3-0.6,15.8,0.4,17.7,2.4c0.5-0.1,1-0.2,1.5-0.3c-0.1-0.8-0.1-1.5-0.2-2.3C711.2,78.7,710.3,78.5,709.5,78.3z M380.5,61.5
			c3.1-0.2,5.3,2.1,7.4,0.2c0,0.2,0,0.5-0.1,0.7c2.8,0.8,6.9,1.5,7.3,2c0.1,0,0.2,0,0.4,0c-0.5-5-21.4-4.2-25.7-5.2
			c-3.1-0.3-6.2-0.7-9.2-1c-0.5,0.8-0.8,0.9-1.6,1.4c0,0.5-0.1,1-0.1,1.5C364.4,62.6,374.9,61.9,380.5,61.5z M276.2,58.4
			c-6.8,0-13.6,0-20.5,0c4.2,0.3,8.4,0.6,12.6,0.9c3.4,0.2,3.9,1,5.4,2.6c0.6,0.2,1.9-0.4,3-0.5c-0.3,0.1-0.5,0.2-0.8,0.3
			c0,0.2,0,0.5-0.1,0.7c0.6-0.2,1.3-0.4,1.9-0.6c0.8,0.7,0.3-0.1,0.7,1.2c1.8-0.1,3.5-0.2,5.2-0.4c-0.2-0.8-0.4-1.5-0.6-2.3
			c0.6-0.1,1.3-0.2,1.9-0.2C282.7,58.6,279.3,58.6,276.2,58.4z M282.3,62.2c-0.1,0-0.2,0-0.4,0c0-0.2,0-0.5,0.1-0.7
			c0.1,0,0.2,0,0.4,0C282.3,61.7,282.3,61.9,282.3,62.2z M237.6,63.4c-1.7-1.2-6.4-1.5-7-0.9c-0.5,0-1-0.1-1.5-0.1
			c0-0.1,0-0.2,0-0.4c1.4-0.4,1.9-1.7,3.1-2c0.3-0.1,0.5-0.1,0.7-0.1c-3.5,0-6.9,0-9.3,0.3c-5.3-0.5-10.6-1-15.9-1.5
			c-0.8,0.4-0.9,0.6-1.6,1c0.2,1.1,0.3,2.3,0.5,3.4c0,0.2,0,0.5-0.1,0.7C216,64.7,226.1,62.7,237.6,63.4z M227.3,61.9
			c0.5,0,1,0.1,1.5,0.1c-1,0.2-2,0.4-3,0.5C226.2,62.3,226.8,62.1,227.3,61.9z M210.1,62.9c0.2,0.1,0.5,0.3,0.7,0.4
			c-0.1,0.1-0.3,0.2-0.4,0.3c-0.2,0-0.5,0-0.7-0.1C209.8,63.3,210,63.1,210.1,62.9z M233,59.9c0.4,0,0.7,0,1.1,0
			C233.7,59.8,233.4,59.8,233,59.9z M236.3,59.9c0,0.5-0.1,1-0.1,1.5c0.5,0.2,1,0.3,1.5,0.5c0.1,0,0.2,0,0.4,0
			c-0.4-0.8-0.6-0.9-1-1.6c2.6-0.2,5.2-0.4,7.8-0.5c2,0.2,2.1-0.1,2.2,0.9c1.3-0.4,0.6,0.2,0.8-1.1c2.2-0.6,5.9-0.7,7.4,0.5
			c0-0.1,0-0.2,0-0.4c0.2-0.4,0.3-0.7,0.5-1.1c-1.7-0.1-3.4-0.3-5.2-0.4c-3.2,1.6-10.1,1.6-16.5,1.5C234.9,60,235.5,60.2,236.3,59.9
			z M284.5,62.3c-0.1-0.3-0.2-0.5-0.3-0.8c0,0.2,0,0.5-0.1,0.7C284.3,62.3,284.4,62.3,284.5,62.3z M268.9,61.9
			c1.5,0.1,2.9,0.2,4.4,0.3c-1.6-1.1-2.7-0.8-4.4-1.4C269,61.2,268.9,61.6,268.9,61.9z M266.7,61.4c0,0.2,0,0.5-0.1,0.7
			c0.7,0.1,1.5,0.1,2.2,0.2c0-0.1,0-0.2,0-0.4c-0.5-0.3-1-0.6-1.4-0.9C267.2,61.2,267,61.3,266.7,61.4z M262.6,62.2
			c0.2,0,0.5,0,0.7,0.1c0-0.2,0-0.5,0.1-0.7c-0.7-0.1-1.5-0.1-2.2-0.2c-0.3,0.1-0.5,0.2-0.8,0.3C261.1,61.9,261.9,62,262.6,62.2z
			 M254.4,62c1.3-0.1,0.9-0.2,1.2-0.7c-0.4,0.1-0.8,0.2-1.1,0.3C254.4,61.7,254.4,61.9,254.4,62z M257.8,62.2c0-0.1,0-0.2,0-0.4
			c-0.4-0.2-0.7-0.3-1.1-0.5C256,62.4,256.6,62,257.8,62.2z M152,54.2c0,0.2,0,0.5-0.1,0.7h0C152,54.7,152,54.4,152,54.2
			C152,54.2,152,54.2,152,54.2z M189.2,59.1c0.1,1.9,0.3,1.6,0.9,2.7c2.4,0,2.4-0.6,3.8-1.6c-0.4-1.6-0.9-2.4-2.4-3.1
			c-0.5,0.2-1,0.4-1.5,0.6c-0.9,0.5-0.2-0.1-0.8,0.7C189.2,58.6,189.2,58.9,189.2,59.1z M249.6,62c-0.1,0-0.2,0-0.4,0
			c0,0.1,0,0.2,0,0.4c0.9-0.1,1.8-0.1,2.6-0.2c0.6,0,1.2,0.1,1.9,0.1c0-0.1,0-0.2,0-0.4c-0.9-0.2-1.7-0.4-2.5-0.6
			C250.6,61.6,250.1,61.8,249.6,62z M259.3,62c-0.2,0-0.5,0-0.7-0.1c0.2,0.1,0.5,0.3,0.7,0.4C259.2,62.2,259.3,62.1,259.3,62z
			 M243.6,62.3c0,0.1,0,0.2,0,0.4c0.6,0,1.2,0.1,1.9,0.1c0-0.1,0-0.2,0-0.4c-0.4-0.2-0.7-0.3-1.1-0.5
			C244.1,62.1,243.9,62.2,243.6,62.3z M246.9,62.6c0-0.1,0-0.2,0-0.4c-0.2,0-0.5,0-0.7-0.1C246.5,62.3,246.7,62.4,246.9,62.6z
			 M240.6,63.2c-0.5-0.3-1-0.6-1.4-0.9C238.4,63.4,239.3,63,240.6,63.2z M222.4,93.1c1.1,0.1,2.2,0.2,3.3,0.2
			c-0.1-0.3-0.2-0.5-0.3-0.8c0.7-1.7,1.3-1.4,2.3-0.6c0.7,0.1,1.5,0.1,2.2,0.2c-0.2-0.1-0.5-0.3-0.7-0.4c0-0.1,0-0.2,0-0.4
			c2.8,0.7,13.6-0.3,13.8-0.1c1.7,0.4,4.3-1.5,5.2,0c0.5,0,1,0.1,1.5,0.1c-0.2-0.3-0.5-0.5-0.7-0.8c0-0.1,0-0.2,0-0.4
			c2.7,0.3,9.3,2.2,10.3,1.9c2.7-0.9,7.8-1.4,10.1-0.8c5.1,1.3,7.4,3.2,13.9,4c0.1-0.2,0.3-0.5,0.4-0.7c0,0-0.2,0.4-0.4,0.7
			c1,0.1,2.1,0.2,3.3,0.3c-0.4-0.2-0.7-0.3-1.1-0.5c0.3-0.6,0.6-1.2,0.9-1.8c1.7,0.1,2.4,0.1,3.4-0.5c0.1,0,0.2,0,0.4,0
			c0-0.1,0-0.2,0-0.4c-1.9,0.1-3.5,0.4-5.2-0.8c-1.4-0.3-1.4-0.4-2.2-0.9c-3.7,1.5-10.3-1.4-15.6-0.8c-10.9,1.3-22-1.4-32.3-0.1
			c-6.2,0.7-19.4-3-22.5-2.4c-1.2,0.2-0.9,0.3-1.9,0.6c-0.6,1.9-0.4,2.7-0.7,4C213.9,94.3,218.7,91.6,222.4,93.1z M190.1,93
			c2.8,0.1,2.7-0.6,4.5-1.2c-0.1-0.1-0.2-0.3-0.3-0.4c0-2.3-0.4-2.1-1.2-3.4c-0.7-0.1-1.5-0.1-2.2-0.2c-1.1,1.3-2.1,1.9-1,4
			C189.9,92.3,190,92.6,190.1,93z M283.2,95.3C283.2,95.3,283.2,95.3,283.2,95.3C283.2,95.3,283.2,95.3,283.2,95.3
			C283.2,95.3,283.2,95.3,283.2,95.3z M277.1,123.9c0,0.1,0,0.2,0,0.4c2.5-0.4,6.1-0.1,8.5,0.3c0.6-0.5,0.3-0.4,1.2-0.7
			c0-0.1,0-0.2,0-0.4c-0.8-0.5-0.8-0.6-2.2-0.9c0-0.1,0-0.2,0-0.4c0.6-0.1,1.3-0.2,1.9-0.2c0-0.2,0-0.5,0.1-0.7
			c-7.8-2.7-18.4,0.2-28.2-0.6c0.6,0.9-0.1,0.3,1.1,0.8c-0.5,0.7-0.6,0.6-1.2,1c-0.1-0.4-0.2-0.8-0.3-1.1c-11-2.8-30.9-0.2-39.4-5.8
			c-2.1,0-2.4,0.5-3.8,1.2c-0.2,2.7,0.2,2.8,1.2,4.2c4,0.6,9,1.1,11.9,0.5c-0.3,0.1-0.5,0.2-0.8,0.3c2.1,0.2,4.2,0.3,6.3,0.5
			c-0.4-0.3-0.7-0.6-1.1-0.8c-0.1-0.3-0.2-0.5-0.3-0.8c0.1,0,0.2,0,0.4,0c2.1-0.7,6,1.1,7.4,0.9c1.9,0.4,1.8,0.3,2.1,2
			c0.2-0.5,0.3-1,0.5-1.5c2.1,0.2,1.9,0.2,2.5,1.7c1.9,0.3,3.7,0.5,5.5,0.8c0.1,0,0.2,0,0.4,0c-0.1-0.3-0.2-0.5-0.3-0.8
			c0-0.4,0.1-0.7,0.1-1.1c3.4-0.3,7.7,1.3,10.4,0c0.3-0.1,0.5-0.2,0.8-0.3c-0.5-0.2-1-0.3-1.5-0.5c-0.1,0-0.2,0-0.4,0
			c1.4-0.9,4.3,0.2,5.6-0.7c1.3,0.4,0.4,0.2,1.1,0.8c0,0.1,0,0.2,0,0.4c0.4-0.2,1.2,0.2,0.8-0.7c-0.1,0-0.2,0-0.4,0
			c0.4-0.2,0.8-0.4,1.2-0.7c2.6,0.1,3.8,0.4,5.1,1.5c-0.4,0.8-0.2,0.6-0.8,1.1c0,0.1,0,0.2,0,0.4c1.3,0,2.5-0.1,3.7-0.1
			c0-0.2,0-0.5,0.1-0.7c-0.1,0-0.2,0-0.4,0c0.6-0.2,1.3-0.4,1.9-0.6c0.2,0,0.5,0,0.7,0.1C277.8,123.7,278.1,123.3,277.1,123.9z
			 M280.9,122.7c0.2,0.1,0.5,0.3,0.7,0.4c0.1,0,0.2,0,0.4,0c0,0.2,0,0.5-0.1,0.7C280.4,123.3,280.9,123.8,280.9,122.7z M275.2,123.8
			c-0.6,0-1.2-0.1-1.9-0.1c0-0.2,0-0.5,0.1-0.7c0.6,0,1.2,0.1,1.9,0.1C275.2,123.3,275.2,123.5,275.2,123.8z M192.7,113.7
			c-0.8,0.8-1.6,1.6-2.4,2.4c0.2,1,0.4,2,0.5,3c0.4-0.1,0.8-0.2,1.1-0.3c1.8,0,2.1-0.2,3.4-0.5C195.5,115.4,194.7,114.4,192.7,113.7
			z M289,122.9c-0.1-0.3-0.2-0.5-0.3-0.8C288.1,122.2,288.4,122.7,289,122.9z M270.9,121.6c-1,0.2-2,0.4-3,0.5c1.2,0.7,2.8,0.7,4,1
			c0-0.1,0-0.2,0-0.4c0.1-0.2,0.3-0.5,0.4-0.7C271.9,121.9,271.4,121.7,270.9,121.6z M268.9,123.7c1.1,0.2,2.2,0.4,3.3,0.6
			c-0.9-0.3-1.7-0.6-2.5-0.9C269.4,123.5,269.1,123.6,268.9,123.7z M265.6,123.4c0.2,0.3,0.5,0.5,0.7,0.8c0.1,0,0.2,0,0.4,0
			C266,123.3,266.7,123.9,265.6,123.4z M257.3,124.3c0.4,0,0.7,0.1,1.1,0.1c0-0.1,0-0.2,0-0.4c-0.4-0.2-0.7-0.3-1.1-0.5
			C257.4,123.8,257.3,124.1,257.3,124.3z M148.3,135c0,0.2,0,0.5-0.1,0.7l0.1-0.1C148.4,135.4,148.4,135.2,148.3,135
			C148.4,135,148.4,135,148.3,135z M194.1,144.3c-0.4-1.1-0.8-1.1-1.4-2c-0.4,0-0.7-0.1-1.1-0.1c-0.4,0.1-0.8,0.2-1.1,0.3
			c-0.3,0.4-0.6,0.7-0.8,1.1c-0.1,2.2,0.2,2.5,0.8,3.8C193.1,147.6,194.9,146.4,194.1,144.3z M292.3,155.5c0.1,0,0.2,0,0.4,0
			c0.1-0.1,0.3-0.2,0.4-0.3c-0.1-0.5-0.2-1-0.3-1.5c-5-3.9-18-0.5-25.1-2.2c-4.1-0.3-8.1-0.6-12.2-0.9c-13-0.2-30.7-1.1-41.9-6
			c-0.9,0.8-1.9,1.6-2.8,2.4c0,1.1,0.1,2.3,0.1,3.3c4.6,1.1,10.7,0.9,15.2,0.7c-0.2-0.3-0.5-0.5-0.7-0.8c0-0.1,0-0.2,0-0.4
			c1.8,0.3,1.5,0.1,2.2,1.3c0.4,0,0.7,0.1,1.1,0.1c-0.2-0.1-0.5-0.3-0.7-0.4c0-0.2,0-0.5,0.1-0.7c0.7,0.2,1.5,0.4,2.2,0.5
			c0,0.4-0.1,0.7-0.1,1.1c0.9-0.6,0.3,0.1,0.8-1.1c2.2,0.6,2.9-0.3,4.8,0.7c0.2,0,0.5,0,0.7,0.1c-0.1-0.3-0.2-0.5-0.3-0.8
			c5.1,1.1,8.4,3.4,15,2.9c-0.7-0.2-1.5-0.4-2.2-0.5c0-0.1,0-0.2,0-0.4c0.9-0.4,1-0.3,1.6-1c1.7,0.5,2.3,0.6,2.8,2.1
			c0.5-0.2,0.3-0.1,0.4-0.3c0.7-1.4,1.1-0.8,2.3-1.3c0.1,0,0.2,0,0.4,0c0-0.1,0-0.2,0-0.4c-1,0.1-2,0.1-3,0.2
			c-0.1-0.1-0.2-0.3-0.3-0.4c0-0.2,0-0.5,0.1-0.7c2.2,0.2,4.4,0.3,6.7,0.5c0,0.1,0,0.2,0,0.4c-0.1,0-0.2,0-0.4,0
			c-0.7-0.1-1.5-0.1-2.2-0.2c-0.1,0.1-0.3,0.2-0.4,0.3c1.5,1.5,3.6,0.5,5.1,1.1c0.2,0,0.5,0,0.7,0.1c0,0.4-0.1,0.7-0.1,1.1
			c-1.7-0.3-3.4-0.5-5.2-0.8c0.4,0.3,0.7,0.6,1.1,0.8c2,0.1,3.9,0.3,5.9,0.4c-0.3-0.9-0.2-0.6-0.7-1.2c0-0.1,0-0.2,0-0.4
			c0.4-0.1,0.8-0.2,1.1-0.3c0.4,1.1,0.5,0.7,0.2,1.9c0.4,0,0.7,0.1,1.1,0.1c1-0.5,0.2-0.6,1.2-1.4c2.4,0.2,4.9,0.4,7.4,0.5
			c0,0.1,0,0.2,0,0.4c-2.2,0-4.5-0.1-6.7-0.1c0,0.2,0,0.5-0.1,0.7c2.4,0,4.7,0.1,7.1,0.1c0.9,0.1,1.7,0.1,2.6,0.2
			c-0.1-0.1-0.2-0.3-0.3-0.4c0.9-1.1,1.7-0.6,2.3-1c1.5,0.5,1.3,0.3,1.8,1.6c0.5,0,1,0.1,1.5,0.1c-0.3-0.4-0.7-0.8-1-1.2
			c0.1-0.1,0.3-0.2,0.4-0.3c3.4,1.3,4.7,2.4,9.9,2.6c-0.6-0.3-1.2-0.6-1.8-0.9c-0.1,0-0.2,0-0.4,0c0.6-0.1,1.3-0.2,1.9-0.2
			c-0.1-0.4-0.2-0.8-0.3-1.1C292.4,155,291.9,154.2,292.3,155.5z M262,151.8c-0.4,0.1-0.8,0.2-1.1,0.3c-0.2-0.3-0.5-0.5-0.7-0.8
			c0.6,0,1.2,0.1,1.9,0.1C262,151.5,262,151.7,262,151.8z M279.3,154.5c-0.2,0.4-0.3,0.7-0.5,1.1C279.9,155,279.8,155.6,279.3,154.5
			z M809.8,212.1c4.4,0.4,8.9,0.9,13.3,1.3c11.7-1.2,29.2,2.8,41.4,3.7c6.5,0.5,27.7,1.3,29.1,4.3c2.8,0.1,2.6-0.5,3.9-2
			c0-1.6-0.2-1.6-0.6-2.6c-8,1.1-18.1-1.3-24.1-0.6c-8.6,0.9-19.7-0.7-28.4-2.8c-3.7-0.1-7.4-0.3-11.1-0.4
			c-11.9-3-25.2-2.2-36.8-4.5c-1.7,1.9-2.7,1.9-1.4,4.4C799.3,213.2,805.1,212.6,809.8,212.1z M488.6,191.3c18.1,1,39.9,2.4,57.2,6
			c3.4,0.7,22,3.5,22,3.5c0.8-0.4,0.6-0.5,1.2-1c-0.7-3.2-15.5-1.9-21.7-3.1c-16.9-2.5-33.9-4.9-50.8-7.4c-2.7-0.8-5.3-1.6-8-2.4
			c-0.7,0.6-1.3,1.2-2,1.7C486.9,190.5,487.6,190.2,488.6,191.3z M512.6,203.9c-5.1-0.7-11.1-0.2-15.9-1.9c-0.8,0.2-1.5,0.4-2.3,0.6
			c-0.9,0.4-1.8,0.9-2.7,1.3c1.2,5.7,8.4,0.3,13.3,1.3c9.6,2.1,24.8,0.6,34.7,3.6c2.9,0.9,5.3-0.1,7,1.6c1.8,0.1,2.4-0.1,3.4-0.5
			c0-0.4,0.1-0.7,0.1-1.1c-6.2-1.7-15.4-0.5-22.5-2.4C522.6,205.6,517.6,204.7,512.6,203.9z M883.5,237.2c-0.1-1.4-0.2-1.4-0.6-2.3
			c-28.3-2.1-52.2-6.5-81.9-8.6c-1,0.1-2,0.1-3,0.2c-0.8,0.6-1.6,1.1-2.4,1.7c0.1,0.5,0.2,1,0.3,1.5c5,1.3,8.7-1.8,13.8-0.9
			c15.7,3,33.4,2.5,49.1,5.1C864.5,234.8,882.4,237.7,883.5,237.2z M489.9,219.3c0.1,0.4,0.2,0.8,0.3,1.1c3.4,0.5,5.1-0.4,7.9-0.9
			c3.1,0.2,6.2,0.5,9.2,0.7c6.6,1.4,19.8,0,25,4c0.5-0.1,1-0.2,1.5-0.3c0.1-0.2,0.3-0.5,0.4-0.7c-9.1-4.3-29.5-6-42.6-6.8
			C490.5,217.4,489.5,217.7,489.9,219.3z M797.3,246.9c-0.7,0.8-0.8,1-2,1.4c0,2.3,0.4,2.1,1.2,3.4c3.1,0,4-1.3,6.1-1.8
			c4,0,7.9,0.1,11.9,0.1c9.9,0.6,19.8,1.2,29.6,1.8c3.9-0.3,13.4,3.1,14.3,2.9c0.4-0.1,0.8-0.2,1.1-0.3c-0.1-0.9-0.1-1.8-0.2-2.6
			c-12.6-0.9-25.5-2.7-37.3-3.1C813.8,248.5,802.9,248.5,797.3,246.9z M901.4,276.8c-0.9-0.7-5.4,0.9-8.2,0.1
			c-6.4-0.6-12.8-1.2-19.2-1.8c-0.9,0.2-1.8,0.4-2.6,0.6c-25.6-5.5-53.1-4.1-81.9-8.9c-0.7,0.6-1.5,1-2.3,1.3c0.2,1.4,0.4,1.4,1,2.3
			c3.4-0.3,6.7-0.5,10.1-0.8c6.3,0.6,12.5,1.2,18.8,1.8c4.1,0.3,8.1,0.6,12.2,0.9c10.5,0.7,19.5,1.3,28.4,2.8
			c3.7,0.6,11.2,0.4,15.5,1.5c6.9,1.8,23.4-0.3,26.1,4.1c2.7,0.1,2.6-0.6,3.9-2C902.8,277.3,902.7,277.4,901.4,276.8z M523,352.6
			c-8.3-1.3-14.1,0.1-22.2-2c-8-0.8-16-1.7-24-2.5c-0.8,0.6-1.6,1.1-2.4,1.7c0.2,2.1,0.7,1.9,1.6,3.1c3-0.1,4.3-1.1,6.1-1.8
			c7.3,0.5,14.6,1.1,21.8,1.6c19.2,1.4,36.8,1.7,53.6,5c0.1,0.1,0.2,0.3,0.3,0.4c-0.1,0.7-0.1,1.5-0.2,2.2c1.3-0.3,2.5-0.6,3.8-0.8
			c0.1-0.2,0.3-0.5,0.4-0.7c0.1-1,0.1-2,0.2-2.9c-5.3-0.4-10.6-0.8-15.9-1.2C538.5,354,530.7,353.3,523,352.6z M681.9,370.9
			c-7.3-2-16.8-0.8-24.7-2.9c-4.7-0.6-9.3-1.2-14-1.8c-9.9-2.6-22.4-3.3-31.6-5.3c-0.8,0.4-1.6,0.9-2.3,1.3c0.1,0.8,0.1,1.5,0.2,2.3
			c3.8,1,9.4-0.4,13,0.6c18.2,2.2,36.4,4.4,54.6,6.6c10.6,2.7,21.7,0.1,29,4.7c0.3-0.9,0.6-1.7,0.9-2.5
			C700.9,369.1,692.2,373.6,681.9,370.9z M497.8,366.4c-6.5-1-13-2-19.5-2.9c-0.8,0.7-1.6,1.4-2.4,2.1c1.3,2.6,13.7,1.7,20.3,2.2
			c10.7,0.8,20.2,0.8,29.3,1.9c-0.4-0.1-0.8-0.2-1.2-0.3C517.9,367.9,505.6,368.1,497.8,366.4z M551.3,371.8
			c-1.5-0.4-3.6,0.7-4.5,0.4c-5.3-1.7-12.2-1.4-18.1-2.1c2.7,0.4,5.4,1,8.1,1.7c2.7,0.3,5.4,0.6,8.1,1c1.7,0.6,7.1,4.3,6.4-0.3
			C551.3,372.3,551.3,372,551.3,371.8z M528.7,370.1c-1-0.2-2.1-0.3-3.1-0.4C526.5,369.9,527.6,370,528.7,370.1z M656,385
			c-5.3-1.5-14.8-2.7-19.9-2.5c-7.6,0.2-17-4.5-22.2-2c0,1.6,0.1,1.7,0.6,2.6c3,0.3,5.2-0.3,8.2-0.5c5.9,0.7,11.8,1.4,17.7,2
			c10.4,2.4,23.9,1.4,33.6,3.9c5.6,1.5,15.1-0.6,18.4,2.8c2.7,0.2,3-0.3,4.5-1.2c0-0.5,0.1-1,0.1-1.5c-11.5-0.8-22.5-0.3-33.2-3.2
			C661.1,385.4,658.5,385.2,656,385z M497.1,385.7c-4.1-0.1-11.7-0.7-15.1-2.2c-0.8,0.3-1.5,0.6-2.3,1c-0.4,0.2-0.8,0.4-1.2,0.7
			c0.1,0.6,0.2,1.3,0.2,1.9c3.5,1,5.1,0.2,8.2-0.1c10.2,0.7,20.5,1.5,30.7,2.2c3.3,0.1,6.7,0.2,10,0.4c2.1,0.5,4.4,3,6.1,2.7
			c0.2,0,0.5,0,0.7,0.1c0.1-0.9,0.1-1.7,0.2-2.6c0-0.2,0-0.5,0.1-0.7c-9.1-0.5-18.3-1.1-27.4-1.6C504,386.7,500.6,386.2,497.1,385.7
			z M616.4,397.3c-0.7,0.6-1.3,1.2-2,1.7c-0.1,1.7,0.1,2,0.5,3c3,0.1,4.6-0.7,6.8-1c10.6,0.9,21.2,1.8,31.8,2.7
			c5.8,0.8,13.2-1.2,17.3,2.4c0.8-0.4,0.9-0.6,1.6-1c-0.1-1-0.1-2-0.2-3C656.5,400.6,632.9,401.9,616.4,397.3z M911.6,510.3
			c1.7-0.1,0.8-0.1,1.5-0.6c0-0.4,0.1-0.7,0.1-1.1c-0.5,0-1-0.1-1.5-0.1C911.7,509.1,911.6,509.7,911.6,510.3z M473.6,508.9
			c14.8,1.3,29.6,2.6,44.3,4c5.2,1.2,12.8,0.5,16.1,3.4c0.8-0.1,1.5-0.1,2.3-0.2c0-1.5,0-1.8-0.6-2.6c0-0.2,0-0.5,0.1-0.7
			c-3.8-0.5-10.3,0.8-16-0.4c-17.4-3.6-37.1-2.8-51.9-6.8c-1.1,0.6-1.8,0.9-2.7,1.7c0.1,0.8,0.1,1.5,0.2,2.3
			C468.9,510.3,470.7,508.9,473.6,508.9z M381.8,504.5c-13-3-30.8-4-46.6-8.2c-0.6,0.2-1.3,0.4-1.9,0.6c-1,0.4-0.9,0.5-1.6,1
			c0.1,1.7,0.4,1.6,0.9,2.7c3.3,0.2,5.5-0.6,7.9-0.9c5.4,0.8,10.8,1.5,16.2,2.3c11.6,2.4,22.2,2.4,32.7,5.4c6.8,1.9,17.1-0.1,22,3.5
			c0.7,0.1,1.5,0.1,2.2,0.2c-0.2-1.8-0.8-2-1.2-3.4C403.7,505.3,392.1,506.8,381.8,504.5z M778.6,534.1c16.4,1.2,32.8,2.4,49.2,3.6
			c-6.1-3.5-15.6-0.9-22.5-2.7c-14.4-1.4-28.8-2.8-43.2-4.3c-0.4,0.5-0.8,0.9-1.2,1.4c0,0.6-0.1,1.2-0.1,1.9
			C760.8,533.9,775.5,534.4,778.6,534.1z M866.7,540.1c-12.1,0-25.1-1.8-38.5-2.8c3.8,3.8,23.7,1.6,28.7,4.3
			c3.7,0.2,4.5,0.7,6.2,2.3c0.1,0,0.2,0,0.4,0c1.9,0,2.2-0.3,3.4-0.9c-0.1-0.8-0.1-1.5-0.2-2.3C866.6,540.6,866.7,540.4,866.7,540.1
			z M504.5,530.1c-8.1-1-16.2-1.9-24.3-2.9c-4.2-0.8-8.3-1.6-12.5-2.4c-0.6,0.6-1.1,1-2,1.4c0.2,1.4,0.4,1.4,1,2.3
			c3.1,0.8,5-0.2,7.8-0.2c9.8,1,19.7,1.9,29.5,2.9c4.4,1.1,8.7,0.7,11.3,3c1.6-0.3,1.4-0.5,2.3-1.3c-0.1-0.5-0.2-1-0.3-1.5
			C514.7,529.4,507.8,530.7,504.5,530.1z M405.7,528.2c-12-0.2-27.5-2.3-39.8-5.5c-9.9-2.6-23.3-2.2-32.7-5.7
			c-0.7,0.5-1.3,0.9-2,1.4c0.1,0.6,0.2,1.3,0.2,1.9c0.9,1.5,17.1,1.7,22.5,2.4c11.9,1.6,22.7,2.5,33.4,5.4c6,1.6,13.6,0.4,16.8,4.2
			c1.7,0.1,3.7-0.8,2.4-2.4C406.4,528.9,406.1,528.9,405.7,528.2z M823,557.4c-11.3-1.2-22.6-2.4-34-3.6c-7.4-0.6-20.5-4-24.1-1.4
			c0.1,1.4,0.2,1.4,0.6,2.3c2.8,0.4,3.3-0.2,5.3-0.7c5.2,0.4,10.4,0.8,15.5,1.1c8.8-0.6,25.3,0.6,34.4,2.9
			c5.4,1.4,14.7-0.4,19.9,2.5c0.4,0.2,0.7,0.3,1.1,0.5c-0.1,0.7-0.1,1.5-0.2,2.2c3,0.4,4-0.7,3.9-2.7c0-0.2,0-0.5,0.1-0.7
			C839.8,558.1,829.5,558.8,823,557.4z M508.8,552c-6.3-0.5-12.6-0.9-18.9-1.4c-7.5-0.8-15-1.6-22.5-2.4c-3-0.7-6.1-1.4-9.1-2.2
			c-0.4,0.2-0.8,0.4-1.2,0.7c-0.1,0.2-0.3,0.5-0.4,0.7c0.2,1.4,0.4,1.4,1,2.3c17.1,1.6,41.3,2.6,62.5,4.2c4.5,0.3,24.8,3.8,25,3.7
			c0.2,0,0.5,0,0.7,0.1c0.1-1,0.1-2,0.2-2.9c-7-0.5-14.1-1-21.1-1.5C519.7,552.8,514.3,552.4,508.8,552z M379.7,542.3
			c-2.5,1.6-6.9,0.1-10,0c-9.4-0.2-27.5-3.8-39.2-2.5c0,0.6-0.1,1.2-0.1,1.9c0,0.4-0.1,0.7-0.1,1.1c4.1,0.9,6.6-0.3,11.2-0.7
			c11.6,0.7,23.2,1.4,34.8,2.2c1.2,0.8,2.4,1.7,3.5,2.5c0.5-0.3,1-0.7,1.6-1c-0.1-0.8-0.1-1.5-0.2-2.3
			C380.7,542.7,380.6,542.7,379.7,542.3z M828.2,579c-7.1-0.6-14.3-1.3-21.4-1.9c-11.8-2.2-25.5-2.7-38.4-3.5c-1,0.1-2,0.1-3,0.2
			c-0.8,0.4-1.6,0.9-2.3,1.3c0,0.6-0.1,1.2-0.1,1.9c3.5,0.9,5.2-0.4,7.9-0.9c4.6,0.1,9.2,0.2,13.7,0.3c10.2,0.9,20.5,1.7,30.7,2.6
			c8,0.8,20.9,0.5,25.4,3.7c2.3,0.3,2.3,0.7,2.8,2.4c1-0.3,2-0.6,3-0.9c-0.1-0.5-0.2-1-0.3-1.5C842,579.4,834.2,580.3,828.2,579z
			 M754.5,594.1c0,0.2,0,0.5-0.1,0.7c0.2,0.4,0.4,0.8,0.7,1.2c5.6,0.7,12.4-1.2,18.6-0.1c8.7,1.5,19.6,1.6,28.7,3.9
			c3.8,0.5,7.6,1.1,11.4,1.6c0.5,0,1,0.1,1.5,0.1c0-0.2,0-0.5,0.1-0.7c-19.4-2.8-38.8-5.6-58.2-8.3
			C756.4,592.9,755.4,593.5,754.5,594.1z M532,576.4c-4.7,1.9-9.9-1-14.8-0.7c-16.3,1-43.1-6.1-58.2-2.7c-0.1,0.2-0.3,0.5-0.4,0.7
			c0.1,1.7,0.4,1.6,0.9,2.7c3.5,0.4,5.6-1.5,8.7-2c8,0.5,16.1,0.9,24.1,1.4c7.5-0.9,23.7,0.1,31.1,1.9c3.1,0.2,6.2,0.5,9.2,0.7
			c0.9,0.5,1.3,1.5,2.8,2.1c0.5-0.8,0.9-1.2,1.6-1.8c-0.2-1.2-0.3-1.1-0.6-1.9C534.9,576.6,533.5,576.5,532,576.4z M333.5,565.3
			c-0.2,0.5-0.3,1-0.5,1.5c0.7,0.6,0.6,0.3,1,1.2c6.4,0.9,14.8,1.5,22.2,2c-3.2-2.4-15.9-5.4-21.2-5.6
			C334.5,564.6,334,565,333.5,565.3z M815.7,601.1c3.5,3.5,17.1,0.3,20.1,5.6c0.7,0.1,1.5,0.1,2.2,0.2c0.1-0.2,0.3-0.5,0.4-0.7
			c-0.1-0.9-0.1-1.8-0.2-2.6C830.8,602.7,823.3,601.9,815.7,601.1z M295.5,658.1c-0.8,1.1-2.3,1.7-3.9,2c0.1,0.5,0.2,1,0.3,1.5
			c1.6-0.3,1.1,0.1,1.6-1.4c0.7,0.9,1.4,1.8,2,2.7c0.2,0,0.5,0,0.7,0.1c0.6-0.8,1.1-1.7,1.7-2.5c0.3-0.5-0.1-1-0.2-2.3
			C297,658.2,296.2,658.1,295.5,658.1z M295.3,660.3c-0.1,0.1-0.3,0.2-0.4,0.3c-0.1-0.5-0.2-1-0.3-1.5c0.4,0,0.7,0.1,1.1,0.1
			C295.6,659.6,295.5,660,295.3,660.3z M94.2,643.8c0,0.4-0.1,0.7-0.1,1.1c0.4-0.1,0.8-0.2,1.1-0.3
			C94.7,643.7,95.4,644.3,94.2,643.8z M97.8,645.6c0.5,0.6,0.2,0.4,1.1,0.8C98.3,645.5,99,646.1,97.8,645.6z"/>
	</g>
</g>
</svg>
