<svg width="256" height="301" viewBox="0 0 256 301" xmlns="http://www.w3.org/2000/svg" preserveAspectRatio="xMidYMid"><path d="M78.39.858a8.824 8.824 0 0 0-4.19 1.09c-4.22 2.337-5.766 7.756-3.43 11.97l9.524 17.197C57.35 45.31 42.147 69.558 42.147 97.233v5.142c-4.407-5.07-10.884-8.27-18.12-8.27C10.766 94.104 0 104.87 0 118.128v74.008c0 13.258 10.767 24.025 24.026 24.025 7.237 0 13.714-3.202 18.12-8.272v10.368c0 13.977 11.437 25.413 25.414 25.413h6.448v32.924c0 13.26 10.767 24.026 24.026 24.026 13.26 0 24.025-10.767 24.025-24.026V243.67h11.155v32.924c0 13.26 10.767 24.026 24.026 24.026 13.26 0 24.026-10.767 24.026-24.026V243.67h6.45c13.975 0 25.412-11.435 25.412-25.412V207.89c4.406 5.07 10.884 8.273 18.12 8.273 13.26 0 24.026-10.767 24.026-24.025v-74.01c0-13.258-10.766-24.024-24.025-24.024-7.238 0-13.716 3.2-18.122 8.27V98.105v-.246c.002-.26 0-.468 0-.625 0-27.67-15.238-51.894-38.174-66.09l9.55-17.224c2.336-4.216.79-9.635-3.428-11.973a8.824 8.824 0 0 0-4.19-1.09c-3.115-.028-6.172 1.613-7.782 4.518l-9.986 18.04c-9.764-3.603-20.388-5.578-31.48-5.578-11.082 0-21.726 1.954-31.482 5.55L86.17 5.375C84.56 2.47 81.505.83 78.39.858z" fill="#FFF"/><path d="M24.026 100.362c-9.894 0-17.767 7.873-17.767 17.767v74.008c0 9.894 7.872 17.767 17.766 17.767 9.894 0 17.768-7.873 17.768-17.767v-74.01c0-9.893-7.874-17.766-17.768-17.766zm207.224 0c-9.895 0-17.768 7.873-17.768 17.767v74.008c0 9.894 7.873 17.767 17.768 17.767 9.894 0 17.767-7.873 17.767-17.767v-74.01c0-9.893-7.873-17.766-17.767-17.766zM98.034 184.818c-9.894 0-17.768 7.873-17.768 17.768v74.008c0 9.894 7.874 17.767 17.768 17.767 9.894 0 17.767-7.872 17.767-17.766v-74.008c0-9.895-7.872-17.768-17.766-17.768zm59.207 0c-9.894 0-17.767 7.873-17.767 17.768v74.008c0 9.894 7.873 17.767 17.768 17.767s17.768-7.872 17.768-17.766v-74.008c0-9.895-7.873-17.768-17.767-17.768z" fill="#A4C639"/><path d="M78.443 7.117a2.47 2.47 0 0 0-1.197.326c-1.267.702-1.683 2.158-.98 3.428l12.517 22.612c-24.08 12.53-40.346 36.34-40.378 63.67H206.87c-.033-27.33-16.298-51.14-40.378-63.67l12.516-22.61c.704-1.27.287-2.727-.98-3.43a2.467 2.467 0 0 0-1.197-.325c-.898-.01-1.75.44-2.23 1.306l-12.68 22.855c-10.372-4.6-22.006-7.183-34.283-7.183-12.277 0-23.91 2.582-34.283 7.183L80.674 8.423a2.486 2.486 0 0 0-2.23-1.306zM48.405 103.41v114.848a19.113 19.113 0 0 0 19.155 19.155h120.155a19.113 19.113 0 0 0 19.155-19.155v-114.85H48.405z" fill="#A4C639"/><path d="M91.068 54.923c-3.617 0-6.612 2.994-6.612 6.61 0 3.62 2.995 6.613 6.612 6.613 3.618 0 6.612-2.994 6.612-6.612 0-3.617-2.994-6.61-6.612-6.61zm73.138 0c-3.618 0-6.612 2.994-6.612 6.61 0 3.62 2.994 6.613 6.612 6.613 3.617 0 6.612-2.994 6.612-6.612 0-3.617-2.995-6.61-6.612-6.61z" fill="#FFF"/></svg>