<svg width="256" height="256" viewBox="0 0 256 256" xmlns="http://www.w3.org/2000/svg" preserveAspectRatio="xMidYMid"><defs><linearGradient x1="50%" y1="3.961%" x2="50%" y2="100%" id="a"><stop stop-color="#FDFDFD" offset="0%"/><stop stop-color="#CBCBCB" offset="100%"/></linearGradient><linearGradient x1="50%" y1="3.961%" x2="50%" y2="100%" id="b"><stop stop-color="#B2E198" offset="0%"/><stop stop-color="#04A171" offset="100%"/></linearGradient></defs><circle fill="url(#a)" cx="128" cy="128" r="127.858"/><circle fill="url(#b)" cx="127.858" cy="128.142" r="116.907"/><path d="M100.453 110.097a221.782 221.782 0 0 0-3.988 6.382A164.44 164.44 0 0 1 92.78 105.1c3.73-.535 7.696-.957 11.875-1.25a224.887 224.887 0 0 0-4.202 6.245zm103.138 7.475c-4.13-3.967-10.04-7.602-17.557-10.804-14.926-6.356-34.918-10.474-56.295-11.595a234.82 234.82 0 0 0-7.53-.277c16.322-19.48 32.084-29.846 41.264-30.195 1.944-.073 3.576.31 4.854 1.142 4.296 2.792 5.488 11.453 3.19 23.166a4.267 4.267 0 0 0 8.372 1.644c3.953-20.137-1.576-28.497-6.91-31.965-2.786-1.81-6.094-2.655-9.83-2.513-14.12.536-33.905 15.592-51.957 38.803-7.147.247-14.037.864-20.482 1.827a106.106 106.106 0 0 1-1.625-9.522c-1.62-13.344.367-22.816 5.312-25.337.794-.405 1.662-.64 2.654-.713 4.417-.332 10.65 2.637 17.54 8.36a4.267 4.267 0 1 0 5.453-6.566c-8.85-7.35-16.8-10.817-23.633-10.303-2.112.158-4.095.703-5.892 1.62-4.593 2.342-7.732 6.828-9.33 13.33-1.368 5.57-1.562 12.514-.576 20.637.39 3.213.96 6.556 1.695 9.998-5.04 1.062-9.71 2.356-13.897 3.87-18.316 6.615-22.544 15.336-22.866 21.487-.308 5.876 2.7 14.62 18.775 22.91a4.267 4.267 0 1 0 3.91-7.583c-9.247-4.77-14.41-10.193-14.165-14.88.346-6.605 11.417-13.596 30.274-17.535 1.746 6.31 3.99 12.86 6.68 19.505-6.778 12.723-11.723 25.262-14.287 36.416-1.833 7.97-2.37 14.89-1.592 20.567.907 6.63 3.56 11.418 7.882 14.228 2.205 1.433 5.176 2.553 9.08 2.553 5.657 0 13.274-2.357 23.342-9.538a4.267 4.267 0 1 0-4.955-6.948c-9.926 7.08-18.455 9.613-22.817 6.778-4.652-3.023-5.633-12.642-2.624-25.728 1.994-8.678 5.554-18.296 10.382-28.21a220.995 220.995 0 0 0 3.283 6.73c9.717 19.088 21.612 35.695 33.494 46.763 5.983 5.573 11.707 9.497 17.01 11.663 3.218 1.314 6.24 1.97 9.045 1.97 2.596 0 5.008-.562 7.216-1.688 4.43-2.26 7.512-6.52 9.158-12.666 1.41-5.263 1.726-11.827.942-19.512-1.543-15.11-7.253-33.54-16.077-51.89a4.267 4.267 0 0 0-7.69 3.696c8.407 17.485 13.833 34.908 15.278 49.06 1.27 12.447-.78 21.31-5.485 23.71-4.942 2.52-13.756-1.438-23.58-10.588-11.17-10.404-22.43-26.168-31.706-44.388a210.555 210.555 0 0 1-5.852-12.483 210.936 210.936 0 0 1 7.143-11.836 213.3 213.3 0 0 1 7.878-11.332c.7-.01 1.405-.017 2.115-.02 3.664-.01 7.592.09 11.688.306 20.405 1.07 39.37 4.95 53.4 10.925 12.34 5.255 19.534 11.703 19.244 17.25-.246 4.707-5.967 9.574-15.696 13.35a4.267 4.267 0 1 0 3.088 7.956c16.905-6.563 20.82-14.967 21.13-20.86.27-5.152-2.04-10.112-6.865-14.744z" fill="#F2F8F6"/><path d="M119.194 129.133c0 5.153 4.174 9.33 9.323 9.33 5.15 0 9.323-4.177 9.323-9.33 0-5.154-4.174-9.33-9.323-9.33-5.15 0-9.323 4.176-9.323 9.33" fill="#F1F8F3"/></svg>