<svg width="256" height="100" viewBox="0 0 256 100" xmlns="http://www.w3.org/2000/svg" preserveAspectRatio="xMidYMid"><g fill-rule="evenodd"><path d="M33.326 95L18.34 89.622V67.657l14.986 5.106V95M36.075 95l14.986-5.377V67.657l-14.985 5.106V95M19.88 66.014l15.167-4.27L49.11 66.28l-14.063 4.774-15.167-5.04M15.484 64.313L.498 58.937V36.97l14.986 5.106v22.237M18.233 64.313l14.987-5.376V36.97l-14.987 5.106v22.237M2.038 35.326l15.168-4.27 14.064 4.536-14.064 4.775-15.168-5.04M50.453 64.313l-14.987-5.376V36.97l14.987 5.106v22.237M53.202 64.313l14.987-5.376V36.97L53.2 42.076v22.237M37.008 35.326l15.167-4.27 14.063 4.536-14.063 4.775-15.167-5.04M68.295 33.624L53.308 28.25V6.283l14.987 5.105v22.236M71.044 33.624L86.03 28.25V6.283l-14.986 5.105v22.236M54.85 4.64L70.016.37 84.08 4.904 70.017 9.68 54.85 4.64M103.265 33.624L88.278 28.25V6.283l14.987 5.105v22.236M106.013 33.624L121 28.25V6.283l-14.987 5.105v22.236M89.818 4.64L104.986.37l14.063 4.534-14.064 4.775-15.168-5.04" fill="#F90"/><path d="M95.64 80.69l-5.033 17.49H88.42L84.5 85.19l-3.594 12.99h-2.23l-5.233-17.49h2.705l3.81 13.033 3.63-13.033h1.995l3.944 13.075 3.917-13.075h2.197z"/><path d="M95.64 80.69l-5.033 17.49H88.42L84.5 85.19l-3.594 12.99h-2.23l-5.233-17.49h2.705l3.81 13.033 3.63-13.033h1.995l3.944 13.075 3.917-13.075h2.197z" stroke="#000"/><path d="M109.567 92.962l2.534.52c-.46 1.495-1.36 2.734-2.694 3.713-1.338.98-2.91 1.47-4.72 1.47-2.385 0-4.315-.84-5.79-2.522-1.476-1.68-2.213-3.886-2.213-6.613 0-2.785.767-5.035 2.3-6.75 1.53-1.717 3.456-2.575 5.773-2.575 2.283 0 4.117.79 5.506 2.37 1.388 1.58 2.1 3.944 2.135 7.092H99.704c0 2.645.552 4.428 1.658 5.353 1.105.923 2.274 1.385 3.506 1.385 2.223 0 3.79-1.148 4.7-3.443zm-.148-5.322c-.024-.98-.185-1.852-.485-2.614-.3-.76-.806-1.41-1.52-1.947-.714-.537-1.573-.805-2.575-.805-1.347 0-2.49.484-3.43 1.454-.938.968-1.464 2.27-1.58 3.91h9.59z"/><path d="M109.567 92.962l2.534.52c-.46 1.495-1.36 2.734-2.694 3.713-1.338.98-2.91 1.47-4.72 1.47-2.385 0-4.315-.84-5.79-2.522-1.476-1.68-2.213-3.886-2.213-6.613 0-2.785.767-5.035 2.3-6.75 1.53-1.717 3.456-2.575 5.773-2.575 2.283 0 4.117.79 5.506 2.37 1.388 1.58 2.1 3.944 2.135 7.092H99.704c0 2.645.552 4.428 1.658 5.353 1.105.923 2.274 1.385 3.506 1.385 2.223 0 3.79-1.148 4.7-3.443zm-.148-5.322c-.024-.98-.185-1.852-.485-2.614-.3-.76-.806-1.41-1.52-1.947-.714-.537-1.573-.805-2.575-.805-1.347 0-2.49.484-3.43 1.454-.938.968-1.464 2.27-1.58 3.91h9.59z" stroke="#000"/><path d="M117.286 98.18h-1.31V74.565h2.725v9.04c1.245-2.268 2.96-3.4 5.147-3.4 2.002 0 3.68.79 5.033 2.374 1.353 1.583 2.03 3.882 2.03 6.898 0 2.6-.666 4.78-1.996 6.543-1.332 1.764-3.063 2.645-5.195 2.645-2.375 0-4.195-1.127-5.462-3.38l-.972 2.894zm1.415-6.858c.128 1.796.68 3.098 1.653 3.91.974.81 2.004 1.216 3.087 1.216 1.384 0 2.5-.6 3.347-1.803.848-1.2 1.27-2.847 1.27-4.938 0-2.25-.408-4.022-1.227-5.31-.82-1.288-1.955-1.933-3.407-1.933-1.14 0-2.17.46-3.087 1.375-.917.917-1.462 2.102-1.635 3.555v3.927z"/><path d="M117.286 98.18h-1.31V74.565h2.725v9.04c1.245-2.268 2.96-3.4 5.147-3.4 2.002 0 3.68.79 5.033 2.374 1.353 1.583 2.03 3.882 2.03 6.898 0 2.6-.666 4.78-1.996 6.543-1.332 1.764-3.063 2.645-5.195 2.645-2.375 0-4.195-1.127-5.462-3.38l-.972 2.894zm1.415-6.858c.128 1.796.68 3.098 1.653 3.91.974.81 2.004 1.216 3.087 1.216 1.384 0 2.5-.6 3.347-1.803.848-1.2 1.27-2.847 1.27-4.938 0-2.25-.408-4.022-1.227-5.31-.82-1.288-1.955-1.933-3.407-1.933-1.14 0-2.17.46-3.087 1.375-.917.917-1.462 2.102-1.635 3.555v3.927z" stroke="#000"/><path d="M137.853 93.647l2.597-.537c.578 2.197 2.403 3.295 5.474 3.295 1.13 0 2.09-.253 2.874-.76.786-.506 1.178-1.22 1.178-2.14 0-1.37-1-2.24-2.998-2.608l-3.683-.7c-1.443-.278-2.59-.82-3.444-1.63-.852-.807-1.28-1.875-1.28-3.203 0-1.465.583-2.692 1.748-3.68 1.164-.986 2.733-1.48 4.705-1.48 3.794 0 6.136 1.484 7.023 4.45l-2.492.535c-.715-1.817-2.184-2.726-4.408-2.726-1.107 0-2.015.228-2.724.68-.708.455-1.063 1.09-1.063 1.905 0 1.284.905 2.093 2.716 2.427l3.405.627c3.566.646 5.347 2.376 5.347 5.185 0 1.605-.663 2.904-1.99 3.89-1.327.99-3.093 1.485-5.298 1.485-4.144 0-6.707-1.673-7.687-5.018z"/><path d="M137.853 93.647l2.597-.537c.578 2.197 2.403 3.295 5.474 3.295 1.13 0 2.09-.253 2.874-.76.786-.506 1.178-1.22 1.178-2.14 0-1.37-1-2.24-2.998-2.608l-3.683-.7c-1.443-.278-2.59-.82-3.444-1.63-.852-.807-1.28-1.875-1.28-3.203 0-1.465.583-2.692 1.748-3.68 1.164-.986 2.733-1.48 4.705-1.48 3.794 0 6.136 1.484 7.023 4.45l-2.492.535c-.715-1.817-2.184-2.726-4.408-2.726-1.107 0-2.015.228-2.724.68-.708.455-1.063 1.09-1.063 1.905 0 1.284.905 2.093 2.716 2.427l3.405.627c3.566.646 5.347 2.376 5.347 5.185 0 1.605-.663 2.904-1.99 3.89-1.327.99-3.093 1.485-5.298 1.485-4.144 0-6.707-1.673-7.687-5.018z" stroke="#000"/><path d="M167.317 92.962l2.534.52c-.46 1.495-1.358 2.734-2.695 3.713-1.336.98-2.91 1.47-4.718 1.47-2.386 0-4.317-.84-5.79-2.522-1.477-1.68-2.213-3.886-2.213-6.613 0-2.785.765-5.035 2.3-6.75 1.532-1.717 3.456-2.575 5.773-2.575 2.28 0 4.117.79 5.506 2.37 1.39 1.58 2.1 3.944 2.134 7.092h-12.693c0 2.645.553 4.428 1.658 5.353 1.106.923 2.275 1.385 3.507 1.385 2.22 0 3.788-1.148 4.697-3.443zm-.148-5.322c-.023-.98-.185-1.852-.484-2.614-.3-.76-.806-1.41-1.52-1.947-.714-.537-1.574-.805-2.575-.805-1.346 0-2.49.484-3.43 1.454-.937.968-1.465 2.27-1.58 3.91h9.59z"/><path d="M167.317 92.962l2.534.52c-.46 1.495-1.358 2.734-2.695 3.713-1.336.98-2.91 1.47-4.718 1.47-2.386 0-4.317-.84-5.79-2.522-1.477-1.68-2.213-3.886-2.213-6.613 0-2.785.765-5.035 2.3-6.75 1.532-1.717 3.456-2.575 5.773-2.575 2.28 0 4.117.79 5.506 2.37 1.39 1.58 2.1 3.944 2.134 7.092h-12.693c0 2.645.553 4.428 1.658 5.353 1.106.923 2.275 1.385 3.507 1.385 2.22 0 3.788-1.148 4.697-3.443zm-.148-5.322c-.023-.98-.185-1.852-.484-2.614-.3-.76-.806-1.41-1.52-1.947-.714-.537-1.574-.805-2.575-.805-1.346 0-2.49.484-3.43 1.454-.937.968-1.465 2.27-1.58 3.91h9.59z" stroke="#000"/><path d="M175.802 98.18h-2.725V80.69h2.388v4.077c.84-1.91 1.686-3.147 2.533-3.712.847-.567 1.715-.85 2.604-.85.276 0 .634.02 1.072.063v2.598h-.552c-1.498 0-2.74.557-3.73 1.67-.99 1.11-1.52 2.572-1.59 4.384v9.26z"/><path d="M175.802 98.18h-2.725V80.69h2.388v4.077c.84-1.91 1.686-3.147 2.533-3.712.847-.567 1.715-.85 2.604-.85.276 0 .634.02 1.072.063v2.598h-.552c-1.498 0-2.74.557-3.73 1.67-.99 1.11-1.52 2.572-1.59 4.384v9.26z" stroke="#000"/><path d="M198.596 80.69l-6.038 17.49h-2.823l-6.24-17.49h3.014l4.853 14.215 4.817-14.215h2.416z"/><path d="M198.596 80.69l-6.038 17.49h-2.823l-6.24-17.49h3.014l4.853 14.215 4.817-14.215h2.416z" stroke="#000"/><path d="M200.774 74.566h2.915v3.02h-2.916v-3.02zm.127 6.124h2.725v17.49H200.9V80.69z"/><path d="M200.774 74.566h2.915v3.02h-2.916v-3.02zm.127 6.124h2.725v17.49H200.9V80.69z" stroke="#000"/><path d="M217.86 92.054l2.45.432c-.347 1.933-1.114 3.446-2.302 4.54-1.188 1.092-2.67 1.64-4.446 1.64-2.41 0-4.248-.892-5.51-2.67-1.262-1.78-1.895-3.952-1.895-6.518 0-2.658.667-4.867 2-6.63 1.33-1.762 3.144-2.643 5.44-2.643 1.903 0 3.428.57 4.575 1.71 1.15 1.137 1.86 2.61 2.137 4.412l-2.45.467c-.462-2.885-1.856-4.33-4.184-4.33-1.498 0-2.65.637-3.456 1.91-.807 1.276-1.21 2.928-1.21 4.957 0 2.24.4 3.976 1.2 5.216.802 1.24 1.928 1.86 3.38 1.86 2.246 0 3.67-1.45 4.27-4.352z"/><path d="M217.86 92.054l2.45.432c-.347 1.933-1.114 3.446-2.302 4.54-1.188 1.092-2.67 1.64-4.446 1.64-2.41 0-4.248-.892-5.51-2.67-1.262-1.78-1.895-3.952-1.895-6.518 0-2.658.667-4.867 2-6.63 1.33-1.762 3.144-2.643 5.44-2.643 1.903 0 3.428.57 4.575 1.71 1.15 1.137 1.86 2.61 2.137 4.412l-2.45.467c-.462-2.885-1.856-4.33-4.184-4.33-1.498 0-2.65.637-3.456 1.91-.807 1.276-1.21 2.928-1.21 4.957 0 2.24.4 3.976 1.2 5.216.802 1.24 1.928 1.86 3.38 1.86 2.246 0 3.67-1.45 4.27-4.352z" stroke="#000"/><path d="M235.674 92.962l2.534.52c-.46 1.495-1.36 2.734-2.696 3.713-1.336.98-2.91 1.47-4.72 1.47-2.385 0-4.315-.84-5.79-2.522-1.475-1.68-2.212-3.886-2.212-6.613 0-2.785.766-5.035 2.3-6.75 1.532-1.717 3.457-2.575 5.774-2.575 2.28 0 4.117.79 5.505 2.37s2.1 3.944 2.134 7.092H225.81c0 2.645.553 4.428 1.658 5.353 1.107.923 2.274 1.385 3.508 1.385 2.22 0 3.788-1.148 4.698-3.443zm-.148-5.322c-.023-.98-.185-1.852-.484-2.614-.3-.76-.806-1.41-1.52-1.947-.714-.537-1.573-.805-2.575-.805-1.348 0-2.49.484-3.43 1.454-.938.968-1.466 2.27-1.58 3.91h9.59z"/><path d="M235.674 92.962l2.534.52c-.46 1.495-1.36 2.734-2.696 3.713-1.336.98-2.91 1.47-4.72 1.47-2.385 0-4.315-.84-5.79-2.522-1.475-1.68-2.212-3.886-2.212-6.613 0-2.785.766-5.035 2.3-6.75 1.532-1.717 3.457-2.575 5.774-2.575 2.28 0 4.117.79 5.505 2.37s2.1 3.944 2.134 7.092H225.81c0 2.645.553 4.428 1.658 5.353 1.107.923 2.274 1.385 3.508 1.385 2.22 0 3.788-1.148 4.698-3.443zm-.148-5.322c-.023-.98-.185-1.852-.484-2.614-.3-.76-.806-1.41-1.52-1.947-.714-.537-1.573-.805-2.575-.805-1.348 0-2.49.484-3.43 1.454-.938.968-1.466 2.27-1.58 3.91h9.59z" stroke="#000"/><path d="M240.042 93.647l2.6-.537c.576 2.197 2.4 3.295 5.47 3.295 1.133 0 2.09-.253 2.876-.76.785-.506 1.178-1.22 1.178-2.14 0-1.37-1-2.24-2.998-2.608l-3.683-.7c-1.443-.278-2.59-.82-3.444-1.63-.852-.807-1.28-1.875-1.28-3.203 0-1.465.582-2.692 1.748-3.68 1.164-.986 2.732-1.48 4.705-1.48 3.794 0 6.135 1.484 7.023 4.45l-2.492.535c-.715-1.817-2.184-2.726-4.408-2.726-1.107 0-2.015.228-2.723.68-.71.455-1.064 1.09-1.064 1.905 0 1.284.905 2.093 2.717 2.427l3.404.627c3.565.646 5.348 2.376 5.348 5.185 0 1.605-.663 2.904-1.99 3.89-1.328.99-3.095 1.485-5.3 1.485-4.142 0-6.705-1.673-7.686-5.018z"/><path d="M240.042 93.647l2.6-.537c.576 2.197 2.4 3.295 5.47 3.295 1.133 0 2.09-.253 2.876-.76.785-.506 1.178-1.22 1.178-2.14 0-1.37-1-2.24-2.998-2.608l-3.683-.7c-1.443-.278-2.59-.82-3.444-1.63-.852-.807-1.28-1.875-1.28-3.203 0-1.465.582-2.692 1.748-3.68 1.164-.986 2.732-1.48 4.705-1.48 3.794 0 6.135 1.484 7.023 4.45l-2.492.535c-.715-1.817-2.184-2.726-4.408-2.726-1.107 0-2.015.228-2.723.68-.71.455-1.064 1.09-1.064 1.905 0 1.284.905 2.093 2.717 2.427l3.404.627c3.565.646 5.348 2.376 5.348 5.185 0 1.605-.663 2.904-1.99 3.89-1.328.99-3.095 1.485-5.3 1.485-4.142 0-6.705-1.673-7.686-5.018z" stroke="#000"/><path d="M178.63 43.313v-4.2c.003-.64.485-1.066 1.065-1.065l18.828-.002c.603 0 1.086.438 1.087 1.06v3.604c-.006.604-.515 1.393-1.42 2.644l-9.75 13.925c3.62-.086 7.448.456 10.738 2.305.742.416.94 1.034.998 1.64v4.482c0 .618-.675 1.332-1.386.96-5.795-3.035-13.486-3.368-19.893.037-.655.35-1.34-.355-1.34-.973v-4.26c0-.682.012-1.848.7-2.888l11.3-16.21h-9.84c-.6 0-1.082-.43-1.086-1.06M111.25 69.55h-5.73c-.544-.035-.98-.445-1.023-.967l.004-29.4c0-.587.496-1.058 1.106-1.058h5.334c.56.027 1.007.45 1.042.986v3.84h.108c1.39-3.712 4.01-5.445 7.538-5.445 3.583 0 5.828 1.733 7.433 5.445 1.39-3.712 4.545-5.445 7.914-5.445 2.406 0 5.026.99 6.63 3.217 1.818 2.474 1.444 6.063 1.444 9.218l-.004 18.552c0 .588-.495 1.06-1.105 1.06h-5.722c-.575-.038-1.03-.494-1.03-1.057V52.91c0-1.238.107-4.33-.16-5.506-.43-1.98-1.71-2.537-3.37-2.537-1.39 0-2.833.928-3.42 2.413-.59 1.485-.536 3.96-.536 5.63V68.49c0 .588-.495 1.06-1.104 1.06h-5.722c-.575-.038-1.028-.494-1.028-1.057l-.006-15.586c0-3.28.535-8.105-3.528-8.105-4.118 0-3.957 4.702-3.957 8.104l-.003 15.582c0 .588-.494 1.06-1.104 1.06M213.44 37.505c8.435 0 12.997 7.3 12.997 16.58 0 8.97-5.04 16.085-12.996 16.085-8.274 0-12.783-7.3-12.783-16.394 0-9.157 4.563-16.27 12.784-16.27zm.054 6.758c-4.19 0-4.456 5.753-4.456 9.34 0 3.59-.053 10.504 4.403 10.504 4.404 0 4.616-5.43 4.616-9.203 0-2.475-.105-5.445-.848-7.795-.638-2.043-1.91-2.847-3.714-2.847zM238.643 69.55h-5.706c-.574-.036-1.028-.492-1.028-1.055l-.01-29.41c.048-.538.523-.96 1.1-.96h5.313c.5.024.913.366 1.018.822v4.497h.11c1.603-4.02 3.848-5.94 7.805-5.94 2.566 0 5.08.93 6.684 3.466 1.496 2.35 1.496 6.31 1.496 9.156v18.498c-.064.522-.53.927-1.097.927h-5.744c-.53-.034-.958-.423-1.02-.926V52.662c0-3.217.375-7.92-3.582-7.92-1.392 0-2.674.93-3.315 2.352-.803 1.794-.91 3.588-.91 5.568v15.83c-.01.588-.506 1.06-1.117 1.06M164.27 55.51c0 2.234.054 4.093-1.07 6.077-.912 1.613-2.36 2.604-3.967 2.604-2.196 0-3.482-1.673-3.482-4.153 0-4.878 4.377-5.766 8.52-5.766v1.24zm5.776 13.967c-.38.34-.926.363-1.354.134-1.902-1.58-2.243-2.312-3.283-3.817-3.146 3.204-5.372 4.164-9.445 4.164-4.822 0-8.573-2.976-8.573-8.928 0-4.65 2.518-7.813 6.108-9.363 3.108-1.364 7.45-1.612 10.77-1.984v-.744c0-1.365.108-2.977-.696-4.155-.696-1.054-2.036-1.488-3.215-1.488-2.186 0-4.128 1.12-4.605 3.44-.1.516-.476 1.026-.995 1.052l-5.552-.6c-.47-.107-.99-.483-.855-1.198 1.276-6.736 7.36-8.77 12.81-8.77 2.786 0 6.43.743 8.627 2.85 2.786 2.605 2.518 6.077 2.518 9.86v8.923c0 2.684 1.116 3.862 2.163 5.31.366.52.45 1.14-.018 1.52-1.17.98-3.25 2.787-4.393 3.805l-.014-.013zM89.83 55.51c0 2.234.054 4.093-1.07 6.077-.912 1.613-2.36 2.604-3.967 2.604-2.197 0-3.482-1.673-3.482-4.153 0-4.878 4.377-5.766 8.52-5.766v1.24zm5.776 13.967c-.38.34-.927.363-1.354.134-1.903-1.58-2.244-2.312-3.284-3.817-3.144 3.204-5.37 4.164-9.443 4.164-4.823 0-8.574-2.976-8.574-8.928 0-4.65 2.52-7.813 6.11-9.363 3.108-1.364 7.45-1.612 10.77-1.984v-.744c0-1.365.107-2.977-.696-4.155-.697-1.054-2.037-1.488-3.215-1.488-2.186 0-4.13 1.12-4.606 3.44-.1.516-.475 1.026-.995 1.052l-5.552-.6c-.47-.107-.99-.483-.855-1.198 1.276-6.736 7.358-8.77 12.81-8.77 2.786 0 6.43.743 8.627 2.85 2.786 2.605 2.518 6.077 2.518 9.86v8.923c0 2.684 1.115 3.862 2.162 5.31.366.52.448 1.14-.018 1.52-1.17.98-3.25 2.787-4.393 3.805l-.014-.013z"/></g></svg>