<svg width="256" height="252" viewBox="0 0 256 252" xmlns="http://www.w3.org/2000/svg" preserveAspectRatio="xMidYMid"><defs><linearGradient x1="46.646%" y1="-2.089%" x2="57.363%" y2="137.781%" id="a"><stop stop-color="#FF992E" offset="0%"/><stop stop-color="#FF4C2E" offset="63.5%"/><stop stop-color="#E3302E" offset="100%"/></linearGradient></defs><path d="M51.535 251.616c-15.04 0-27.75-11.58-29.854-26.32C21.456 223.19.626 34.742.626 32.636.4 32.11.1 31.584.1 31.056l.05-6.316c0-5.263 2.054-10.527 6.265-13.686C9.925 6.317 17.995 0 128.012 0 237.778 0 245.924 6.317 249.61 11.054c3.71 3.685 5.79 8.423 5.79 14.213l-.076 5.264c0 1.054.076 1.58-.45 2.633l-22.36 192.133c0 .527-.276 1.053-.276 1.58-2.732 14.212-15.265 24.74-29.478 24.74H51.535z" fill="#E5D1BF"/><path d="M247.554 24.95c0-3.684-1.48-6.842-3.585-8.948-5.44-6.316-55.272-8.422-116.334-8.422-60.81 0-110.542 1.58-116.333 7.896-2.13 2.632-3.684 5.264-3.684 8.95l.05 5.79c0 .525-.05 1.052.475 1.578C7.92 32.32 29.2 223.928 29.2 223.928c1.53 11.054 11.055 19.476 22.11 19.476h151.124c11.53 0 21.006-8.422 22.06-19.476h.25l22.56-192.134V24.95h.25z" fill="#FEF9EC"/><ellipse fill="#E5D1BF" cx="127.11" cy="23.372" rx="105.805" ry="5.79"/><path d="M213.965 205.504c-.25 6.843-5.264 12.107-12.107 12.107H52.288c-6.518 0-11.507-5.263-12.033-12.106-1.003-17.897-7.37-71.59-7.37-71.59-.15-4.737 2.106-7.37 7.37-7.37h173.71c4.762 0 7.37 2.633 7.37 7.37.15 0-6.844 53.693-7.37 71.59z" fill="url(#a)"/><path d="M97.156 136.336c-3.008 3.685-2.306 9.475 1.905 12.633l32.687 25.793c4.01 2.632 9.952 2.105 12.584-2.106l25.518-33.163c3.008-3.684 2.38-9.475-1.83-12.633l-32.76-25.792c-4.012-2.632-9.878-2.106-13.036 2.105l-25.066 33.163z" opacity=".65" fill="#FEF9EC"/><path d="M65.823 112.122c-5.014.526-8.347 5.264-7.82 10l5.313 41.586c.752 5.264 5.214 8.423 10.478 7.896l40.908-5.264c5.013-1.052 8.573-5.264 7.52-10.528l-5.013-41.585c-.753-4.737-5.516-8.422-10.253-7.37l-41.134 5.265z" opacity=".65" fill="#FEF9EC"/></svg>