<svg width="256" height="216" viewBox="0 0 256 216" xmlns="http://www.w3.org/2000/svg" preserveAspectRatio="xMidYMid"><path d="M110.582.01c-4.427.08-9.967 2.842-13.93 1.888-1.58-.38-3.514-.545-5.406-.442-.034.002-.068-.002-.1 0-1.925.114-3.803.52-5.187 1.367-.058.035-.124.067-.182.1-.055.08-.113.154-.18.22-1.84 1.84-5.907 2.008-7.8 3.9-1.545 1.547-2.978 4.506-4.683 7.157-.016.025-.024.055-.04.08-6.068 7.075-10.91 15.78-12.623 22.895-1.408 5.845-1.388 13.74-3.7 19.557-.645 1.627-3.324 10.63-1.245 12.382 1.416 1.193 7.453 2.106 9.226 0 .954-1.133 9.705-3.966 12.442-7.216 3.223-3.827 4.886-10.438 7.096-16 .352-.885.805-1.824 1.327-2.754 1.254 2.428 2.25 4.41 2.774 5.63 1.095 2.534 2.298 6.04 3.298 9.787-2.166 3.32-1.263 7.857.3 9.93-6.33 1.972-3.314 8.784-3.557 9.026-.416.417-1.736.974-2.27 1.508-.66.66-.764 2.038-.764 3.035 0 .96.122 1.816.302 2.572-5.76 14.492-11.2 32.632-18.07 42.412-1.98.902-4.002 1.677-6.373 2.15-4.62 1.156-16.294 3.444-26.13 6.754-.427.568-.925 1.126-1.488 1.69-.974.973-2.924.974-3.9 1.95-.757.757-3.12-.096-3.878.662-2.25 2.25-5.57 3.418-9.107 5.186-.392.196-1.65-.3-1.95 0-1.606 1.606-4.482 2.533-5.85 3.9-2.673 2.673-4.914 5.578-7.798 8.462-2.866 2.866 2.98 10.758 3.9 11.678 2.708 2.708 7.683 3.14 10.39 5.85 1.14 1.14 4.96-.385 6.333.522.354.05.67.114.885.22 3.99 1.996 11.818 3.47 16.542 5.046 6.51 2.17 11.676 7.97 18.392 9.648 5.113 1.28 10.92 1.96 16.08 3.68 2.158.718 4.778.225 6.875.923 3.92 1.308 7.462 2.93 11.035 4.12 1.238.414 2.873-.316 4.14 0 2.854.714 5.938.92 8.724 1.85 4.963 1.654 11.582-1.654 16.544 0 3.27 1.09 23.63-.654 25.267-2.29 1.204-1.205 5.782.324 7.357-.463 1.368-.684 5.52-.013 6.432-.925 2.354-2.355 7.188-2.458 10.552-4.14 1.416-.708 3.597.27 5.066-.463.844-.422 2.56.097 4.422.904 3.542-.074 6.268-.442 9.81-.442 4.21 0 10.02-2 16.18-5.025 6.816-1.534 15.147-3.307 15.537-3.697 2.962-2.962 10.833-2.11 13.77-5.046 2.08-2.08 4.752-2.924 6.894-5.065 1.908-1.908 4.53-4.092 7.277-6.392.48-1.334 1.703-2.588 2.834-3.718.475-.475 3.822-10.268 3.217-11.478-1.107-2.215-2.937-4.047-5.045-5.75-.654-.223-1.155-.45-1.387-.682-2.252-2.252-7.647-2.602-9.648-4.603-3.223-3.224-8.07-6.12-13.85-8.06-1.21-.6-2.343-1.24-3.155-2.052-1.03-1.03-6.98-2.344-8.724-3.216-.938-.47-2.978.258-3.678-.442-1.698-1.697-8.81-2.907-13.95-4.543-.75.048-1.952-.524-2.17-.743-.155-.155-4.14-.74-5.448-2.05-.15-.15-.683-5.486-.683-6.15 0-.247-.597-1.235-.243-1.59.055-.054.11-.12.16-.18-2.377-14.656-4.196-30.84-5.908-32.282-2.545-2.14-3.958-13.965-6.755-16.32-2.925-2.464-4.756-5.157-7.015-7.257-.002-.007 0-.014 0-.02-.85-4.673-2.465-9.923-2.975-10.352-.83-.698.427-3.865-.402-4.563-2.58-2.173-5.942-14.947-8.362-16.985-3.17-2.67-4.728-6.812-7.738-9.347-7.437-6.262-19.79-15.582-33.447-14.874-.587-.166-1.16-.365-1.708-.583-.87-.344-1.853-.46-2.875-.44z" fill="#3C6991"/><path d="M107.634 81.112c-1.147-.206-2.27-.218-3.15.074-1.464.486-3.826-.666-5.356-.39-5.785 1.045-10.32 2.612-11.1 4.556 8.585-2.46 18.116 3.033 22.02 8.253 1.624 2.17-.88 5.46.004 8.12.2.604.36 4.463-.335 4.983-1.453 1.086-1.31 4.878-2.51 6.61-2.827 4.07-5.293 7.047-7.695 10.507-2.476 3.568-9.1 4.282-12.795 5.51-.816.27-1.845-.293-2.705-.008-.204.068-.44.08-.678.046.083.094.18.184.248.276.312.415 1.832.018 2.276.327 2.872 1.994 14.237 1.23 17.388.183 1.96-.65 3.78-1.612 5.74-2.263 2.514-.834 4.99-4.744 6.795-6.757 6.212-6.924 9.05-18.916 5.978-28.17-1.544-4.652-5.586-7.44-9.027-9.83-1.175-.816-3.184-1.683-5.096-2.028zM121.486 72.175c-.37-.012-.42 3.61-.45 5.335-.174.01-.166.227-.12.474-1.866.83-5.93 2.49-5.618 2.82.015.01.016.02.023.025-.146.006-.3.056-.307.26-.014.268.538.014.806.023.432.015 4.21 1.408 5.713 2.04.186 1.427.735 2.28.735 3.91 0 1.018.2 2.42.26 2.42.023 0 .064-.032.095-.048.044.176.094.28.166.213.294-.276.83-1.017 1.374-1.85.024-.035.05-.058.07-.094.96-1.186 2.053-2.705 2.988-4.078 1.813.264 3.473.475 3.888.475.2 0 7.087 1.184 5.098-.806-.12-.12-.262-.224-.403-.332.044-.035.07-.07.07-.118.015-.384-3.83-2.152-4.457-2.82-.303-.325-.74-.532-1.043-.855-.08-.086.07-.323.308-.665v-.023c.535-.59 1.105-1.2 1.517-1.613.198-.198 1.31-2.28.255-2.143-.712.092-3.04.24-6.086 1.132 0 0-.823-1.077-.83-1.074-.66-.27-2.535-2.56-4.056-2.61h.002zM104.28 71.638c-.22.106-.552.537-.658.317-.106-.22.878-.423.66-.317-.656.316-3.188 2.597-2.255 3.318.767.593 3.614-.516 4.822-.094.18.063 2.186 3.14 2.5 2.242.513-1.467-.122-3.96-.106-4.006.237-.676 2.09-.4 2.542-.617.374-.18 1.133-.5 1.237-.798.028-.082.05-.322.086-.244.03.063-.496-.447-1.136-.67-.956-.334-1.924-.125-2.61-.365-.315-.11.066-1.97-.05-2.207-.376-.78-.615-1.697-.55-1.56.188.388-.808.38-1.07.72-.33.424-1.19 1.862-1.744 1.855-.666-.01-3.333-.644-3.512-.132-.015.03 1.662 1.69 1.843 2.56zM130.06 97.512c-.178-.166-.7-.32-.535-.497.166-.18.714.663.536.497-.532-.494-3.58-2.02-3.91-.89-.273.932 1.798 3.178 1.845 4.457.015.19-2.128 3.18-1.176 3.145 1.552-.057 3.643-1.557 3.69-1.558.717-.027 1.133 1.8 1.502 2.142.304.28.878.87 1.195.86.087-.004.317-.073.258-.01-.047.05.236-.624.21-1.302-.037-1.012-.584-1.837-.61-2.562-.016-.335 1.856-.658 2.036-.852.59-.635 1.356-1.19 1.253-1.08-.293.315-.648-.616-1.06-.737-.516-.15-2.168-.426-2.363-.946-.234-.623-.615-3.338-1.157-3.318-.03 0-.967 2.164-1.712 2.65z" fill="#E6B35A"/><path d="M188.693 121.556c-.52 1.787-3.775 7.514-5.146 8.885-1.763 1.764-3.28 3.6-4.824 5.147-1.095 1.095-4.22 3.9-5.146 4.824-2.01 2.01-3.19 1.26-5.467 3.538-1.13 1.13-3.403 1.152-4.503 2.252-.994.994-8.975 1.593-10.934 2.573-.475.237-1.89-.36-2.252 0-1.407 1.407-12.532 1.92-12.863 2.25-1.703 1.704-6.238-.257-8.683.966-2.17 1.083-6.473.32-9.005.32-1.404 0-5.13-.026-8.966-.12-.906-.13-1.62-.23-1.648-.2-.02.018-.107.107-.16.16-.722-.023-1.416-.053-2.112-.08-.433-.166-.893-.268-1.266-.08-.017.007-.042.01-.06.02-2.994-.146-5.438-.358-6.05-.665-2.517-1.258-5.22-1.608-8.362-1.608-4.92 0-15.81-5.814-19.62-7.718-.582-.293-2.2-1.99-3.074-2.454-.007-.336-.02-.642-.14-.763-.897-.897-1.29-2.9-1.93-4.18-.267-.535 0-2.49 0-2.253 0 .01.646-2.572.643-2.572-.55 0-3.433 3.755-4.503 4.824-.01.01.02.068.04.12-.602.83-1.024 2.07-1.024 3.94 0 6.374 3.515 6.712 6.814 10.01.81.81 2.543.272 3.175.905.646.645 1.594 1.22 2.714 1.728-1.4.822-4.1 1.025-4.984 1.91-.865.865-4.877 3.353-6.372 4.1-.28.14-1.64.294-1.81.463-8.495 8.496-18.083 13.983-25.928 21.83-.66.66-.905 9.286-.905 10.913 0 2.843-.964 5.85.906 7.72.788.79 3.404.228 4.1.925.15.15 2.053 1.565 2.27 1.346.83-.83-.46-5.168-.46-6.35 0-6.21.67-12.49 4.562-16.382 7.506-7.506 18.208-10.932 25.005-17.73 1.998-1.997 5.66-3.06 8.322-5.245-.094.64.015 1.244.482 1.748.31.337 1.416-.327 1.81-.12 2.67 1.417 10.81 4.453 13.205 1.53.435.825.78 1.662 1.206 2.09 1.596 1.594.348 9.293-.462 10.914-3.057 6.113-4.67 23.764-7.277 26.37-.45.452.54 4.74.904 5.47.947 1.894-.694 6.12 0 6.813.682.682.242 2.493.925 3.176.62.62 3.458-.16 4.08.462.245.246 3.48 2.448 4.1 1.83.512-.514-1.404-6.426-1.83-7.277-.366-.734.988-14.194 1.367-14.573.53-.53-.53-2.645 0-3.176 1.033-1.034 2.27-22.444 2.27-25.468 0-.51 1.306-3.7.464-4.543-.004-.006-.753-1.726-1.768-3.398 1.5.11 2.764.292 3.136.663.667.668 14.124 0 16.36 0 8.887 0 22.866-.688 28.202-1.83 2.128-.454 7.173-.85 10.01-2.27 1.648-.824 7.45-1.387 8.463-1.648 2.166-.56 9.128-2.234 11.075-4.18 1.444-1.446 6.383-6.45 8.2-7.358 2.05-1.026 3.08-4.667 4.283-6.353.155-1.248 3.514-4.51 2.855-5.83-.75-3.045-1.216-6.193-2.412-6.31z" fill="#E6B35A"/></svg>