<svg width="256" height="387" viewBox="0 0 256 387" xmlns="http://www.w3.org/2000/svg" preserveAspectRatio="xMidYMid"><path d="M146.438 115.038V382.03c0 2.837 2.836 4.61 5.318 3.19l102.47-55.666c1.065-.71 1.774-1.773 1.774-3.19V174.96c0-1.417-.71-2.48-1.773-3.19L152.11 111.847c-2.48-1.418-5.672.355-5.672 3.19zM131.9 383.094V3.704c0-2.483-2.482-4.256-4.964-3.546L2.482 46.252C1.064 46.962 0 48.025 0 49.797v288.62c0 1.42 1.064 2.838 2.482 3.547l124.454 44.676c2.482.71 4.964-1.064 4.964-3.546z" fill="#F14646"/></svg>