<svg width="256" height="256" viewBox="0 0 256 256" xmlns="http://www.w3.org/2000/svg" preserveAspectRatio="xMidYMid"><path d="M134.395 255.707H121.8c-.463-.094-.922-.217-1.39-.277-5.75-.734-11.575-1.1-17.24-2.247-27.92-5.647-51.69-18.928-70.374-40.422C3.82 179.43-5.93 140.757 4.14 97.823 17.274 41.832 66.636 2.102 123.908.272c1.252-.04 2.5-.18 3.75-.272h1.172c.416.077.832.22 1.248.222 8.03.01 15.978.9 23.818 2.555 28.244 5.96 52.077 19.706 70.84 41.61 24.117 28.158 34.104 60.942 30.355 97.844-1.492 14.695-5.605 28.68-12.18 41.894-13.026 26.185-32.705 45.767-58.92 58.714-13.956 6.892-28.74 10.942-44.255 12.306-1.783.157-3.56.374-5.34.563zm-77.04-129.85c2.707-2.75 3.786-4.683 3.85-7.25.07-2.732.095-5.47-.003-8.2-.175-4.882-3.1-8.456-7.94-9.03-3.85-.457-7.786-.33-11.68-.26-1.78.033-3.017 1.658-3.02 3.557-.017 14.693-.02 29.386.005 44.08.004 2.104 1.52 3.536 3.66 3.56 3.222.034 6.446.07 9.666-.007 6.255-.15 10.732-4.762 10.752-10.99.006-2.1-.004-4.198.002-6.297.01-4.024-1.433-7.222-5.29-9.162zm72.366-3.47v-1.677c0-5.32.003-10.642 0-15.963-.002-2.75-1.373-4.277-3.85-4.292-2.515-.015-3.944 1.48-3.945 4.204a38129.47 38129.47 0 0 0 0 44.08c.002 2.704 1.456 4.197 3.984 4.17 2.408-.028 3.807-1.556 3.81-4.186.004-5.76 0-11.52 0-17.28v-1.583h8.603v1.82c0 5.71-.012 11.423.006 17.134.007 2.61 1.45 4.092 3.908 4.095 2.476.003 3.88-1.464 3.883-4.09.01-4.882.004-9.764.004-14.646 0-9.91.002-19.82-.003-29.73 0-2.036-.966-3.413-2.674-3.88-2.738-.748-5.09.955-5.11 3.79-.04 5.42-.013 10.838-.013 16.257v1.778h-8.602zm-28.19 18.53c.398.07.73.132 1.063.182 6.715 1.008 11.81-2.467 12.66-8.817.284-2.112.07-4.287.122-6.433.05-2.126-.11-4.184-1.707-5.948.628-.08 1.103-.12 1.568-.208 2.39-.454 3.343-1.79 2.988-4.162-.302-2.017-1.355-2.705-3.835-2.5-.292.024-.58.077-.872.108-3.387.362-6.766.847-10.163 1.054-4.695.287-8.286 3.18-9.078 7.83-.324 1.903-.215 3.88-.316 5.824-.205 3.944.14 7.73 3.21 10.735-1.956 1.414-3.177 3.096-3.355 5.41-.18 2.35.598 4.285 2.702 5.655l-.92.635c-2.735 1.882-3.78 4.523-3.33 7.743.44 3.14 2.395 5.087 5.322 5.984 4.405 1.35 8.9 1.527 13.173-.317 1.847-.797 3.712-2.116 4.938-3.69 4.705-6.04 1.293-14.632-6.063-15.52-2.022-.244-4.094-.054-6.142-.098-2.354-.053-3.022-1.17-1.964-3.467zm107.837-23.94c-.738-.615-1.218-1.115-1.788-1.473-2.645-1.657-5.445-1.798-8.23-.488-2.58 1.215-3.57 3.555-3.59 6.242-.063 8.196-.093 16.394.004 24.588.055 4.56 3.32 7.482 7.88 7.352 2.472-.07 4.302-1.336 5.835-3.37.51 1.62 1.33 2.77 2.954 3.044 2.67.453 4.426-1.04 4.433-3.838.02-8.39.008-16.783.008-25.174 0-6.49-.01-12.978.005-19.466.004-1.46-.368-2.712-1.708-3.482-2.706-1.555-5.785.188-5.8 3.293-.02 4.186-.005 8.373-.005 12.773zM81.223 149.792c.137.418.187.606.26.785.758 1.89 2.23 2.668 4.344 2.298 1.656-.29 2.567-1.53 2.593-3.532.006-.487 0-.975 0-1.463 0-9.857.008-19.714-.003-29.57-.003-2.468-1.376-3.81-3.804-3.792-2.367.016-3.688 1.385-3.693 3.924-.015 8.392 0 16.785-.02 25.177 0 .56-.006 1.295-.334 1.643-.97 1.03-2.258 1.295-3.63.9-1.205-.347-1.66-1.268-1.732-2.435-.044-.73-.09-1.46-.092-2.19-.006-7.662.004-15.323-.01-22.984-.003-2.654-1.298-4.028-3.728-4.035-2.466-.007-3.77 1.352-3.77 3.973-.007 8.93-.024 17.86.005 26.79.016 5.33 3.035 8.2 8.268 7.915 2.31-.125 4.06-1.238 5.345-3.402zm78.7-13.87c3.423 0 6.685.01 9.946-.003 2.093-.008 3.132-1.034 3.15-3.152.026-2.928.068-5.857-.006-8.783-.143-5.636-3.906-9.573-9.234-9.76-6.726-.233-10.904 2.846-11.206 8.977-.347 7.056-.29 14.145-.075 21.21.14 4.545 2.787 7.514 6.82 8.42 1.268.285 2.608.355 3.915.355 5.997 0 9.775-3.928 9.595-9.903-.067-2.204-1.29-3.412-3.49-3.444-2.333-.034-3.534 1.107-3.615 3.433-.01.293-.005.587-.033.878-.185 1.86-1.17 2.833-2.882 2.854-1.674.02-2.798-.982-2.864-2.843-.095-2.675-.024-5.354-.024-8.24zm25.557-17.823c-.297-1.582-.784-2.828-2.36-3.218-2.75-.68-4.65.77-4.662 3.602-.022 4.778-.006 9.555-.006 14.333 0 5.363-.008 10.725.004 16.088.006 2.165.893 3.47 2.593 3.914 2.74.715 4.9-.92 4.905-3.755.012-8.435.004-16.87.006-25.303 0-1.643.462-2.043 2.108-1.844.77.093 1.542.28 2.312.272 1.924-.018 3.117-1.404 3.194-3.603.088-2.51-.91-3.874-2.974-4.063-2.692-.248-3.744.457-5.12 3.575zM46.3 145.51v-15.87c1.743 0 3.447-.158 5.107.042 1.92.23 3.183 1.477 3.29 3.38.17 2.957.175 5.94.007 8.898-.108 1.916-1.416 3.028-3.325 3.345-.673.11-1.357.173-2.037.196-.967.033-1.935.01-3.042.01zm.012-22.795V107.78c1.615.113 3.16.13 4.676.354 1.203.18 2.168 1.026 2.222 2.225.14 3.146.198 6.308.03 9.45-.084 1.533-1.287 2.503-2.86 2.688-1.293.152-2.605.145-4.068.217zm55 5.016c-.002-1.365-.07-2.736.014-4.097.128-2.035 1.36-3.21 3.244-3.245 1.988-.036 3.336 1.11 3.42 3.2.11 2.73.104 5.47.007 8.198-.075 2.083-1.424 3.276-3.383 3.255-1.884-.02-3.148-1.197-3.284-3.21-.09-1.36-.017-2.732-.018-4.1zm3.27 31.24c-.675-.083-1.362-.115-2.024-.26-2.854-.63-3.9-3.48-2.358-6.374.607-1.14 1.346-1.948 2.85-1.745 1.293.176 2.625.045 3.93.17 1.566.15 2.764.867 3.202 2.518.44 1.664-.037 3.517-1.505 4.387-1.213.72-2.654 1.055-3.994 1.56l-.1-.254zm104.785-25.26v10.24c-.002 1.687-.708 2.445-2.52 2.714-1.666.248-2.91-.42-3.348-1.87a6.098 6.098 0 0 1-.25-1.72c-.016-6.29-.028-12.58 0-18.872.01-2.853 2.028-4.215 4.59-3.166 1.02.418 1.6 1.007 1.562 2.29-.103 3.458-.035 6.922-.035 10.384zm-43.86-3.806h-5.526c0-2.393-.112-4.715.04-7.02.103-1.556 1.312-2.416 2.81-2.386 1.48.03 2.535.804 2.64 2.37.15 2.3.038 4.62.038 7.036z" fill="#222"/><path d="M227.038 143.77c2.7-.02 4.526 1.754 4.554 4.422.03 2.752-1.818 4.662-4.504 4.657-2.628-.005-4.465-1.865-4.48-4.536-.015-2.7 1.765-4.526 4.43-4.545z" fill="#6DB6D1"/></svg>