<svg width="256" height="206" viewBox="0 0 256 206" xmlns="http://www.w3.org/2000/svg" preserveAspectRatio="xMidYMid"><path d="M101.614 9.07c.233 1.398-.466 2.563-2.794 3.727-3.027-1.63-9.548-2.562-14.903-2.096-5.822.467-10.712 2.33-10.013 6.288.93 3.96 6.52 6.288 16.533 5.356 24.45-2.096 24.217-18.63 60.078-21.89 27.943-2.56 43.544 6.056 45.64 16.534 1.63 8.15-5.123 16.068-25.382 17.698-17.93 1.63-28.41-3.26-29.34-8.15-.466-2.562.93-6.288 9.547-7.22.932 3.96 5.822 8.15 17.465 6.987 8.383-.7 15.368-3.726 14.437-8.383-.93-4.89-9.78-7.685-23.752-6.52-28.41 2.56-35.394 18.163-59.612 20.26-17.23 1.63-31.203-4.66-33.066-13.973-.698-3.493-.698-11.643 17.465-13.273 9.314-.7 16.766.93 17.697 4.657zM10.8 106.408C2.88 116.42-.61 128.062.086 139.473c.7 11.41 6.287 20.724 15.136 27.943 9.314 7.218 19.327 9.314 30.738 7.218 4.425-.698 9.315-3.027 13.74-4.424-9.315 0-17.232-3.027-25.15-9.314-8.615-6.288-14.437-15.136-15.834-25.848-2.096-10.013 0-19.327 5.59-27.477 6.286-7.916 14.436-12.34 25.147-13.738 10.712-.698 20.026 2.096 29.34 8.616-2.095-3.027-5.122-5.123-7.916-7.917-9.315-6.287-19.328-9.314-31.67-6.287-11.177 2.33-20.49 8.15-28.408 18.164zm124.812-53.79c-30.04 0-56.818-3.028-76.146-7.22-20.724-5.123-31.67-10.71-31.67-17.93 0-3.027 1.4-5.59 5.59-8.616-13.04 5.124-20.026 9.316-20.026 15.836.7 7.218 12.342 14.437 36.093 20.026 22.355 5.588 50.997 8.615 85.46 8.615 35.162 0 63.105-3.027 85.46-8.615 23.75-5.59 35.16-13.04 35.16-20.026 0-5.123-5.122-10.013-14.436-13.74 2.096 1.398 3.726 3.727 3.726 6.288 0 7.22-10.712 13.04-32.368 17.93-20.026 4.425-45.64 7.452-76.843 7.452zm85.692 20.025c-22.355 5.123-50.996 8.616-85.46 8.616-35.16 0-63.803-3.726-86.158-8.616C29.66 67.52 18.95 61.93 15.223 56.11c3.726 25.148 12.342 48.9 23.752 69.857 8.616 13.04 17.23 24.45 25.847 36.792 3.726 7.217 6.287 14.436 7.917 21.655 5.588 7.917 13.738 13.04 23.75 15.834 12.343 4.423 25.15 6.286 38.19 5.588h1.397c13.04.698 26.78-1.398 39.354-5.59 9.315-3.026 17.232-7.916 23.054-15.833h.698c1.397-7.22 3.726-14.438 7.22-21.656 8.615-12.343 17.23-23.753 25.846-36.793C243.658 105.242 251.576 81.49 256 56.11c-4.657 6.52-15.37 12.108-34.696 16.532z" fill="#28334C"/></svg>