<svg width="256" height="256" viewBox="0 0 256 256" xmlns="http://www.w3.org/2000/svg" xmlns:xlink="http://www.w3.org/1999/xlink" preserveAspectRatio="xMidYMid"><defs><path id="a" d="M255.774 0c-3.374 68.465-13.363 131.71-40.03 191.254-20.467 45.706-67.265 69.496-120.04 62.802-43.38-5.502-83.16-42.607-92.844-86.6-10.806-49.09 9.47-100.444 53.017-122.797C117.347 13.103 184.55 4.124 255.774 0"/></defs><mask id="b" fill="#fff"><use xlink:href="#a"/></mask><use fill="#fff" xlink:href="#a"/><g mask="url(#b)"><path d="M113.79 76.094s-5.894 32.657-8.24 49.203c-11.936-9.303-35.56-26.23-35.56-26.23s18.534 24.924 27.285 36.056c-16.625 1.884-49.95 7.073-49.95 7.073s34.082 5.482 49.955 7.317c-9.206 11.657-27.374 35.29-27.374 35.29s24.68-17.047 35.77-25.592c2.264 15.86 8.113 49.64 8.113 49.64s5.35-33.752 7.383-50.2c10.965 8.546 34.115 26.396 34.115 26.396s-16.128-24.142-24.96-35.544c16.043-1.884 48.638-7.306 48.638-7.306s-32.913-5.24-48.52-7.046c8.077-10.947 24.997-36.095 24.997-36.095s-23.71 18.388-34.29 26.856c-1.958-16.34-7.364-49.816-7.364-49.816M255.8.46c-3.374 68.466-13.363 131.71-40.03 191.256-20.468 45.705-67.265 69.495-120.04 62.8-43.38-5.5-83.16-42.605-92.844-86.6C-7.92 118.83 12.356 67.474 55.903 45.12 117.373 13.566 184.577 4.587 255.8.46" fill="#E21708"/><path d="M6.195 103.9c3.892-11.46 9.58-22.165 16.937-31.595 2.778-3.42 5.865-6.837 9.296-10.36a98 98 0 0 1 9.643-8.215c3.126-2.28 6.57-4.52 10.266-6.7a98.234 98.234 0 0 1 3.567-1.924c14.884-7.64 30.1-13.956 45.633-19.2C141.8 12.31 184.158 5.915 228.18 2.345 239.04 1.518 248.44.973 255.8.46 180.864 16.624 141.05 32.527 92.565 53.73 44.08 74.934 2.687 121 .493 134.19c1.29-11.934 3.1-21.743 5.702-30.29z" fill-opacity=".3" fill="#FA524A"/><path d="M97.01 259.082a109.76 109.76 0 0 1-14.532-2.836c-18.214-5.252-37.246-16.484-52.433-32.87-13.227-14.42-22.987-32.097-27.16-51.05a122.038 122.038 0 0 1-2.858-26.638c.544 79.974 93.994 92.336 118.985 92.336 39.67 0 39.175-7.9 100.79-51.235a379.606 379.606 0 0 1-4.032 9.334c-14.427 32.217-41.942 53.545-75.407 60.983-8.783 1.945-17.868 2.933-27.225 2.933-5.296 0-10.677-.317-16.127-.958z" fill-opacity=".3" fill="#AE0E10"/></g></svg>