<svg width="256" height="215" viewBox="0 0 256 215" xmlns="http://www.w3.org/2000/svg"><g fill="none" fill-rule="evenodd"><path d="M38.617 173.984v-16.362c0-2.15 1.344-3.877 3.57-3.877h.616c2.225 0 3.563 1.73 3.563 3.877v34.447c0 8.4-4.15 15.083-11.382 19.34a21.374 21.374 0 0 1-10.945 2.986H22.5c-8.402 0-15.077-4.153-19.342-11.38a21.314 21.314 0 0 1-2.984-10.947v-1.536c0-8.403 4.152-15.083 11.378-19.35a21.298 21.298 0 0 1 10.948-2.984h1.537c5.685 0 10.51 2.204 14.577 5.784zM7.924 191.3c0 6.068 2.94 10.63 8.258 13.54 2.15 1.176 4.484 1.808 6.937 1.808 5.955 0 10.373-2.81 13.42-7.857 1.417-2.347 2.077-4.916 2.077-7.647 0-5.26-2.49-9.365-6.73-12.414-2.57-1.85-5.462-2.776-8.617-2.776-6.492 0-11.164 3.28-13.968 9.106-.946 1.97-1.378 4.06-1.378 6.24zm65.324-23.1h1.074c8.978 0 15.806 4.355 20.133 12.192 1.73 3.135 2.656 6.557 2.656 10.142v1.535c0 8.4-4.14 15.092-11.384 19.342-3.353 1.967-7.057 2.984-10.943 2.984h-1.535c-8.402 0-15.08-4.153-19.342-11.38a21.316 21.316 0 0 1-2.987-10.947v-1.536c0-8.404 4.168-15.062 11.376-19.347 3.35-1.99 7.058-2.987 10.952-2.987zm-14.58 23.1c0 5.89 2.89 10.223 7.865 13.27 2.336 1.43 4.91 2.078 7.638 2.078 5.82 0 10.123-2.95 13.117-7.863 1.428-2.342 2.074-4.915 2.074-7.642 0-5.477-2.637-9.66-7.147-12.693-2.47-1.663-5.222-2.496-8.198-2.496-6.492 0-11.164 3.28-13.967 9.106-.948 1.97-1.38 4.06-1.38 6.24zm70.656-14.727c-1.17-.548-3.36-.73-4.624-.778-6.474-.244-11.158 3.402-13.906 9.113-.95 1.97-1.382 4.055-1.382 6.235 0 6.637 3.485 11.284 9.41 14.117 2.163 1.034 4.957 1.23 7.322 1.23 2.08 0 5.02-1.274 6.866-2.15l.32-.153h1.433l.158.032c1.763.366 3.093 1.483 3.093 3.38v.766c0 4.718-8.622 5.798-11.912 6.028-11.61.803-20.292-5.573-23.602-16.647-.575-1.923-.834-3.833-.834-5.837v-1.533c0-8.403 4.17-15.06 11.377-19.34 3.352-1.99 7.058-2.99 10.952-2.99h1.535c4.13 0 7.934 1.173 11.344 3.502l.282.193.176.292c.368.61.685 1.316.685 2.042v.767c0 1.978-1.48 3.042-3.266 3.386l-.148.026h-.46c-1.155 0-3.784-1.197-4.816-1.683zm25.134 5.247c3.01-3.014 6.03-6.022 9.085-8.986.85-.827 4.074-4.327 5.343-4.327h1.388l.158.033c1.768.367 3.092 1.486 3.092 3.386v.766c0 1.296-1.518 2.802-2.355 3.69-1.78 1.886-3.655 3.71-5.477 5.56l-9.362 9.503c4.032 4.04 8.06 8.083 12.057 12.154a313.304 313.304 0 0 1 3.3 3.395c.386.405.954.91 1.277 1.47.347.526.56 1.12.56 1.752v.8l-.045.185c-.436 1.768-1.558 3.194-3.517 3.194h-.617c-1.282 0-2.73-1.45-3.608-2.28-1.81-1.705-3.557-3.5-5.33-5.242l-5.95-5.84v9.334c0 2.15-1.346 3.878-3.57 3.878h-.61c-2.225 0-3.57-1.728-3.57-3.878v-52.596c0-2.15 1.346-3.87 3.57-3.87h.61c2.224 0 3.57 1.72 3.57 3.87v24.048zm96.577-13.313h.77c2.324 0 3.875 1.566 3.875 3.877 0 3.208-3.067 4.03-5.72 4.03-3.48 0-6.803 2.106-9.202 4.47-2.99 2.948-4.3 6.725-4.3 10.877v18.76c0 2.15-1.343 3.876-3.57 3.876h-.612c-2.227 0-3.57-1.725-3.57-3.876v-19.836c0-7.617 3.71-13.835 9.89-18.196 3.692-2.605 7.92-3.98 12.44-3.98zm-55.074 37.176c2.82.985 6.036.844 8.93.34 1.478-.63 5.263-2.28 6.655-2.038l.217.037.2.098c.85.412 1.66.995 2.095 1.86 1.014 2.027.527 4.065-1.465 5.216l-.663.383c-7.352 4.24-15.17 3.653-22.496-.31-3.503-1.893-6.183-4.704-8.16-8.13l-.462-.802c-4.72-8.172-4.082-16.768 1.24-24.54 1.837-2.685 4.238-4.76 7.045-6.383l1.062-.613c6.92-3.996 14.34-3.722 21.45-.215 3.822 1.886 6.92 4.697 9.053 8.394l.384.667c1.55 2.686-.458 5.026-2.53 6.626-2.407 1.856-4.836 4.09-7.142 6.08-5.142 4.44-10.276 8.888-15.414 13.33zm-6.654-4.674c5.75-4.932 11.502-9.866 17.237-14.817 1.96-1.69 4.11-3.444 6.053-5.22-1.56-1.967-4.166-3.384-6.38-4.23-4.47-1.702-8.877-1.13-12.976 1.236-5.365 3.097-7.65 8.03-7.45 14.17.08 2.417.73 4.747 2.013 6.804.452.725.957 1.406 1.503 2.055zM147.488 45.732h22.866v23.375h11.56c5.34 0 10.832-.95 15.888-2.664 2.485-.843 5.273-2.015 7.724-3.49-3.228-4.214-4.876-9.535-5.36-14.78-.66-7.135.78-16.42 5.608-22.005l2.404-2.78 2.864 2.303c7.21 5.794 13.276 13.89 14.345 23.12 8.683-2.555 18.878-1.95 26.53 2.466l3.14 1.812-1.65 3.226C246.932 68.946 233.4 72.86 220.17 72.167c-19.796 49.31-62.897 72.653-115.156 72.653-27 0-51.77-10.093-65.876-34.047l-.23-.39-2.056-4.182c-4.768-10.543-6.352-22.094-5.278-33.636l.323-3.457H51.45V45.732h22.865V22.866h45.733V0h27.44v45.732" fill="#364548"/><path d="M221.57 54.38c1.533-11.916-7.384-21.275-12.914-25.72-6.373 7.37-7.363 26.68 2.635 34.81-5.578 4.955-17.336 9.447-29.375 9.447H35.37c-1.17 12.567 1.036 24.14 6.075 34.045l1.667 3.05a56.536 56.536 0 0 0 3.455 5.184c6.025.387 11.58.52 16.662.408 9.988-.22 18.137-1.4 24.313-3.54a1.76 1.76 0 1 1 1.153 3.326c-.822.287-1.678.553-2.562.806h-.003c-4.862 1.39-10.077 2.323-16.805 2.738.4.007-.416.06-.418.06-.23.015-.517.048-.747.06-2.648.15-5.506.18-8.428.18-3.196 0-6.343-.06-9.862-.24l-.09.06c12.21 13.724 31.302 21.955 55.234 21.955 50.648 0 93.608-22.452 112.632-72.857 13.496 1.386 26.467-2.056 32.367-13.574-9.398-5.423-21.484-3.694-28.443-.196" fill="#22A0C8"/><path d="M221.57 54.38c1.533-11.916-7.384-21.275-12.914-25.72-6.373 7.37-7.363 26.68 2.635 34.81-5.578 4.955-17.336 9.447-29.375 9.447H44.048c-.598 19.246 6.544 33.855 19.18 42.687h.003c9.988-.22 18.137-1.4 24.313-3.54a1.76 1.76 0 1 1 1.153 3.326c-.822.287-1.678.553-2.562.806h-.003c-4.862 1.39-10.525 2.443-17.253 2.858-.002 0-.163-.155-.165-.155 17.237 8.842 42.23 8.81 70.885-2.197 32.13-12.343 62.03-35.86 82.89-62.756-.314.142-.62.287-.917.436" fill="#37B1D9"/><path d="M35.645 88.186c.91 6.732 2.88 13.035 5.8 18.776l1.667 3.05a56.432 56.432 0 0 0 3.455 5.184c6.026.387 11.58.52 16.664.408 9.988-.22 18.137-1.4 24.313-3.54a1.76 1.76 0 1 1 1.153 3.326c-.822.287-1.678.553-2.562.806h-.003c-4.862 1.39-10.495 2.383-17.223 2.8-.23.013-.634.016-.867.028-2.646.15-5.475.24-8.398.24-3.195 0-6.463-.06-9.98-.24 12.21 13.724 31.42 21.985 55.352 21.985 43.36 0 81.084-16.458 102.98-52.822H35.643" fill="#1B81A5"/><path d="M45.367 88.186c2.592 11.82 8.82 21.1 17.864 27.418 9.988-.22 18.137-1.4 24.313-3.54a1.76 1.76 0 1 1 1.153 3.326c-.822.287-1.678.553-2.562.806h-.003c-4.862 1.39-10.614 2.383-17.343 2.8 17.236 8.84 42.157 8.712 70.81-2.294 17.334-6.66 34.017-16.573 48.984-28.514H45.368" fill="#1D91B4"/><path d="M55.26 49.543H75.08V69.36H55.26V49.544zm1.65 1.652h1.565V67.71H56.91V51.195zm2.942 0h1.626V67.71h-1.626V51.195zm3 0h1.628V67.71h-1.627V51.195zm3.005 0h1.626V67.71h-1.626V51.195zm3.003 0h1.626V67.71H68.86V51.195zm3.002 0h1.565V67.71h-1.565V51.195zM78.126 26.677h19.82v19.817h-19.82V26.677zm1.652 1.652h1.563v16.513H79.78V28.33zm2.94 0h1.626v16.513H82.72V28.33zm3.002 0h1.626v16.513H85.72V28.33zm3.003 0h1.626v16.513h-1.627V28.33zm3.003 0h1.627v16.513h-1.627V28.33zm3.002 0h1.566v16.513h-1.566V28.33z" fill="#23A3C2"/><path d="M78.126 49.543h19.82V69.36h-19.82V49.544zm1.652 1.652h1.563V67.71H79.78V51.195zm2.94 0h1.626V67.71H82.72V51.195zm3.002 0h1.626V67.71H85.72V51.195zm3.003 0h1.626V67.71h-1.627V51.195zm3.003 0h1.627V67.71h-1.627V51.195zm3.002 0h1.566V67.71h-1.566V51.195z" fill="#34BBDE"/><path d="M100.993 49.543h19.818V69.36h-19.817V49.544zm1.65 1.652h1.564V67.71h-1.563V51.195zm2.94 0h1.627V67.71h-1.626V51.195zm3.004 0h1.626V67.71h-1.626V51.195zm3.003 0h1.626V67.71h-1.626V51.195zm3.002 0h1.628V67.71h-1.628V51.195zm3.003 0h1.564V67.71h-1.565V51.195z" fill="#23A3C2"/><path d="M100.993 26.677h19.818v19.817h-19.817V26.677zm1.65 1.652h1.564v16.513h-1.563V28.33zm2.94 0h1.627v16.513h-1.626V28.33zm3.004 0h1.626v16.513h-1.626V28.33zm3.003 0h1.626v16.513h-1.626V28.33zm3.002 0h1.628v16.513h-1.628V28.33zm3.003 0h1.564v16.513h-1.565V28.33zM123.86 49.543h19.817V69.36H123.86V49.544zm1.65 1.652h1.564V67.71h-1.563V51.195zm2.94 0h1.627V67.71h-1.626V51.195zm3.003 0h1.626V67.71h-1.627V51.195zm3.003 0h1.627V67.71h-1.627V51.195zm3.003 0h1.626V67.71h-1.627V51.195zm3.002 0h1.564V67.71h-1.564V51.195z" fill="#34BBDE"/><path d="M123.86 26.677h19.817v19.817H123.86V26.677zm1.65 1.652h1.564v16.513h-1.563V28.33zm2.94 0h1.627v16.513h-1.626V28.33zm3.003 0h1.626v16.513h-1.627V28.33zm3.003 0h1.627v16.513h-1.627V28.33zm3.003 0h1.626v16.513h-1.627V28.33zm3.002 0h1.564v16.513h-1.564V28.33z" fill="#23A3C2"/><path d="M123.86 3.81h19.817v19.82H123.86V3.81zm1.65 1.65h1.564v16.517h-1.563V5.46zm2.94 0h1.627v16.517h-1.626V5.46zm3.003 0h1.626v16.517h-1.627V5.46zm3.003 0h1.627v16.517h-1.627V5.46zm3.003 0h1.626v16.517h-1.627V5.46zm3.002 0h1.564v16.517h-1.564V5.46z" fill="#34BBDE"/><path d="M146.725 49.543h19.818V69.36h-19.818V49.544zm1.65 1.652h1.565V67.71h-1.564V51.195zm2.94 0h1.627V67.71h-1.626V51.195zm3.004 0h1.626V67.71h-1.627V51.195zm3 0h1.628V67.71h-1.627V51.195zm3.005 0h1.626V67.71h-1.625V51.195zm3.002 0h1.564V67.71h-1.563V51.195z" fill="#23A3C2"/><path d="M96.704 101.492a5.468 5.468 0 1 1-.002 10.935 5.468 5.468 0 0 1 .002-10.935" fill="#D3ECEC"/><path d="M96.704 103.043c.5 0 .977.094 1.417.265a1.598 1.598 0 0 0 .8 2.98c.604 0 1.13-.335 1.4-.83a3.915 3.915 0 1 1-3.617-2.414M0 90.162h254.327c-5.537-1.404-17.52-3.302-15.544-10.56-10.07 11.652-34.353 8.175-40.482 2.43-6.823 9.898-46.553 6.135-49.324-1.576-8.556 10.04-35.067 10.04-43.623 0-2.773 7.71-42.502 11.474-49.327 1.575-6.128 5.747-30.41 9.224-40.48-2.427C17.522 86.86 5.54 88.758 0 90.163" fill="#364548"/><path d="M111.237 140.89c-13.54-6.425-20.97-15.16-25.106-24.694-5.028 1.435-11.074 2.353-18.1 2.747-2.645.148-5.428.224-8.35.224-3.367 0-6.916-.1-10.642-.297 12.417 12.41 27.692 21.964 55.976 22.138 2.088 0 4.16-.04 6.223-.118" fill="#BDD9D7"/><path d="M91.16 124.994c-1.873-2.543-3.69-5.74-5.026-8.8-5.03 1.437-11.077 2.355-18.103 2.75 4.827 2.62 11.728 5.046 23.13 6.05" fill="#D3ECEC"/></g></svg>