<svg width="256" height="256" viewBox="0 0 256 256" xmlns="http://www.w3.org/2000/svg" preserveAspectRatio="xMidYMid"><path fill="#F26522" d="M0 0h256v256H0z"/><path d="M105.536 159.96h39.157v-10.654H117.63V132.8h24.952v-10.654H117.63v-15.452h27.063V96.04h-39.157v63.92zm91.462-17.372c0-12.765-.864-15.548-18.043-19.675-11.037-2.687-11.23-2.88-11.23-10.173 0-5.566 1.44-7.294 9.6-7.294 5.565 0 11.803.768 17.082 1.92l1.344-10.173c-6.334-1.44-13.052-2.112-18.618-2.112-16.22 0-21.498 5.76-21.498 17.372 0 13.533 2.11 16.508 17.563 19.963 11.517 2.495 11.71 3.07 11.71 10.173 0 6.142-1.44 7.966-10.175 7.966-6.334 0-12.092-1.152-18.042-2.976l-2.112 9.502c4.223 2.015 12.67 3.84 19.963 3.84 18.907 0 22.458-6.24 22.458-18.332zm22.266-23.8c0-9.79 4.703-11.71 16.027-11.71 2.017 0 6.24.288 9.023.864l.768-9.79c-2.88-.67-7.485-1.15-11.036-1.15-17.467 0-26.49 5.373-26.49 22.264v23.322c0 11.037 3.264 18.33 19.772 18.33 15.067 0 19.674-7.485 19.674-17.466v-4.607c0-11.037-4.703-15.836-16.315-15.836-4.127 0-8.062.575-11.42 1.727v-5.95zm9.597 14.3c4.224 0 6.43 1.438 6.43 6.045v4.703c0 4.894-1.918 7.006-7.964 7.006-6.047 0-8.062-1.728-8.062-7.006v-8.734c2.687-1.152 6.142-2.015 9.597-2.015z" fill="#FFF"/></svg>