<svg width="256" height="320" viewBox="0 0 256 320" xmlns="http://www.w3.org/2000/svg" preserveAspectRatio="xMidYMid"><path d="M81.55 2.13C33.677 8.058 4.087 22.134.558 40.87c-.64 3.036-.64 20.002-.333 37.767.652 26.58 1.12 33.305 3.53 37.607 2.556 4.967 2.556 5.766 0 12.478-2.41 6.245-2.57 11.066-1.772 36.967.652 16.34 1.944 32.173 3.063 35.063 1.41 4.008 1.41 6.232 0 9.455-2.41 5.114-2.584 50.258-.333 63.84.945 6.407 3.036 11.387 6.072 15.223 14.263 17.765 52.03 28.326 107.548 30.084 68.982 2.25 121.637-10.72 134.128-33 3.356-5.74 3.516-8.31 3.516-37.594 0-24.796-.48-32.653-2.557-37.607-2.078-5.273-2.078-7.03-.48-10.08 1.45-2.717 1.93-11.986 1.624-34.092-.333-31.693-.8-36.34-4.328-41.455-1.77-2.57-1.61-3.835.306-7.843 2.078-3.835 2.57-10.88 2.398-38.886-.147-19.855-.96-36.328-2.078-39.365-4.328-13.276-23.53-25.447-49.606-31.693C169.23.213 117.386-2.17 81.55 2.13z" fill="#0A0B09"/><path d="M33.53 228.772c13.77 10.067 82.112 16.806 128.362 12.797 25.435-2.25 47.368-6.406 57.928-11.04 7.058-3.196 7.365-3.69 7.365-9.762 0-4.488.64-6.578 2.237-6.578 5.446 0 6.245 4.328 5.94 33.785-.174 15.993-.8 29.936-1.12 31.042-1.29 3.196-14.9 9.92-26.274 12.824-19.35 5.114-37.46 7.352-66.41 8.31-53.47 1.772-103.727-6.392-117.31-19.043-3.37-3.356-3.543-4.46-3.543-32.333 0-27.673.174-28.965 3.703-32.653l3.515-3.835.8 6.872c.638 4.807 1.917 7.524 4.793 9.615h.014z" fill="#F6CF54"/><path d="M28.736 137.218c0 6.552 3.196 9.268 15.674 12.944 45.13 13.61 146.925 11.852 176.063-3.036 5.926-3.037 6.712-3.996 6.712-8.95 0-6.085 1.598-7.044 5.42-3.036 3.062 3.037 2.916.32 2.57 33.452l-.147 27.207-4.647 4.327c-9.907 9.122-44.33 16.313-86.426 18.244-52.176 2.398-111.89-7.83-120.998-20.8-1.77-2.57-2.25-9.455-2.25-31.215 0-23.69.32-28.325 2.703-30.882 3.714-4.155 5.312-3.515 5.312 1.758l.014-.012z" fill="#F6CF54"/><path d="M88.915 17.18c-.48.798 8.483.958 20.495.478 17.778-.652 64.64 2.078 63.055 3.676-.32.32-7.537 1.29-16.166 2.25-8.817.96-17.3 2.57-19.205 3.516-3.21 1.758-3.21 1.918-.492 3.995 2.743 1.93 2.57 2.09-1.598 3.05-13.13 2.716-21.614 6.085-24.637 9.92-7.684 9.762-.958 19.523 15.528 23.04 12.478 2.57 61.777.958 75.374-2.398 15.048-3.835 22.732-8.163 22.732-12.957 0-6.552-9.642-11.373-32.813-16.167-12.346-2.397-4.476-2.89 10.866-.48 15.22 2.398 27.552 7.045 31.534 12.172 2.89 3.835 3.183 6.392 3.183 34.238 0 34.41.32 33.612-15.34 40.816-22.733 10.733-59.715 14.728-123.902 13.596-12.144-.32-13.116-.466-9.76-2.397 3.355-1.92 2.25-2.252-11.187-3.05-18.723-1.106-35.063-5.754-42.734-11.826-9.296-7.378-15.222-20.655-15.994-36.33-.8-14.887 2.064-32.013 5.113-30.894 1.105.466 3.515-2.25 5.766-6.232 6.392-12.172 20.32-20.495 43.226-26.26C85.56 15.58 90.18 15.1 88.915 17.177z" fill="#F6CF54"/></svg>