<svg width="256" height="380" viewBox="0 0 256 380" xmlns="http://www.w3.org/2000/svg" preserveAspectRatio="xMidYMid"><path d="M255.846 364.17c0 8.576-57.26 15.53-127.895 15.53C57.316 379.7.056 372.745.056 364.17c0-8.58 67.17-15.53 127.896-15.53 72.287 0 127.896 6.95 127.896 15.53" fill="#1A4658"/><path d="M247.93 252.11c-3.96 0-8.222-1.828-11.268-15.835-3.046-14.008-7.613-28.32-7.613-28.32 4.872 0 7.612-2.132 7.612-2.132-3.35-1.524-10.66-6.7-15.53-13.094-4.872-6.396-17.358-16.75-17.358-16.75v-20.706c0-14.01 8.984-24.97 8.984-24.97-6.09 0-8.984 5.48-8.984 5.48v-29.537c0-29.234 14.768-42.327 14.768-42.327-4.567-.304-7.612 1.827-7.612 1.827 2.132-21.62 8.755-28.015 8.755-28.015-24.36-6.395-37.95 7.918-37.95 7.918-2.74-13.094 7.975-20.71 7.975-20.71-12.484-2.74-22.81.914-22.81.914C166.9 6.67 174.526.27 174.526.27c-38.064 0-59.676 28.622-59.676 28.622-1.522-12.18 1.83-22.85 1.83-22.85-36.845 15.53-46.587 49.923-46.587 49.923-2.436-5.785-2.74-18.92-2.74-18.92S52.126 62.55 49.386 80.21c-2.74 17.662 2.436 68.364 2.436 68.364s-2.435-3.044-7.612-3.653c0 0 5.48 6.09 5.48 19.794 0 0-2.13-1.827-5.785-.913 0 0 5.785 5.177 6.395 14.008 0 0-6.7 4.568-10.354 9.135 0 0-5.786.305-8.83 1.218 0 0 4.872 2.742 5.785 5.178 0 0-14.31 14.617-21.62 26.492 0 0 6.396-3.958 10.963-2.74 0 0-10.05 12.18-13.4 32.278 0 0 4.873-2.435 7.005-1.217 0 0-6.09 12.79-6.395 26.188l-6.7 3.96 5.178 3.654s-3.958 16.443-4.872 25.883c0 0 3.045-3.045 5.48-3.958 0 0 3.35 7.916 7.92 14.007 4.567 6.09 14.92 11.267 21.01 11.267l11.448-.445c-1.42 6.126-4.22 11.32-10.124 11.593l-.655 1.05a6.87 6.87 0 0 0-.364-.016c-.117 1.788-3.727 2.11-4.72 3.35-3.018 3.765-5.32 8.938-6.852 13.55-1.122 3.38-.59 3.38-1.37 6.852-.254 1.136-1.433 2.35-1.826 3.5 3.288-1.103 12.4-1.84 17.2-2.193l.08 4.25s.793.735 2.103 1.27c.046-.01.09-.023.144-.018.446.036.876.1 1.297.206 7.202-.645 12.217.57 20.566-.123 1.624-.193 3.147-.42 4.57-1.23.403-1.21.458-1.283.648-2.843.042-.278.042-.564.11-.903.13-.023.257-.042.384-.06a.96.96 0 0 1 .298-.042c.036-.01.066-.027.106-.03.132-.013.264-.023.396-.035a.415.415 0 0 1 .256-.022c1.512-.134 3.937-.26 5.448-.344 4.91-.008 11.372.558 11.372.558.4-5.505.8-14.045 9.706-38.94l2.208-1.37s27.357 9.64 52.74-.39c2.01 4.945 8.51 21.563 9.53 32.04.875 1.227.778 2.785.807 4.436.026 1.397.144 2.795.18 4.188.914-.125 4.21-.528 8.37-.522 1.512.083 3.937.21 5.45.345a.415.415 0 0 1 .255.023l.396.034c.04.004.07.02.107.03.17.008.25.024.298.043.127.018.254.037.385.06.067.338.067.624.11.902.188 1.56.243 1.634.647 2.842.13.074.262.14.394.204 4.547-.577 9.153-.682 13.726-.466 3.598.17 7.134.846 10.674 1.49 0 .033.004.068.004.102.357.038.705.063 1.054.086 1.9.34 3.804.656 5.72.863a149.34 149.34 0 0 0-.026-6.337c3.814.183 9.335.942 11.65 1.28.92.22 1.665.355 2.448.524.106.03.218.063.315.095l-.012-.027c.786.176 1.634.4 2.753.79-.17-2.062-.155-2.02-.428-4.6-.21-2-1.642-8.067-4.322-10.57 0 0 2.92 1.262 3.81 1.764-2.877-3.9-4.276-9.474-13.32-13.318 0 0 1.652-.78 3.162-.976-1.578-.972-2.783-1.354-4.38-1.24.542-1.54 2.93-5.428 4.934-5.928 0 0-1.23-.855-3.24-.193a19.27 19.27 0 0 0-2.18 1.31c-.266.187-.655-.008-.734-.3-.632-2.338-1.043-4.713-1.416-7.1 18.223-.66 20.78-10.008 20.78-10.008 1.52 1.218 1.52 3.958 1.52 3.958 7.917-10.354 7.004-20.708 7.004-20.708 1.828.304 3.35 1.523 3.35 1.523.914-15.835-3.958-42.937-3.958-42.937 2.436 1.218 3.958-.304 3.958-.304-2.74-1.217-3.044-4.263-3.044-4.263 3.96.303 4.568-3.35 4.568-3.35" fill="#EDF7FA"/><path d="M73.72 367s.713-7.702-1.8-13.26c0 0 4.758.323 5.557 12.885 0 0-3.33.387-3.758.374M49.842 341.027l.03-.236c.017.118.015.208-.03.237M54.296 366.402l-.043-.01.056-.146-.014.156" fill="#CDE9EE"/><path d="M114.85 28.892c-1.52-12.18 1.83-22.85 1.83-22.85-36.845 15.53-46.587 49.923-46.587 49.923-2.436-5.785-2.74-18.92-2.74-18.92S52.126 62.55 49.386 80.21c-2.74 17.662 2.436 68.364 2.436 68.364s-2.435-3.044-7.612-3.653c0 0 5.48 6.09 5.48 19.794 0 0-2.13-1.827-5.785-.913 0 0 5.785 5.177 6.395 14.008 0 0-6.7 4.568-10.354 9.135 0 0-5.786.305-8.83 1.218 0 0 4.872 2.742 5.785 5.178 0 0-14.31 14.617-21.62 26.492 0 0 6.396-3.958 10.963-2.74 0 0-10.05 12.18-13.4 32.278 0 0 4.873-2.435 7.005-1.217 0 0-6.09 12.79-6.395 26.188l-6.7 3.96 5.178 3.654s-3.958 16.443-4.872 25.883c0 0 3.045-3.045 5.48-3.958 0 0 3.35 7.916 7.92 14.007 4.567 6.09 14.92 11.267 21.01 11.267l.772-.104c-.34 2.1-.722 4.19-1.28 6.25-.078.293-.467.488-.734.3a19.15 19.15 0 0 0-2.178-1.31c-2.01-.66-3.24.194-3.24.194 2.003.5 4.39 4.388 4.934 5.93-1.598-.116-2.803.266-4.38 1.238 1.51.197 3.16.976 3.16.976-9.042 3.844-10.442 9.42-13.32 13.318.89-.502 3.81-1.764 3.81-1.764-2.68 2.503-4.11 8.57-4.32 10.57-.273 2.58-.258 2.538-.428 4.6 2.397-.835 3.562-.917 5.502-1.382 3-.437 11.378-1.586 14.456-1.266l-.485 5.92.15-.002c1.58-.453 2.87-.393 4.278-.544.02-1.632.107-3.262.24-4.888-.094-2.778.25-5.308.82-8.128.017-.095.04-.193.06-.288 1.118-3.85 3.063-6.042 4.326-7.39.42-.448.784-.978 1.096-1.522a15.38 15.38 0 0 0 2.142-3.96c1.252-3.415.715-10.92-1.8-18.245 2.652 3.816 5.07 7.165 6.214 8.31l-.076-9.324s4.872 4.867 9.233 8.546c2.098 1.833 4.688 4.217 6.526 5.167.133.084.253-.802.4.535h-.002c.02 0 .037-.265.056-.254 2.47 1.385 5.01 2.486 7.388 4.025.255.163.515.243.765.415 1.1.758 3.038 1.6 4.78 2.518l1.647 19.45c1.484-20.442 13.132-40.015 13.132-40.015l-.427-.13c-3.604-1.115-29.974-10.238-45.554-42.814-1.025-2.145 5.786 2.435 5.786 2.435-6.395-15.53-8.83-40.5-8.83-40.5 2.13 1.826 4.262 2.13 4.262 2.13-4.567-12.79-6.394-28.624-6.394-42.937-1.218-77.04 27.254-94.703 27.254-94.703-4.872-1.827-10.05-1.675-10.05-1.675 5.635-13.55 24.36-32.43 24.36-32.43-5.023.305-24.664 5.633-24.664 5.633 16.292-42.48 32.736-53.746 32.736-53.746-1.218 10.2 2.74 21.01 2.74 21.01 35.324-43.697 63.705-41.66 63.705-41.66 2.105-4.382 4.496-7.37 4.496-7.37-38.064 0-59.68 28.62-59.68 28.62M214.698 366.758s-.343-11.04-2.854-16.596c0 0 6.547 4.035 6.51 16.786 0 0-3.228-.177-3.656-.19" fill="#CDE9EE"/><path d="M44.356 309.983c4.313-42.238 5.486-124.868 5.486-124.868-9.363 18.5-16.9 52.072-16.9 52.072l1.827 7.308-4.11-1.826c-6.61 22.93-2.138 53.624-.658 62.27 4.203 3.33 9.21 4.45 14.354 5.043M35.523 309.07c1.34 6.76 2.728 13.27 4.27 19.985 1.143.172 2.428.085 2.428.085 1.05-4.083 1.222-10.404 2.037-18.18-3.002-.35-5.948-.884-8.734-1.89" fill="#ABD8D7"/><path d="M178.633 345.467a.446.446 0 0 1-.533-.207c-.473.093-.836.18-1.08.242v-.002c6.283-4.57 6.86-9.406 6.86-9.406-4.167 1.88-8.59 2.58-10.743 2.828 14.52-12.587 16.934-35.96 16.934-35.96-5.947 7.302-14.387 13.472-20.91 17.613l.014-.028s-4.37 2.444-8.41 4.347a.46.46 0 0 0-.487.227c-2.075.963-4.01 1.747-5.15 1.937 0 0 3.364 6.21 4.77 9.56l-.277.222s4.866 11.5 6.637 22.64c.187 1.882.33 3.53.432 4.79.084 1.63.2 2.754.2 2.754 6.433-.952 15.52-.025 15.52-.025-.043 1.047.532 3.563.638 4.02 3.055-.413 6.137-.593 9.22-.62-.04-10.797-.515-28.738-13.635-24.933" fill="#CDE9EE"/><path d="M44.02 313.24c-10.09-1.706-19.245-13.3-19.245-13.3 7.356 7.82 16.513 8.87 16.513 8.87 1.21-8.934-6.175-29.38-6.175-29.38 5.47 6.81 8.46 14.687 10.095 21.134l-1.19 12.676" fill="#83BAC0"/><path d="M66.914 297.424s7.937 13.988 14.902 20.04c7.518 6.532 14.503 15.76 17.472 21.354 0 0 3.768-8.753 5.824-11.8 0 0-22.268-6.527-38.198-29.594M170.503 324.707c1.104-1.553 2.368-2.996 3.572-4.47 1.975-2.418 4.232-4.765 5.89-7.397-2.862 2.142-6.05 3.997-9.307 5.958-9.456 6.407-16.043 8.22-16.043 8.22 2.055 3.047 5.823 11.8 5.823 11.8 1.797-3.386 5.07-8.103 9.037-12.748.333-.462.704-.905 1.028-1.363" fill="#ABD8D7"/><path d="M63.904 89.11c-.866.062-3.637.132-3.637.132-25.107 1.753-43.56-17.703-43.56-17.703s-1.65 15.186 9.255 28.494c10.91 13.308 33.017 15.585 33.017 15.585.717 3.11-.84 10.05-.84 10.05s6.466-7.15 8.107-20.698c1.153-9.494-1.807-15.9-2.343-15.863" fill="#545352"/><path d="M63.904 89.11c-.833.047-3.637.132-3.637.132-25.107 1.753-43.56-17.703-43.56-17.703s11.468 33.193 49.774 30.57c0 0 1.06-6.14-2.576-13" fill="#6E7979"/><path d="M189.257 89.11c.865.062 3.636.132 3.636.132 25.107 1.753 43.56-17.703 43.56-17.703s1.65 15.186-9.255 28.494c-10.91 13.308-33.017 15.585-33.017 15.585-.717 3.11.84 10.05.84 10.05s-6.466-7.15-8.107-20.698c-1.153-9.494 1.808-15.9 2.344-15.863" fill="#545352"/><path d="M189.257 89.11c.832.047 3.636.132 3.636.132 25.107 1.753 43.56-17.703 43.56-17.703s-11.468 33.193-49.774 30.57c0 0-1.06-6.14 2.577-13" fill="#6E7979"/><path d="M50.8 201.56s-18.048 64.86 0 106.427V201.56M230.496 304.16c-8.908 6.796-18.175 7.226-18.175 7.226-.412-8.88 9.295-28.293 9.295-28.293a21.104 21.104 0 0 0-5.445 4.612l-.063-6.515 7.003-5.785-5.632-4.568 7.155-28.777-6.85 4.568s-2.132-40.956-.61-58.618c0 0-8.68-8.68-12.942-12.18 0 0 .807 12.61 1.726 32.757 3.89 16.163 9.93 49.61 2.415 79.03.088 5.962.152 12.017.187 18.13 0 0 3.745 13.01 4.962 22.146 0 0 1.217.343 3.044.04l-.138-13.99c9.41-2.843 14.07-9.784 14.07-9.784M146.068 178.565c0 6.918 4.43 12.526 9.897 12.526 5.466 0 9.898-5.607 9.898-12.525 0-6.92-4.432-12.527-9.898-12.527-5.467 0-9.897 5.608-9.897 12.527" fill="#CDE9EE"/><path d="M146.373 175.22c0 6.81 4.362 12.332 9.745 12.332 5.382 0 9.745-5.522 9.745-12.333 0-6.813-4.363-12.334-9.745-12.334-5.383 0-9.745 5.52-9.745 12.333" fill="#FFF"/><path d="M153.53 168.86c-.077.303-.13.62-.13.954 0 1.737 1.132 3.143 2.527 3.143 1.24 0 2.268-1.112 2.482-2.578.795 1.043 1.286 2.45 1.286 4 0 3.218-2.096 5.825-4.682 5.825-2.585 0-4.682-2.607-4.682-5.824 0-2.57 1.34-4.747 3.198-5.52" fill="#474746"/><path d="M98.563 178.565c0 6.918 4.43 12.526 9.898 12.526 5.467 0 9.898-5.607 9.898-12.525 0-6.92-4.43-12.527-9.897-12.527-5.466 0-9.897 5.608-9.897 12.527" fill="#CDE9EE"/><path d="M98.87 175.22c0 6.81 4.36 12.332 9.744 12.332 5.382 0 9.744-5.522 9.744-12.333 0-6.813-4.362-12.334-9.744-12.334-5.383 0-9.745 5.52-9.745 12.333" fill="#FFF"/><path d="M107.854 168.86c-.078.303-.13.62-.13.954 0 1.737 1.13 3.143 2.526 3.143 1.24 0 2.268-1.112 2.482-2.578.796 1.043 1.287 2.45 1.287 4 0 3.218-2.098 5.825-4.683 5.825-2.586 0-4.682-2.607-4.682-5.824 0-2.57 1.34-4.747 3.2-5.52" fill="#474746"/><path d="M181.728 188.393c-.62 1.87-2.73 2.366-8.738 3.527l-.41.08c-5.886 1.13-16.41.982-22.175.14a30.83 30.83 0 0 1-.717-.11c-5.343-.904-5.95-1.596-7.67-4.365-1.774-2.866-2.865-11.282-3.066-12.94l-.01-.085c-.213-1.754-.32-2.632 1.934-3.64 3.03-1.36 16.482-3.258 21.993-3.506 4.35-.192 13.575.414 17.792 1.03.662.098 1.15.187 1.454.267.486.13 2.272 1 2.18 2.898-.117 2.504-1.73 14.18-2.568 16.705zm-58.665-13.753l-.01.084c-.2 1.66-1.292 10.075-3.067 12.94-1.718 2.77-2.326 3.462-7.67 4.365-.227.038-.467.074-.717.11-5.764.842-16.29.99-22.176-.14l-.41-.08c-6.007-1.16-8.116-1.658-8.737-3.527-.84-2.526-2.45-14.2-2.57-16.705-.09-1.9 1.696-2.768 2.182-2.897.3-.08.79-.168 1.452-.266 4.218-.616 13.44-1.222 17.793-1.03 5.512.248 18.963 2.146 21.993 3.505 2.254 1.008 2.148 1.886 1.935 3.64zm66.38-11.116c-4.413-.645-12.116-1.376-21.362-.905-12.03.618-22.34 2.29-28.5 3.286-1.837.298-3.282.533-4.384.68l-1.202.162c-1.35.186-2.237.304-2.992.34-.754-.036-1.64-.154-2.99-.34l-1.204-.163c-1.1-.146-2.546-.38-4.385-.68-6.158-.996-16.467-2.667-28.5-3.286-9.245-.472-16.948.26-21.36.904 0 0-4.71.6-8.74 2.303l.77 5.12s4.255-1.014 8.412-1.57c.772 7.22 2.276 16.496 2.276 16.496l.025.288c.114.47.22.923.335 1.418.857 3.647 1.707 5.792 5.128 7.078 3.36 1.268 11.308 2.443 19.325 2.856 2.98.154 6.365-.03 9.787-.528 5.075-.74 9.666-2.107 11.42-3.404 2.552-1.886 3.917-6.632 4.82-9.773l.27-.925c.32-1.07.598-2.195.866-3.286.386-1.566.783-3.184 1.124-3.743.06-.097.347-.435 1.463-.6.345-.048.733-.075 1.16-.08.426.005.814.032 1.16.08 1.114.165 1.4.503 1.462.6.34.56.738 2.177 1.123 3.743.27 1.09.546 2.215.866 3.286l.27.925c.904 3.14 2.27 7.887 4.82 9.773 1.755 1.297 6.345 2.663 11.42 3.404 3.422.498 6.807.682 9.787.528 8.02-.413 15.967-1.588 19.327-2.856 3.42-1.286 4.27-3.43 5.128-7.078.115-.495.22-.95.335-1.417l.024-.287s1.503-9.276 2.276-16.495c4.157.555 8.413 1.57 8.413 1.57l.768-5.12c-4.027-1.705-8.737-2.304-8.737-2.304z" fill="#545352"/><path d="M111.516 150.56s-11.008-5.25-17.31 4.498c0 0-.65-9.694 8.24-10.777 8.89-1.084 9.07 6.28 9.07 6.28M107.387 136.316s-10.205-4.816-14.854 4.44c0 0-1.52-8.087 5.764-10.04 7.283-1.95 9.09 5.6 9.09 5.6M150.948 156.503s8.55-4.077 13.442 3.494c0 0 .505-7.528-6.4-8.37-6.904-.842-7.042 4.876-7.042 4.876M157.027 143.02s8.65-1.4 10.132 6.505c0 0 2.87-5.708-2.145-8.73-5.016-3.023-7.988 2.224-7.988 2.224" fill="#A0D1DE"/><path d="M110.75 227.355s6.04-4.06 9.605-4.618c0 0 .778 7.66 4.32 11.433 0 0 7.647-6.89 15.208-7.38 0 0 1.952 4.2 5.12 5.756l-.017.05c1.143.713 2.544 1.435 3.9 1.736 0 0 4.34-2.626 5.596-7.422 0 0 .418 10.125-5.938 15.644 0 0-4.846-2.365-8.338-6.15-1.05-1.022-2.14-2.21-2.668-3.176 0 0-11.214 7.933-11.623 12.456 0 0-8.095-7.89-10.855-13.972 0 0-5.402 1.705-6.9 2.804 0 0-4.342-7.1-5.224-13.51 0 0 5.222 4.988 7.814 6.35" fill="#B2DCE5"/><path d="M131.133 207.454c-.448-.096 11.373.818 22.98.405 0 0 .62-2.215 1.512-3.432 0 0-.194 3.727.848 4.49 0 0-5.808 2.287-11.666 2.27 0 0 6.383-1.065 8.524-2.167 0 0-11.647.65-22.197-1.566" fill="#545352"/></svg>