<svg width="256" height="249" viewBox="0 0 256 249" xmlns="http://www.w3.org/2000/svg" preserveAspectRatio="xMidYMid"><g fill="#161614"><path d="M127.505 0C57.095 0 0 57.085 0 127.505c0 56.336 36.534 104.13 87.196 120.99 6.372 1.18 8.712-2.766 8.712-6.134 0-3.04-.12-13.084-.173-23.738-35.473 7.713-42.958-15.044-42.958-15.044-5.8-14.738-14.157-18.656-14.157-18.656-11.568-7.914.872-7.752.872-7.752 12.804.9 19.546 13.14 19.546 13.14 11.372 19.493 29.828 13.857 37.104 10.6 1.144-8.242 4.45-13.866 8.095-17.05-28.32-3.225-58.092-14.158-58.092-63.014 0-13.92 4.98-25.295 13.138-34.224-1.324-3.212-5.688-16.18 1.235-33.743 0 0 10.707-3.428 35.073 13.07 10.172-2.827 21.08-4.243 31.915-4.292 10.836.05 21.752 1.465 31.942 4.29 24.337-16.496 35.03-13.07 35.03-13.07 6.94 17.564 2.573 30.532 1.25 33.744 8.174 8.93 13.12 20.303 13.12 34.224 0 48.972-29.827 59.756-58.22 62.912 4.574 3.957 8.65 11.717 8.65 23.612 0 17.06-.15 30.79-.15 34.99 0 3.394 2.296 7.37 8.76 6.118 50.634-16.88 87.122-64.656 87.122-120.973C255.01 57.085 197.92 0 127.504 0"/><path d="M47.755 181.634c-.28.633-1.278.823-2.185.39-.925-.417-1.445-1.28-1.145-1.917.275-.652 1.273-.834 2.196-.396.928.416 1.456 1.288 1.135 1.924M54.027 187.23c-.608.564-1.797.302-2.604-.59-.834-.888-.99-2.076-.373-2.65.627-.562 1.78-.298 2.616.59.834.9.996 2.08.36 2.65M58.33 194.39c-.782.543-2.06.034-2.85-1.1-.78-1.133-.78-2.493.018-3.038.792-.545 2.05-.055 2.85 1.07.78 1.153.78 2.513-.02 3.07M65.606 202.683c-.7.77-2.187.564-3.277-.488-1.115-1.028-1.426-2.487-.725-3.258.707-.772 2.204-.555 3.302.488 1.107 1.026 1.445 2.496.7 3.258M75.01 205.483c-.307.998-1.74 1.452-3.185 1.028-1.442-.436-2.386-1.606-2.095-2.615.3-1.005 1.74-1.478 3.195-1.024 1.44.436 2.386 1.597 2.086 2.613M85.714 206.67c.036 1.052-1.19 1.924-2.705 1.943-1.526.033-2.76-.818-2.775-1.852 0-1.06 1.197-1.925 2.72-1.95 1.517-.03 2.76.815 2.76 1.86M96.228 206.267c.182 1.026-.872 2.08-2.377 2.36-1.48.27-2.85-.363-3.038-1.38-.184-1.052.89-2.105 2.367-2.378 1.507-.263 2.856.354 3.048 1.397"/></g></svg>