<svg width="512" height="209" viewBox="0 0 512 209" xmlns="http://www.w3.org/2000/svg" preserveAspectRatio="xMidYMid"><defs><linearGradient x1="23.962%" y1="46.043%" x2="68.784%" y2="55.602%" id="a"><stop stop-color="#919191" offset="0%"/><stop stop-color="#FFF" offset="100%"/></linearGradient><linearGradient x1="26.427%" y1="42.381%" x2="67.132%" y2="51.906%" id="b"><stop stop-color="#900" offset="0%"/><stop stop-color="#E80000" offset="100%"/></linearGradient><linearGradient x1="50%" y1="99.822%" x2="50%" y2="-.044%" id="c"><stop stop-color="#1A1A1A" offset="0%"/><stop stop-color="#4A4A4C" offset="40.26%"/><stop stop-color="#333" offset="100%"/></linearGradient></defs><path d="M459.303 4.292c-.1.4-.1.798 0 1.197 0 0 1.297 8.483-.2 12.275l-61.48 159.988c-4.39 11.777 1.497 24.85 13.274 29.343 11.777 4.49 24.852-1.298 29.543-12.975l61.48-159.987c1.197-3.094 8.084-9.182 8.084-9.182.3-.298.6-.598.798-.897v-.1c0-.1.1-.1.1-.2 1.597-4.09-8.683-11.876-22.855-17.365C473.874.898 461-.2 459.403 3.992c0 0-.1.1-.1.3z" opacity=".1"/><path d="M63.276 2.894c-.1.4-.1.8 0 1.198 0 0 1.298 8.483-.2 12.276L1.597 176.356c-4.39 11.777 1.498 24.85 13.275 29.342 11.778 4.49 24.852-1.297 29.543-12.974l61.48-159.988c1.198-3.094 8.084-9.182 8.084-9.182.3-.3.6-.6.8-.898v-.1c0-.1.1-.1.1-.2 1.596-4.092-8.684-11.876-22.857-17.366C77.848-.5 64.973-1.597 63.376 2.595c0 .1 0 .2-.1.3z" fill="url(#a)" transform="translate(394.23)"/><path d="M82.64 75.253L38.224 190.628c-3.293 8.284-12.775 12.575-21.258 9.282-8.484-3.294-12.975-12.975-9.88-21.26l28.344-73.755s3.494-5.69 10.48-9.78c6.987-4.093 12.676-3.195 20.36-6.588 7.785-3.393 16.37-13.274 16.37-13.274z" fill="url(#b)" transform="translate(394.23)"/><path d="M498.406 19.02c.885-2.31-5.483-6.917-14.222-10.29-8.74-3.375-16.542-4.24-17.426-1.93-.885 2.308 5.483 6.914 14.222 10.29 8.74 3.373 16.542 4.237 17.426 1.93z" fill="#333"/><path d="M457.093 4.08s1.29 8.46-.2 12.242L395.817 175.86c-4.362 11.742 1.488 24.78 13.188 29.26 1.983.795 4.065 1.292 6.147 1.392a23.035 23.035 0 0 1-7.634-26.274l59.89-156.352s-8.23-7.664-10.313-19.806z" opacity=".3" fill="#FFF"/><g transform="translate(420.01 104.5)" fill="#FFF" opacity=".5"><ellipse cx="17.451" cy="2.488" rx="1.785" ry="1.791"/><ellipse cx="29.052" cy="15.327" rx="2.677" ry="2.687"/><ellipse cx="11.303" cy="30.653" rx="5.057" ry="5.076"/><ellipse cx="3.173" cy="40.009" rx="2.677" ry="2.687"/><ellipse cx="13.782" cy="59.913" rx="1.785" ry="1.791"/></g><path d="M120.465 97.135c2.694 2.19 7.585.896 10.878-2.687 3.494-3.782 3.993-8.658 1.298-10.848-2.694-2.19-7.584-.896-10.878 2.886-3.493 3.782-4.092 8.56-1.297 10.65zm-8.084 7.066c-.698 0-1.996 1.295-.898 1.793 1.497.497 2.196 1.79 2.196 3.583-1.297 7.464-10.58 15.924-14.172 18.81-.9.895.4 2.886 1.297 2.19 1.996-1.593 6.188-4.877 9.58-9.256-5.588 12.44-16.566 28.563-20.758 34.236-16.368 22.592-41.22 43.392-58.286 43.392-13.675 0-25.252-9.256-27.747-22.79-.2-1.494-2.196-1.792-1.797.198 3.094 18.61 17.466 25.876 34.832 25.876 19.063 0 41.42-13.734 53.795-27.866 19.96-22.79 32.836-49.066 29.443-63.895-1.397-5.472-5.29-6.368-7.485-6.27zm122.66 49.664c5.29-1.294 9.582-4.18 9.582-8.758 0-.498-.898-.498-.898 0 0 2.687-3.094 4.976-6.587 5.474-8.184 1.293-24.353-8.26-31.938-18.114 8.183 3.085 24.85-1.393 32.735-7.066 7.286-5.275 10.18-11.047 10.68-15.725.898-7.763-7.586-12.34-19.463-7.763-7.585 3.086-16.667 9.754-26.148 22.294 9.98-16.422 29.642-43.293 48.904-60.41 23.454-20.802 37.028-16.82 15.97 5.274-8.684 9.056-25.052 20.8-36.33 25.876-3.493 1.493-1.797 3.483.698 2.388 11.977-5.274 27.946-16.123 37.627-25.18 28.544-27.368 4.69-47.97-26.848-19.008-21.458 19.705-35.43 40.307-47.607 67.08-4.19 5.074-7.285 9.254-11.078 12.44-.5.397-.798.795-1.098 1.194-10.48 8.957-26.947 21.1-37.227 21.198-7.286.2-10.38-5.275-9.082-12.34 1.996-11.048 13.473-24.086 23.254-28.564 12.675-5.773 20.16 5.474 3.493 14.43-6.387 3.285-13.972 5.076-17.066 5.076-3.593 0-3.294 1.493-.2 1.593 5.09.2 13.274-1.99 18.664-4.48 17.066-8.16 18.164-23.387-.4-23.884-20.16-.698-44.313 16.42-44.113 38.017.2 9.753 7.984 15.028 18.663 15.028 17.865-.2 33.734-13.735 46.81-25.677 1.895-1.593 3.69-3.285 5.488-5.076-4.59 11.545-6.887 22.293-5.79 30.255.7 5.773 3.993 8.46 6.588 10.65.5.397 1.597 0 .9-1.096-3.794-4.477-2.696-17.913 2.494-30.95 4.39 8.758 21.458 19.805 39.323 15.824zm-21.457-37.72c20.86-18.61 29.043-1.99 15.77 8.16-6.888 5.276-20.56 9.257-24.852 6.67l-.898-.498c-.5-.896-1.098-1.792-1.497-2.687 3.493-4.28 7.486-8.063 11.478-11.646zm115.973-21.198c8.384.895 4.89-9.256-3.593-6.668-3.792 1.094-7.485 8.36-10.18 14.63-8.383 12.44-22.356 29.46-32.137 38.416-8.683 7.464-16.667 9.455-6.887-4.48 3.992-5.572 9.082-11.544 11.976-17.515 6.887-15.03-7.785-21.697-19.662-12.64-6.886 5.274-16.168 16.122-23.454 22.094-1.996 1.592-1.497 3.98.5 2.388 5.788-4.677 15.968-15.426 24.75-21.696 7.287-5.573 10.18-1.99 5.99 2.687-5.79 6.668-15.97 18.313-18.564 25.677-3.593 11.048.698 15.924 7.984 15.924 9.98 0 24.85-15.525 34.832-27.866 3.293-4.18 6.886-9.057 9.98-13.735-8.683 16.82-17.765 33.838-29.043 49.265-15.97 21.696-35.93 38.018-54.894 38.018-13.673 0-25.45-9.256-27.945-22.79-.2-1.494-1.995-1.793-1.796.198 3.094 18.61 17.466 25.876 34.832 25.876 19.063 0 37.427-11.047 50.302-24.582 25.95-27.37 29.043-58.122 37.028-75.34 3.792-7.862 7.186-8.16 9.98-7.862zM435.15 68.67c3.793-6.468 3.593-11.543-5.29-11.543-6.687.2-18.863 4.876-24.552 9.255-1.297 1.294-.698 1.99.9 1.294 1.096-.398 2.394-1.095 3.592-1.592 6.387-3.484 3.792 3.782 2.395 6.47-7.585 13.236-21.06 31.846-28.145 41.102a140.677 140.677 0 0 1-10.88 12.938c-6.786 6.47-20.26 17.915-30.54 21.696-33.035 12.34 9.083-43.79 12.576-48.368 7.785-9.753 25.25-26.772 30.54-35.33 3.793-6.47 3.594-11.546-5.29-11.546-6.686.2-18.862 4.877-24.55 9.256-1.3 1.294-.7 1.99.897 1.294 1.098-.398 2.395-1.095 3.593-1.593 6.388-3.483 3.793 3.782 2.395 6.47-7.584 13.236-21.057 31.847-28.144 41.103-5.788 7.763-12.874 15.525-18.364 19.904-2.195 1.792-.898 3.484 1.298 1.99 1.996-1.293 4.89-4.18 8.184-7.563-5.99 11.943-10.88 28.763 4.89 30.753 13.474 1.79 29.443-11.843 39.822-21.995l3.693-3.682.897-.896c-5.988 11.943-10.878 28.763 4.89 30.753 17.267 2.39 38.725-20.8 47.01-29.36 1.596-1.592 1.097-4.38-1.598-1.592-4.89 5.076-21.46 20.104-33.435 24.582-33.036 12.34 9.082-43.79 12.575-48.368 7.885-9.952 25.35-26.97 30.64-35.43z" opacity=".1"/><path d="M118.668 95.443c2.695 2.19 7.585.896 10.88-2.687 3.492-3.782 3.99-8.658 1.296-10.848-2.694-2.19-7.585-.896-10.878 2.886-3.493 3.782-3.993 8.46-1.298 10.65zm-7.984 7.067c-.7 0-1.996 1.293-.898 1.79 1.497.5 2.195 1.792 2.195 3.584-1.296 7.464-10.578 15.924-14.17 18.81-.9.896.398 2.886 1.296 2.19 1.997-1.593 6.188-4.877 9.582-9.256-5.59 12.44-16.568 28.563-20.76 34.236-16.368 22.592-41.22 43.392-58.286 43.392-13.673 0-25.25-9.256-27.746-22.79-.2-1.494-2.195-1.792-1.796.198 3.094 18.61 17.466 25.876 34.832 25.876 19.063 0 41.42-13.734 53.795-27.866 19.96-22.79 32.836-49.065 29.442-63.894-1.498-5.574-5.29-6.47-7.486-6.27zm122.56 49.662c5.29-1.294 9.582-4.18 9.582-8.758 0-.498-.9-.498-.9 0 0 2.687-3.092 4.976-6.586 5.474-8.184 1.293-24.352-8.26-31.937-18.114 8.184 3.086 24.85-1.393 32.736-7.066 7.285-5.275 10.18-11.047 10.678-15.725.898-7.763-7.585-12.34-19.462-7.763-7.585 3.086-16.668 9.754-26.15 22.294 9.982-16.422 29.643-43.293 48.906-60.41 23.454-20.802 37.027-16.82 15.968 5.274-8.683 9.056-25.05 20.8-36.33 25.876-3.492 1.493-1.795 3.483.7 2.388 11.977-5.274 27.945-16.122 37.626-25.18 28.545-27.368 4.69-47.97-26.847-19.008-21.46 19.606-35.432 40.307-47.608 67.08-4.192 5.075-7.286 9.255-11.08 12.44-.498.397-.797.796-1.096 1.194-10.48 8.957-26.948 21.1-37.228 21.198-7.285.2-10.38-5.275-9.082-12.34 1.996-11.048 13.474-24.086 23.255-28.564 12.676-5.772 20.16 5.474 3.494 14.43-6.388 3.285-13.973 5.077-17.067 5.077-3.593 0-3.293 1.49-.2 1.59 5.09.2 13.275-1.99 18.664-4.478 17.068-8.16 18.166-23.388-.398-23.885-20.16-.697-44.314 16.42-44.114 38.018.2 9.753 7.984 15.028 18.664 15.028 17.865-.2 33.734-13.734 46.808-25.677 1.896-1.593 3.693-3.285 5.49-5.076-4.592 11.545-6.887 22.293-5.79 30.255.7 5.773 3.993 8.46 6.588 10.65.5.397 1.597 0 .898-1.095-3.792-4.48-2.695-17.915 2.495-30.952 4.492 8.758 21.56 19.805 39.324 15.824zm-21.458-37.82c20.86-18.61 29.044-1.99 15.77 8.162-6.887 5.275-20.56 9.256-24.852 6.668l-.898-.498c-.5-.895-1.098-1.79-1.497-2.687 3.492-4.18 7.484-8.06 11.476-11.644zM327.76 93.255c8.383.896 4.89-9.256-3.593-6.668-3.793 1.094-7.486 8.36-10.18 14.63-8.384 12.44-22.357 29.46-32.137 38.416-8.684 7.464-16.668 9.455-6.887-4.48 3.992-5.572 9.082-11.543 11.977-17.515 6.886-15.028-7.785-21.696-19.662-12.64-6.887 5.275-16.168 16.123-23.454 22.095-1.996 1.592-1.497 3.98.5 2.388 5.788-4.677 15.968-15.426 24.75-21.696 7.286-5.573 10.18-1.99 5.99 2.687-5.79 6.67-15.97 18.314-18.565 25.68-3.594 11.046.698 15.922 7.983 15.922 9.98 0 24.852-15.525 34.832-27.866 3.294-4.18 6.887-9.057 9.98-13.735-8.682 16.82-17.764 33.84-29.042 49.266-15.97 21.696-35.93 38.018-54.893 38.018-13.673 0-25.45-9.256-27.946-22.79-.2-1.494-1.996-1.793-1.796.198 3.094 18.61 17.466 25.876 34.832 25.876 19.063 0 37.427-11.047 50.302-24.582 25.95-27.37 29.043-58.122 37.027-75.34 3.792-7.862 7.285-8.26 9.98-7.862zM433.354 66.88c3.792-6.47 3.593-11.545-5.29-11.545-6.687.2-18.863 4.877-24.552 9.256-1.298 1.295-.7 1.99.898 1.295 1.098-.398 2.395-1.095 3.593-1.593 6.388-3.483 3.793 3.782 2.395 6.47-7.585 13.236-21.058 31.847-28.145 41.103a140.677 140.677 0 0 1-10.878 12.938c-6.787 6.47-20.26 17.914-30.54 21.696-33.036 12.34 9.082-43.79 12.575-48.37 7.785-9.753 25.25-26.77 30.54-35.33 3.793-6.47 3.593-11.545-5.29-11.545-6.687.2-18.863 4.876-24.552 9.255-1.297 1.294-.698 1.99.9 1.294 1.096-.398 2.394-1.094 3.592-1.592 6.387-3.483 3.792 3.782 2.395 6.47-7.585 13.236-21.06 31.847-28.145 41.102-5.79 7.763-12.875 15.526-18.364 19.905-2.196 1.79-.898 3.482 1.297 1.99 1.996-1.294 4.89-4.18 8.184-7.564-5.988 11.943-10.88 28.762 4.89 30.753 13.474 1.79 29.443-11.845 39.823-21.996 1.098-1.095 2.395-2.39 3.693-3.683.3-.297.6-.596.898-.894-5.987 11.943-10.878 28.762 4.89 30.753 17.268 2.387 38.726-20.802 47.01-29.36 1.596-1.593 1.097-4.38-1.597-1.593-4.89 5.075-21.458 20.103-33.435 24.582-33.035 12.34 9.082-43.79 12.575-48.37 7.985-9.952 25.35-26.97 30.64-35.43z" fill="url(#c)"/></svg>