<svg width="512" height="116" viewBox="0 0 512 116" xmlns="http://www.w3.org/2000/svg"><g fill="none" fill-rule="evenodd"><path d="M489.718 8.646l21.42.118s-39.824 53.964-43.076 58.362c-1.056 1.424-2.66 2.96-3.474 4.864-2.057 4.786-4.17 15.285-4.17 15.285l-19.598.098s3.05-10.944 2.924-16.773c-.11-5.092-2.71-10.178-4.168-15.285-1.474-5.17-3.475-15.286-3.475-15.286h20.15l2.78 11.116 30.688-42.5" fill="#1A1918"/><path d="M449.157 20.027c3.953 2.383 6.38 15.53 6.38 15.53s-20.685.304-31.94.304h-9.728l-11.813 51.415h-18.064S395.235 31.4 397.89 21.27c.86-3.278 5.89-2.716 14.388-2.716h13.57c8.76 0 19.002-1.12 23.31 1.473M365.06 45.067s.563-3.3-1.91-7.122c-2.113-3.258-4.064-4.016-9.623-4.19-15.695-.493-15.39 11.138-15.39 11.138l26.923.174zm17.022-13.32c2.3 8.297-2.084 27.792-2.084 27.792s-22.894-.383-35.434 0c-3.9.118-8.566-.425-9.727 1.39-1.633 2.54.597 6.454 2.487 8.107 2.175 1.903 6.412 2.12 7.935 2.313 10.177 1.293 31.48.334 31.48.334l-3.69 16.34s-30.104 1.51-45.16-2.084c-2.974-.708-5.76-2.14-7.644-4.168-.514-.555-.96-1.312-1.446-1.966-.388-.522-1.52-2.237-2.028-3.593-3.44-9.164.403-26.72 4.17-36.128.436-1.09.985-2.473 1.563-3.648.722-1.465 1.333-3.12 1.91-3.995.388-.604.87-.993 1.272-1.563.465-.675 1.006-1.328 1.507-1.91 1.39-1.613 2.967-2.753 4.864-4.17 6.273-4.697 17.626-8.344 31.265-6.948 5.135.528 12.89 2.362 16.675 7.643 1.014 1.41 1.515 4.21 2.084 6.253zM299.23 18.49l17.515-.103s-9.762 46.307-14.737 68.888h-20.15c-14.082 0-26.623 1.744-31.96-8.338-5.175-9.79-.235-25.887 2.085-36.824 1.64-7.74 5.094-23.56 5.094-23.56l18.148-.166s-5.128 24.63-7.262 36.928c-.764 4.405-2.34 8.553-.694 11.81 1.562 3.1 3.75 3.322 10.42 3.475 2.113.05 9.033 0 9.033 0l12.506-52.11M217.244 51.84c1.834-6.516 4.51-13.582 4.17-19.454-.37-6.28-5.635-11.998-9.033-13.2-10.233-3.613-19.814 1.438-23.622 5.558-4.926 5.336-6.594 11.57-8.338 20.15-1.298 6.37-2.362 13.095 0 18.063 4.182 8.783 17.224 6.865 31.266 6.95 2.084-5.587 3.807-11.862 5.558-18.067zm24.318-25.706c2 14.548-5.676 30.606-10.964 44.57 5.392.487 10.117-.075 10.457.327.354.522-3.614 16.67-4.997 16.71-4.28.112-18.46.23-24.372.23-19.295 0-37.345 1.257-46.55-8.337-3.738-3.898-6.323-10.583-6.95-15.286-1.04-7.85.265-16.495 2.086-23.622 1.647-6.435 3.758-12.507 6.948-18.066C175.328 8.506 189.432-2 213.075.426c4.586.472 11.172 2.48 15.286 4.863.285.167 1.28.96 1.508 1.098 5.56 3.537 10.624 11.978 11.694 19.746zM156.193 18.574c-1.167 5.315-2.334 11.34-3.564 16.592h-19.455c1.507-5.822 2.66-11.61 4.17-16.675 6.224 0 12.012.084 18.848.084M132.48 40.03h18.76c-2.453 13.576-7.31 35.475-11.117 50.72-2.383 9.538-3.974 16.5-10.422 21.537-.576.452-.908.237-1.388.695-1.19 1.133-6.685 2.447-9.727 2.78-4.947.535-10.54.07-16.62-.056 1.59-5.815 3.39-12.798 4.81-18.01 14.818 1.794 15.194-12.214 18.063-25.706 1.66-7.796 6.69-28.834 7.642-31.96" fill="#1A1918"/><g fill="#21609B"><path d="M88.708 75.464l-.402 1.042c-6.85 13.34-18.99 21.524-36.303 21.885-8.094.168-15.806-1.908-20.844-4.167C20.286 89.338 11.14 80.28 6.147 70.6c-7.164-13.875-8.456-33.176 6.44-47.592.23 0-1.807 3.126-1.577 3.126l-.41 1.334C-.132 61.074 32.94 89.874 65.087 86.58c7.726-.792 17.578-5.023 23.622-11.116"/><path d="M69.254 61.568c8.088.055 16.536-3.725 21.54-9.032-4.378 11.11-17.05 18.25-34.045 15.98-14.23-1.904-27.786-16.223-29.182-30.57-1.02-10.443 2.618-16.675 8.615-24.235-2.084 3.955-2.863 7.004-3.057 8.95-2.278 22.587 18.044 38.79 36.128 38.908"/><path d="M89.98 33.512c-1.257 2.884-8.496 8.33-11.693 9.01-12.66 2.698-20.766-3.305-25.013-10.136-.63-1.02-1.798-3.806-2.007-4.515-1.647-5.6-.89-14.07 4.023-18.453-1.48 4.17-1.696 9.01-.917 12.16.472 1.902 1.91 5.225 3.35 7.315 2.617 3.807 4.278 4.732 7.64 6.754 1.516.91 3.14 1.64 3.843 1.84 3.19.94 9.922 3.412 20.775-3.974"/></g></g></svg>