<svg width="256" height="256" viewBox="0 0 256 256" xmlns="http://www.w3.org/2000/svg" preserveAspectRatio="xMidYMid"><defs><linearGradient x1="15.791%" y1="14.737%" x2="91.009%" y2="85.228%" id="a"><stop offset="0%"/><stop stop-color="#FFF" offset="100%"/></linearGradient><linearGradient x1="82.136%" y1="85.237%" x2="-3.113%" y2="14.79%" id="b"><stop offset="0%"/><stop stop-color="#FFF" offset="100%"/></linearGradient></defs><path d="M127.783 190.56c56.637 77.208 112.064-21.55 111.982-80.94C239.67 39.404 168.5.16 127.737.16 62.31.16 0 54.23 0 128.215 0 210.45 71.425 256 127.737 256c-12.743-1.835-55.21-10.934-55.78-108.747-.385-66.154 21.58-92.585 55.688-80.958.764.283 37.622 14.823 37.622 62.32 0 47.296-37.484 61.944-37.484 61.944z" fill="url(#a)"/><path d="M127.717 66.24c-37.424-12.898-83.27 17.947-83.27 79.727C44.448 246.844 119.202 256 128.264 256 193.69 256 256 201.926 256 127.943 256 45.71 184.575.16 128.263.16 143.86-2 212.328 17.037 212.328 110.616c0 61.026-51.124 94.248-84.376 80.054-.764-.282-37.623-14.822-37.623-62.32 0-47.296 37.387-62.11 37.387-62.11z" fill="url(#b)"/></svg>