<svg width="512" height="126" viewBox="0 0 512 126" xmlns="http://www.w3.org/2000/svg" preserveAspectRatio="xMidYMid"><path d="M473.798 79.036l-.078-.142-.156-.493.072-.145c4.88-10.055 10.47-15.818 15.336-15.818h.05c5.494.04 9.293 4.985 9.24 12.018-.036 4.693-2.106 7.396-3.833 8.837-1.974 1.645-4.6 2.585-7.208 2.585-6.43-.05-10.842-3.746-13.424-6.84zm-1.332 37.955c-.785 1.046-1.878 1.575-3.247 1.575-1.573-.012-2.754-.56-3.557-1.633-2.252-3.01-1.618-10.08 2.056-22.914.436-1.533.914-3.075 1.416-4.583l.427-1.28.373 1.295c4.283 14.816 5.132 24.082 2.53 27.54zM315.164 48.745c.144-3.2.412-6.315.794-9.26 2.48-18.983 7.653-32.24 12.586-32.24h.02c2.353.017 3.53 1.796 3.505 5.284-.067 8.57-5.498 20.842-16.14 36.472l-.833 1.224.067-1.48zm172.615 43.3l.172.004c10.358 0 17.65-7.178 17.727-17.45.038-5.085-1.43-9.74-4.138-13.104-2.863-3.56-6.87-5.46-11.59-5.496h-.093c-6.37 0-12.286 4.832-18.085 14.776l-.46.793-.298-.866c-1.464-4.263-2.768-7.813-3.548-9.935-.546-1.482-.788-2.148-.845-2.364-.278-1.074-1.198-1.743-2.403-1.743-.74 0-1.528.252-2.274.726-.74.47-1.15 1.045-1.3 1.812l-.037.115c-5.802 18.097-10.587 26.888-14.64 26.888-.59-.005-1.05-.198-1.394-.58-1.062-1.174-.8-3.965-.44-7.83.264-2.837.568-6.05.44-9.46-.24-6.556-3.825-10.492-9.592-10.536-7.328-.002-12.078 7.8-14.266 12.453l-.653 1.39-.144-1.53c-.546-5.756-2.478-12.633-8.578-12.68-7.116 0-12.537 8.352-15.844 15.36l-.886 1.878.09-2.075c.392-9.346.714-14.865.956-16.394.242-1.536.115-2.567-.387-3.157-.474-.553-1.372-.757-2.688-.675-2.278.145-3.443 1.53-5.197 6.178-2.88 7.633-10.207 25.39-16.058 25.39-1.16-.008-2.08-.404-2.753-1.175-2.453-2.813-1.472-10.417-.114-20.94l.103-.796c.642-4.983-.454-6.046-3.158-6.544-.292-.053-.57-.08-.824-.08-2.16 0-3.17 2.07-5.188 7.82-3.593 10.235-8.21 21-13.614 21-.198 0-.393-.016-.59-.047-2.864-.49-2.8-4.735-2.72-10.114.04-2.91.09-6.207-.36-9.185-.805-5.34-3.955-8.678-8.216-8.71-8.506 0-14.243 10.89-16.91 17.384l-.605 1.47-.2-1.578c-.358-2.816-.83-7.276-1.034-12.553l-.006-.157.097-.122c15.918-20.038 23.06-34.498 23.155-46.887C338.45 4.803 334.796.05 328.62 0c-4.516 0-15.256 3.762-18.987 38.61-.693 6.462-1.073 13.088-1.13 19.694v.13l-.075.104c-7.28 10.542-22.826 28.673-38.042 28.673-13.75 0-24.72-11.123-24.72-30.757 0-26.322 18.633-42.483 32.654-42.483h.115c3.047.024 5.66.875 7.556 2.462 1.97 1.647 3 3.957 2.98 6.677-.03 3.633-1.212 5.5-2.357 7.305-.295.466-.587.927-.855 1.416-.27.494-.517 1.21-.157 1.824.37.628 1.31 1.024 2.457 1.03 3.338.002 8.386-4.83 8.44-12.11.06-7.618-6.36-15.467-17.808-15.467-17.33 0-40.663 19.035-40.663 49.885 0 21.823 13.68 36.906 32.216 36.906 13.152 0 26.163-9.416 37.685-25.146l.707-.953.05 1.184c.246 5.757.663 10.294.97 13.607.196 2.13.34 3.67.33 4.518-.012 1.862.29 3.152.933 3.945.64.794 1.66 1.17 3.202 1.18 2.59 0 3.106-1.765 4.13-6.117l.296-1.243c1.273-5.274 5.977-22.487 13.053-22.487 1.156.01 2.047.352 2.68 1.023 1.562 1.656 1.392 5.057 1.194 8.997-.124 2.46-.252 4.998-.005 7.47.666 6.678 3.55 9.943 8.814 9.982 5.406 0 11.046-5.822 14.022-11.233l.563-1.022.217 1.146c.55 2.896 3.008 12.4 10.702 12.4 6.973 0 12.954-7.342 19.512-22.455l.858-1.973-.053 2.153c-.14 5.726-.45 12.72-.452 18.125-.003 4.182.42 5.78 2.353 5.78.138 0 .286.018.44.018 1.853 0 3.11-1.105 3.74-3.294 4.933-17.197 9.198-25.207 13.423-25.207 4.138.033 4.526 7.596 4.857 20.963l.023.938c.1 4.674.268 6.743 3.173 6.765 2.204 0 2.752-1.732 3.89-5.994.218-.814.456-1.705.735-2.668 3.983-13.82 7.286-19.46 11.397-19.46 3.52.026 3.716 3.655 3.78 4.847.136 2.553-.127 5.227-.38 7.807-.236 2.4-.48 4.88-.387 7.19.215 5.406 3.175 8.406 8.335 8.445 6.697 0 12.743-7.833 18.037-23.276l.367-1.078.42 1.058c.96 2.427 2.21 5.713 3.37 9.633l.044.15-.062.14c-5.126 11.384-8.743 24.065-8.794 30.838-.07 8.923 3.968 14.72 10.285 14.77h.108c3.436 0 11.446-1.38 11.602-14.148.062-5.233-1.174-12.632-3.672-21.996l-.286-1.073.922.617c3.19 2.115 6.787 3.248 10.405 3.278zM150.475 65.838c-2.255 9.072-6.578 20.02-14.372 20.646-.218.015-.43.027-.634.027-3.234 0-5.047-2.117-5.39-6.292-.428-5.226 1.826-11.343 5.74-15.592 2.49-2.706 5.302-4.195 7.912-4.195h.053c3.297.026 5.606 2.673 6.668 5.14l.056.128-.035.14zm71.47-50.73h.112c.734 0 1.38.37 1.92 1.097 2.557 3.46 2.594 16.078-1.804 30.44-2.515 8.205-5.895 15.96-9.775 22.418l-.618 1.028-.158-1.19c-.457-3.472-.682-7.087-.84-10.165-1.123-21.705 5.443-43.33 11.163-43.626zM162.59 90.386c7.532-.605 13.508-10.848 15.727-15.223l.572-1.13.216 1.248c1.064 6.155 4.413 16.498 14.887 16.578h.088c4.532 0 9.673-2.77 14.867-8.01l.38-.386.278.463c3.498 5.85 8.19 8.957 13.183 8.703 7.354-.382 11.815-5.593 12.21-9.212.1-.923-.145-1.79-.672-2.377-.662-.738-1.62-.825-2.328-.15l-.334.32c-1.713 1.643-4.902 4.706-8.376 4.888-4.255.208-7.403-2.336-9.437-7.586l-.083-.22.143-.187c11.7-15.303 19.91-38.656 19.1-54.316-.372-7.25-2.48-15.892-10.397-15.892-.194 0-.39.005-.59.016-3.034.157-5.79 1.6-8.198 4.294-7.345 8.218-11.19 28.445-9.794 51.53.29 4.798 1.123 9.28 2.476 13.322l.077.224-.155.182c-4.34 5.074-8.625 7.87-12.063 7.87-8.27 0-7.992-13.866-7.337-25.368.14-2.48.35-4.06-.383-4.957-.525-.64-1.4-.958-2.68-.97h-.15c-2.94 0-3.557.605-5.063 4.973-3.133 9.075-9.316 24.303-15.537 24.303-1.725-.015-3.04-.605-3.94-1.753-3.02-3.853-.727-13.458 1.113-21.178.33-1.388.648-2.72.92-3.954.404-1.83.28-3.165-.367-3.974-.647-.804-1.943-1.132-3.652-.996-2.665.213-4.368 1.33-5.19 6.395l-.166 1.053-.62-.75c-1.163-1.716-3.432-3.763-7.642-3.763-.37 0-.75.015-1.145.046-4.494.37-9.61 3.5-13.356 8.172-4.374 5.456-6.46 12.362-5.88 19.442.03.375.085.735.14 1.092l.03.198-.137.15c-2.616 2.85-5.28 4.295-7.922 4.295-4.073-.033-6.413-3.06-6.413-8.105 0-8.495 5.756-34.096 5.756-43.365 0-9.864-4.395-15.234-12.028-15.292h-.115c-11.144 0-19.83 12.646-28.143 38.663-.76 2.385-1.588 5.136-2.3 7.516l-1.165 3.914.346-4.068c.773-9.064 1.303-17.882 1.576-26.21.414-12.575-1.286-20.668-5.196-24.74-2.11-2.196-4.9-3.278-8.537-3.307h-.095c-13.638 0-20.17 23-24.927 39.23-1.435 4.9-4.266 15.95-6.156 23.504l1.12-1.82c.84-9.513 3.27-33.342 3.11-46.268-.17-13.867-4.79-20.085-14.975-20.163h-.125c-5.44 0-9.215 2.702-11.424 4.97C2.163 15.893-.047 21.213.075 25.808c.076 2.793 1.79 5.28 3.09 5.28.846 0 1.315-1.13 1.518-1.802 3.15-10.417 7.228-15.482 12.464-15.482 2.17.016 3.785.657 4.996 1.956 4.088 4.385 3.345 16.23 1.996 37.733-.436 6.93-.93 14.784-1.345 23.716-.072 1.532-.167 3.01-.257 4.418-.4 6.203-.714 11.105 1.638 11.47 3.062.478 5.055-.767 6.073-3.796 1.51-4.496 4.902-16.782 11.464-39.235C48.01 28.52 52.766 20.682 58.852 20.682c7.03 0 7.554 12.072 6.266 37.545-.275 5.4-.642 11.516-.924 18.173-.04.937-.084 1.842-.127 2.716-.27 5.512-.484 9.86 1.09 11.53.49.518 1.16.775 2.043.78 3.048 0 3.963-2.672 5.482-7.1.27-.782.553-1.617.87-2.492 10.443-28.808 18.166-53.803 28.53-53.803 3.11 0 5.526 2.526 5.526 7.452 0 11.367-5.556 33.33-5.556 44.466 0 3.99 1.147 7.572 3.317 10.09 2.226 2.582 5.34 3.96 9.008 3.99h.08c3.468 0 7.083-1.685 10.742-5.007l.344-.31.275.373c2.41 3.24 6.3 4.98 10.498 4.656 6.44-.503 11.846-6.237 13.857-11.647l.392-1.057.394 1.057c1.492 4.015 4.724 8.85 11.63 8.292z" fill="#0B0B0A"/><path d="M186.625 32.584c-2.877 0-5.2 2.267-5.22 5.053-.025 2.807 2.284 5.108 5.143 5.13l.04.418v-.417c2.835 0 5.16-2.265 5.18-5.05.024-2.81-2.284-5.11-5.143-5.134M367.522 32.584c-2.877 0-5.2 2.267-5.223 5.053-.023 2.807 2.285 5.108 5.144 5.13l.04.418v-.417c2.838 0 5.162-2.265 5.183-5.05.02-2.81-2.286-5.11-5.145-5.134" fill="#0B0B0A"/><path d="M508.394 92.852c-1.672 0-3.02-1.346-3.02-3.018 0-1.673 1.348-3.022 3.02-3.022 1.67 0 3.022 1.35 3.022 3.022 0 1.672-1.35 3.018-3.022 3.018zm0-6.554c-1.947 0-3.533 1.587-3.533 3.536 0 1.946 1.587 3.53 3.534 3.53 1.948 0 3.536-1.584 3.536-3.53 0-1.95-1.588-3.536-3.536-3.536z" fill="#0B0C0A"/><path d="M508.28 89.613h-.654v-1.375h.91c.437 0 .912.15.912.673 0 .677-.606.703-1.167.703zm1.68-.702c0-.73-.36-1.127-1.28-1.127h-1.568v4.07h.514v-1.78h.73l1.217 1.78h.58l-1.217-1.78c.55-.097 1.024-.41 1.024-1.162z" fill="#0B0C0A"/></svg>