<svg width="256" height="291" viewBox="0 0 256 291" xmlns="http://www.w3.org/2000/svg" preserveAspectRatio="xMidYMid"><path d="M243.813 261.514c-.46.303-.934.454-1.428.454-.73 0-1.364-.26-1.897-.783-.535-.524-.803-1.21-.803-2.058 0-.794.23-1.47.692-2.027.46-.558 1.09-.837 1.89-.837.51 0 .953.105 1.327.315.61.342.99.94 1.138 1.79l-1.23-.02c-.073-.395-.23-.66-.47-.796-.2-.128-.42-.19-.66-.19-.36 0-.658.15-.888.446-.23.298-.346.748-.346 1.347 0 .596.126 1.03.382 1.298.255.27.56.404.917.404.327 0 .575-.09.743-.267.167-.178.276-.404.323-.673h1.195c-.13.76-.424 1.293-.885 1.597zm-4.375-5.19c-.768.783-1.15 1.713-1.15 2.79 0 1.115.39 2.063 1.17 2.84.777.783 1.713 1.172 2.81 1.172 1.095 0 2.03-.393 2.803-1.177a3.895 3.895 0 0 0 1.164-2.837c0-1.07-.385-2-1.157-2.79-.778-.802-1.714-1.203-2.81-1.203-1.105 0-2.048.4-2.83 1.203zm6.2 6.246c-.935.906-2.06 1.358-3.37 1.358-1.354 0-2.497-.463-3.423-1.39-.93-.928-1.394-2.07-1.394-3.425 0-1.407.504-2.577 1.504-3.508.94-.873 2.047-1.308 3.314-1.308 1.33 0 2.464.47 3.404 1.413.94.94 1.413 2.074 1.413 3.403 0 1.368-.482 2.52-1.446 3.457zM255.934 210.87c-.02-.484-.06-.946-.115-1.378a6.614 6.614 0 0 0-.162-.85c-.12-.644-.267-1.282-.482-1.888l-.005-.01a10.91 10.91 0 0 0-2.013-3.49 10.45 10.45 0 0 0-2.985-2.38l-.035-.02a11.587 11.587 0 0 0-3.228-1.11c-.296-.052-.57-.08-.844-.11 1.28-5.484-.322-9.67-1.357-11.628l.24-.23c1.366-1.32 2.527-2.58 3.505-3.85l.184-.253a12.208 12.208 0 0 0 1.635-3.344c.284-.912.423-1.736.505-2.49l.01.002.007-.045.005-.107.032-.232h-.02l.015-.26h.006l.003-.156c.005-.154.01-.313.01-.482.007-.31.005-.632-.01-.986-.076-1.698-.383-3.906-1.498-6.296a14.415 14.415 0 0 0-2.352-3.55 14.737 14.737 0 0 0-3.755-2.982l.008.004c-.106-.06-.19-.117-.288-.174-3.037-4.472-6.506-7.938-9.582-10.568a72.97 72.97 0 0 0-4.354-3.43c-1.258-.923-2.318-1.653-2.908-2.09l.006.003c-1.353-.99-2.36-1.588-2.84-1.86-1.11-.673-1.933-1.21-2.43-1.587a4.955 4.955 0 0 1-.65-.56l-.037-.048c-.006-.01-.048-.094-.107-.393-.062-.3-.13-.81-.158-1.548-.052-1.16-.012-2.86.116-5.105.203-3.61.614-8.59 1.038-15.342.14-2.146.16-4.168.082-6.075-.127-3.056-.522-5.824-1.16-8.334l-.003-.015c-.14-.57-.304-1.13-.475-1.683l-.003-.005-.004-.007c-.13-.412-.242-.723-.312-.92l.005.01c-.13-.367-.264-.73-.41-1.1l-.006-.015c-.073-.18-.165-.41-.287-.7l-.003-.006-.002-.005a22.858 22.858 0 0 0-.828-1.758l-.09-.168-.165-.3-.12-.2a27.49 27.49 0 0 0-1.947-2.795 46.894 46.894 0 0 0-1.93-6.458c-.878-2.297-2.056-4.846-3.73-7.36a27.092 27.092 0 0 0-1.967-2.564l.24-.25c.34-.354 8.385-8.78 14.686-19.715 11.742-20.382 7.833-32.843 2.49-39.707l-.153-.19-.162-.18c-5.153-5.73-12.16-9.18-20.83-10.257-17.956-2.233-38.26 6.577-43.584 9.083l-9.677-10.69-.037-.04a18.44 18.44 0 0 0-2.824-2.52 19.906 19.906 0 0 0-3.276-1.91c-2.313-1.073-4.85-1.744-7.55-2.08-5.417-.667-11.497-.02-18.11 1.676-9.913 2.557-21.045 7.51-32.68 14.49-11.63 6.98-23.75 16-35.518 26.733-14.38 13.114-26.257 26.98-34.91 40.14-4.325 6.58-7.846 12.987-10.462 19.063-2.61 6.08-4.328 11.827-4.99 17.145-.48 3.865-.403 7.517.373 10.884a21.258 21.258 0 0 0 1.45 4.228c.8 1.723 1.834 3.32 3.122 4.733l.032.034 11.26 11.794-.065.112c-.122.213-.236.43-.356.645-.173.32-.348.64-.515.962-.11.222-.22.442-.326.665-.16.33-.318.657-.47.992-.104.223-.202.448-.3.676-.147.337-.29.68-.426 1.024l-.268.68c-.13.35-.256.706-.38 1.058-.08.23-.16.46-.233.69-.118.36-.226.724-.335 1.09-.03.102-.064.2-.093.302-.038.13-.072.26-.107.39-.105.373-.197.752-.29 1.13-.054.227-.113.455-.166.685l-.105.5c-.05.233-.09.467-.138.704-.04.213-.087.426-.123.64-.083.476-.152.96-.22 1.44-.017.143-.044.282-.06.425l-.006.04-.01.13c-.04.313-.066.63-.1.95-.046.496-.086.995-.113 1.498-.015.22-.025.444-.035.668-.007.174-.02.344-.026.518-.01.35-.006.705-.008 1.062 0 .21-.002.424 0 .64.002.127-.002.253 0 .38v.073c.007.228.016.457.02.683.013.252.036.497.052.745.01.186.015.37.026.553.016.164.024.287.035.393.02.233.043.47.068.7.024.27.053.555.093.88l.003.03v-.006c.016.128.03.213.043.313.036.264.078.53.118.792.033.237.075.5.13.833.025.13.045.242.065.34.03.16.063.318.093.475l.003.012.005.022.043.202c.04.217.095.49.18.866.022.1.04.167.058.252l.138.543.06.243.066.265.058.223.05.187.044.17.065.218.06.23c.055.18.114.355.168.534.065.207.147.484.268.855l-.02-.06.023.07c.028.088.05.146.077.22.108.31.194.545.237.667l.007.014v.002c.07.202.175.498.323.883l.002.007.002.01-.002-.01.012.035-.005-.017.064.16c.093.236.168.42.23.56l.072.18.012.03a40.266 40.266 0 0 0 .35.826l-.007-.014.08.172c.076.165.144.32.207.446.06.122.11.23.153.32l-.006-.014.008.02.007.014-.008-.015c.095.196.21.45.37.765l.01.03.01.016.068.133c.068.13.133.256.192.365.082.157.157.29.215.403l.012.027c.086.157.207.39.37.686l.012.02.012.022.068.114c.068.12.133.233.194.336.106.178.204.337.28.47l.024.037.005.01c.08.13.202.336.374.612l.015.026.05.08c.084.134.166.26.24.377.125.182.234.348.328.49l-.016-.024c.103.15.243.367.435.64l.015.022.01.017-.018-.03.018.03.016.023-.005-.004.006.01.003.003a30.48 30.48 0 0 0 .63.868l-.01-.01c.104.14.233.314.388.52l.034.044c.118.153.23.295.34.434.142.178.278.345.404.5l.043.054c.085.105.186.23.322.39l.06.07-.002.002.02.025.036.037c.203.238.386.443.57.647l.193.223v.003l.01.008.014.015-.005-.003c.09.1.2.227.34.373l.043.05v.002l.008.006.028.028-.007-.006c.222.238.437.457.654.678.09.09.178.19.27.277l.01.01c.046.045.15.155.32.325l.034.03.097.1c.26.257.534.503.804.752l.06.062.02.014.005.006.01.01c.07.06.18.164.34.31l.018.017c.346.306.694.604 1.04.892l.02.017.196.162.132.11-.004-.006.2.16c.293.233.58.46.857.67l.078.063.036.027c.105.08.183.136.226.17l.054.042.042.028c.08.058.16.114.244.173.245.178.49.352.737.522l.208.146.025.017.257.175.01.005.132.084c.25.168.518.334.782.504.14.09.266.173.41.26l.226.138.127.074.082.05c.413.247.8.47 1.155.666l.034.017.22.12.017.01c.49.262.957.502 1.398.72l.076.037.242.116.002-.003c.24.116.47.216.707.322.11.052.224.103.335.152.134.06.274.132.408.19l.114.048.033.013.054.024c.23.096.454.18.68.27l.116.045c.254.102.51.21.762.305l.06.022.188.068c.12.042.24.08.36.123l.113.037c.363.13.727.262 1.097.38l.087.027.032.01.01.007c.57.177 1.138.34 1.705.493l.022.006.096.024-.033-.007c.5.13.995.244 1.483.354h.006l.18.048.19.04c.466.102.94.184 1.42.267l.134.036.336.05c.288.048.576.085.864.124l.124.338.005.016c.786 2.148 1.64 4.284 2.555 6.403 13.506 37.374 50.84 66.347 93.442 71.644 42.605 5.298 88.082-23.02 106.61-61.284a89.74 89.74 0 0 0 2.192-4.29c1.837-1.893 3.264-3.855 4.212-5.935 1.134-2.443 1.516-5.016 1.41-7.12" fill="#59473D"/><path fill="#59473D" d="M218.468 101.184l.004.01.002.004-.006-.014M30.475 205.814l-.003-.002h-.002l.005.002M18.41 194.51l.002.005v-.003h-.002M18.416 194.522h.003l-.008-.007.004.007M12.766 182.553l-.004-.017-.003-.004.006.02M12.288 180.662v-.006l-.003-.003.003.01M19.508 196.01l.014.018-.02-.024-.01-.015.016.02"/><path d="M219.494 24.087c-2.063-2.294-4.45-4.022-7.042-5.302A21.1 21.1 0 0 0 211 18.29c-.24-.16-.486-.31-.735-.458-2.293-.878-4.72-1.45-7.214-1.772-12.377-1.593-26.47 2.913-34.528 6.113-.442.185-.887.37-1.338.56a188.68 188.68 0 0 0-5.59 2.495c-.174.08-.348.164-.52.246l-3.176-3.69-.91-1.057-.393-.46-8.307-9.644-.72-.838-.894-1.035-.16.035-2.348.532-2.714.614c-1.5-.695-3.282-1.192-5.345-1.45-4.132-.52-9.378-.04-15.354 1.504-5.977 1.534-12.678 4.114-19.785 7.654C86.753 24.71 70.928 35.613 55.7 49.505a235.388 235.388 0 0 0-14.823 14.76 205.17 205.17 0 0 0-12.1 14.415c-7.374 9.677-13.025 19.09-16.634 27.484-2.41 5.594-3.9 10.734-4.446 15.133-.402 3.198-.297 5.995.24 8.306.172.747.402 1.427.66 2.076.54 1.365 1.248 2.542 2.162 3.55l9.212 9.652.988 1.033.065-.07c.28-.325.57-.65.86-.967l.08-.084c.105-.115.215-.222.322-.33.276-.29.556-.58.84-.86.178-.176.357-.344.538-.514.175-.165.346-.337.524-.5.08-.073.162-.14.244-.213.187-.17.38-.337.575-.505a37.298 37.298 0 0 1 1.308-1.086l.072-.056a49.013 49.013 0 0 1 1.45-1.09c.307-.218.62-.435.936-.647.19-.127.377-.254.568-.378.323-.21.653-.414.983-.615.193-.117.38-.233.57-.344.347-.203.698-.395 1.047-.587.187-.1.37-.206.558-.305l.21-.11.032-.02c.297-.152.6-.293.902-.438.17-.08.33-.166.504-.244.252-.12.51-.23.767-.342.222-.096.443-.195.67-.29l.248-.108a39.57 39.57 0 0 1 1.72-.657c.184-.066.374-.122.558-.186.2-.067.398-.134.6-.198l.235-.08c.12-.037.24-.078.36-.113.246-.074.496-.14.743-.21l.185-.052c.287-.08.573-.16.863-.234.27-.07.54-.128.814-.19.337-.078.673-.154 1.01-.224.143-.027.283-.058.425-.086.14-.026.288-.047.43-.073.332-.058.667-.115 1-.167.296-.044.59-.083.885-.124.24-.03.473-.064.71-.09.097-.01.193-.018.29-.026.11-.013.213-.03.322-.038l.178-.01a34.052 34.052 0 0 1 3.888.067l.215.014a36.87 36.87 0 0 1 4.592.687c.387.083.773.163 1.173.26.082-.152.166-.308.25-.46.858-1.54 1.726-3.04 2.604-4.516 5.13-8.6 10.633-16.12 16.25-22.676a155.72 155.72 0 0 1 5.782-6.39c8.056-8.414 16.16-14.966 23.57-20.025a144.635 144.635 0 0 1 4.827-3.155 137.23 137.23 0 0 1 6.155-3.626 129.08 129.08 0 0 1 4.575-2.417 118.042 118.042 0 0 1 6.56-3.057 104.557 104.557 0 0 1 4.058-1.636c-.61-.064-1.23-.113-1.863-.146-.59-.03-1.19-.042-1.797-.043h-.457a37.843 37.843 0 0 0-5.497.454c-.414.066-.83.14-1.252.222a54.372 54.372 0 0 1 9.06-3.695 55.84 55.84 0 0 1 5.69-1.428 57.165 57.165 0 0 1 11.263-1.033c1.294.013 2.485.07 3.556.15 3.74.28 5.996.852 5.996.852-.532-.75-1.2-1.4-1.928-1.97-1.325-1.026-2.85-1.76-4.188-2.282a23.883 23.883 0 0 0-2.414-.798c.63-.108 1.253-.2 1.867-.282a50.34 50.34 0 0 1 1.93-.224 49.753 49.753 0 0 1 13.65.618c4.272.79 6.844 1.864 6.844 1.864-.608-1.187-1.51-2.2-2.498-3.056-.72-.62-1.48-1.16-2.208-1.608a61.164 61.164 0 0 1 12.693 4.453 54.614 54.614 0 0 1 2.517 1.295c2.092 1.14 3.248 1.96 3.248 1.96-.35-1.23-1.06-2.392-1.888-3.435-.208-.262-.42-.52-.636-.765l.1.046c.077.025.24.076.47.154.166.056.367.125.608.212.91.33 2.302.887 3.938 1.7l.238.12c.222.113.45.228.676.35.562.295 1.142.624 1.734.976a36.178 36.178 0 0 1 2.558 1.672c.624.447 1.244.928 1.86 1.442a29.2 29.2 0 0 1 1.85 1.686c.116.12.237.235.355.358.438.45.86.924 1.268 1.416a22.69 22.69 0 0 1 2.133 3.006 20.592 20.592 0 0 1 1.902 4.206c.026.086.05.175.073.26.354-.38.976-1.06 1.786-1.99 6.725-7.73 26.53-32.837 14.598-48.157" fill="#141C26"/><path d="M249.088 211.66l.004-.003s.232-1.738-.687-3.293l-.02-.043a3.407 3.407 0 0 0-.17-.26l-.06-.09a4.25 4.25 0 0 0-.348-.396 4.172 4.172 0 0 0-.8-.656 4.84 4.84 0 0 0-.53-.3c-.52-.248-1.145-.437-1.887-.546a10.717 10.717 0 0 0-1.837-.08c-.273.008-.542.014-.837.042l-.133.008.05.18.13.49a42.758 42.758 0 0 1 .396 1.695c0 .006-.034.113-.12.315l-.047.107c-.338.785-1.257 2.6-3.304 4.96-.35.4-.736.82-1.15 1.25-5.71 5.9-18.07 14.303-44.07 19.003-8.823 1.245-16.958 1.313-23.906.45-10.274-1.28-17.972-4.56-21.553-8.975-.31-.38-.594-.77-.865-1.163-.2-.29-.392-.586-.57-.884-.064-.108-.123-.22-.185-.33a16.888 16.888 0 0 1-2.172-8.56c.05-3.487 1.137-6.824 2.98-9.39 1.493-2.08 3.48-3.65 5.803-4.377a9.904 9.904 0 0 1 3.638-.428c.258.018.6.054 1.026.107.854.107 2.047.275 3.51.463l.488.062c4.88.606 12.65 1.34 22.046.766 17.096-1.04 39.597-6.42 60.03-24.845l.055-.072v-.032c.068-1.543-.138-4.33-2.088-6.498a7.8 7.8 0 0 0-1.19-1.07c-.26-.19-.527-.37-.826-.54-.302-.166-.576-.334-.84-.503a15.664 15.664 0 0 1-1.006-.678l-.045-.065c-.14-.216-.286-.426-.427-.642-5.3-8.027-12.6-12.686-15.513-14.82-1.373-1.01-2.247-1.47-2.247-1.47-6.305-3.84-7.23-5.115-6.64-15.545.21-3.756.617-8.693 1.036-15.385.055-.87.08-1.698.096-2.51.004-.195.008-.384.008-.575a46.32 46.32 0 0 0-.032-2.24l-.007-.206-.017-.22a53.74 53.74 0 0 0-.187-2.356 30.587 30.587 0 0 0-.223-1.664c-.044-.274-.098-.538-.148-.805a29.26 29.26 0 0 0-.18-.88c-.062-.283-.125-.57-.194-.84l-.003-.003.003-.003v.003c-.085-.336-.183-.655-.276-.973-.034-.117-.06-.238-.1-.35-.034-.108-.072-.206-.106-.314l-.036-.106-.107-.306-.002-.02c-.088-.247-.18-.487-.27-.72l-.027-.078-.09-.222-.11-.273-.025-.052v-.007c-.19-.442-.387-.87-.597-1.273l-.167-.297a20.25 20.25 0 0 0-.733-1.12l-.1-.15-.125-.166a19.93 19.93 0 0 0-.54-.71l-.247-.31a21.155 21.155 0 0 0-.726-.824v-.002l-.006-.04-.007-.052-.014-.07-.018-.1-.015-.098-.032-.16-.015-.098-.044-.225-.02-.08a38.723 38.723 0 0 0-.367-1.64l-.01-.048-.128-.498-.02-.065a30.02 30.02 0 0 0-.148-.553l-.007-.012a40.35 40.35 0 0 0-.426-1.412c-.05-.16-.108-.328-.167-.494a32.418 32.418 0 0 0-.365-1.053c-.076-.207-.16-.412-.24-.624a26.62 26.62 0 0 0-.412-1.013c-.093-.226-.198-.45-.297-.677a35.566 35.566 0 0 0-.83-1.708 27.628 27.628 0 0 0-.576-1.028c-.13-.218-.257-.438-.388-.657-.23-.367-.48-.726-.73-1.085-.125-.177-.243-.362-.375-.54-.116-.154-.247-.297-.368-.447-.288-.368-.572-.736-.887-1.082l-.038-.038-.18-.17c-.404-.436-.83-.86-1.288-1.25l-.082-.07c-.2-.172-.412-.336-.622-.496l-.022-.018-.076-.055c-.182-.138-.37-.27-.56-.397l-.1-.07.04.033c-.2-.148-.564-.34-1.042-.553-.166-.072-.35-.15-.545-.23-.984-.395-2.314-.842-3.89-1.26-.098-.03-.202-.053-.298-.077a45.876 45.876 0 0 0-5.89-1.124c-.25-.032-.51-.045-.764-.072-.102-.01-.207-.018-.31-.03a35.15 35.15 0 0 0-3.682-.184l-.072.003c-1.594.014-3.19.146-4.712.447.358-.593 1.325-1.25 2.295-1.797 1.21-.683 2.42-1.192 2.42-1.192-.69.052-1.398.15-2.105.264-.227.038-.457.07-.686.11-.15.028-.298.058-.445.085l-.13.027c-.125.025-.245.05-.368.077-3.554.758-6.974 2.038-8.876 2.814-.27.11-.505.21-.713.297l-.12.05c-.19.024-.383.053-.573.076l.005-.006c1.4-2.593 3.47-3.99 5.046-4.728.275-.13.538-.245.776-.335.09-.035.164-.057.243-.087.228-.08.422-.143.59-.192.372-.108.614-.156.614-.156-.17.004-.328.026-.493.035-.14.01-.28.022-.417.033-.205.015-.413.026-.615.045-.12.012-.248.015-.37.027-3.93.426-7.423 1.758-10.418 3.413a35.953 35.953 0 0 0-5.443 3.702c-.413.086-.835.174-1.263.265-4.295.917-9.203 2.098-14.363 3.682a132.643 132.643 0 0 0-5.805 1.926 119.327 119.327 0 0 0-7.9 3.177c-7.924 3.537-15.73 8.232-22.29 14.532-.237.226-.485.44-.717.67a57.9 57.9 0 0 0-1.67 1.756c-.225.242-.46.47-.682.716-.277.306-.533.636-.803.95a54.657 54.657 0 0 0-3.487 4.47 52.2 52.2 0 0 0-2.304 3.624l-.09.148a53.188 53.188 0 0 0-3.902 8.394 56.484 56.484 0 0 0-1.788 5.92l-.058.225a60.474 60.474 0 0 0-1.015 5.392c-.05.365-.11.726-.158 1.097a70.82 70.82 0 0 0-.45 5.488l-.01.206c-.018.44-.043.876-.052 1.323-.01.51-.006 1.028-.006 1.547-.002.12-.002.24-.003.363a78.07 78.07 0 0 0 .064 3.077l.01.166c.046 1.036.12 2.093.21 3.16.037.442.074.886.12 1.335.01.108.017.218.027.33.027.248.057.5.085.748.13 1.18.29 2.38.475 3.596.05.338.095.675.15 1.015.17 1.065.355 2.138.566 3.23 0 0-.19-1.4-.072-3.46.03-.475.074-.98.138-1.52.147-1.172.397-2.462.823-3.793.105-.325.223-.653.35-.983.052-.143.116-.284.174-.428.25-.61.534-1.222.876-1.826.077.43.16.86.246 1.293l.028.14-.003.195c-.002.268-.006.555-.01.86a124.056 124.056 0 0 0 .056 4.816c.12 3.876.454 8.554 1.29 12.54 0 0 .16-7.247 1.386-8.067 0 0 2.145 13.422 4.136 18.49.258.655.515 1.178.763 1.506l-.05-1.332-.285-7.46s.013-.28.04-.767a131.262 131.262 0 0 0 5.108 9.426c.533.893 1.076 1.79 1.64 2.697-3.688 3.243-7.098 7.832-9.546 13.32-.39.877-.758 1.776-1.097 2.696a45.3 45.3 0 0 0-1.504 5.006c-.044.182-.09.364-.13.548-.125.56-.244 1.12-.35 1.69l-.007.053c-.103.57-.194 1.147-.275 1.727-.025.187-.048.376-.07.562-.054.414-.1.83-.14 1.247-.023.212-.04.423-.06.637-.034.42-.06.846-.083 1.27a41.43 41.43 0 0 0-.067 2.428l.002.08c0 .478.014.955.032 1.436.02.485.05.97.084 1.46l.013.195.008.12c.046.594.11 1.187.182 1.786.023.19.056.38.08.57.057.408.112.818.183 1.23.036.228.08.46.12.688.072.378.14.754.222 1.133.052.243.108.486.16.73a45.89 45.89 0 0 0 .786 2.97c.074.244.148.49.226.736.124.386.257.775.39 1.16.082.232.16.464.244.696.157.427.325.855.498 1.284.077.192.147.383.228.576a49.578 49.578 0 0 0 1.744 3.74c.098.183.203.37.3.556.233.437.472.875.72 1.313.132.227.27.455.407.686.234.394.47.79.72 1.186.152.244.312.49.47.735a61.674 61.674 0 0 0 1.286 1.893c.266.378.542.756.827 1.132.184.248.367.496.557.744.3.387.606.773.922 1.158.187.236.375.472.57.706.35.42.717.842 1.087 1.26.174.198.338.396.515.593.555.616 1.123 1.23 1.717 1.843l-.003-.004c-.004-.005-.346-.5-.812-1.364l-.017-.028a21.68 21.68 0 0 1-.27-.528l-.03-.052a24.168 24.168 0 0 1-.3-.63l-.02-.038a23.913 23.913 0 0 1-.33-.75c-.873-2.102-1.723-5.02-1.613-8.274.338.453.683.89 1.025 1.335a132.632 132.632 0 0 0 2.117 4.114 108.77 108.77 0 0 0 2.97 5.16c1.32 2.135 2.77 4.273 4.266 6.117l-.003-.002c-.007-.012-1.742-3.635-2.323-6.012-.163-.668-.24-1.242-.156-1.603l.42.432.422.43c.276.368.626.832 1.017 1.346l.197.26c.194.255.394.52.61.8l.012.017c.248.324.51.66.78 1.01 2.44 3.14 5.69 7.15 8.006 9.354.773.735 1.44 1.27 1.942 1.5l-3.343-5.988c7.566 6.156 38.786 14.06 69.543 5.237a89.248 89.248 0 0 0 11.074-3.965 85.21 85.21 0 0 0 6.556-3.167l.314-.175a85.488 85.488 0 0 0 4.505-2.653l.033-.02a82.84 82.84 0 0 0 8.754-6.347l.005-.002.006-.006c.102-.09.207-.178.314-.268a73.756 73.756 0 0 0 4.93-4.722 74.25 74.25 0 0 0 5.472-6.47l.12-.155c.4-.537.794-1.07 1.175-1.6l.108-.155c.124-.18.234-.354.357-.533a85.645 85.645 0 0 0 1.545-2.285l.356-.55c.255-.4.5-.803.745-1.2.185-.31.375-.622.554-.93.2-.336.4-.672.595-1.006a94.16 94.16 0 0 0 1-1.807c.128-.237.248-.468.37-.702.247-.465.487-.925.715-1.38.106-.213.213-.425.316-.636l.093-.2c.287-.574.56-1.145.822-1.706l.05-.12c.99-.923 1.76-1.8 2.376-2.64.09-.12.183-.24.265-.36 1.37-1.978 1.82-3.73 1.845-5.3M65.354 189.424c-.028-.14-.052-.28-.076-.417l.024-.01a71.633 71.633 0 0 1-.828-6.09c-.012-.147-.033-.29-.05-.437-.34.107-.727.56-1.115 1.18a12.8 12.8 0 0 0-.432.75c-1.038 1.954-1.975 4.662-1.975 4.662.073-.905.173-1.843.283-2.786.013-.11.03-.217.043-.328.114-.96.248-1.928.39-2.89.016-.117.035-.232.052-.346.166-1.085.342-2.163.525-3.203l.07-.4.014-.07c.023-.12.044-.242.065-.362a152.057 152.057 0 0 1 .55-2.912c.136-.683.268-1.33.394-1.938l.04-.196c.02-.096.04-.183.058-.274.02-.09.038-.18.056-.274l.007-.032.097-.452.01-.04c.028-.143.056-.264.084-.397.048-.21.092-.424.136-.62l.012-.054.102-.466c.048-.208.092-.4.13-.582l.002-.005.003-.005c.022-.104.044-.194.066-.29l.005-.017c.02-.087.04-.178.06-.255.043-.192.083-.365.115-.5l.03-.117.01-.044.033-.14.023-.098.005-.014-.015.013-.21.19c-.185.166-.375.327-.548.51l-.19.21a9.153 9.153 0 0 0-.59.722l-.097.123c-.23.32-.443.656-.646.997l-.027.046v.002l-.083.152c-.047.083-.09.17-.136.253-.117.214-.24.422-.344.637l-.005.008-.005.007-.005.018-.04.08-.04.083a21.6 21.6 0 0 0-.454 1.014 27.438 27.438 0 0 0-1.15 3.327c-.134.482-.228.86-.27 1.045l-.002.016-.03.125v-.002.002l.012-.145c.016-.287.05-.573.072-.858.044-.6.082-1.203.148-1.8.053-.502.13-.993.2-1.49.024-.157.048-.313.07-.467.03-.23.063-.46.1-.688.034-.213.08-.423.12-.632l.003-.016v-.002l.044-.234.013-.064a91.593 91.593 0 0 1 .2-1.07l.037-.177.007-.033.054-.25c.02-.106.05-.208.07-.307.086-.376.177-.744.265-1.115l.014-.062c.065-.276.125-.554.196-.826l.002-.012.007-.018.02-.08c.146-.56.307-1.107.468-1.658l.084-.304c.03-.1.057-.21.09-.31.265-.895.55-1.778.852-2.64l.04-.11c.258-.732.52-1.454.796-2.165l.03-.08c.125-.314.253-.614.375-.924l.02-.046c.188-.46.373-.925.565-1.37v-.008l.004-.006.022-.056c.05-.112.17-.383.355-.783l.004-.006.025-.054c.07-.158.14-.31.21-.47.113-.256.227-.507.34-.757l.1-.22.003-.01 1.948-3.5c.082-.15.162-.295.24-.443l.04-.07.1-.18.634-1.158c.313-.564.613-1.103.893-1.61.572-1.03 1.062-1.902 1.36-2.428a64.5 64.5 0 0 0 .304-.545l.015-.027h-.002l-.007-.006-.018-.014c-.076-.05-.667-.46-1.64-1.05a49.796 49.796 0 0 0-6.675-3.354c-.83-.343-1.703-.674-2.61-.98-.235-.076-.48-.14-.717-.213-.76-.24-1.54-.455-2.338-.645l-.046-.01c-.548-.132-1.092-.27-1.654-.373-.44-.084-.882-.166-1.33-.228-.215-.03-.436-.047-.652-.066l-.64-.065a28.37 28.37 0 0 0-1.817-.095c-.295-.007-.59-.016-.884-.01-1.32.03-2.616.147-3.89.328l-.23.036c-2.295.343-4.51.92-6.617 1.716-.716.27-1.422.56-2.115.878a30.7 30.7 0 0 0-.587.283c-.237.115-.478.228-.712.348a32.49 32.49 0 0 0-5.84 3.864l-.063.052a32.39 32.39 0 0 0-5.317 5.604 33.32 33.32 0 0 0-1.172 1.666 32.73 32.73 0 0 0-1.918 3.35c-.202.408-.4.817-.585 1.233-.034.078-.065.16-.098.24a32.422 32.422 0 0 0-2.423 8.634c-.082.593-.15 1.19-.198 1.796l-.017.226a33.48 33.48 0 0 0-.08 3.227c0 .096.01.187.013.282.015.464.033.926.067 1.386l.026.242.03.318c.03.364.065.725.107 1.08l.015.082v.023l.002.004c.025.18.056.36.08.54.048.323.093.648.146.968.043.233.094.46.14.692.06.298.112.6.18.896.056.244.12.483.182.72l.04.168.065.25.05.192.06.23c.068.248.15.496.222.742.08.26.156.526.242.78.082.255.176.504.267.755l.073.2c.062.18.125.36.197.54.098.253.206.506.31.76.098.23.193.464.294.693.058.13.12.26.18.385.063.127.12.256.178.382a24.404 24.404 0 0 0 .723 1.425c.11.202.214.404.325.604.148.262.306.52.463.782.11.182.218.367.332.552.167.265.34.52.516.78.114.173.227.343.342.51.185.263.377.524.57.785a24.68 24.68 0 0 0 .972 1.247c.11.137.22.276.34.41.22.266.452.525.686.784.108.123.218.244.332.367.242.264.492.524.747.775.108.107.212.217.322.324a42.632 42.632 0 0 0 1.117 1.046c.285.253.576.503.873.75.098.08.192.162.29.24.308.253.622.494.938.735.09.065.185.137.273.204.33.242.663.477 1 .708l.252.17c.35.235.705.465 1.063.684l.23.138c.37.227.75.438 1.13.65l.196.11c.395.214.795.416 1.196.614l.172.082c.414.2.83.39 1.255.574l.15.065c.433.18.87.354 1.31.522l.123.044c.455.167.908.325 1.37.474l.095.03c.225.07.456.13.683.197.247.073.494.15.744.218l.07.02c.49.127.983.244 1.48.35l.043.012c.002 0 .007 0 .008.003.502.106 1.01.202 1.522.282l.023.008a32.77 32.77 0 0 0 4.814.413c.39.007.778.01 1.17.007a32.905 32.905 0 0 0 3.837-.352 39.036 39.036 0 0 0 5.004-1.1c2.935-.85 5.528-1.988 7.078-3.145 0 0-1.02-4.516-1.882-9.104a178.1 178.1 0 0 1-.274-1.506M199.057 80.92l.005.002-.013-.01.007.008" fill="#856249"/><path d="M138.63 19.778l-.373-4.574 2.29-5.07.905-.203c-1.5-.695-3.282-1.192-5.345-1.45-4.132-.52-9.378-.04-15.354 1.504-5.977 1.534-12.678 4.114-19.785 7.654C86.753 24.71 70.928 35.613 55.7 49.505a235.388 235.388 0 0 0-14.823 14.76 205.17 205.17 0 0 0-12.1 14.415c-7.374 9.677-13.025 19.09-16.634 27.484-2.41 5.594-3.9 10.734-4.446 15.133-.402 3.198-.297 5.995.24 8.306.172.747.402 1.427.66 2.076.54 1.365 1.248 2.542 2.162 3.55l9.212 9.652.988 1.033.065-.07c.28-.325.57-.65.86-.967l.08-.084c.105-.115.215-.222.322-.33.276-.29.556-.58.84-.86.178-.176.357-.344.538-.514.175-.165.346-.337.524-.5.08-.073.162-.14.244-.213.187-.17.38-.337.575-.505a37.298 37.298 0 0 1 1.308-1.086l.072-.056a49.013 49.013 0 0 1 1.45-1.09c.307-.218.62-.435.936-.647.19-.127.377-.254.568-.378.323-.21.653-.414.983-.615.193-.117.38-.233.57-.344.347-.203.698-.395 1.047-.587.187-.1.37-.206.558-.305l.21-.11.013-.038c2.206-6.107 5.51-12.736 9.793-19.643 5.262-8.484 11.985-17.382 19.968-26.244A238.75 238.75 0 0 1 78.97 74.166c7.698-7.018 15.547-13.28 23.29-18.705a191.1 191.1 0 0 1 15.41-9.765c.48-.27.958-.55 1.433-.813a149.26 149.26 0 0 1 3.994-2.13 136.16 136.16 0 0 1 8.46-4.028l-1.35-1.622-.225-.267-11.188-13.455.086-8.197-.105-.12 6.724-2.004 13.13 6.718" fill="#3478AD"/><path d="M249.088 211.66l.004-.003s.232-1.738-.687-3.293l-.02-.043a3.407 3.407 0 0 0-.17-.26l-.06-.09a4.25 4.25 0 0 0-.348-.396 4.172 4.172 0 0 0-.8-.656 4.84 4.84 0 0 0-.53-.3c-.52-.248-1.145-.437-1.887-.546a10.717 10.717 0 0 0-1.837-.08c-.273.008-.542.014-.837.042l-.133.008.05.18.13.49a42.758 42.758 0 0 1 .396 1.695c0 .006-.034.113-.12.315l-.047.107c-.338.785-1.257 2.6-3.304 4.96-.35.4-.736.82-1.15 1.25-5.71 5.9-18.07 14.303-44.07 19.003-8.823 1.245-16.958 1.313-23.906.45-10.274-1.28-17.972-4.56-21.553-8.975-.31-.38-.594-.77-.865-1.163-.2-.29-.392-.586-.57-.884-.064-.108-.123-.22-.185-.33a16.888 16.888 0 0 1-2.172-8.56c.05-3.487 1.137-6.824 2.98-9.39 1.493-2.08 3.48-3.65 5.803-4.377a9.904 9.904 0 0 1 3.638-.428c.258.018.6.054 1.026.107.854.107 2.047.275 3.51.463l.488.062c4.88.606 12.65 1.34 22.046.766 17.096-1.04 39.597-6.42 60.03-24.845l.055-.072v-.032c.068-1.543-.138-4.33-2.088-6.498a7.8 7.8 0 0 0-1.19-1.07c-.26-.19-.527-.37-.826-.54-.302-.166-.576-.334-.84-.503a15.664 15.664 0 0 1-1.006-.678l-.045-.065c-.14-.216-.286-.426-.427-.642-5.3-8.027-12.6-12.686-15.513-14.82-1.373-1.01-2.247-1.47-2.247-1.47-6.305-3.84-7.23-5.115-6.64-15.545.21-3.756.617-8.693 1.036-15.385.055-.87.08-1.698.096-2.51.004-.195.008-.384.008-.575a46.32 46.32 0 0 0-.032-2.24l-.007-.206-.017-.22a53.74 53.74 0 0 0-.187-2.356 30.587 30.587 0 0 0-.223-1.664c-.044-.274-.098-.538-.148-.805a29.26 29.26 0 0 0-.18-.88c-.062-.283-.125-.57-.194-.84l-.003-.003.003-.003v.003c-.085-.336-.183-.655-.276-.973-.034-.117-.06-.238-.1-.35-.034-.108-.072-.206-.106-.314l-.036-.106-.107-.306-.002-.02c-.088-.247-.18-.487-.27-.72l-.027-.078-.09-.222-.11-.273-.025-.052v-.007c-.19-.442-.387-.87-.597-1.273l-.167-.297a20.25 20.25 0 0 0-.733-1.12l-.1-.15-.125-.166a19.93 19.93 0 0 0-.54-.71l-.247-.31a21.155 21.155 0 0 0-.726-.824l-.002-.002c-.298-.314-.596-.61-.9-.885-.347-.217-.688-.41-1.032-.582-.11-.058-.224-.102-.34-.152a9.268 9.268 0 0 0-.68-.292c-.133-.05-.262-.09-.393-.135-.203-.066-.41-.132-.615-.186a9.916 9.916 0 0 0-.407-.09 8.04 8.04 0 0 0-1-.152c-.196-.02-.394-.028-.59-.036-.134-.004-.266-.007-.395-.004a9.633 9.633 0 0 0-.604.03c-.122.01-.247.02-.37.033l-.27.04c-.122.022-.245.035-.372.06-.107.018-.216.036-.323.058-.25.052-.498.116-.744.187l-.216.057c-.65.194-1.3.443-1.942.735l-.215.102c-.25.115-.5.236-.75.364l-.29.155c-.226.118-.453.243-.678.37l-.31.18c-.222.13-.446.262-.668.4l-.304.187c-.232.145-.466.295-.7.447l-.258.17c-.263.17-.528.347-.792.526l-.158.106c-.296.2-.598.41-.9.617l-.01.01-.046.027h.003c-.562.386-1.122.78-1.69 1.175-.474.33-.96.66-1.445.99l-.234.16c-.49.33-.985.65-1.482.97l-.25.157c-.5.31-1 .613-1.507.9l-.267.148a30.19 30.19 0 0 1-1.547.81l-.26.122c-.528.25-1.066.485-1.61.69l-.226.086a19.39 19.39 0 0 1-1.712.547l-.152.035c-.613.158-1.226.284-1.857.37a24.49 24.49 0 0 1-3.18.194 34.36 34.36 0 0 1-5.21-.393c-.582-.087-1.17-.19-1.753-.297-.208-.04-.415-.07-.62-.11-1.52-.297-3.05-.65-4.59-1.02a476.24 476.24 0 0 1-1.944-.47c-1.043-.253-2.097-.5-3.152-.74-.208-.048-.41-.1-.62-.146h.01c-.15-.033-.3-.064-.448-.095-.234-.052-.468-.102-.7-.155l-.67-.133-.118-.024-.078-.015-.616-.122a66.72 66.72 0 0 0-1.442-.255c-.143-.025-.287-.043-.428-.065a51.71 51.71 0 0 0-1.072-.16c-.18-.025-.364-.042-.542-.064l-.04-.004a32.62 32.62 0 0 0-.937-.108c-.208-.02-.418-.037-.623-.057-.093-.007-.187-.012-.283-.02-.212-.016-.428-.034-.643-.046a26.855 26.855 0 0 0-1.595-.06l-.294-.005c-.088 0-.182-.005-.273-.005-.404 0-.814.01-1.225.028-.106.003-.218.002-.327.01a25.25 25.25 0 0 0-1.568.117c-.136.014-.272.035-.41.048-.34.04-.68.086-1.02.138l-.153.023c-.186.028-.375.063-.56.096-.35.063-.696.13-1.046.206a26.465 26.465 0 0 0-1.645.413 21.458 21.458 0 0 0-1.722.547c-.17.06-.34.113-.51.18a26.51 26.51 0 0 0-1.653.67c-4.333 2.495-8.055 5.9-11.014 9.87a39.114 39.114 0 0 0-2.698 4.147c-.858 1.52-1.603 3.1-2.25 4.717a39.24 39.24 0 0 0-1.324 3.87c-.024.087-.044.177-.068.266a36.97 36.97 0 0 0-1.1 5.785c-.06.54-.114 1.078-.15 1.618-.093 1.45-.083 2.91.005 4.362.005.13.017.265.026.395.025.372.038.74.078 1.113.107 1.034.254 2.07.462 3.095.073.38.176.736.267 1.102.087.35.164.71.258 1.05a30.308 30.308 0 0 0 3.007 7.126c4.72 8.157 12.483 13.035 18.107 15.652a68.71 68.71 0 0 0 6.843 2.584s-.112.07-.285.187a58.99 58.99 0 0 0-4.274 1.263 60.925 60.925 0 0 0-3.845 1.44c-3.65 1.512-7.793 3.663-11.464 6.634-.46.37-.91.754-1.354 1.15-.754.68-1.472 1.4-2.163 2.158-.08.086-.164.168-.24.255-.104.116-.207.237-.31.355-.26.305-.518.616-.77.934l-.3.382c-.33.436-.652.878-.956 1.337-.3.45-.587.916-.86 1.387-2.175 3.798-3.41 8.346-3.03 13.77l.01-.057.008-.04.04-.202.012-.045c.016-.082.04-.18.065-.286l.014-.068c.03-.124.065-.266.105-.42l.026-.1.148-.536h.003c.053-.19.12-.395.187-.606l.043-.13c.07-.214.15-.44.234-.67l.046-.11c.08-.22.167-.445.262-.677l.045-.106c.103-.25.217-.508.335-.77l.076-.164c.127-.268.256-.54.4-.815a21.248 21.248 0 0 1 .733-1.283c.098-.16.19-.32.3-.48l.08-.134.003-.003a18.677 18.677 0 0 1 1.344-1.782c.07-.082.145-.164.22-.247.177-.2.362-.4.554-.596.08-.078.156-.16.235-.237.263-.257.532-.508.818-.75l.025-.024s-4.94 11.173-2.792 20.034c0 0-.002-.027-.002-.074v-.055-.182c0-.014 0-.032-.003-.048.002-.09.002-.196.006-.322 0-.016 0-.03.002-.05 0-.13.01-.276.016-.44 0-.014.004-.03.004-.046a25.083 25.083 0 0 1 .096-1.23l.006-.053c.022-.223.054-.454.087-.697.002-.02.007-.043.01-.065.037-.257.08-.524.13-.8l.012-.064.026-.138v-.006c.062-.31.134-.626.216-.946.006-.02.01-.043.015-.064.085-.313.175-.63.276-.948l.094-.292.068-.203v-.003c.094-.26.196-.523.307-.783l.017-.042v-.002a11.856 11.856 0 0 1 .685-1.343c.205-.346.42-.685.664-1.006l.01-.015v.002-.002h.002s-.283 2.752-.21 6.026c.014.516.038 1.045.07 1.58.02.354.044.71.077 1.067a43.2 43.2 0 0 1 0 .004v.002a44.05 44.05 0 0 0 .12 6.99c.394 4.026 1.35 8.285 3.036 12.77 0 0-1.545-5.157.68-10.314.2.47.416.942.64 1.418.183 1.53.492 3.702.942 6.094.43 3.986 2.337 15.942 10.46 24.352 0 0-3.07-3.984-2.593-9.17.32.68.638 1.296.94 1.825 1.39 2.6 4.154 7.445 7.167 10.803 0 0-2.445-4.735-1.875-5.755 0 0 7.97 9.912 10.507 10.88l-3.334-5.53-.075-.16c11.583 8.398 27.475 11.516 47.13 6.042a96.17 96.17 0 0 0 10.467-3.605 85.21 85.21 0 0 0 6.556-3.167l.314-.175a85.488 85.488 0 0 0 4.505-2.653l.033-.02a82.84 82.84 0 0 0 8.754-6.347l.005-.002.006-.006c.102-.09.207-.178.314-.268a73.756 73.756 0 0 0 4.93-4.722 74.25 74.25 0 0 0 5.472-6.47l.12-.155c.4-.537.794-1.07 1.175-1.6l.108-.155c.124-.18.234-.354.357-.533a85.645 85.645 0 0 0 1.545-2.285l.356-.55c.255-.4.5-.803.745-1.2.185-.31.375-.622.554-.93.2-.336.4-.672.595-1.006a94.16 94.16 0 0 0 1-1.807c.128-.237.248-.468.37-.702.247-.465.487-.925.715-1.38.106-.213.213-.425.316-.636l.093-.2c.287-.574.56-1.145.822-1.706l.05-.12c.99-.923 1.76-1.8 2.376-2.64.09-.12.183-.24.265-.36 1.37-1.978 1.82-3.73 1.845-5.3M64.425 182.47c-.342.107-.728.56-1.116 1.18a12.8 12.8 0 0 0-.432.75c-1.038 1.954-1.975 4.662-1.975 4.662.073-.905.173-1.843.283-2.786.013-.11.03-.217.043-.328.114-.96.248-1.928.39-2.89.016-.117.035-.232.052-.346.166-1.085.342-2.163.525-3.203l.07-.4.014-.07c.023-.12.044-.242.065-.362a152.057 152.057 0 0 1 .55-2.912c.136-.683.268-1.33.394-1.938l.04-.196c.02-.096.04-.183.058-.274.02-.09.038-.18.056-.274l.007-.032.097-.452.01-.04c.028-.143.056-.264.084-.397.048-.21.092-.424.136-.62l.012-.054.102-.466c.048-.208.092-.4.13-.582l.002-.005.003-.005c.022-.104.044-.194.066-.29l.005-.017c.02-.087.04-.178.06-.255.043-.192.083-.365.115-.5l.03-.117.01-.044.033-.14.023-.098.005-.014-.015.013-.21.19c-.185.166-.375.327-.548.51l-.19.21a9.153 9.153 0 0 0-.59.722l-.097.123c-.23.32-.443.656-.646.997l-.027.046v.002l-.083.152c-.047.083-.09.17-.136.253-.117.214-.24.422-.344.637l-.005.008-.005.007-.005.018-.04.08-.04.083a21.6 21.6 0 0 0-.454 1.014 27.438 27.438 0 0 0-1.15 3.327c-.134.482-.228.86-.27 1.045l-.002.016-.03.125v-.002.002l.012-.145c.016-.287.05-.573.072-.858.044-.6.082-1.203.148-1.8.053-.502.13-.993.2-1.49.024-.157.048-.313.07-.467.03-.23.063-.46.1-.688.034-.213.08-.423.12-.632l.003-.016v-.002l.044-.234.013-.064a91.593 91.593 0 0 1 .2-1.07l.037-.177.007-.033.054-.25c.02-.106.05-.208.07-.307.086-.376.177-.744.265-1.115l.014-.062c.065-.276.125-.554.196-.826l.002-.012.007-.018.02-.08c.146-.56.307-1.107.468-1.658l.084-.304c.03-.1.057-.21.09-.31.265-.895.55-1.778.852-2.64l.04-.11c.258-.732.52-1.454.796-2.165l.03-.08c.125-.314.253-.614.375-.924l.02-.046c.188-.46.373-.925.565-1.37v-.008l.004-.006.022-.056c.05-.112.17-.383.355-.783l.004-.006.025-.054c.07-.158.14-.31.21-.47.113-.256.227-.507.34-.757l.1-.22c-.16-.086-.327-.163-.492-.246l-.093-.046-.175-.087c-1.068-.512-2.19-.922-3.355-1.223l-.185-.046a18.506 18.506 0 0 0-3.65-.53 18.31 18.31 0 0 0-1.15-.013c-.58.013-1.15.062-1.71.124-.18.023-.354.054-.528.077-.278.043-.553.097-.83.147-.107.023-.22.036-.327.06a17.67 17.67 0 0 0-1.687.443c-.17.053-.34.096-.505.154-.495.174-.98.364-1.456.575-.19.084-.365.18-.55.268-.217.107-.432.222-.645.33l-.22.114a19.645 19.645 0 0 0-1.32.814c-.253.166-.498.334-.737.51-.147.112-.287.228-.435.342a18.89 18.89 0 0 0-1.666 1.507c-.318.315-.628.636-.918.973l-.148.168c-.153.183-.295.376-.438.567l-.023.027-.018.025c-.098.128-.203.25-.298.382l-.038.05-.037.052-.003.004-.002.003c-.586.82-1.1 1.692-1.545 2.6-.065.13-.123.264-.185.396-.205.444-.395.9-.566 1.362-.067.184-.142.362-.205.548l-.002.002-.002.005c-.156.47-.294.95-.412 1.442l-.045.182-.044.232-.006.02c-.08.357-.158.713-.214 1.075-.03.18-.047.36-.07.54l-.008.052c-.023.192-.042.386-.062.58-.017.145-.038.293-.05.44-.042.572-.06 1.147-.047 1.73.01.452.05.895.093 1.34l.003.024.015.207c.025.245.068.487.104.73a17.91 17.91 0 0 0 2.958 7.603 18.572 18.572 0 0 0 5.32 5.224 18.32 18.32 0 0 0 3.857 1.877c1.31.463 2.677.8 4.103.956.32.033.645.057.97.08.487.032.972.053 1.468.043.457-.01.9-.067 1.35-.11.256-.024.52-.026.773-.062.645-.09 1.277-.22 1.9-.376l.14-.03c.26-.07.5-.163.75-.24.784-.24 1.542-.527 2.28-.866l.16-.07c.204-.09.417-.174.615-.275l.024-.01a71.633 71.633 0 0 1-.828-6.09c-.012-.147-.033-.29-.05-.437" fill="#FCE9C9"/><path fill="#4D94C3" d="M141.497 21.245l.34.174-.005-.047-.335-.128"/><path d="M242.03 206.982a18.53 18.53 0 0 1-.067-.27l-.13-.49c-.56-1.818-1.27-3.237-1.9-4.248-.808-1.306-1.477-1.95-1.477-1.95a19.43 19.43 0 0 0 .62-3.046c.486-4.14-.622-7.363-1.51-9.18-.14-.292-.275-.542-.397-.76-.64.454-1.287.902-1.934 1.34-12.275 8.31-26.09 13.644-41.05 15.936-10.31 1.58-21.155 1.728-32.432.355l.197.056s-6.796.93-8.64 7.45l.116.067-.562 4.373c.2 5.92 2.906 9.627 5.987 11.577 3.204 1.222 7.07 2.153 11.365 2.687 7.474.93 16.052.683 24.81-.707l.043-.007.045-.006c11.646-1.56 28.085-7.78 39.836-15.807 2.676-1.83 5.11-3.748 7.19-5.732l.078-.075.14-.137a42.758 42.758 0 0 0-.328-1.426" fill="#FFF"/><path d="M219.813 150.548c-6.305-3.84-7.23-5.115-6.64-15.545.21-3.756.617-8.693 1.036-15.385.055-.87.08-1.698.096-2.51.004-.195.008-.384.008-.575a46.32 46.32 0 0 0-.032-2.24l-.007-.206-.017-.22a53.74 53.74 0 0 0-.187-2.356 30.587 30.587 0 0 0-.223-1.664c-.044-.274-.098-.538-.148-.805a29.26 29.26 0 0 0-.18-.88c-.062-.283-.125-.57-.194-.84l-.003-.003.003-.003a16.11 16.11 0 0 0-3.218-3.545l-.245-.184-.05-.037-.184-.14-.064-.046c-.18-.14-.37-.275-.557-.4a16.533 16.533 0 0 0-.61-.388c-1.864-1.134-3.942-1.846-6.166-2.176-1.228-.18-2.5-.244-3.806-.194a22.52 22.52 0 0 0-1.837.148 28.208 28.208 0 0 0-4.923 1.04c-.562.386-1.122.78-1.69 1.175-.474.33-.96.66-1.445.99l-.234.16c-.49.33-.985.65-1.482.97l-.25.157c-.5.31-1 .613-1.507.9l-.267.148a30.19 30.19 0 0 1-1.547.81l-.26.122c-.528.25-1.066.485-1.61.69l-.226.086a19.39 19.39 0 0 1-1.712.547l-.152.035c-.613.158-1.226.284-1.857.37a24.49 24.49 0 0 1-3.18.194 34.36 34.36 0 0 1-5.21-.393c-.582-.087-1.17-.19-1.753-.297-.208-.04-.415-.07-.62-.11-1.52-.297-3.05-.65-4.59-1.02a476.24 476.24 0 0 1-1.944-.47c-1.043-.253-2.097-.5-3.152-.74-.208-.048-.41-.1-.62-.146-.886.048-1.774.135-2.666.247l-.194.025c-2.587.34-5.19.955-7.76 1.845-.142.05-.285.09-.426.142-.4.143-.8.3-1.2.457-.535.21-1.07.432-1.6.667-3.724 1.644-7.34 3.88-10.703 6.723a46.736 46.736 0 0 0-3.828 3.64 45.57 45.57 0 0 0-4.867 6.174c-.08.12-.157.24-.232.362a42.585 42.585 0 0 0-2.077 3.583c-.226.433-.454.868-.662 1.307l-.042.085a42.715 42.715 0 0 0-1.766 4.355c-.03.087-.054.175-.08.262-.07.213-.126.427-.193.64a40.765 40.765 0 0 0-1.094 4.19c-.028.154-.063.308-.09.462-.082.436-.16.872-.23 1.308a37.335 37.335 0 0 0-.41 4.795c-.012.4-.027.803-.022 1.2a30.308 30.308 0 0 0 3.007 7.126c4.72 8.157 12.483 13.035 18.107 15.652a68.71 68.71 0 0 0 6.843 2.584l.06.103h.003l.01-.005.153-.117c.304-.23.606-.462.92-.69.11-.085.222-.165.334-.248a52.11 52.11 0 0 1 1.322-.938c.335-.234.68-.472 1.032-.703.116-.08.234-.155.352-.233.355-.235.716-.47 1.086-.702l.365-.23c.377-.23.754-.46 1.135-.69.13-.08.265-.158.396-.238.385-.222.773-.45 1.17-.676.145-.076.288-.157.432-.238.39-.222.79-.44 1.196-.656.16-.085.32-.172.486-.257.4-.213.804-.423 1.215-.63a104.13 104.13 0 0 1 1.768-.873c.197-.096.398-.188.597-.283.41-.193.823-.385 1.244-.576.217-.1.446-.198.67-.3a67.75 67.75 0 0 1 1.245-.54c.247-.108.5-.213.75-.317.41-.17.822-.338 1.24-.508l.846-.334c.406-.157.813-.316 1.227-.472.31-.12.627-.237.94-.35.4-.147.798-.294 1.208-.44l1.048-.362c.392-.136.786-.274 1.186-.403.382-.128.77-.252 1.16-.376.382-.125.764-.248 1.153-.37.426-.132.86-.26 1.296-.393.363-.105.728-.218 1.1-.324.47-.138.953-.27 1.43-.404.24-.065.472-.138.713-.2 1.867-4.7 7.407-16.352 16.898-17.627 1.022-.148 1.943-.2 2.815-.21.218-.003.452-.02.66-.014-.11-.675-.196-1.38-.24-2.11-.298-5.022 1.246-9.196 3.446-9.33 1.705-.137 3.06 2.352 3.292 3.223.648 1.527 1.102 3.477 1.233 5.64.117 1.976-.066 3.8-.443 5.32.192.2.35.418.522.628 2.174 2.7 2.542 6.44 2.452 9.092.845-.085 1.713-.16 2.58-.234l.663-.062.136-.012c.125-.013.25-.02.375-.03 1.075-.09 2.16-.172 3.262-.25l.05-.003c2.494-.173 5.055-.32 7.698-.433-1.373-1.01-2.247-1.47-2.247-1.47M243.694 220.84a70.427 70.427 0 0 1-12.813 9.047 76.07 76.07 0 0 1-6.398 3.132 81.154 81.154 0 0 1-13.134 4.422c-8.735 2.128-14.895 2.132-14.895 2.132 4.777 2.642 10.823 2.667 14.97 2.248 2.855-.284 4.817-.775 4.817-.775a31.765 31.765 0 0 1-.62 4.873 25.85 25.85 0 0 1-1.39 4.565l-.046.12-.004.007a22.462 22.462 0 0 1-2.522 4.54c-.104.142-.205.295-.31.433l.314-.175a85.488 85.488 0 0 0 4.505-2.653l.033-.02a82.84 82.84 0 0 0 8.754-6.347l.005-.002.006-.006c.102-.09.207-.178.314-.268a73.756 73.756 0 0 0 4.93-4.722 74.25 74.25 0 0 0 5.472-6.47l.12-.155c.4-.537.794-1.07 1.175-1.6l.108-.155c.124-.18.234-.354.357-.533a85.645 85.645 0 0 0 1.545-2.285l.356-.55c.255-.4.5-.803.745-1.2.185-.31.375-.622.554-.93.2-.336.4-.672.595-1.006a94.16 94.16 0 0 0 1-1.807c.128-.237.248-.468.37-.702.247-.465.487-.925.715-1.38.106-.213.213-.425.316-.636l.093-.2c.287-.574.56-1.145.822-1.706-.287.262-.573.51-.858.76M139.615 174.856a60.925 60.925 0 0 0-3.844 1.44c-3.65 1.512-7.793 3.663-11.464 6.634-.46.37-.91.754-1.354 1.15-.754.68-1.472 1.4-2.163 2.158-.08.086-.164.168-.24.255-.104.116-.207.237-.31.355-.26.305-.518.616-.77.934l-.3.382c-.33.436-.652.878-.956 1.337-.3.45-.587.916-.86 1.387-2.175 3.798-3.41 8.346-3.03 13.77l.01-.057.008-.04.04-.202.012-.045c.016-.082.04-.18.065-.286l.014-.068c.03-.124.065-.266.105-.42l.026-.1.148-.536h.003c.053-.19.12-.395.187-.606l.043-.13c.07-.214.15-.44.234-.67l.046-.11c.08-.22.167-.445.262-.677l.045-.106c.103-.25.217-.508.335-.77l.076-.164c.127-.268.256-.54.4-.815a21.248 21.248 0 0 1 .733-1.283c.098-.16.19-.32.3-.48l.08-.134.003-.003a18.677 18.677 0 0 1 1.344-1.782c.07-.082.145-.164.22-.247.177-.2.362-.4.554-.596.08-.078.156-.16.235-.237.263-.257.532-.508.818-.75l.025-.024s-4.94 11.173-2.792 20.034c0 0-.002-.027-.002-.074v-.055-.182c0-.014 0-.032-.003-.048.002-.09.002-.196.006-.322 0-.016 0-.03.002-.05 0-.13.01-.276.016-.44 0-.014.004-.03.004-.046a25.083 25.083 0 0 1 .096-1.23l.006-.053c.022-.223.054-.454.087-.697.002-.02.007-.043.01-.065.037-.257.08-.524.13-.8l.012-.064.026-.138v-.006c.062-.31.134-.626.216-.946.006-.02.01-.043.015-.064.085-.313.175-.63.276-.948l.094-.292.068-.203v-.003c.094-.26.196-.523.307-.783l.017-.042v-.002a11.856 11.856 0 0 1 .685-1.343c.205-.346.42-.685.664-1.006l.01-.015v.002-.002h.002s-.283 2.752-.21 6.026c.014.516.038 1.045.07 1.58.02.354.044.71.077 1.067a43.2 43.2 0 0 1 1.796-9.906c.262-.848.547-1.676.85-2.492.042-.118.083-.236.127-.353a49.03 49.03 0 0 1 2.14-4.825l.168-.322a52.078 52.078 0 0 1 2.418-4.163l.185-.29c.322-.49.65-.965.98-1.435.087-.125.17-.257.257-.38.08-.11.157-.22.236-.33.42-.58.842-1.145 1.268-1.69l.203-.258c.443-.562.885-1.11 1.33-1.633l.023-.03a62.28 62.28 0 0 1 1.67-1.893c.406-.44.808-.865 1.207-1.273.15-.153.305-.305.46-.46a61.63 61.63 0 0 1 2.726-2.59c2.57-2.3 4.57-3.72 5.267-4.19a58.99 58.99 0 0 0-4.274 1.263" fill="#EFCFA5"/><path d="M205.308 150.112s-.028-.286-.13-.716c-.4-1.634-2.016-5.488-8.373-4.877-6.647.64-8.88 6.003-9.452 7.83-.118.38-.17.618-.17.618l.18.154c.844-.716 2.452-.63 3.91.295a5.128 5.128 0 0 1 1.56 1.52v.003c.563.865.72 1.798.322 2.49-.085.15-.19.275-.313.385 0 0 .256.1.687.224 1.846.544 6.968 1.618 9.74-1.96.133-.173.27-.333.39-.525-.544-.28-.85-1.08-.85-2.028a4.81 4.81 0 0 1 .205-1.432c.455-1.504 1.483-2.392 2.293-1.983M172.356 198.937a257.82 257.82 0 0 1-10.982 2.018l.488.062c4.88.606 12.65 1.34 22.046.766 17.096-1.04 39.597-6.42 60.03-24.845l.055-.072v-.032c.068-1.543-.138-4.33-2.088-6.498a7.8 7.8 0 0 0-1.19-1.07c-.076-.044-.147-.094-.226-.14a17.81 17.81 0 0 1-1.44-.903 15.664 15.664 0 0 1-1.006-.678l-.045-.065a38.346 38.346 0 0 1-4.343 5.16 48.33 48.33 0 0 1-1.808 1.692c-5.638 5.078-12.922 9.307-20.785 12.79-13.066 5.787-27.67 9.542-38.71 11.815M64.145 169.16c-.185.166-.375.327-.548.51l-.19.21a9.153 9.153 0 0 0-.59.722l-.097.123c-.23.32-.443.656-.646.997l-.027.046v.002l-.083.152c-.047.083-.09.17-.136.253-.117.214-.24.422-.344.637l-.005.008-.005.007-.005.018-.04.08-.04.083a21.6 21.6 0 0 0-.454 1.014 27.438 27.438 0 0 0-1.15 3.327c-.134.482-.228.86-.27 1.045l-.002.016-.03.125v-.002.002l.012-.145c.016-.287.05-.573.072-.858.044-.6.082-1.203.148-1.8.053-.502.13-.993.2-1.49.024-.157.048-.313.07-.467.03-.23.063-.46.1-.688.034-.213.08-.423.12-.632l.003-.016v-.002l.044-.234.013-.064a91.593 91.593 0 0 1 .2-1.07l.037-.177.007-.033.054-.25c.02-.106.05-.208.07-.307.086-.376.177-.744.265-1.115l.014-.062c.065-.276.125-.554.196-.826l.002-.012.007-.018.02-.08c.146-.56.307-1.107.468-1.658l.084-.304c.03-.1.057-.21.09-.31.265-.895.55-1.778.852-2.64l.04-.11c.258-.732.52-1.454.796-2.165l.03-.08c.125-.314.253-.614.375-.924l.02-.046c.188-.46.373-.925.565-1.37v-.008l.004-.006.022-.056c.05-.112.17-.383.355-.783l.004-.006.025-.054c.07-.158.14-.31.21-.47.113-.256.227-.507.34-.757l.1-.22c-.16-.086-.327-.163-.492-.246l-.093-.046-.175-.087c-1.068-.512-2.19-.922-3.355-1.223l-.185-.046a18.506 18.506 0 0 0-3.65-.53 18.31 18.31 0 0 0-1.15-.013c-.58.013-1.15.062-1.71.124-.182.022-.354.054-.528.077-.278.043-.553.097-.83.147-.107.023-.22.036-.327.06a17.67 17.67 0 0 0-1.687.443c-.17.053-.34.096-.505.154-.495.174-.98.364-1.456.575-.19.084-.365.18-.55.27-.217.105-.432.22-.645.33l-.22.112a19.645 19.645 0 0 0-1.32.814c-.253.166-.498.334-.737.51-.147.112-.287.228-.435.342a18.89 18.89 0 0 0-1.666 1.507 17.99 17.99 0 0 0-.918.973l-.148.168c-.153.183-.295.376-.438.567l-.023.027-.018.025c-.098.128-.203.25-.298.383l-.038.05-.037.05-.003.006-.002.003c-.586.823-1.1 1.695-1.545 2.604-.065.13-.123.262-.182.393-.208.444-.395.9-.57 1.362-.066.184-.14.362-.204.548l-.002.002c.036.12.076.234.112.352.127.412.256.812.392 1.2l.047.133.05.135a31.93 31.93 0 0 0 1.87 4.223c.074.134.146.273.217.4l.05.094.07.114a27.95 27.95 0 0 0 1.047 1.714 23.99 23.99 0 0 0 1.313 1.802l.19.23c.048.058.093.11.135.157.125.143.202.226.202.227-.048-.203-.072-.403-.114-.61a24.892 24.892 0 0 1-.49-4.306v-.084l-.003-.163a26.772 26.772 0 0 1 .07-2.667 37.29 37.29 0 0 0 .763 2.38l.056.16.023.06c.71 1.923 1.52 3.54 2.278 4.843.906 1.56 1.736 2.665 2.232 3.273.1.12.185.224.257.305a9.3 9.3 0 0 0 .218.246c-.36-1.548-.54-3.08-.597-4.58a25.68 25.68 0 0 1-.03-1.505c.01-.634.042-1.258.094-1.873v.002-.002c.276 1.052.593 2.026.932 2.944l.024.07c1.218 3.3 2.722 5.73 3.76 7.167l.118.16c.183.243.34.45.483.633.098.124.19.244.27.333.1.12.176.21.237.278l.124.142-.042-.216c-.046-.217-.09-.43-.133-.646a24.428 24.428 0 0 1-.32-2.304 25.573 25.573 0 0 1-.115-1.516 26.7 26.7 0 0 1-.01-1.417l.008-.252c.008-.243.013-.487.026-.727l.01-.148.008-.107c.038-.618.09-1.23.168-1.83v.003-.002c.118.398.242.786.37 1.16.096.285.196.556.297.83l.02.055.035.095.06.167a31.056 31.056 0 0 0 1.122 2.588c.305.63.616 1.214.916 1.747.175.3.34.583.507.854a26.48 26.48 0 0 0 1.107 1.663c.04.054.08.11.12.162a21.483 21.483 0 0 0 .67.87c.205.248.35.41.415.482l.036.04.13.09c.013-.11.03-.218.043-.33.114-.96.248-1.927.39-2.89.016-.116.035-.23.052-.345.166-1.085.342-2.163.525-3.203l.07-.4.014-.07c.023-.12.044-.242.065-.362a152.057 152.057 0 0 1 .55-2.912c.136-.683.268-1.33.394-1.938l.04-.196c.02-.096.04-.183.058-.274.02-.09.038-.18.056-.274l.007-.032.097-.452.01-.04c.028-.143.056-.264.084-.397.048-.21.092-.424.136-.62l.012-.054.102-.466c.048-.208.092-.4.13-.582l.002-.005.003-.005c.022-.104.044-.194.066-.29l.005-.017c.02-.087.04-.178.06-.255.043-.192.083-.365.115-.5l.03-.117.01-.044.033-.14.023-.098.005-.014-.015.013-.21.19M202.503 216.922c1.612-.558 3.016-1.008 4.105-1.483 2.183-.93 3.355-1.558 3.282-1.79-.074-.236-1.39-.057-3.71.467-1.16.27-2.568.508-4.185.87-.804.194-1.692.304-2.613.482-.927.16-1.902.364-2.93.474-2.032.288-4.356.55-6.823.837-1.217.1-2.47.204-3.76.308l-4.015.2c-5.488.16-11.546-.09-17.71-1.223-3.25-.572-7.594-2.048-10.72-3.822l-.114-.066c1.844-6.52 8.64-7.45 8.64-7.45l-.196-.058-.342-.04c-.99-.122-1.858-.24-2.603-.34-.533-.072-1-.136-1.394-.185-.38-.047-.65-.075-.807-.085-4.095-.28-6.338 3.186-7.114 4.688-.11.217-.212.44-.315.667-.59 1.347-.983 2.9-1.088 4.543-.202 3.064.587 6.43 2.935 9.293 1.566 1.933 4.29 3.636 7.824 4.983-3.08-1.95-5.787-5.656-5.986-11.577 3.49 1.5 7.557 2.418 10.612 2.96 6.543 1.207 12.857 1.35 18.533 1.002 1.417-.118 2.797-.222 4.137-.357 1.342-.174 2.644-.34 3.907-.505 2.456-.414 4.722-.815 6.85-1.284 1.06-.198 2.045-.49 2.976-.742.932-.27 1.815-.474 2.623-.766" fill="#EFCFA5"/><path d="M197.075 140.61c3.418.08 5.74 1.165 7.287 2.744.377-1.522.562-3.346.44-5.322-.13-2.163-.582-4.113-1.23-5.64-.23-.87-1.587-3.36-3.292-3.223-2.2.132-3.74 4.307-3.443 9.327.042.733.126 1.437.238 2.114M202.85 153.556c.002.95.306 1.75.85 2.027.818.41 1.837-.484 2.29-1.988.043-.132.067-.263.097-.392v-.003c.29-1.367-.005-2.69-.742-3.06-.81-.41-1.837.48-2.29 1.982-.147.49-.21.977-.206 1.434M187.328 155.98c.362.59.908 1.158 1.606 1.604 1.476.936 3.116 1.015 3.947.26.124-.108.23-.237.314-.385.398-.694.242-1.626-.318-2.493l-.002-.002a5.15 5.15 0 0 0-1.56-1.52c-1.46-.926-3.067-1.01-3.91-.293-.138.118-.262.25-.354.412-.38.67-.24 1.567.278 2.413v.002M243.993 176.872v-.03l-.096.14c.014-.014.03-.024.042-.037l.053-.073" fill="#59473D"/><path d="M242.22 208.552l-.078.074c-2.08 1.984-4.516 3.905-7.19 5.734-11.752 8.027-28.19 14.245-39.84 15.806l-.044.007-.044.007c-8.757 1.39-17.335 1.636-24.81.706-4.294-.534-8.158-1.464-11.363-2.687-3.53-1.348-6.255-3.05-7.823-4.982-2.348-2.865-3.137-6.23-2.934-9.293.106-1.642.5-3.197 1.09-4.543.1-.227.205-.45.315-.667.776-1.502 3.017-4.97 7.113-4.69.156.013.43.04.806.087.394.048.862.112 1.395.184.744.1 1.616.218 2.604.34.115.015.227.026.34.04 11.277 1.37 22.122 1.225 32.432-.355 14.96-2.29 28.777-7.625 41.05-15.935a95.73 95.73 0 0 0 1.933-1.342l6.727-10.062c-20.42 18.395-42.9 23.768-59.99 24.81-9.396.573-17.166-.16-22.043-.766-.174-.022-.323-.04-.49-.063-1.463-.185-2.656-.354-3.508-.46-.426-.055-.77-.09-1.028-.11a9.862 9.862 0 0 0-3.635.43c-2.325.727-4.312 2.297-5.804 4.378-1.845 2.565-2.93 5.9-2.982 9.39-.035 2.87.633 5.84 2.174 8.56.06.11.12.22.184.33.178.3.37.593.57.882.27.395.554.785.867 1.165 3.58 4.413 11.28 7.696 21.55 8.974 6.952.863 15.086.793 23.91-.45 26-4.7 38.36-13.102 44.067-19.003.417-.43.8-.85 1.15-1.25 2.046-2.36 2.967-4.176 3.303-4.96l.046-.108c.085-.204.12-.31.12-.316l-.14.138" fill="#59473D"/><path d="M159.478 118.386c-.82-.447-1.715-.765-2.618-.99a15.545 15.545 0 0 0-2.457-.392c-3.043-.266-5.675.25-5.675.25-.564.128-1.105.274-1.628.434-4.134 1.254-7.012 3.407-9.024 5.89-1.628 2.01-2.686 4.238-3.362 6.387a27.43 27.43 0 0 0-.58 2.208 27.71 27.71 0 0 0-.57 4.792c-.052 1.804.088 2.966.088 2.966a52.49 52.49 0 0 1 2.248-4.372c1.926-3.355 4.014-6.057 6.124-8.228 4.11-4.23 8.3-6.46 11.545-7.634 3.505-1.267 5.908-1.31 5.908-1.31M208.862 112.498l-.138-.182a7.69 7.69 0 0 0-1.687-1.585c-1.57-1.08-3.736-1.642-6.74-1.026 0 0-3.565.842-5.65 3.174 0 0 6.214-2.654 12.792 2.022.6.426 1.2.92 1.8 1.475a22.262 22.262 0 0 1 1.834 1.914s-.26-2.867-1.894-5.336a6.8 6.8 0 0 0-.318-.456" fill="#E1B27E"/><path d="M160.23 158a103.987 103.987 0 0 1 7.724-2.042c.48-2.15.6-4.814.26-7.658-.788-6.67-3.797-11.78-6.718-11.418-2.923.36-4.648 6.06-3.86 12.726.398 3.358 1.36 6.324 2.593 8.39" fill="#59473D"/><path d="M146.674 8.75l-6.127 1.385 1.285 11.238L125.5 13.06l-6.725 2.004.105.12 19.84 22.613.19-.12.257-.16c.617-.394 1.236-.786 1.86-1.173.217-.136.434-.277.652-.41.9-.553 1.8-1.095 2.704-1.634l-8.428-9.654 13.637 6.668.052-.03c.41-.224.818-.45 1.228-.673l-1.257-9.736 6.188 7.157.075-.035c.523-.264 1.036-.514 1.55-.77l.162-.076.25-.127c.088-.042.178-.087.265-.13.22-.107.444-.22.66-.327l.13-.062c.735-.354 1.455-.692 2.176-1.03l-14.4-16.724" fill="#FACE56"/><path fill="#4D94C3" d="M140.587 10.49l-.04-.355.04.357"/><path d="M140.547 10.135l.905-.204c-1.5-.695-3.282-1.192-5.345-1.45-4.132-.52-9.378-.04-15.354 1.504-5.977 1.534-12.678 4.114-19.785 7.654C86.753 24.71 70.928 35.613 55.7 49.505a235.388 235.388 0 0 0-14.823 14.76L59.374 86.92A243.33 243.33 0 0 1 75.69 70.57c7.853-7.16 15.86-13.546 23.775-19.097 7.67-5.374 15.247-9.936 22.54-13.627l-3.21-14.466.085-8.197-.105-.12 6.724-2.004 13.13 6.718-.373-4.574 2.29-5.07" fill="#4D94C3"/><path d="M140.547 10.135l-2.29 5.07.373 4.573 3.202 1.595-1.285-11.238M135.956 24.646l13.637 6.668-5.21 2.986-8.427-9.654M149.616 20.874l1.257 9.737 4.93-2.58-6.187-7.156" fill="#141C26"/><path d="M201.21 17.274c.842-.033 1.665-.042 2.474-.025 2.295.046 4.45.317 6.493.827.11.03.224.045.332.074l.024.008.08.017.2.058.186.056c-.24-.16-.486-.31-.735-.458-2.293-.878-4.72-1.45-7.214-1.772-12.377-1.593-26.47 2.913-34.528 6.113-.442.185-.887.37-1.338.56a188.68 188.68 0 0 0-5.59 2.495c-.174.08-.348.164-.52.246-.722.338-1.442.676-2.176 1.03-.045.02-.087.04-.13.062-.217.106-.442.22-.66.326-.088.044-.178.09-.266.13l-.25.127-.16.076c-.516.255-1.03.505-1.553.77l-.076.035c-.016.01-.032.018-.047.026-.13.062-.252.123-.38.186l-.066.032-.282.15a213.975 213.975 0 0 0-4.065 2.14l-.09.048c-.41.224-.817.45-1.228.675l-.052.03a191.89 191.89 0 0 0-3.98 2.26c-.138.08-.276.158-.415.24l-.352.207c-.11.063-.217.13-.323.195l-.14.083c-.903.54-1.804 1.08-2.704 1.633-.22.134-.436.275-.654.41-.623.388-1.242.78-1.86 1.174l-.255.16-.19.12a239.41 239.41 0 0 0-13.424 9.295c-.353.264-.705.532-1.06.8-7.16 5.39-14.074 11.173-20.7 17.18-6.995 6.344-13.66 12.937-19.956 19.56-3.41 3.418-6.34 6.48-8.73 9.054-4.796 5.165-7.412 8.358-7.304 8.43.043.047.465-.345 1.214-1.094-.62.72-1.24 1.438-1.848 2.153 10.455-11.147 22.05-22.562 34.502-33.317 7.564-6.527 15.434-12.81 23.565-18.64v.002a265.987 265.987 0 0 1 14.354-9.622c.588-.366 1.182-.72 1.772-1.082.333-.204.667-.41 1.004-.613.63-.38 1.265-.755 1.897-1.13.62-.366 1.24-.732 1.862-1.092.326-.186.65-.375.977-.56a186.4 186.4 0 0 1 2.38-1.335c.47-.262.95-.527 1.424-.785l.005-.002c1.5-.818 3.008-1.607 4.52-2.382.124-.065.25-.128.38-.192l.708-.36c.314-.16.624-.322.94-.48.12-.057.235-.12.354-.18l.05-.022c.214-.106.424-.207.636-.31l.133-.063.074-.04c.663-.323 1.32-.642 1.97-.955.117-.054.237-.117.358-.173.21-.103.42-.196.632-.297a314.02 314.02 0 0 1 2.258-1.057c.205-.093.414-.195.617-.287l.32-.142.636-.286c.877-.396 1.748-.787 2.602-1.158.78-.34 1.54-.65 2.3-.972 4.308-1.81 8.356-3.333 12.118-4.543 7.23-2.32 13.474-3.59 18.95-3.826" fill="#FFF"/></svg>