<svg width="256" height="170" viewBox="0 0 256 170" xmlns="http://www.w3.org/2000/svg" preserveAspectRatio="xMidYMid"><path d="M250.392.004c-3.95.127-2.7 1.265-11.236 3.365-8.62 2.12-19.147 1.47-28.428 5.362-27.706 11.62-33.265 51.333-58.452 65.56-18.827 10.633-37.822 11.48-54.9 16.833-11.222 3.52-23.498 10.736-33.667 19.5-7.893 6.802-8.1 12.785-16.346 21.318-8.82 9.128-35.057.155-46.948 14.125 3.83 3.873 5.51 4.958 13.058 3.953-1.562 2.963-10.775 5.46-8.972 9.817 1.898 4.585 24.17 7.693 44.417-4.53 9.428-5.693 16.938-13.9 31.623-15.857 19.003-2.533 40.895 1.624 62.894 4.797-3.262 9.726-9.81 16.194-15.057 23.94-1.625 1.75 3.263 1.946 8.84.89 10.03-2.482 17.257-4.48 24.827-8.885 9.3-5.414 10.71-19.293 22.12-22.297 6.357 9.772 23.65 12.08 34.378 4.264-9.415-2.666-12.017-22.706-8.84-31.536 3.012-8.36 5.986-21.73 9.018-32.78 3.255-11.866 4.455-26.823 8.394-32.868 5.927-9.094 12.475-12.217 18.16-17.345 5.686-5.128 10.89-10.12 10.72-21.854-.056-3.78-2.01-5.886-5.605-5.772z" fill="#002B64"/><path d="M8.594 159c14.418 2.066 23.186 0 34.764-5.02 9.852-4.273 19.366-13.08 31-16.815 17.085-5.482 35.82.007 54.085 1.102 4.448.267 8.867.27 13.23-.205 6.802-4.182 6.662-19.823 13.284-21.256-.195 21.945-9.192 35.094-18.6 47.826 19.83-3.502 31.696-14.972 39.71-30.29 2.433-4.646 4.51-9.643 6.345-14.88 2.84 2.178 1.23 8.807 2.657 12.4 13.658-7.61 21.48-24.974 26.66-42.536 5.99-20.325 8.444-40.906 12.31-46.92 3.77-5.87 9.64-9.488 15-13.246 6.088-4.273 11.52-8.726 12.457-16.867-6.42-.594-7.906-2.08-8.856-5.316-3.214 1.812-6.17 2.2-9.51 2.3-2.898.088-6.082-.04-9.97.358C191 12.938 186.91 48.385 166.3 68.48c-1.5 1.46-3.122 2.824-4.836 4.103-7.22 5.38-16.076 9.224-24.22 12.337-13.183 5.037-25.716 5.395-38.084 9.743-9.08 3.19-18.306 7.82-25.763 12.924-1.865 1.275-3.622 2.58-5.238 3.903-4.377 3.58-7.25 7.553-10.028 11.64-2.866 4.21-5.633 8.543-9.85 12.682-6.835 6.71-32.37 1.957-41.36 8.18-1.003.692-1.8 1.523-2.34 2.52 4.905 2.23 8.18.862 13.824 1.486.74 5.355-11.642 8.537-9.812 11.003zM203.435 120.426c.384 6.143 3.95 18.33 7.098 21.293-6.166 1.498-16.787-.98-19.512-5.328 1.4-6.28 8.687-12.02 12.415-15.966z" fill="#FFF"/><path d="M212.468 22.935c4.552 3.952 14.105.78 12.398-7.084-7.074-.585-11.172 1.816-12.398 7.085zM244.207 13.744c-1.21 2.54-3.53 5.815-3.53 12.28-.01 1.11-.842 1.87-.856.16.064-6.32 1.736-9.05 3.513-12.64.826-1.472 1.323-.865.874.2z" fill="#002B64"/><path d="M242.988 12.788c-1.43 2.423-4.868 6.844-5.437 13.285-.104 1.104-1.002 1.788-.866.08.62-6.287 3.37-10.223 5.455-13.644.946-1.392 1.39-.744.848.278zM241.876 11.52c-1.627 2.294-6.922 7.603-8.03 13.975-.198 1.09-1.15 1.698-.87.008 1.146-6.215 5.71-11.1 8.076-14.33 1.06-1.31 1.448-.626.824.347zM240.884 10.106c-1.933 2.042-8.245 8.812-10.235 14.964-.353 1.05-1.38 1.52-.865-.114 2.007-5.992 7.535-12.447 10.332-15.312 1.235-1.147 1.522-.415.767.462z" fill="#002B64"/></svg>