<svg width="512" height="146" viewBox="0 0 512 146" xmlns="http://www.w3.org/2000/svg"><g fill="none" fill-rule="evenodd"><path d="M476.713 60.463c-.46.092-.922 1.107-.922 1.66-.09 3.692-.183 13.474-.183 20.118 0 .186.276.555.553.555 1.384.092 4.706.184 7.567.184 3.968 0 6.275-.554 7.568-1.107 3.32-1.662 4.89-5.26 4.89-9.23 0-8.95-6.275-12.365-15.596-12.365-.647-.092-2.492-.092-3.877.185zm23.81 41.25c0-9.136-6.737-14.212-18.918-14.212-.554 0-4.43-.09-5.353.093-.277.093-.645.278-.645.555 0 6.55-.093 16.98.184 21.04.185 1.753 1.478 4.245 3.047 4.983 1.66.924 5.444 1.108 8.028 1.108 7.29 0 13.658-4.06 13.658-13.565zM457.89 55.388c.92 0 3.69.276 10.795.276 6.737 0 12.09-.184 18.64-.184 8.03 0 19.103 2.86 19.103 14.857 0 5.906-4.153 10.613-9.597 12.92-.275.092-.275.276 0 .368 7.752 1.94 14.582 6.737 14.582 15.78 0 8.86-5.537 14.49-13.566 17.996-4.89 2.123-10.98 2.86-17.164 2.86-4.707 0-17.35-.552-24.362-.367-.738-.278.646-3.6 1.29-4.153 1.663-.093 2.954-.185 4.708-.74 2.492-.644 2.768-1.383 3.137-5.166.185-3.23.185-14.674.185-22.794 0-11.166.093-18.733 0-22.424-.092-2.86-1.107-3.784-3.137-4.338-1.57-.276-4.153-.646-6.276-.922-.462-.462 1.107-3.6 1.662-3.968zm-53.25 57.4c2.217 1.75 6.554 2.49 10.43 2.49 4.983 0 9.966-.922 14.765-5.26 4.89-4.43 8.305-11.258 8.305-22.147 0-10.428-3.968-18.918-12.09-23.9-4.613-2.862-10.52-4.06-17.348-4.06-2.03 0-3.968.092-5.167.645-.278.185-.923 1.015-.923 1.476-.185 1.847-.185 16.058-.185 24.364 0 8.582 0 20.58.185 21.963 0 1.385.645 3.507 2.03 4.43zm-20.947-57.4c1.754 0 8.49.276 11.72.276 5.815 0 9.967-.276 20.948-.276 9.23 0 16.98 2.49 22.518 7.197 6.736 5.814 10.244 13.843 10.244 23.624 0 13.934-6.368 21.963-12.736 26.577-6.366 4.706-14.672 7.474-26.484 7.474-6.275 0-17.072-.183-26.024-.276h-.092c-.46-.83.738-4.06 1.476-4.152 2.4-.277 3.046-.37 4.246-.83 1.937-.74 2.307-1.754 2.584-5.168.276-6.368.184-14.027.184-22.702 0-6.182.092-18.272-.093-22.148-.276-3.23-1.66-4.06-4.43-4.614-1.383-.276-3.23-.646-5.812-.922-.37-.647 1.292-3.507 1.753-4.06z" fill="#8E714E"/><path d="M272.033 116.385c-2.307-.277-3.968-.645-5.998-1.568-.277-.185-.74-1.107-.74-1.477-.183-3.23-.183-12.458-.183-18.64 0-4.984-.83-9.32-2.953-12.366-2.493-3.508-6.092-5.537-10.706-5.537-4.06 0-9.505 2.768-14.027 6.644-.092.093-.83.74-.738-.276 0-1.015.184-3.045.276-4.43.093-1.292-.646-1.937-.646-1.937-2.953 1.476-11.258 3.414-14.304 3.69-2.214.463-2.768 2.585-.46 3.323h.092c2.49.738 4.152 1.57 5.443 2.4.924.738.832 1.753.832 2.584.092 6.92.092 17.533-.184 23.347-.092 2.308-.738 3.138-2.4 3.507l.185-.092c-1.292.277-2.307.553-3.876.738-.554.554-.554 3.507 0 4.153 1.015 0 6.367-.277 10.798-.277 6.09 0 9.228.276 10.796.276.647-.738.832-3.507.463-4.153-1.754-.092-3.046-.276-4.245-.646-1.66-.37-2.123-1.2-2.216-3.137-.183-4.892-.183-15.227-.183-22.24 0-1.938.552-2.86 1.105-3.415 2.123-1.845 5.538-3.137 8.583-3.137 2.953 0 4.89.923 6.367 2.123 2.03 1.66 2.676 4.06 2.953 5.814.46 3.968.277 11.812.277 18.64 0 3.692-.277 4.615-1.66 5.076-.647.277-2.308.647-4.246.83-.647.647-.462 3.508 0 4.154 2.675 0 5.813-.277 10.427-.277 5.72 0 9.413.277 10.89.277.46-.554.645-3.23.276-3.97zm25.562-35.25c-4.89 0-7.936 3.783-7.936 9.688 0 6 2.675 12.92 10.242 12.92 1.292 0 3.692-.554 4.798-1.846 1.754-1.66 2.954-4.983 2.954-8.49 0-7.66-3.784-12.273-10.06-12.273zm-.646 40.787c-1.846 0-3.14.554-3.97 1.016-3.875 2.49-5.628 4.89-5.628 7.752 0 2.675 1.015 4.797 3.23 6.643 2.676 2.307 6.367 3.415 11.073 3.415 9.413 0 13.566-5.076 13.566-10.058 0-3.508-1.753-5.815-5.35-7.106-2.585-1.108-7.292-1.662-12.92-1.662zm.645 23.994c-5.63 0-9.69-1.2-13.196-3.876-3.416-2.584-4.892-6.46-4.892-9.136 0-.738.185-2.77 1.846-4.614 1.014-1.108 3.23-3.23 8.49-6.83.184-.09.276-.183.276-.368s-.185-.37-.37-.46c-4.336-1.662-5.628-4.34-5.998-5.815v-.185c-.09-.554-.276-1.107.555-1.66.646-.462 1.57-1.016 2.583-1.662 1.57-.923 3.23-1.938 4.245-2.77.185-.183.185-.367.185-.552 0-.185-.185-.37-.37-.46-6.458-2.124-9.688-6.923-9.688-14.12 0-4.707 2.122-8.952 5.905-11.628 2.584-2.03 9.044-4.522 13.29-4.522h.276c4.337.092 6.736 1.015 10.15 2.215 1.846.646 3.6.922 6 .922 3.598 0 5.167-1.107 6.458-2.398.094.184.28.646.37 1.845.093 1.2-.276 2.953-1.2 4.245-.737 1.015-2.398 1.754-4.06 1.754h-.46c-1.662-.184-2.4-.37-2.4-.37l-.37.186c-.09.185 0 .37.093.646l.093.185c.184.83.553 3.32.553 3.968 0 7.567-3.046 10.888-6.276 13.38-3.138 2.307-6.736 3.783-10.797 4.153-.092 0-.46 0-1.292.092-.46 0-1.107.093-1.2.093h-.092c-.738.184-2.583 1.107-2.583 2.675 0 1.384.83 3.046 4.798 3.323.83.093 1.66.093 2.584.186 5.26.368 11.812.83 14.857 1.845 4.244 1.57 6.92 5.353 6.92 9.875 0 6.83-4.89 13.197-13.01 17.164-3.97 1.753-7.938 2.676-12.275 2.676zm52.6-64.32c-1.937 0-3.69.46-4.983 1.383-3.598 2.214-5.444 6.644-5.444 13.103 0 12.09 6.09 20.58 14.765 20.58 2.584 0 4.614-.74 6.367-2.215 2.676-2.216 4.06-6.645 4.06-12.828 0-11.996-5.998-20.025-14.764-20.025zm1.662 39.496c-15.688 0-21.317-11.535-21.317-22.332 0-7.567 3.045-13.38 9.135-17.534 4.338-2.676 9.506-4.152 14.12-4.152 11.996 0 20.394 8.582 20.394 20.948 0 8.397-3.323 15.04-9.69 19.102-3.046 2.03-8.306 3.968-12.644 3.968zM187.41 81.595c-1.937 0-3.69.46-4.983 1.384-3.598 2.214-5.444 6.644-5.444 13.103 0 12.09 6.09 20.58 14.765 20.58 2.584 0 4.614-.74 6.368-2.215 2.675-2.216 4.06-6.645 4.06-12.828 0-11.996-5.906-20.025-14.765-20.025zm1.662 39.497c-15.688 0-21.317-11.535-21.317-22.332 0-7.567 3.045-13.38 9.135-17.534 4.338-2.676 9.506-4.152 14.12-4.152 11.997 0 20.394 8.582 20.394 20.948 0 8.397-3.322 15.04-9.69 19.102-2.953 2.03-8.213 3.968-12.642 3.968zm-105.478-.923c-.185-.277-.37-1.108-.277-2.123 0-.74.185-1.2.277-1.384 1.938-.278 2.953-.555 4.06-.83 1.846-.463 2.584-1.477 2.676-3.784.278-5.538.278-16.06.185-23.35v-.184c0-.83 0-1.846-1.015-2.584-1.477-.922-3.23-1.752-5.537-2.4-.83-.275-1.384-.737-1.292-1.29 0-.554.555-1.2 1.755-1.385 3.045-.277 10.98-2.214 14.118-3.6.185.185.462.74.462 1.478l-.092 1.014c-.093 1.015-.185 2.215-.185 3.414 0 .37.37.646.738.646.185 0 .37-.092.554-.185 5.906-4.614 11.258-6.275 14.026-6.275 4.523 0 8.03 2.123 10.706 6.552.184.278.37.37.646.37.184 0 .46-.092.553-.277 5.446-4.153 10.89-6.645 14.49-6.645 8.58 0 13.657 6.368 13.657 17.165 0 3.045 0 7.013-.092 10.613 0 3.23-.092 6.182-.092 8.305 0 .46.645 1.937 1.66 2.214 1.292.646 3.046.923 5.353 1.292h.092c.185.645-.184 3.044-.553 3.506-.554 0-1.385 0-2.307-.092a136.208 136.208 0 0 0-7.014-.185c-5.72 0-8.674.09-11.536.276-.183-.738-.276-2.953 0-3.507 1.662-.277 2.492-.555 3.508-.832 1.846-.553 2.307-1.384 2.4-3.783 0-1.753.368-16.703-.186-20.302-.553-3.69-3.322-8.028-9.413-8.028-2.307 0-5.905.923-9.412 3.598-.184.185-.37.646-.37.923v.093c.37 1.936.37 4.152.37 7.566v5.998c0 4.153-.093 8.03 0 10.98 0 2.032 1.2 2.493 2.215 2.863.554.09.922.184 1.384.276.83.185 1.66.37 2.953.646.185.368.185 1.568-.092 2.583-.093.554-.278.83-.37.923-3.137-.092-6.367-.185-11.073-.185-1.384 0-3.784.094-5.814.094-1.662 0-3.23.092-4.152.092-.093-.185-.278-.83-.278-1.846 0-.83.185-1.476.37-1.66.46-.093.83-.185 1.292-.185 1.106-.185 2.03-.37 2.952-.554 1.57-.46 2.123-1.29 2.215-3.32.277-4.615.554-17.81-.092-21.134-1.107-5.352-4.152-8.028-9.044-8.028-2.86 0-6.46 1.384-9.41 3.6-.463.368-.832 1.29-.832 2.12v5.446c0 6.644 0 14.95.092 18.55.093 1.105.46 2.398 2.584 2.86.462.09 1.2.276 2.123.37l1.66.275c.186.553.093 2.768-.276 3.506-.922 0-2.03-.092-3.322-.092-1.937-.093-4.43-.185-7.197-.185-3.23 0-5.536.09-7.382.184-1.292-.185-2.307-.185-3.414-.185z" fill="#442D22"/><path d="M35.053 142.317l-3.783-1.293s.462-19.286-6.46-20.67c-4.613-5.353.74-227.013 17.35-.74 0 0-5.722 2.862-6.737 7.753-1.108 4.8-.37 14.95-.37 14.95z" fill="#FFF"/><path d="M35.053 142.317l-3.783-1.293s.462-19.286-6.46-20.67c-4.613-5.353.74-227.013 17.35-.74 0 0-5.722 2.862-6.737 7.753-1.108 4.8-.37 14.95-.37 14.95z" fill="#A6A385"/><path d="M37.084 123.676s33.13-21.78 25.377-67.09c-7.473-32.943-25.1-43.74-27.037-47.893C33.3 5.74 31.27.573 31.27.573l1.385 91.634c0 .093-2.86 28.054 4.43 31.47" fill="#FFF"/><path d="M37.084 123.676s33.13-21.78 25.377-67.09c-7.473-32.943-25.1-43.74-27.037-47.893C33.3 5.74 31.27.573 31.27.573l1.385 91.634c0 .093-2.86 28.054 4.43 31.47" fill="#499D4A"/><path d="M29.333 124.875S-1.767 103.65.08 66.277C1.83 28.903 23.794 10.54 28.04 7.217c2.77-2.953 2.86-4.06 3.046-7.014 1.938 4.153 1.57 62.106 1.845 68.934.832 26.3-1.475 50.756-3.597 55.738z" fill="#FFF"/><path d="M29.333 124.875S-1.767 103.65.08 66.277C1.83 28.903 23.794 10.54 28.04 7.217c2.77-2.953 2.86-4.06 3.046-7.014 1.938 4.153 1.57 62.106 1.845 68.934.832 26.3-1.475 50.756-3.597 55.738z" fill="#58AA50"/></g></svg>