<svg width="256" height="252" viewBox="0 0 256 252" xmlns="http://www.w3.org/2000/svg" preserveAspectRatio="xMidYMid"><path d="M235.648 194.212c-13.918-.347-24.705 1.045-33.752 4.872-2.61 1.043-6.786 1.044-7.134 4.35 1.392 1.392 1.566 3.654 2.784 5.567 2.09 3.48 5.74 8.178 9.047 10.615 3.653 2.783 7.308 5.566 11.134 8.002 6.786 4.176 14.442 6.61 21.053 10.787 3.83 2.434 7.654 5.568 11.482 8.177 1.914 1.392 3.13 3.655 5.568 4.524v-.52c-1.22-1.568-1.567-3.83-2.784-5.57-1.738-1.74-3.48-3.305-5.22-5.045-5.045-6.785-11.308-12.7-18.093-17.572-5.567-3.828-17.747-9.047-20.008-15.485 0 0-.175-.173-.348-.347 3.827-.348 8.35-1.74 12.005-2.784 5.915-1.567 11.308-1.218 17.398-2.784 2.783-.696 5.567-1.566 8.35-2.436v-1.565c-3.13-3.132-5.392-7.307-8.698-10.265-8.873-7.657-18.617-15.137-28.707-21.4-5.394-3.48-12.354-5.742-18.095-8.7-2.086-1.044-5.567-1.565-6.784-3.305-3.133-3.827-4.873-8.872-7.134-13.396-5.044-9.57-9.917-20.18-14.267-30.27-3.13-6.787-5.044-13.573-8.872-19.835-17.92-29.577-37.406-47.497-67.33-65.07-6.438-3.653-14.093-5.22-22.27-7.132-4.348-.175-8.7-.522-13.048-.697-2.784-1.218-5.568-4.523-8.004-6.09C34.007 4.574 8.43-8.995 1.123 8.925c-4.698 11.308 6.96 22.442 10.96 28.185 2.96 4 6.786 8.523 8.874 13.047 1.218 2.956 1.565 6.09 2.783 9.22 2.784 7.654 5.392 16.18 9.047 23.315 1.914 3.653 4 7.48 6.437 10.786 1.392 1.913 3.827 2.784 4.35 5.915-2.435 3.48-2.61 8.7-4.003 13.05-6.262 19.658-3.825 44.016 5.047 58.456 2.783 4.347 9.395 13.918 18.268 10.264 7.83-3.13 6.09-13.048 8.35-21.747.524-2.09.176-3.48 1.22-4.872v.35c2.435 4.87 4.87 9.568 7.132 14.44 5.394 8.523 14.788 17.397 22.617 23.313 4.177 3.13 7.482 8.524 12.702 10.438v-.523h-.35c-1.043-1.566-2.608-2.26-4-3.48-3.13-3.13-6.612-6.958-9.047-10.438-7.307-9.744-13.746-20.53-19.487-31.665-2.783-5.392-5.22-11.308-7.48-16.7-1.046-2.09-1.046-5.22-2.785-6.264-2.61 3.827-6.437 7.133-8.35 11.83-3.305 7.48-3.654 16.702-4.872 26.27-.696.176-.35 0-.697.35-5.567-1.394-7.482-7.134-9.57-12.006-5.22-12.352-6.09-32.186-1.565-46.452 1.218-3.654 6.438-15.136 4.35-18.616-1.044-3.306-4.525-5.22-6.438-7.83-2.26-3.305-4.698-7.48-6.263-11.134-4.176-9.743-6.264-20.53-10.787-30.273-2.088-4.524-5.74-9.22-8.7-13.396-3.304-4.698-6.958-8.005-9.568-13.572-.87-1.913-2.09-5.045-.697-7.133.348-1.392 1.043-1.913 2.436-2.26 2.26-1.916 8.698.52 10.96 1.564 6.437 2.607 11.83 5.045 17.224 8.698 2.435 1.74 5.045 5.046 8.176 5.916h3.654c5.568 1.217 11.83.348 17.05 1.913 9.222 2.957 17.572 7.307 25.054 12.005 22.792 14.44 41.58 34.97 54.282 59.5 2.088 4.002 2.957 7.657 4.87 11.832 3.656 8.525 8.18 17.224 11.832 25.575 3.653 8.175 7.132 16.527 12.352 23.313 2.61 3.652 13.048 5.567 17.746 7.48 3.48 1.566 8.874 2.96 12.005 4.872 5.915 3.652 11.83 7.83 17.398 11.83 2.784 2.088 11.482 6.438 12.005 9.917z" fill="#00546B"/><path d="M58.186 43.022c-2.957 0-5.044.35-7.132.87v.35h.348c1.393 2.783 3.827 4.697 5.566 7.132 1.393 2.783 2.61 5.568 4.003 8.352l.348-.348c2.437-1.74 3.654-4.524 3.654-8.7-1.044-1.217-1.218-2.435-2.088-3.653-1.043-1.74-3.306-2.61-4.698-4.003z" fill="#00546B"/></svg>