<svg width="256" height="208" viewBox="0 0 256 208" xmlns="http://www.w3.org/2000/svg" preserveAspectRatio="xMidYMid"><path d="M123.326 172.74c-38.872 0-70.37-31.51-70.37-70.38 0-38.86 31.498-70.363 70.37-70.363 38.86 0 70.368 31.503 70.368 70.363 0 38.87-31.507 70.38-70.368 70.38zm130.79-96.328c-12.005-55.2-78.198-87.67-147.853-72.525C36.61 19.032-10.13 76.06 1.876 131.255c12.002 55.2 78.198 87.67 147.852 72.524 69.654-15.147 116.39-72.175 104.39-127.368z" fill="#37808C"/><path d="M122.998 171.402c-38.216 0-69.184-30.976-69.184-69.19 0-38.206 30.968-69.177 69.184-69.177 38.205 0 69.18 30.97 69.18 69.176 0 38.216-30.975 69.192-69.18 69.192zm17.53-156.335c-49.7 0-90 40.295-90 89.996 0 49.704 40.3 90 90 90 49.697 0 90-40.296 90-90 0-49.7-40.303-89.996-90-89.996z" fill="#9BD3CD"/><g fill="#1B1A19"><path d="M98.016 94.95l-7.548-15.827c-1.8-3.75-3.652-7.986-4.285-9.983l-.146.146c.244 2.825.293 6.38.34 9.35l.196 16.313H81.07V61.25h6.33l8.18 16.46c1.56 3.115 3.02 7.108 3.46 8.666l.145-.146c-.146-1.704-.487-6.525-.487-9.593L98.6 61.25h5.308V94.95h-5.892M118.662 73.766c-3.02 0-4.675 2.386-4.675 6.38h9.106c0-3.994-1.753-6.38-4.43-6.38zm-4.724 10.324v.39c0 3.408 1.267 7.01 6.087 7.01 2.29 0 4.286-.826 6.136-2.433l2.095 3.262c-2.58 2.19-5.552 3.262-8.862 3.262-6.964 0-11.347-5.016-11.347-12.905 0-4.333.926-7.207 3.068-9.64 1.997-2.29 4.43-3.313 7.548-3.313 2.434 0 4.675.634 6.768 2.533 2.143 1.948 3.214 4.967 3.214 10.713v1.12h-14.706zM157.13 95.046h-5.017l-3.02-11.346c-.778-2.922-1.606-6.72-1.606-6.72h-.097s-.39 2.435-1.607 6.964l-2.97 11.102h-5.016l-6.72-24.396 5.308-.73 2.678 11.93c.682 3.067 1.266 6.476 1.266 6.476h.146s.486-3.214 1.41-6.623l3.167-11.394h5.26l2.774 11.1c1.023 3.994 1.56 7.014 1.56 7.014h.145s.584-3.75 1.217-6.623l2.53-11.49h5.553l-6.964 24.736M85.995 109.153h-3.068v10.665H85.8c2.922 0 4.48-.39 5.503-1.412.925-.926 1.51-2.338 1.51-4.09 0-3.41-1.85-5.163-6.818-5.163zm7.79 29.17l-2.92-5.212c-2.338-4.138-3.896-6.475-5.746-8.326-.635-.633-1.12-.973-2.193-1.022v14.56h-5.502v-33.697H87.7c7.547 0 10.956 4.382 10.956 9.64 0 4.822-3.117 9.253-8.376 9.253 1.218.633 3.457 3.896 5.21 6.72l4.968 8.084h-6.672zM112.532 117.14c-3.018 0-4.674 2.386-4.674 6.378h9.106c0-3.992-1.753-6.38-4.432-6.38zm-4.723 10.323v.39c0 3.408 1.265 7.012 6.086 7.012 2.29 0 4.285-.83 6.136-2.435l2.093 3.262c-2.58 2.19-5.55 3.263-8.862 3.263-6.964 0-11.346-5.016-11.346-12.904 0-4.334.925-7.207 3.068-9.64 1.996-2.29 4.43-3.312 7.547-3.312 2.435 0 4.675.633 6.77 2.532 2.142 1.948 3.213 4.967 3.213 10.713v1.12H107.81zM132.545 138.857c-5.405 0-5.405-4.87-5.405-6.963v-20.988c0-3.36-.146-5.162-.487-7.207l5.502-1.218c.39 1.51.438 3.555.438 6.768v20.89c0 3.312.146 3.848.536 4.433.29.438 1.12.68 1.752.39l.876 3.31c-.973.39-1.996.584-3.213.584M139.167 138.322v-24.25l5.405-.974v25.224h-5.405zm2.678-28.292c-1.948 0-3.458-1.607-3.458-3.555 0-1.996 1.558-3.603 3.555-3.603 1.9 0 3.506 1.558 3.506 3.603 0 1.948-1.607 3.555-3.603 3.555zM159.91 138.955c-6.72 0-10.47-4.723-10.47-12.66 0-8.96 5.357-13.246 10.86-13.246 2.678 0 4.625.632 6.816 2.677l-2.678 3.555c-1.46-1.315-2.726-1.9-4.14-1.9-1.703 0-3.115.877-3.894 2.484-.73 1.51-1.023 3.8-1.023 6.866 0 3.36.537 5.503 1.657 6.72.78.877 1.947 1.413 3.262 1.413 1.704 0 3.36-.83 4.966-2.435l2.532 3.262c-2.24 2.24-4.577 3.263-7.888 3.263M172.65 133.903c-.088-.03-.263-.058-.458-.058h-.292v1.098h.273c.35 0 .505-.04.612-.136.097-.097.156-.243.156-.408 0-.254-.096-.42-.29-.497zm.427 3.344c-.156-.272-.224-.38-.38-.67-.398-.73-.524-.934-.67-.992-.04-.02-.078-.03-.127-.03v1.692h-.797v-4.054h1.507c.72 0 1.196.477 1.196 1.186 0 .612-.408 1.107-.904 1.117.078.068.116.107.165.175.233.292.972 1.575.972 1.575h-.963zm-.71-4.9c-1.536 0-2.77 1.283-2.77 2.897 0 1.614 1.234 2.917 2.77 2.917s2.78-1.302 2.78-2.916c0-1.614-1.244-2.897-2.78-2.897zm0 6.514c-1.973 0-3.597-1.593-3.597-3.616 0-2.012 1.624-3.616 3.597-3.616 1.974 0 3.597 1.604 3.597 3.616 0 2.023-1.623 3.617-3.597 3.617z"/></g></svg>