<svg width="256" height="282" viewBox="0 0 256 282" xmlns="http://www.w3.org/2000/svg" preserveAspectRatio="xMidYMid"><g fill="#8CC84B"><path d="M116.504 3.58c6.962-3.985 16.03-4.003 22.986 0 34.995 19.774 70 39.517 104.99 59.303 6.58 3.707 10.983 11.03 10.916 18.614v118.968c.05 7.897-4.788 15.396-11.73 19.02-34.88 19.664-69.743 39.353-104.617 59.018-7.107 4.063-16.357 3.75-23.24-.646-10.458-6.062-20.933-12.094-31.39-18.15-2.138-1.274-4.547-2.288-6.056-4.36 1.334-1.798 3.72-2.022 5.657-2.807 4.366-1.388 8.375-3.616 12.385-5.778 1.014-.694 2.252-.428 3.224.193 8.94 5.127 17.804 10.403 26.776 15.48 1.914 1.106 3.852-.36 5.488-1.273 34.228-19.345 68.498-38.617 102.72-57.968 1.268-.61 1.97-1.956 1.866-3.345.024-39.246.006-78.498.012-117.743.145-1.576-.767-3.025-2.192-3.67-34.76-19.575-69.5-39.18-104.253-58.76-1.244-.845-2.85-.85-4.094-.006C91.2 39.258 56.465 58.88 21.713 78.455c-1.42.646-2.374 2.07-2.205 3.653.006 39.245 0 78.497 0 117.748-.12 1.39.628 2.705 1.89 3.303 9.274 5.26 18.56 10.48 27.84 15.722 5.228 2.814 11.647 4.486 17.407 2.33 5.083-1.823 8.646-7.01 8.55-12.407.047-39.016-.025-78.038.035-117.048-.127-1.732 1.516-3.163 3.2-3 4.456-.03 8.918-.06 13.374.012 1.86-.042 3.14 1.823 2.91 3.568-.018 39.263.048 78.527-.03 117.79.012 10.464-4.287 21.85-13.966 26.97-11.924 6.177-26.662 4.867-38.442-1.056-10.198-5.09-19.93-11.098-29.947-16.55C5.367 215.885.554 208.356.603 200.465V81.497c-.073-7.74 4.504-15.197 11.29-18.85C46.768 42.966 81.636 23.27 116.504 3.58z"/><path d="M146.928 85.99c15.21-.98 31.493-.58 45.18 6.913 10.597 5.742 16.472 17.793 16.66 29.566-.297 1.587-1.957 2.463-3.473 2.354-4.413-.006-8.827.06-13.24-.03-1.872.072-2.96-1.654-3.195-3.31-1.268-5.632-4.34-11.21-9.642-13.928-8.14-4.075-17.576-3.87-26.45-3.785-6.48.345-13.447.906-18.936 4.716-4.214 2.886-5.494 8.712-3.99 13.404 1.418 3.37 5.307 4.456 8.49 5.458 18.33 4.794 37.753 4.317 55.733 10.626 7.444 2.572 14.726 7.572 17.274 15.366 3.332 10.446 1.87 22.932-5.562 31.318-6.026 6.9-14.804 10.657-23.56 12.697-11.646 2.597-23.733 2.663-35.56 1.51-11.123-1.268-22.697-4.19-31.283-11.768-7.342-6.375-10.928-16.308-10.572-25.895.085-1.62 1.697-2.748 3.248-2.615 4.445-.036 8.89-.048 13.333.006 1.775-.127 3.09 1.407 3.182 3.08.82 5.367 2.837 11 7.517 14.182 9.032 5.827 20.365 5.428 30.707 5.59 8.567-.38 18.185-.494 25.177-6.157 3.69-3.23 4.782-8.634 3.785-13.283-1.08-3.925-5.186-5.754-8.712-6.95-18.095-5.724-37.736-3.647-55.656-10.12-7.275-2.57-14.31-7.432-17.105-14.906-3.9-10.58-2.114-23.663 6.097-31.766 8.006-8.06 19.563-11.164 30.55-12.275z"/></g></svg>