<svg width="256" height="264" viewBox="0 0 256 264" xmlns="http://www.w3.org/2000/svg" preserveAspectRatio="xMidYMid"><path d="M255.008 158.086c-1.535-4.65-5.556-7.887-10.756-8.664-2.452-.366-5.26-.21-8.583.475-5.793 1.195-10.09 1.65-13.226 1.738 11.837-19.985 21.462-42.775 27.003-64.228 8.96-34.69 4.172-50.492-1.423-57.64C233.217 10.847 211.614.683 185.552.372c-13.903-.17-26.108 2.575-32.475 4.55-5.928-1.047-12.302-1.63-18.99-1.74-12.537-.2-23.614 2.534-33.08 8.15-5.24-1.77-13.65-4.27-23.36-5.863-22.843-3.75-41.253-.83-54.72 8.684C6.623 25.672-.936 45.684.462 73.634c.445 8.874 5.41 35.874 13.225 61.48 4.492 14.718 9.282 26.94 14.237 36.33C34.95 184.76 42.468 192.6 50.91 195.416c4.73 1.576 13.326 2.68 22.367-4.85 1.146 1.388 2.675 2.767 4.704 4.048 2.578 1.625 5.73 2.953 8.876 3.74 11.34 2.835 21.964 2.126 31.027-1.848.056 1.612.1 3.152.135 4.482.06 2.157.12 4.272.2 6.25.536 13.374 1.446 23.773 4.142 31.05.148.4.347 1.01.557 1.656 1.345 4.118 3.594 11.012 9.316 16.41 5.925 5.594 13.092 7.31 19.656 7.31 3.29 0 6.432-.433 9.187-1.023 9.82-2.104 20.973-5.31 29.04-16.798 7.63-10.86 11.337-27.217 12.008-52.99.087-.73.167-1.425.244-2.088.052-.448.105-.905.16-1.362l1.796.158.463.03c10 .457 22.23-1.664 29.742-5.153 5.935-2.754 24.954-12.795 20.476-26.35"/><path d="M237.906 160.722c-29.74 6.135-31.785-3.934-31.785-3.934 31.402-46.593 44.528-105.736 33.2-120.21-30.903-39.486-84.398-20.812-85.29-20.328l-.288.052c-5.876-1.22-12.45-1.946-19.842-2.067-13.456-.22-23.664 3.528-31.41 9.402 0 0-95.43-39.314-90.99 49.444.943 18.883 27.063 142.874 58.217 105.423 11.387-13.695 22.39-25.274 22.39-25.274 5.464 3.63 12.006 5.48 18.864 4.816l.534-.452c-.166 1.7-.09 3.363.213 5.332-8.026 8.967-5.667 10.54-21.71 13.844-16.236 3.346-6.7 9.302-.472 10.86 7.55 1.887 25.013 4.56 36.813-11.958l-.47 1.885c3.144 2.52 5.352 16.383 4.982 28.952-.37 12.567-.617 21.196 1.86 27.936 2.48 6.74 4.948 21.905 26.04 17.386 17.623-3.777 26.756-13.564 28.027-29.89.9-11.606 2.942-9.89 3.07-20.267l1.637-4.912c1.887-15.733.3-20.81 11.157-18.448l2.64.232c7.992.363 18.45-1.286 24.59-4.14 13.218-6.133 21.058-16.376 8.024-13.685h.002" fill="#336791"/><path d="M108.076 81.525c-2.68-.373-5.107-.028-6.335.902-.69.523-.903 1.13-.96 1.546-.155 1.105.62 2.327 1.095 2.957 1.346 1.784 3.312 3.01 5.258 3.28.282.04.563.058.842.058 3.245 0 6.196-2.527 6.456-4.392.326-2.336-3.065-3.893-6.354-4.35M196.86 81.6c-.256-1.832-3.514-2.354-6.606-1.924-3.088.43-6.082 1.824-5.832 3.66.2 1.426 2.777 3.862 5.827 3.862.257 0 .517-.017.78-.054 2.035-.282 3.53-1.575 4.238-2.32 1.082-1.136 1.707-2.402 1.592-3.225" fill="#FFF"/><path d="M247.802 160.025c-1.134-3.43-4.784-4.532-10.848-3.28-18.005 3.716-24.453 1.142-26.57-.417 13.995-21.32 25.508-47.092 31.72-71.137 2.94-11.39 4.566-21.967 4.7-30.588.146-9.464-1.466-16.418-4.79-20.666-13.402-17.125-33.072-26.31-56.882-26.563-16.37-.184-30.2 4.005-32.88 5.183-5.646-1.404-11.8-2.266-18.502-2.376-12.288-.2-22.91 2.743-31.704 8.74-3.82-1.422-13.692-4.81-25.765-6.756-20.87-3.36-37.457-.814-49.293 7.57-14.123 10.007-20.643 27.893-19.38 53.16.425 8.502 5.27 34.654 12.913 59.7 10.062 32.963 21 51.624 32.508 55.463 1.347.45 2.9.763 4.613.763 4.2 0 9.346-1.892 14.7-8.33 8.896-10.7 17.2-19.668 20.262-22.926 4.524 2.428 9.494 3.784 14.577 3.92.008.133.022.266.034.398-1.02 1.21-1.857 2.27-2.57 3.175-3.522 4.47-4.255 5.402-15.592 7.736-3.225.666-11.79 2.43-11.916 8.435-.136 6.56 10.125 9.315 11.294 9.607 4.074 1.02 8 1.523 11.742 1.523 9.103 0 17.114-2.992 23.516-8.78-.197 23.385.778 46.43 3.586 53.45 2.3 5.748 7.918 19.795 25.664 19.794 2.604 0 5.47-.303 8.623-.98 18.522-3.97 26.565-12.155 29.676-30.202 1.665-9.645 4.522-32.676 5.866-45.03 2.836.885 6.487 1.29 10.434 1.29 8.232 0 17.73-1.75 23.688-4.515 6.692-3.108 18.768-10.734 16.578-17.36zm-44.106-83.48c-.06 3.647-.563 6.958-1.095 10.414-.572 3.716-1.164 7.56-1.313 12.224-.147 4.54.42 9.26.968 13.825 1.108 9.218 2.245 18.71-2.156 28.077-.685-1.215-1.346-2.54-1.95-4.01-.548-1.325-1.736-3.455-3.38-6.403-6.4-11.476-21.385-38.35-13.714-49.316 2.285-3.264 8.084-6.62 22.64-4.813zm-17.644-61.787c21.334.47 38.21 8.452 50.158 23.72 9.164 11.71-.927 64.998-30.14 110.97-.29-.368-.582-.738-.886-1.118-.12-.152-.245-.306-.37-.462 7.55-12.467 6.073-24.802 4.76-35.738-.54-4.488-1.05-8.727-.92-12.71.133-4.22.69-7.84 1.23-11.34.664-4.312 1.34-8.775 1.153-14.036.14-.552.195-1.204.122-1.978-.476-5.045-6.236-20.144-17.976-33.81-6.422-7.475-15.787-15.84-28.574-21.482 5.5-1.14 13.02-2.203 21.442-2.016zM66.674 175.778c-5.9 7.094-9.974 5.734-11.314 5.288-8.73-2.912-18.86-21.364-27.79-50.624-7.73-25.318-12.245-50.777-12.603-57.916-1.128-22.578 4.345-38.313 16.268-46.77C50.64 11.997 82.54 20.234 95.36 24.41c-.184.182-.376.352-.558.537-21.036 21.244-20.537 57.54-20.485 59.76-.002.855.07 2.067.168 3.734.362 6.106 1.036 17.468-.764 30.335-1.67 11.957 2.015 23.66 10.112 32.11.838.873 1.713 1.695 2.617 2.467-3.605 3.86-11.438 12.396-19.776 22.426zm22.48-29.993c-6.527-6.81-9.49-16.282-8.134-25.99 1.9-13.592 1.2-25.43.822-31.79-.053-.89-.1-1.67-.127-2.285 3.073-2.725 17.314-10.355 27.47-8.028 4.634 1.06 7.458 4.217 8.632 9.645 6.076 28.103.804 39.816-3.432 49.23-.873 1.938-1.698 3.77-2.402 5.667l-.546 1.466c-1.382 3.706-2.668 7.152-3.465 10.424-6.938-.02-13.687-2.984-18.82-8.34zm1.064 37.9c-2.026-.506-3.848-1.385-4.917-2.114.894-.42 2.483-.99 5.24-1.558 13.336-2.746 15.396-4.684 19.894-10.395 1.03-1.31 2.2-2.794 3.82-4.602v-.002c2.412-2.7 3.515-2.242 5.515-1.412 1.62.672 3.2 2.703 3.84 4.94.302 1.055.642 3.06-.47 4.62-9.397 13.155-23.09 12.986-32.922 10.525zm69.8 64.952c-16.317 3.496-22.094-4.83-25.9-14.346-2.458-6.143-3.666-33.85-2.81-64.446.012-.407-.046-.8-.158-1.17-.098-.714-.248-1.436-.456-2.162-1.274-4.452-4.38-8.176-8.104-9.72-1.48-.613-4.196-1.738-7.46-.903.696-2.87 1.903-6.108 3.212-9.615l.55-1.475c.617-1.663 1.393-3.386 2.213-5.21 4.433-9.848 10.504-23.337 3.915-53.81-2.468-11.414-10.71-16.988-23.204-15.693-7.49.775-14.343 3.797-17.76 5.53-.736.372-1.408.732-2.036 1.082.954-11.5 4.558-32.993 18.04-46.59 8.49-8.56 19.794-12.79 33.568-12.56 27.14.443 44.544 14.37 54.366 25.978 8.464 10 13.047 20.076 14.876 25.51-13.755-1.4-23.11 1.316-27.852 8.096-10.317 14.748 5.644 43.372 13.315 57.13 1.407 2.52 2.62 4.7 3.003 5.625 2.498 6.053 5.732 10.095 8.093 13.045.723.904 1.425 1.78 1.96 2.547-4.167 1.2-11.65 3.976-10.968 17.847-.55 6.96-4.46 39.545-6.448 51.058-2.623 15.21-8.22 20.875-23.957 24.25zM228.12 170.7c-4.26 1.978-11.388 3.462-18.16 3.78-7.48.35-11.288-.838-12.184-1.57-.42-8.643 2.797-9.546 6.202-10.502.535-.15 1.057-.297 1.56-.473.314.255.657.508 1.033.756 6.013 3.97 16.736 4.397 31.875 1.272l.166-.033c-2.04 1.908-5.535 4.47-10.49 6.77z" fill="#FFF"/></svg>