<svg width="256" height="330" viewBox="0 0 256 330" xmlns="http://www.w3.org/2000/svg" preserveAspectRatio="xMidYMid"><defs><linearGradient x1="35.204%" y1="65.079%" x2="101.159%" y2="50%" id="a"><stop stop-color="#FFF" offset="0%"/><stop stop-color="#C0815E" offset="100%"/></linearGradient><radialGradient fx="50%" fy="50%" r="50.521%" id="b"><stop stop-color="#FFF" offset="0%"/><stop stop-color="#A94436" offset="100%"/></radialGradient></defs><path d="M4.096 325.463s.497-77.984.497-157.26C4.593 14.654-8.347 3.217 60.55 3.217h191.77V224.7c0 72.91 13.628 101.47-62.995 101.47-76.622 0-185.23-.707-185.23-.707z" fill="#A62C39"/><path d="M1.887 29.917s12.288 2.458 22.938 20.48C35.475 68.42 92 208.508 92 208.508V94.634L39.57 9.437 54.318 27.46 82.17 4.52 46.125 2.065 1.887 29.917z" transform="translate(160.318 2.266)" fill="url(#a)"/><path d="M3.102.89s81.102 54.067 120.425 64.717c39.322 10.65 79.464 22.15 79.464 22.15l-92.57 229.35 40.14 1.638 52.43-128.604L201.353.07 3.102.89z" opacity=".668" fill="url(#b)" transform="translate(50.147 4.26)"/><path d="M128.617 246.817l82.42 79.22-155.33-1.394s-4.916-49.972-3.277-76.187c1.638-26.215 9.83-26.215 9.83-26.215l66.357 24.577z" fill-opacity=".44" fill="#FFF"/><path d="M206.443 326.282l-76.188-78.645-69.633-26.215L6.554 100.997 63.9 5.15H27.162L9.83 18.256l-5.734 11.47V326.28h202.347z" fill-opacity=".362"/><path d="M253.138 200.942s-77.006 24.576-122.883 47.514C84.38 271.396 59.803 327.1 59.803 327.1s98.306-4.914 135.17-3.276c36.865 1.64 54.07 1.64 57.346-49.972 3.276-51.61.818-72.91.818-72.91z" opacity=".5" fill="#83222D"/><g fill="#FFF"><path d="M27.833 249.867v48.385h12.34V285.65l11.232 11.23H70.34l-15.018-15.018s10.805-.174 11.623-15.8c0-14.338-10.817-16.195-23.31-16.195H27.833zm12.928 13.125h10.645v8.62H40.76v-8.62zM94.173 250.063c-6.756-.038-16.128.59-16.128 13.32v33.628h12.668v-8.226h12.275v8.03h12.733v-35.26c0-11.058-12.286-11.49-18.87-11.49-.822 0-1.71.006-2.677 0zm-3.264 12.145h11.882v13.255H90.91v-13.255zM128.412 250.095h13.107v46.286H128.41zM155.242 250.71v46.285h31.54v-12.288h-18.638v-34.203l-12.902.205zM228.56 250.3v12.493h-21.093v4.505h9.01c4.712 0 14.542-.204 14.542 14.542 0 14.745-6.76 15.565-20.48 15.565h-16.59V286.14h19.046c5.735 0 6.05-1.866 6.05-3.493 0-1.627-2.93-2.383-8.894-2.383-5.962 0-17.022-2.93-17.022-14.4 0-11.468 5.735-15.77 17.204-15.77 11.47 0 18.227.206 18.227.206z"/></g><g fill="#FFF"><path d="M39.322 236.168h108.956s-24.167-54.887-18.023-105.27c6.145-50.38 45.877-73.32 68.405-75.777 22.53-2.456 34.817 11.47 34.817 11.47l4.915-7.373s-32.36-32.768-73.32-29.082c-40.96 3.687-69.224 30.72-86.837 63.49-17.613 32.768-27.853 55.706-34.817 90.113-6.963 34.407-4.096 52.43-4.096 52.43zM17.613 181.28l21.3 1.64-3.687 21.3-20.07-2.46 2.457-20.48zM51.2 136.224l5.736-15.975-18.842-7.374-6.145 17.204 19.25 6.144zM77.826 81.336l11.06-13.107-14.337-9.422-11.47 12.698 14.746 9.83zM106.908 30.545l9.83 11.878 13.517-7.782-9.83-11.06-13.517 6.965zM154.832 17.028l2.458 11.878 16.794-.41-1.64-10.65-17.612-.818z"/><path d="M211.768 29.726l-.41 7.373 11.47 6.143 2.457-3.687-13.517-9.83zM209.31 61.265v6.145l11.06 1.228v-4.915l-11.06-2.458zM174.084 66.59l5.324 9.83 7.783-6.143-1.637-6.554-11.47 2.867zM157.29 79.288l8.192 12.288-4.916 8.602-11.878-13.107 8.602-7.782zM140.905 113.286l-5.325 10.65 13.927 11.878 3.277-13.517-11.88-9.01zM135.17 150.56l-.818 14.336 17.203 7.373-.82-13.518-15.564-8.192zM140.086 201.35l4.096 14.747 21.71 1.23-7.783-15.976h-18.024z"/></g><path d="M7.23 325.483c0-.153 0-.153.006-.896l.016-2.61.056-9.92c.058-10.69.116-22.616.17-35.482.156-36.76.25-73.683.25-108.37 0-17.875-.155-33.484-.484-55.324-1.006-66.73-.522-79.44 5.048-91.432C17.888 9.4 28.392 6.35 60.55 6.35h191.77l-3.135-3.134V224.7c0 6.796.073 12.66.25 22.54.686 38.077-.157 48.904-6.303 58.938-7.188 11.737-22.663 16.86-53.807 16.86-17.583 0-38.27-.042-61.423-.117-18.624-.06-38.366-.14-58.68-.237a49757.97 49757.97 0 0 1-63.832-.346l-1.274-.008 3.114 3.153zm-6.288 3.094l3.134.02a10459.048 10459.048 0 0 0 4.952.03 49763.195 49763.195 0 0 0 60.163.324c20.318.097 40.063.178 58.69.24 23.162.075 43.854.115 61.445.115 33.108 0 50.524-5.764 59.153-19.853 7.07-11.543 7.938-22.703 7.225-62.324-.177-9.844-.25-15.68-.25-22.43V.083H60.55c-34.48 0-46.924 3.612-53.943 18.725C3.097 26.362 1.403 36.82.787 52.98.315 65.43.364 72.294.978 112.975c.328 21.81.482 37.39.482 55.228 0 34.678-.095 71.592-.25 108.344a29153.4 29153.4 0 0 1-.227 45.39l-.015 2.61-.026 4.03z" fill="#5E000E"/></svg>