<svg width="256" height="283" viewBox="0 0 256 283" xmlns="http://www.w3.org/2000/svg" preserveAspectRatio="xMidYMid"><g transform="translate(27.43 44.8)"><circle fill="#43A5EB" cx="100.677" cy="100.327" r="100.132"/><circle fill="#F34B41" cx="101.029" cy="100.573" r="66.743"/><circle fill="#FEFB1F" cx="101.029" cy="100.571" r="33.829"/></g><path d="M.347 75.584l3.72-6.02c1.48-2.397 3.083-3.795 4.806-4.193 1.722-.396 3.455-.056 5.2 1.023.588.363 1.11.82 1.568 1.375a7.268 7.268 0 0 1 1.105 1.835c.28.67.444 1.375.5 2.116a5.673 5.673 0 0 1-.277 2.202l12.004.91-1.577 2.55-11.784-1.044-2.424 3.925 8.995 5.558-1.455 2.356L.347 75.584zm3.615-1.02l7.195 4.445 2.436-3.943c.898-1.455 1.228-2.707.987-3.756-.24-1.047-.895-1.903-1.963-2.563a4.546 4.546 0 0 0-1.6-.63 4.126 4.126 0 0 0-1.597.027c-.52.112-1.042.368-1.56.768-.52.4-1.007.97-1.464 1.708l-2.434 3.943zM21.948 45.85l10.61-10.158 1.648 1.72-8.776 8.404 5.45 5.694 7.25-6.94 1.755 1.832-7.25 6.94 6.09 6.36 8.693-8.323 1.65 1.722-10.528 10.08L21.948 45.85zm47.596-20.314c1.74 3.08 2.6 5.805 2.572 8.176-.027 2.37-.932 4.355-2.71 5.95.462.71.992 1.205 1.59 1.485.6.278 1.37.153 2.306-.376a7.59 7.59 0 0 0 .517-.336c.23-.16.49-.33.773-.504.284-.175.548-.347.792-.514.244-.168.42-.283.533-.346l1.22 2.313-1.304.74c-1.094.617-2.046 1.082-2.857 1.393-.81.31-1.558.395-2.242.253a3.907 3.907 0 0 1-1.83-.932c-.535-.478-1.05-1.152-1.54-2.022a7.106 7.106 0 0 1-2.946.496c-1.055-.037-2.14-.315-3.254-.832-1.118-.517-2.218-1.302-3.298-2.353-1.08-1.053-2.102-2.427-3.06-4.123-1.187-2.096-1.93-3.972-2.235-5.627-.302-1.655-.312-3.092-.03-4.312.282-1.22.756-2.254 1.425-3.104.67-.848 1.392-1.493 2.173-1.936a7.58 7.58 0 0 1 3.104-.96c1.108-.095 2.274.092 3.498.563 1.223.472 2.392 1.26 3.505 2.37 1.113 1.107 2.212 2.62 3.297 4.54zm-14.62-.7c-.415 1.975.21 4.434 1.877 7.378.758 1.338 1.563 2.49 2.416 3.45s1.73 1.7 2.628 2.223c.897.523 1.815.815 2.748.875a4.56 4.56 0 0 0 2.603-.59c.558-.315 1.054-.78 1.488-1.393.434-.614.716-1.377.847-2.29.13-.916.055-1.962-.23-3.14-.283-1.18-.842-2.506-1.675-3.978-1.06-1.875-2.08-3.314-3.063-4.32-.982-1.007-1.933-1.69-2.86-2.05-.925-.36-1.75-.504-2.475-.432-.725.072-1.355.258-1.89.56-.67.38-1.2.9-1.59 1.563a6.964 6.964 0 0 0-.822 2.144zM82.61 7.417l2.932-.792.057.064c.027.1.01.258-.052.474a2.12 2.12 0 0 0-.055.752l3.79 14.018c.35 1.288.744 2.253 1.18 2.893.44.64.945 1.128 1.514 1.466a4.33 4.33 0 0 0 1.854.596c.666.06 1.352.02 2.06-.118a8.375 8.375 0 0 0 1.846-.9 3.925 3.925 0 0 0 1.32-1.453c.326-.607.524-1.305.59-2.094.065-.788-.083-1.852-.445-3.19L95.114 4.034l2.488-.672 4.066 15.032c.406 1.51.585 2.828.532 3.958-.055 1.13-.333 2.135-.84 3.015a6.98 6.98 0 0 1-1.99 2.212c-.82.592-1.802 1.044-2.94 1.35-1.114.302-2.175.403-3.183.305a6.698 6.698 0 0 1-2.77-.884c-.837-.49-1.565-1.17-2.184-2.037-.62-.868-1.152-2.118-1.592-3.752L82.608 7.418zm37.82-6.992l11.958-.107.02 2.23-4.73.042.176 19.57 4.96-.044.02 2.19-12.458.112-.02-2.23 4.73-.042-.176-19.53-4.46.038-.02-2.23zm34.416 2.268l6.876 1.67c2.74.664 4.564 1.754 5.476 3.268.912 1.514 1.126 3.266.642 5.26a6.362 6.362 0 0 1-.822 1.916 7.255 7.255 0 0 1-1.4 1.62c-.55.473-1.17.85-1.858 1.13a5.684 5.684 0 0 1-2.18.42l2.858 11.694-2.915-.707-2.66-11.528-4.484-1.088-2.495 10.274-2.69-.652 5.654-23.276zm2.09 3.118l-1.995 8.22 4.5 1.094c1.663.403 2.955.328 3.878-.226s1.533-1.44 1.83-2.662c.144-.597.178-1.17.1-1.716a4.093 4.093 0 0 0-.52-1.51c-.267-.46-.672-.877-1.213-1.246-.542-.367-1.234-.655-2.077-.86l-4.504-1.094zm33.212 8.324l12.953 6.924-1.125 2.103-10.716-5.728-3.717 6.95 8.85 4.733-1.196 2.237-8.85-4.732-4.152 7.765 10.613 5.674-1.123 2.1-12.85-6.868 11.31-21.158zm21.61 21.932c.327.252.597.566.81.94.21.373.355.758.43 1.154.076.396.08.787.01 1.173a2.32 2.32 0 0 1-.446 1.025c-.245.32-.542.568-.89.747-.35.18-.72.283-1.114.31a3.432 3.432 0 0 1-1.2-.137 3.505 3.505 0 0 1-1.152-.594c-.35-.27-.632-.58-.845-.928a3.217 3.217 0 0 1-.424-1.1 2.816 2.816 0 0 1 .03-1.142c.09-.378.26-.733.514-1.062.244-.32.545-.565.898-.74a2.985 2.985 0 0 1 1.12-.305c.394-.028.788.014 1.185.124.395.113.754.29 1.072.536zm20.876 8.762l7.44 8.048-1.64 1.514-2.504-2.71-10.042 9.28c-1.15 1.063-2.21 1.844-3.184 2.34-.973.5-1.932.748-2.877.748-.944 0-1.776-.172-2.497-.517a6.492 6.492 0 0 1-1.97-1.477c-1.548-1.675-2.178-3.66-1.887-5.952l2.837-.16c-.004.11-.064.225-.176.348a.758.758 0 0 0-.205.373l-.025.652c-.025.163-.01.377.043.64.053.266.137.546.253.84.115.296.244.586.386.873.143.287.32.543.53.77.867.94 1.833 1.323 2.893 1.146 1.06-.177 2.41-1.023 4.053-2.54l10.07-9.31-3.13-3.388 1.634-1.514zm22.43 36.094l-2.842-.32c-.02-.136.04-.25.177-.345.138-.095.228-.183.27-.265.38-.78.55-1.64.514-2.58-.037-.94-.36-1.942-.972-3.01-.588-1.022-1.376-1.7-2.366-2.034-.99-.333-1.896-.264-2.718.208-.49.28-.865.607-1.124.977-.26.372-.457.825-.592 1.362-.135.535-.184 1.236-.146 2.1.038.866.152 1.953.343 3.262.164 1.265.233 2.35.204 3.253-.03.902-.162 1.69-.4 2.356a4.925 4.925 0 0 1-.995 1.703c-.426.466-.963.884-1.607 1.254-.712.41-1.505.687-2.38.835-.876.147-1.76.1-2.652-.14-.893-.243-1.767-.695-2.62-1.357-.853-.663-1.63-1.606-2.332-2.83-1.544-2.688-1.9-5.367-1.065-8.032l3.183-.01c-.003.15-.08.268-.238.36-.155.087-.258.19-.31.31-.35.88-.493 1.88-.43 2.995.065 1.115.448 2.284 1.15 3.507.357.622.792 1.134 1.303 1.536.51.4 1.048.692 1.61.87.56.18 1.145.246 1.75.193a4.09 4.09 0 0 0 1.71-.536 3.397 3.397 0 0 0 1.024-.877c.26-.343.447-.766.555-1.273.11-.506.138-1.15.088-1.934a42.785 42.785 0 0 0-.338-3.02c-.204-1.333-.295-2.485-.277-3.456.018-.97.122-1.806.313-2.507.19-.7.484-1.29.888-1.772a5.484 5.484 0 0 1 1.505-1.24 5.592 5.592 0 0 1 2.413-.742 6.36 6.36 0 0 1 2.516.328c.826.28 1.6.73 2.325 1.347a8.5 8.5 0 0 1 1.852 2.262 8.814 8.814 0 0 1 1.154 3.593 8.564 8.564 0 0 1-.443 3.67z"/><path d="M57.82 273.46H188.56" stroke="#4C4C4C" stroke-width="2"/><path d="M199.562 272.537c.906.435.913 1.16.013 1.61l-12.152 6.095c-.9.45-1.604-.005-1.604-1.01v-11.49c0-1.006.71-1.473 1.616-1.038l12.126 5.833z" fill="#4C4C4C"/><path d="M69.318 264.775l8.762 8.686M62.918 264.775l8.762 8.686M56.518 264.775l8.762 8.686M65.28 273.463l-8.763 8.686M71.68 273.463l-8.763 8.686M78.08 273.463l-8.763 8.686M75.718 264.775l8.763 8.686M84.48 273.463l-8.763 8.686" stroke="#4C4C4C" stroke-width="2"/></svg>