<svg width="256" height="256" viewBox="0 0 256 256" xmlns="http://www.w3.org/2000/svg" preserveAspectRatio="xMidYMid"><circle cx="128" cy="128" r="128"/><path d="M188.718 69.333l-29.842-13.128H97.003l-29.66 13.372-24.676 27.41L128 210.463l85.333-113.474-24.615-27.655zm17.504 28.39l-26.986 20.194-19.19-28.755 27.152-12.778 19.024 21.34zm-36.893 23.272H85.09l16.766-29.78 50.212.12 17.26 29.66zm-66.8-60.346h51.4l25.306 11.16-25.414 11.07h-51.4l-25.16-11.062 25.268-11.17zM68.744 76.383l25.463 12.763-18.234 28.202L49.72 97.722l19.024-21.34zm-9.24 36.207l16.59 13.99 39.472 64.956-56.063-78.945zm27.886 17.644h79.985L128 202.804l-40.61-72.57zm52.986 61.302l39.472-64.956 16.59-13.99-56.062 78.946z" fill="#36CEF9"/></svg>