<svg width="256" height="256" viewBox="0 0 256 256" xmlns="http://www.w3.org/2000/svg" preserveAspectRatio="xMidYMid"><defs><linearGradient x1="100%" y1="58.356%" x2="0%" y2="0%" id="a"><stop stop-color="#2697D4" offset="0%"/><stop stop-color="#207BCB" offset="50%"/><stop stop-color="#2285CE" offset="100%"/></linearGradient><filter x="-50%" y="-50%" width="200%" height="200%" filterUnits="objectBoundingBox" id="b"><feOffset dx="2" dy="2" in="SourceAlpha" result="shadowOffsetOuter1"/><feGaussianBlur stdDeviation="3.5" in="shadowOffsetOuter1" result="shadowBlurOuter1"/><feColorMatrix values="0 0 0 0 0 0 0 0 0 0 0 0 0 0 0 0 0 0 0.185125113 0" in="shadowBlurOuter1" result="shadowMatrixOuter1"/><feMerge><feMergeNode in="shadowMatrixOuter1"/><feMergeNode in="SourceGraphic"/></feMerge></filter></defs><path fill="url(#a)" d="M0 0h256v256H0z"/><path d="M139.688 111c-12.927-4.78-20.01-8.5-20.01-14.343 0-4.96 4.072-7.792 11.333-7.792 13.282 0 26.917 5.136 36.303 9.74l5.312-32.76c-7.438-3.543-22.667-9.386-43.74-9.386-14.874 0-27.27 3.894-36.124 11.155C83.553 75.23 78.77 86.21 78.77 99.49c0 24.083 14.7 34.354 38.605 43.03 15.406 5.49 20.542 9.387 20.542 15.407 0 5.844-4.96 9.208-13.99 9.208-11.157 0-29.572-5.49-41.615-12.572L77 187.677c10.27 5.844 29.395 11.864 49.23 11.864 15.76 0 28.864-3.717 37.718-10.8 9.916-7.792 15.052-19.302 15.052-34.177 0-24.615-15.052-34.886-39.313-43.562z" fill="#FFF" filter="url(#b)"/></svg>