<svg width="256" height="255" viewBox="0 0 256 255" xmlns="http://www.w3.org/2000/svg" preserveAspectRatio="xMidYMid"><path d="M18.124 127.5c0 43.296 25.16 80.71 61.646 98.442L27.594 82.986c-6.07 13.603-9.47 28.657-9.47 44.514zm183.22-5.52c0-13.517-4.855-22.88-9.02-30.165-5.544-9.01-10.74-16.64-10.74-25.65 0-10.055 7.625-19.415 18.367-19.415.486 0 .945.06 1.418.088-19.46-17.83-45.387-28.714-73.863-28.714-38.213 0-71.832 19.606-91.39 49.302 2.566.077 4.984.13 7.04.13 11.44 0 29.15-1.387 29.15-1.387 5.896-.35 6.59 8.31.7 9.01 0 0-5.925.696-12.518 1.04L100.32 194.7l23.936-71.79-17.042-46.693c-5.89-.345-11.47-1.042-11.47-1.042-5.894-.346-5.203-9.358.69-9.01 0 0 18.065 1.388 28.812 1.388 11.44 0 29.15-1.388 29.15-1.388 5.902-.348 6.595 8.312.703 9.01 0 0-5.94.697-12.52 1.042l39.528 117.58 10.91-36.457c4.728-15.13 8.327-25.995 8.327-35.36zm-71.92 15.088L96.606 232.43c9.798 2.882 20.16 4.457 30.9 4.457 12.736 0 24.95-2.202 36.322-6.2-.294-.468-.56-.966-.78-1.507l-33.624-92.112zm94.058-62.045c.47 3.484.737 7.224.737 11.247 0 11.1-2.074 23.577-8.318 39.178l-33.41 96.6c32.517-18.963 54.39-54.193 54.39-94.545 0-19.017-4.857-36.9-13.4-52.48zM127.505 0C57.2 0 0 57.196 0 127.5c0 70.313 57.2 127.507 127.505 127.507 70.302 0 127.51-57.194 127.51-127.507C255.014 57.196 197.808 0 127.506 0zm0 249.163c-67.08 0-121.66-54.578-121.66-121.663 0-67.08 54.577-121.654 121.66-121.654 67.078 0 121.652 54.574 121.652 121.654 0 67.085-54.574 121.663-121.652 121.663z" fill="#464342"/></svg>