<svg width="512" height="117" viewBox="0 0 512 117" xmlns="http://www.w3.org/2000/svg" preserveAspectRatio="xMidYMid"><path d="M296.95 45.726h-20.155v2.138c6.304 0 7.318 1.35 7.318 9.346v14.413c0 7.994-1.013 9.458-7.318 9.458-4.84-.674-8.107-3.265-12.61-8.22l-5.18-5.628c6.98-1.24 10.696-5.63 10.696-10.585 0-6.19-5.29-10.92-15.2-10.92h-19.815v2.137c6.304 0 7.318 1.35 7.318 9.346v14.413c0 7.994-1.014 9.458-7.318 9.458v2.14h22.405v-2.14c-6.304 0-7.317-1.463-7.317-9.457V67.57h1.913l12.498 15.65h32.766c16.1 0 23.08-8.556 23.08-18.804 0-10.246-6.98-18.69-23.08-18.69zm-47.176 18.352V49.104h4.615c5.065 0 7.318 3.49 7.318 7.544 0 3.94-2.253 7.43-7.32 7.43h-4.614zm47.514 15.652h-.79c-4.05 0-4.614-1.013-4.614-6.193V49.104h5.404c11.71 0 13.848 8.556 13.848 15.2 0 6.868-2.14 15.426-13.848 15.426zM171.973 68.246l7.77-22.97c2.252-6.644 1.238-8.557-5.968-8.557v-2.254h21.167v2.253c-7.093 0-8.78 1.687-11.596 9.907L170.51 85.134h-1.464L157.56 49.89l-11.71 35.244h-1.463L131.89 46.627c-2.702-8.22-4.504-9.908-11.035-9.908v-2.254h24.996v2.253c-6.642 0-8.445 1.575-6.08 8.555l7.544 22.97 11.372-33.78h2.14l11.147 33.78zm38.28 16.437c-12.385 0-22.518-9.12-22.518-20.268 0-11.033 10.134-20.155 22.518-20.155 12.386 0 22.518 9.122 22.518 20.155 0 11.148-10.13 20.268-22.517 20.268zm0-36.93c-10.358 0-13.96 9.344-13.96 16.663 0 7.433 3.602 16.665 13.96 16.665 10.472 0 14.075-9.23 14.075-16.664 0-7.32-3.603-16.663-14.075-16.663z" fill="#00749A"/><path d="M347.84 80.968v2.252h-25.784v-2.252c7.545 0 8.896-1.914 8.896-13.175V49.78c0-11.262-1.35-13.062-8.896-13.062v-2.253h23.307c11.596 0 18.016 5.968 18.016 13.963 0 7.77-6.42 13.85-18.017 13.85h-6.418v5.514c0 11.262 1.35 13.176 8.895 13.176zm-2.477-42.45h-6.418V58.11h6.418c6.306 0 9.233-4.39 9.233-9.682 0-5.404-2.927-9.91-9.233-9.91zm95.366 34.118l-.564 2.027c-1.013 3.715-2.253 5.067-10.247 5.067h-1.578c-5.853 0-6.867-1.352-6.867-9.345v-5.18c8.783 0 9.46.788 9.46 6.644h2.138V55.07h-2.14c0 5.856-.675 6.644-9.458 6.644v-12.61h6.19c7.997 0 9.234 1.352 10.248 5.067l.564 2.14h1.8l-.786-10.584h-33.103v2.138c6.304 0 7.32 1.35 7.32 9.346v14.413c0 7.313-.862 9.155-5.833 9.418-4.725-.72-7.968-3.298-12.407-8.18l-5.18-5.628c6.982-1.24 10.698-5.63 10.698-10.585 0-6.19-5.292-10.92-15.2-10.92H365.97v2.137c6.303 0 7.317 1.35 7.317 9.346v14.413c0 7.994-1.013 9.458-7.318 9.458v2.14h22.405v-2.14c-6.304 0-7.318-1.463-7.318-9.457V67.57h1.914l12.498 15.65h46.276l.676-10.583h-1.69zm-59.674-8.558V49.104h4.615c5.068 0 7.32 3.49 7.32 7.544 0 3.94-2.252 7.43-7.32 7.43h-4.614zm82.53 20.605c-4.505 0-8.446-2.364-10.135-3.83-.562.565-1.575 2.254-1.8 3.83h-2.14V69.146h2.253c.9 7.43 6.08 11.822 12.723 11.822 3.603 0 6.53-2.026 6.53-5.404 0-2.927-2.59-5.18-7.205-7.318l-6.417-3.04c-4.505-2.14-7.882-5.857-7.882-10.81 0-5.404 5.068-10.02 12.05-10.02 3.715 0 6.866 1.35 8.782 2.927.562-.45 1.125-1.69 1.463-3.042h2.14v13.29h-2.365c-.79-5.294-3.716-9.685-9.683-9.685-3.152 0-6.08 1.802-6.08 4.618 0 2.927 2.364 4.502 7.77 6.98l6.19 3.04c5.406 2.59 7.544 6.757 7.544 10.134 0 7.093-6.192 12.046-13.735 12.046zm34.677 0c-4.504 0-8.446-2.364-10.133-3.83-.564.565-1.576 2.254-1.8 3.83h-2.14V69.146h2.25c.902 7.43 6.08 11.822 12.724 11.822 3.603 0 6.53-2.026 6.53-5.404 0-2.927-2.588-5.18-7.206-7.318l-6.418-3.04c-4.504-2.14-7.882-5.857-7.882-10.81 0-5.404 5.067-10.02 12.048-10.02 3.716 0 6.868 1.35 8.783 2.927.56-.45 1.124-1.69 1.46-3.042h2.14v13.29h-2.363c-.79-5.294-3.716-9.685-9.682-9.685-3.153 0-6.082 1.802-6.082 4.618 0 2.927 2.365 4.502 7.77 6.98l6.192 3.04c5.405 2.59 7.543 6.757 7.543 10.134 0 7.093-6.192 12.046-13.735 12.046zM8.256 58.083c0 19.724 11.463 36.768 28.084 44.846L12.57 37.803a49.64 49.64 0 0 0-4.314 20.28zm83.468-2.514c0-6.16-2.212-10.424-4.11-13.744-2.526-4.104-4.893-7.58-4.893-11.684 0-4.58 3.475-8.845 8.368-8.845.22 0 .43.028.646.04-8.865-8.122-20.676-13.08-33.65-13.08-17.407 0-32.722 8.93-41.632 22.46 1.17.034 2.27.06 3.207.06 5.21 0 13.28-.634 13.28-.634 2.685-.158 3 3.787.318 4.105 0 0-2.7.318-5.703.475L45.7 88.696l10.905-32.704-7.763-21.27c-2.683-.158-5.225-.476-5.225-.476-2.686-.157-2.37-4.263.314-4.104 0 0 8.23.632 13.127.632 5.21 0 13.28-.632 13.28-.632 2.687-.16 3.003 3.786.32 4.104 0 0-2.706.318-5.704.475L82.96 88.287l4.97-16.61c2.154-6.89 3.794-11.84 3.794-16.107zM58.96 62.44l-14.95 43.443a49.827 49.827 0 0 0 14.075 2.03 49.776 49.776 0 0 0 16.547-2.825 4.376 4.376 0 0 1-.354-.686l-15.32-41.962zm42.848-28.265c.214 1.587.336 3.29.336 5.124 0 5.057-.945 10.74-3.79 17.848l-15.22 44.007c14.814-8.64 24.778-24.688 24.778-43.07a49.56 49.56 0 0 0-6.104-23.908zM58.085 0C26.058 0 0 26.056 0 58.083c0 32.032 26.058 58.087 58.085 58.087s58.088-26.055 58.088-58.087C116.173 26.056 90.113 0 58.085 0zm0 113.507c-30.558 0-55.422-24.863-55.422-55.424 0-30.558 24.863-55.42 55.422-55.42 30.558 0 55.42 24.862 55.42 55.42 0 30.56-24.862 55.424-55.42 55.424z" fill="#464342"/></svg>