<svg xmlns="http://www.w3.org/2000/svg" width="1588.42" height="242.707" viewBox="0 0 1588.42 242.707"><g fill="none"><path stroke="#3380CF" stroke-width="2" stroke-linecap="round" stroke-linejoin="round" stroke-miterlimit="10" d="M198.243 186.97c0-14.42-5.83-23.142-13.1-28.415h.586c.98 0 1.773-.794 1.773-1.774s-.794-1.773-1.774-1.773h-6.684c-10.733-4.97-21.97-4.45-21.97-4.45h-21.92c-4.704 0-7.25 1.573-7.25 6.275v58.89c0 4.703 5.546 9.834 10.25 9.834h6.07c-.026 0-.042-1.356-.042-1.795 0-12.343 10.007-22.844 22.35-22.844s22.352 10.337 22.352 22.68c0 .438-.016 1.96-.04 1.96h3.232c4.702 0 6.827-5.13 6.827-9.834V189.47c0-2.07-.662-2.5-.662-2.5zM419.425 58.905s21.224 95.483 1.67 181.316M426.036 60.142s23.782 91.413 4.895 181.413M10.14 241.555h1571.045M223.978 103.555h141.378v138H223.978z"/><g stroke="#3380CF" stroke-width="2" stroke-linecap="round" stroke-linejoin="round" stroke-miterlimit="10"><path d="M386.266 237.367l4.634 1.877c3.28-44.31-22.788-70.518-22.788-70.518l-.437.115s-9.703 35.668 15.054 72.564l3.1-3.923.436-.113zM367.676 168.842l18.154 68.64"/></g><path d="M390.733 94.74c-3.577-20.376 9.16-39.833 28.81-45.005-4.81-2.138-10.285-2.92-15.86-1.94-14.915 2.62-24.884 16.834-22.265 31.75 1.176 6.698 4.695 12.394 9.56 16.405-.083-.403-.173-.803-.245-1.21"/><path stroke="#3380CF" stroke-width="2" stroke-linecap="round" stroke-linejoin="round" stroke-miterlimit="10" d="M390.733 94.74c-3.577-20.376 9.16-39.833 28.81-45.005-4.81-2.138-10.285-2.92-15.86-1.94-14.915 2.62-24.884 16.834-22.265 31.75 1.176 6.698 4.695 12.394 9.56 16.405-.083-.403-.173-.803-.245-1.21z"/><path d="M420.968 49.367c20.375-3.577 39.832 9.16 45.005 28.81 2.137-4.81 2.918-10.285 1.94-15.858-2.62-14.918-16.835-24.887-31.75-22.268-6.7 1.176-12.395 4.694-16.405 9.56.402-.084.803-.173 1.21-.245"/><path stroke="#3380CF" stroke-width="2" stroke-linecap="round" stroke-linejoin="round" stroke-miterlimit="10" d="M420.968 49.367c20.375-3.577 39.832 9.16 45.005 28.81 2.137-4.81 2.918-10.285 1.94-15.858-2.62-14.918-16.835-24.887-31.75-22.268-6.7 1.176-12.395 4.694-16.405 9.56.402-.084.803-.173 1.21-.245z"/><path d="M366.604 54.9c13.73-15.477 36.887-17.605 53.16-5.437-1.318-5.095-4.114-9.868-8.347-13.624-11.33-10.05-28.66-9.015-38.71 2.313-4.515 5.087-6.784 11.385-6.898 17.69.262-.315.52-.634.794-.944"/><path stroke="#3380CF" stroke-width="2" stroke-linecap="round" stroke-linejoin="round" stroke-miterlimit="10" d="M366.604 54.9c13.73-15.477 36.887-17.605 53.16-5.437-1.318-5.095-4.114-9.868-8.347-13.624-11.33-10.05-28.66-9.015-38.71 2.313-4.515 5.087-6.784 11.385-6.898 17.69.262-.315.52-.634.794-.944z"/><path d="M471.38 36.504c-18.182-9.873-40.68-3.986-51.832 12.998-.497-5.24.506-10.68 3.206-15.652 7.228-13.308 23.875-18.237 37.183-11.01 5.978 3.244 10.255 8.393 12.512 14.28-.356-.206-.708-.418-1.07-.616"/><path stroke="#3380CF" stroke-width="2" stroke-linecap="round" stroke-linejoin="round" stroke-miterlimit="10" d="M471.38 36.504c-18.182-9.873-40.68-3.986-51.832 12.998-.497-5.24.506-10.68 3.206-15.652 7.228-13.308 23.875-18.237 37.183-11.01 5.978 3.244 10.255 8.393 12.512 14.28-.356-.206-.708-.418-1.07-.616z"/><path d="M419.125 47.36s-8.3-14.946-7.182-40.906c0 0 10.168 23.96 7.182 40.907"/><path stroke="#3380CF" stroke-width="2" stroke-linecap="round" stroke-linejoin="round" stroke-miterlimit="10" d="M419.125 47.36s-8.3-14.946-7.182-40.906c0 0 10.168 23.96 7.182 40.907z"/><path d="M409.654 57.724c-.53-3.025 1.49-5.907 4.515-6.438 3.023-.53 5.906 1.49 6.437 4.516.53 3.024-1.49 5.906-4.517 6.438-3.024.53-5.904-1.492-6.436-4.516"/><circle stroke="#3380CF" stroke-width="2" stroke-linecap="round" stroke-linejoin="round" stroke-miterlimit="10" cx="415.131" cy="56.762" r="5.56"/><path d="M432.84 53.29c.566 3.22-1.586 6.286-4.804 6.852-3.22.565-6.286-1.586-6.85-4.805-.566-3.22 1.584-6.286 4.802-6.85 3.22-.566 6.287 1.585 6.853 4.804"/><circle stroke="#3380CF" stroke-width="2" stroke-linecap="round" stroke-linejoin="round" stroke-miterlimit="10" cx="427.013" cy="54.314" r="5.917"/><path d="M426.65 48.23c.612 3.487-1.718 6.81-5.205 7.423s-6.812-1.718-7.424-5.206c-.61-3.486 1.72-6.81 5.207-7.422 3.488-.612 6.812 1.718 7.423 5.205"/><circle stroke="#3380CF" stroke-width="2" stroke-linecap="round" stroke-linejoin="round" stroke-miterlimit="10" cx="420.336" cy="49.339" r="6.411"/><path stroke="#3380CF" stroke-width="2" stroke-linecap="round" stroke-linejoin="round" stroke-miterlimit="10" d="M385.876 74.054l4.794 7.353M391.376 67.72l2.6 3.216M391.043 41.555v-7M400.043 41.555v-5M377.354 48.555v-6M438.22 50.165l2.655-4.61M452.83 57.737l4.38-7.572M455.02 59.666l3.19-3.915M449.703 31.817l-1.328-4.91M461.616 32.77l-1.24-3.838M444.762 32.493l-2.387-9.44M1242.01 94.477s-18.794 80.01-1.672 145.745M1235.397 95.713s-22.34 73.014-4.895 145.842"/><path d="M1270.7 130.31c3.577-20.374-9.16-39.83-28.81-45.003 4.81-2.138 10.285-2.92 15.86-1.94 14.915 2.62 24.884 16.834 22.265 31.75-1.176 6.698-4.695 12.394-9.56 16.405.084-.404.174-.803.245-1.21"/><path stroke="#3380CF" stroke-width="2" stroke-linecap="round" stroke-linejoin="round" stroke-miterlimit="10" d="M1270.7 130.31c3.577-20.374-9.16-39.83-28.81-45.003 4.81-2.138 10.285-2.92 15.86-1.94 14.915 2.62 24.884 16.834 22.265 31.75-1.176 6.698-4.695 12.394-9.56 16.405.084-.404.174-.803.245-1.21z"/><path d="M1240.466 84.938c-20.375-3.577-39.832 9.16-45.005 28.81-2.136-4.81-2.917-10.285-1.938-15.858 2.62-14.917 16.834-24.886 31.75-22.267 6.698 1.176 12.394 4.694 16.404 9.56-.403-.083-.803-.172-1.21-.245"/><path stroke="#3380CF" stroke-width="2" stroke-linecap="round" stroke-linejoin="round" stroke-miterlimit="10" d="M1240.466 84.938c-20.375-3.577-39.832 9.16-45.005 28.81-2.136-4.81-2.917-10.285-1.938-15.858 2.62-14.917 16.834-24.886 31.75-22.267 6.698 1.176 12.394 4.694 16.404 9.56-.403-.083-.803-.172-1.21-.245z"/><path d="M1294.83 90.47c-13.73-15.475-36.888-17.603-53.16-5.435 1.317-5.095 4.113-9.868 8.346-13.624 11.33-10.05 28.66-9.013 38.71 2.315 4.515 5.087 6.784 11.385 6.898 17.69-.263-.315-.52-.635-.795-.944"/><path stroke="#3380CF" stroke-width="2" stroke-linecap="round" stroke-linejoin="round" stroke-miterlimit="10" d="M1294.83 90.47c-13.73-15.475-36.888-17.603-53.16-5.435 1.317-5.095 4.113-9.868 8.346-13.624 11.33-10.05 28.66-9.013 38.71 2.315 4.515 5.087 6.784 11.385 6.898 17.69-.263-.315-.52-.635-.795-.944z"/><path d="M1190.055 72.075c18.18-9.873 40.678-3.986 51.83 12.998.498-5.24-.505-10.68-3.205-15.652-7.228-13.307-23.875-18.236-37.183-11.01-5.978 3.245-10.255 8.394-12.512 14.282.355-.207.706-.42 1.07-.617"/><path stroke="#3380CF" stroke-width="2" stroke-linecap="round" stroke-linejoin="round" stroke-miterlimit="10" d="M1190.055 72.075c18.18-9.873 40.678-3.986 51.83 12.998.498-5.24-.505-10.68-3.205-15.652-7.228-13.307-23.875-18.236-37.183-11.01-5.978 3.245-10.255 8.394-12.512 14.282.355-.207.706-.42 1.07-.617z"/><path d="M1242.31 82.933s8.298-14.947 7.18-40.907c0 0-10.168 23.96-7.18 40.907"/><path stroke="#3380CF" stroke-width="2" stroke-linecap="round" stroke-linejoin="round" stroke-miterlimit="10" d="M1242.31 82.933s8.298-14.947 7.18-40.907c0 0-10.168 23.96-7.18 40.907z"/><path d="M1251.78 93.295c.53-3.025-1.49-5.907-4.516-6.438-3.024-.53-5.907 1.49-6.438 4.516-.53 3.024 1.49 5.906 4.517 6.438 3.024.53 5.905-1.49 6.436-4.515"/><circle stroke="#3380CF" stroke-width="2" stroke-linecap="round" stroke-linejoin="round" stroke-miterlimit="10" cx="1246.303" cy="92.333" r="5.56"/><path d="M1228.593 88.862c-.565 3.218 1.587 6.285 4.805 6.85 3.22.566 6.286-1.585 6.85-4.804.566-3.22-1.584-6.286-4.802-6.85-3.22-.566-6.288 1.586-6.853 4.804"/><circle stroke="#3380CF" stroke-width="2" stroke-linecap="round" stroke-linejoin="round" stroke-miterlimit="10" cx="1234.42" cy="89.885" r="5.917"/><path d="M1234.783 83.802c-.612 3.487 1.718 6.81 5.205 7.423s6.812-1.718 7.424-5.206c.612-3.487-1.72-6.81-5.206-7.423-3.487-.613-6.81 1.717-7.423 5.205"/><circle stroke="#3380CF" stroke-width="2" stroke-linecap="round" stroke-linejoin="round" stroke-miterlimit="10" cx="1241.098" cy="84.91" r="6.411"/><path stroke="#3380CF" stroke-width="2" stroke-linecap="round" stroke-linejoin="round" stroke-miterlimit="10" d="M1275.558 109.625l-4.794 7.354M1270.058 103.29l-2.6 3.217M1270.39 77.126v-7M1261.39 77.126v-5M1223.213 85.736l-2.654-4.61M1208.603 93.31l-4.378-7.574M1206.414 95.237l-3.19-3.915M1211.73 67.39l1.33-4.91M1199.817 68.343l1.242-3.84M1216.672 68.064l2.387-9.44M287.063 200.114v-31.637c0-3.315.925-3.482-2.393-3.482h-42.64c-3.315 0-3.257.167-3.257 3.482v31.637s48.29-.15 48.29 0zM240.24 200.114h46.823M238.953 175.278l12.978 12.98M254.857 165.4l9.086 9.086M265.672 186.007l11.378 11.378M223.978 124.555v3.666c0 1.843 1.492 3.335 3.333 3.335h.335c1.84 0 3.333-1.492 3.333-3.334v-3.665h-7z"/><path stroke="#3380CF" stroke-width="2" stroke-linecap="round" stroke-linejoin="round" stroke-miterlimit="10" d="M230.978 124.555v3.666c0 1.843 1.492 3.335 3.333 3.335h.335c1.84 0 3.333-1.492 3.333-3.334v-3.665h-7z"/><path stroke="#3380CF" stroke-width="2" stroke-linecap="round" stroke-linejoin="round" stroke-miterlimit="10" d="M237.978 124.555v3.666c0 1.843 1.492 3.335 3.333 3.335h.335c1.84 0 3.333-1.492 3.333-3.334v-3.665h-7z"/><path stroke="#3380CF" stroke-width="2" stroke-linecap="round" stroke-linejoin="round" stroke-miterlimit="10" d="M244.978 124.555v3.666c0 1.843 1.492 3.335 3.333 3.335h.335c1.84 0 3.333-1.492 3.333-3.334v-3.665h-7z"/><path stroke="#3380CF" stroke-width="2" stroke-linecap="round" stroke-linejoin="round" stroke-miterlimit="10" d="M251.978 124.555v3.666c0 1.843 1.492 3.335 3.333 3.335h.335c1.84 0 3.333-1.492 3.333-3.334v-3.665h-7z"/><path stroke="#3380CF" stroke-width="2" stroke-linecap="round" stroke-linejoin="round" stroke-miterlimit="10" d="M258.978 124.555v3.666c0 1.843 1.492 3.335 3.333 3.335h.335c1.84 0 3.333-1.492 3.333-3.334v-3.665h-7z"/><path stroke="#3380CF" stroke-width="2" stroke-linecap="round" stroke-linejoin="round" stroke-miterlimit="10" d="M265.978 124.555v3.666c0 1.843 1.492 3.335 3.333 3.335h.335c1.84 0 3.333-1.492 3.333-3.334v-3.665h-7z"/><path stroke="#3380CF" stroke-width="2" stroke-linecap="round" stroke-linejoin="round" stroke-miterlimit="10" d="M272.978 124.555v3.666c0 1.843 1.492 3.335 3.333 3.335h.335c1.84 0 3.333-1.492 3.333-3.334v-3.665h-7zM280.285 124.555v3.666c0 1.843 1.492 3.335 3.333 3.335h.334c1.84 0 3.333-1.492 3.333-3.334v-3.665h-7z"/><path stroke="#3380CF" stroke-width="2" stroke-linecap="round" stroke-linejoin="round" stroke-miterlimit="10" d="M287.285 124.555v3.666c0 1.843 1.492 3.335 3.333 3.335h.334c1.84 0 3.333-1.492 3.333-3.334v-3.665h-7z"/><path stroke="#3380CF" stroke-width="2" stroke-linecap="round" stroke-linejoin="round" stroke-miterlimit="10" d="M294.285 124.555v3.666c0 1.843 1.492 3.335 3.333 3.335h.334c1.84 0 3.333-1.492 3.333-3.334v-3.665h-7zM299.656 157.624v3.666c0 1.842 1.492 3.334 3.333 3.334h.333c1.84 0 3.333-1.492 3.333-3.334v-3.666h-7zM306.656 157.624v3.666c0 1.842 1.492 3.334 3.333 3.334h.333c1.84 0 3.333-1.492 3.333-3.334v-3.666h-7zM313.656 157.624v3.666c0 1.842 1.492 3.334 3.333 3.334h.333c1.84 0 3.333-1.492 3.333-3.334v-3.666h-7zM320.656 157.624v3.666c0 1.842 1.492 3.334 3.333 3.334h.333c1.84 0 3.333-1.492 3.333-3.334v-3.666h-7zM327.963 157.624v3.666c0 1.842 1.492 3.334 3.333 3.334h.334c1.84 0 3.333-1.492 3.333-3.334v-3.666h-7z"/><path stroke="#3380CF" stroke-width="2" stroke-linecap="round" stroke-linejoin="round" stroke-miterlimit="10" d="M334.963 157.624v3.666c0 1.842 1.492 3.334 3.333 3.334h.334c1.84 0 3.333-1.492 3.333-3.334v-3.666h-7z"/><path stroke="#3380CF" stroke-width="2" stroke-linecap="round" stroke-linejoin="round" stroke-miterlimit="10" d="M341.963 157.624v3.666c0 1.842 1.492 3.334 3.333 3.334h.334c1.84 0 3.333-1.492 3.333-3.334v-3.666h-7zM301.285 124.555v3.666c0 1.843 1.492 3.335 3.333 3.335h.334c1.84 0 3.333-1.492 3.333-3.334v-3.665h-7zM308.81 124.555v3.666c0 1.843 1.492 3.335 3.333 3.335h.334c1.84 0 3.333-1.492 3.333-3.334v-3.665h-7z"/><path stroke="#3380CF" stroke-width="2" stroke-linecap="round" stroke-linejoin="round" stroke-miterlimit="10" d="M315.81 124.555v3.666c0 1.843 1.492 3.335 3.333 3.335h.334c1.84 0 3.333-1.492 3.333-3.334v-3.665h-7z"/><path stroke="#3380CF" stroke-width="2" stroke-linecap="round" stroke-linejoin="round" stroke-miterlimit="10" d="M322.81 124.555v3.666c0 1.843 1.492 3.335 3.333 3.335h.334c1.84 0 3.333-1.492 3.333-3.334v-3.665h-7z"/><path stroke="#3380CF" stroke-width="2" stroke-linecap="round" stroke-linejoin="round" stroke-miterlimit="10" d="M329.81 124.555v3.666c0 1.843 1.492 3.335 3.333 3.335h.334c1.84 0 3.333-1.492 3.333-3.334v-3.665h-7z"/><path stroke="#3380CF" stroke-width="2" stroke-linecap="round" stroke-linejoin="round" stroke-miterlimit="10" d="M336.81 124.555v3.666c0 1.843 1.492 3.335 3.333 3.335h.334c1.84 0 3.333-1.492 3.333-3.334v-3.665h-7z"/><path stroke="#3380CF" stroke-width="2" stroke-linecap="round" stroke-linejoin="round" stroke-miterlimit="10" d="M343.81 124.555v3.666c0 1.843 1.492 3.335 3.333 3.335h.334c1.84 0 3.333-1.492 3.333-3.334v-3.665h-7z"/><path stroke="#3380CF" stroke-width="2" stroke-linecap="round" stroke-linejoin="round" stroke-miterlimit="10" d="M350.81 124.555v3.666c0 1.843 1.492 3.335 3.333 3.335h.334c1.84 0 3.333-1.492 3.333-3.334v-3.665h-7z"/><path stroke="#3380CF" stroke-width="2" stroke-linecap="round" stroke-linejoin="round" stroke-miterlimit="10" d="M357.81 124.555v3.666c0 1.843 1.492 3.335 3.333 3.335h.334c1.84 0 3.333-1.492 3.333-3.334v-3.665h-7zM251.978 103.555v21M280.285 103.555v21M308.285 103.555v21M336.81 103.555v21M346.963 147.054h-45.307l-2 10.57h49.307zM234.978 200.114h56.308v5.437h-56.308zM303.156 164.624v76.93h42.474v-76.93"/><path d="M122.905 197.555h5v23h-5z"/><path stroke="#3380CF" stroke-width="2" stroke-linecap="round" stroke-linejoin="round" stroke-miterlimit="10" d="M122.905 197.555h5v23h-5zM40.905 184.542v40.013h20.978c.064-12 10.044-22.232 22.35-22.232 12.303 0 22.282 10.232 22.346 22.232h16.326V184.55l-82-.008z"/><path d="M36.826 215.943h13.16v11.61h-13.16z"/><path stroke="#3380CF" stroke-width="2" stroke-linecap="round" stroke-linejoin="round" stroke-miterlimit="10" d="M36.826 215.943h13.16v11.61h-13.16z"/><path d="M191.905 219.555h10v7h-10z"/><path stroke="#3380CF" stroke-width="2" stroke-linecap="round" stroke-linejoin="round" stroke-miterlimit="10" d="M191.905 219.555h10v7h-10z"/><circle stroke="#3380CF" stroke-width="2" stroke-linecap="round" stroke-linejoin="round" stroke-miterlimit="10" cx="84.231" cy="223.053" r="17.501"/><circle stroke="#3380CF" stroke-width="2" stroke-linecap="round" stroke-linejoin="round" stroke-miterlimit="10" cx="84.231" cy="222.816" r="9.46"/><path d="M84.23 216.194c-3.724 0-6.74 3.018-6.74 6.74"/><path stroke="#3380CF" stroke-width="2" stroke-linecap="round" stroke-linejoin="round" stroke-miterlimit="10" d="M84.23 216.194c-3.724 0-6.74 3.018-6.74 6.74"/><circle stroke="#3380CF" stroke-width="2" stroke-linecap="round" stroke-linejoin="round" stroke-miterlimit="10" cx="166.536" cy="223.053" r="17.501"/><circle stroke="#3380CF" stroke-width="2" stroke-linecap="round" stroke-linejoin="round" stroke-miterlimit="10" cx="166.536" cy="222.816" r="9.46"/><path d="M166.535 216.194c-3.723 0-6.74 3.018-6.74 6.74"/><path stroke="#3380CF" stroke-width="2" stroke-linecap="round" stroke-linejoin="round" stroke-miterlimit="10" d="M166.535 216.194c-3.723 0-6.74 3.018-6.74 6.74M197.905 187.555h-1.492c-1.254 0-1.508-.295-1.508.96v9.682c0 1.255.254 1.358 1.508 1.358h1.492M196.905 183.555h-26v-25h14M162.3 198.217c.96 0 1.605-.648 1.605-.545v-36.737c0-2.266.632-2.38-1.635-2.38h-26.14c-2.266 0-2.226.114-2.226 2.38v52.102c0 2.267 3.96 5.52 6.226 5.52h1.652c2.19-14.008 14.392-20.34 20.52-20.34zM134.905 182.555h31"/><path stroke="#3380CF" stroke-width="2" stroke-linecap="round" stroke-linejoin="round" stroke-miterlimit="10" d="M136.905 186.555h11v4h-11zM134.026 165.582l8.87 8.87"/><path d="M144.896 158.83l6.208 6.21"/><path stroke="#3380CF" stroke-width="2" stroke-linecap="round" stroke-linejoin="round" stroke-miterlimit="10" d="M144.896 158.83l6.208 6.21"/><path d="M152.286 172.914l7.776 7.775"/><path stroke="#3380CF" stroke-width="2" stroke-linecap="round" stroke-linejoin="round" stroke-miterlimit="10" d="M152.286 172.914l7.776 7.775"/><g stroke="#3380CF" stroke-width="2" stroke-linecap="round" stroke-linejoin="round" stroke-miterlimit="10"><path d="M86.2 184.544l12.284-35.706M95.678 144.7l2.807 4.138.428.146 4.758-1.535c.017 14.6-2.993 27.003-7.03 37.1H76.8c2.61-11.932 8.034-25.988 18.878-39.85z"/></g><g stroke="#3380CF" stroke-width="2" stroke-linecap="round" stroke-linejoin="round" stroke-miterlimit="10"><path d="M125.044 153.87l-24.686 30.675M124.692 153.588l.352.283s-2.203 14.234-13.01 30.68H96.64c1.858-4.647 3.495-9.79 4.722-15.404 12.302-11.277 23.332-15.558 23.332-15.558z"/></g><path stroke="#3380CF" stroke-width="2" stroke-linecap="round" stroke-linejoin="round" stroke-miterlimit="10" d="M1310.614 116.552h197.688v125.003h-197.688z"/><path stroke="#3380CF" stroke-width="2" stroke-linecap="round" stroke-linejoin="round" stroke-miterlimit="10" d="M1384.77 174.486v3.666c0 1.842 1.492 3.334 3.333 3.334h.334c1.84 0 3.333-1.492 3.333-3.334v-3.666h-7z"/><path stroke="#3380CF" stroke-width="2" stroke-linecap="round" stroke-linejoin="round" stroke-miterlimit="10" d="M1391.77 174.486v3.666c0 1.842 1.492 3.334 3.333 3.334h.334c1.84 0 3.333-1.492 3.333-3.334v-3.666h-7z"/><path stroke="#3380CF" stroke-width="2" stroke-linecap="round" stroke-linejoin="round" stroke-miterlimit="10" d="M1398.77 174.486v3.666c0 1.842 1.492 3.334 3.333 3.334h.334c1.84 0 3.333-1.492 3.333-3.334v-3.666h-7z"/><path stroke="#3380CF" stroke-width="2" stroke-linecap="round" stroke-linejoin="round" stroke-miterlimit="10" d="M1405.77 174.486v3.666c0 1.842 1.492 3.334 3.333 3.334h.334c1.84 0 3.333-1.492 3.333-3.334v-3.666h-7zM1413.077 174.486v3.666c0 1.842 1.492 3.334 3.333 3.334h.334c1.84 0 3.333-1.492 3.333-3.334v-3.666h-7z"/><path stroke="#3380CF" stroke-width="2" stroke-linecap="round" stroke-linejoin="round" stroke-miterlimit="10" d="M1420.077 174.486v3.666c0 1.842 1.492 3.334 3.333 3.334h.334c1.84 0 3.333-1.492 3.333-3.334v-3.666h-7z"/><path stroke="#3380CF" stroke-width="2" stroke-linecap="round" stroke-linejoin="round" stroke-miterlimit="10" d="M1427.077 174.486v3.666c0 1.842 1.492 3.334 3.333 3.334h.334c1.84 0 3.333-1.492 3.333-3.334v-3.666h-7zM1488.187 196.114v-27.637c0-3.315.925-3.482-2.393-3.482h-32.64c-3.315 0-3.257.167-3.257 3.482v27.637s38.29-.15 38.29 0zM1451.362 196.114h36.825M1450.076 175.278l12.98 12.98M1465.98 165.4l9.086 9.086M1476.796 182.007l11.378 11.378M1446.1 196.114h46.31v5.437h-46.31zM1388.27 181.486v60.07h42.474v-60.07M1384.77 174.486c0-13.615 11.038-24.653 24.653-24.653 13.616 0 24.654 11.038 24.654 24.653M1402.52 126.333l7 16.5 6.5-16.5zM1434.418 125.6l7.632 16.217 5.857-16.74zM1466.837 123.14l8.632 15.708 4.797-17.074zM1382.462 125.6l-7.632 16.217-5.857-16.74zM1350.043 123.14l-8.632 15.708-4.797-17.074zM1310.614 116.552s91.655 20.74 197.688 0M1352.372 224.96V196.57h9.76c.63 0 1.223-.143 1.76-.385 1.777-.528 3.08-2.155 3.08-4.104v-16.826c0-2.375-1.924-4.3-4.3-4.3s-4.3 1.925-4.3 4.3v12.714h-6v-24.68c0-2.576-2.09-4.666-4.666-4.666-2.578 0-4.667 2.09-4.667 4.666v35.63h-6.427v-14.522c0-2.275-1.845-4.12-4.12-4.12-2.276 0-4.12 1.845-4.12 4.12v18.03c0 .105.022.204.03.307-.008.103-.03.2-.03.306 0 2.277 1.844 4.122 4.12 4.122h10.546v17.797h9.332zM1544.1 242.222v-24.387h9.76c.63 0 1.222-.143 1.76-.385 1.776-.528 3.08-2.155 3.08-4.104V196.52c0-2.375-1.925-4.3-4.3-4.3s-4.3 1.925-4.3 4.3v12.714h-6v-24.68c0-2.577-2.09-4.667-4.667-4.667-2.578 0-4.667 2.09-4.667 4.666v35.63h-6.426V205.66c0-2.274-1.845-4.12-4.12-4.12-2.276 0-4.12 1.846-4.12 4.12v18.032c0 .104.022.203.03.306-.008.103-.03.2-.03.306 0 2.276 1.844 4.12 4.12 4.12h10.546v13.798h9.333zM1334.205 224.96h27.167v4h-27.167z"/><path stroke="#3380CF" stroke-width="2" stroke-linecap="round" stroke-linejoin="round" stroke-miterlimit="10" d="M1357.538 241.555h-19.5l-1-12.596h21.5zM1409.103 181.486v60.07"/><g stroke="#3380CF" stroke-width="2" stroke-linecap="round" stroke-linejoin="round" stroke-miterlimit="10"><path d="M59.654 184.54l-20.52-15.31M75.017 184.545c-8.698-7.736-20.442-15.39-35.897-20.316l.014 5-.27.362-4.797 1.41c3.483 5.12 7.194 9.61 11 13.543"/></g><path stroke="#3380CF" stroke-width="2" stroke-linecap="round" stroke-linejoin="round" stroke-miterlimit="10" d="M1263.615 218.055h47v9h-47zM1267.615 227.055h6v14h-6zM1295.615 227.055h6v14h-6zM1266.615 197.055h3v21h-3zM1284.615 197.055h3v21h-3zM1302.615 197.055h3v21h-3zM1263.615 192.055h47v5h-47zM1278.615 180.093v-6.038h1v6.038c1.132.18 2 1.154 2 2.337v9.625h-5v-9.625c0-1.183.868-2.157 2-2.337zM1017.96 209.555h-98l-2-24.764h102z"/><path stroke="#3380CF" stroke-width="2" stroke-linecap="round" stroke-linejoin="round" stroke-miterlimit="10" d="M1011.96 125.625h-86l4 83.76h78zM968.96 185.23v24.325M944.96 185.23v24.325M992.96 185.23v24.325M1033.96 125.257h-125.5l5-5.5h114z"/><path stroke="#3380CF" stroke-width="2" stroke-linecap="round" stroke-linejoin="round" stroke-miterlimit="10" d="M935.96 143.29h64.5v27.5h-64.5zM1006.96 143.29h-76l5-5.5h64.5zM926.54 143.29h-14.29l14.29-5.5M1012.313 143.29h14.29l-14.29-5.5M920.96 241.055l9-31.67 87.5 32.17M911.96 241.055l9-31.67"/><path stroke="#3380CF" stroke-width="2" stroke-linecap="round" stroke-linejoin="round" stroke-miterlimit="10" d="M1017.46 241.055l-9-31.67-87.5 32.17"/><g stroke="#3380CF" stroke-width="2" stroke-linecap="round" stroke-linejoin="round" stroke-miterlimit="10"><path d="M1202.07 237.266l3.073 3.944c25.012-36.724 15.556-72.457 15.556-72.457l-.438-.12s-26.247 26.026-23.275 70.36l4.648-1.846.435.12zM1220.263 168.634l-18.627 68.513"/></g><path d="M160.405 185.555c4.142 0 7.5-3.357 7.5-7.5s-3.358-7.5-7.5-7.5v15z"/><path stroke="#3380CF" stroke-width="2" stroke-linecap="round" stroke-linejoin="round" stroke-miterlimit="10" d="M160.405 185.555c4.142 0 7.5-3.357 7.5-7.5s-3.358-7.5-7.5-7.5v15zM197.905 187.555c3.313 0 6 2.687 6 6s-2.687 6-6 6"/><circle stroke="#3380CF" stroke-width="2" stroke-linecap="round" stroke-linejoin="round" stroke-miterlimit="10" cx="58.319" cy="204.333" r="4.778"/><path stroke="#3380CF" stroke-width="2" stroke-linecap="round" stroke-linejoin="round" stroke-miterlimit="10" d="M198.905 202.832s7.108 7.334.507 16.732M40.905 190.257h82v3.438h-82z"/><path stroke="#3380CF" stroke-width="2" stroke-linecap="round" stroke-linejoin="round" stroke-miterlimit="10" d="M54.54 190.257h5.932v3.438h-5.93zM78.94 190.257h5.93v3.438h-5.93zM103.34 190.257h5.93v3.438h-5.93z"/></g><path fill="none" stroke="#3380CF" stroke-width="2" stroke-linecap="round" stroke-linejoin="round" stroke-miterlimit="10" d="M1034.14 211.52h127v29.535h-127z"/><path fill="none" stroke="#3380CF" stroke-width="2" stroke-linecap="round" stroke-linejoin="round" stroke-miterlimit="10" d="M1047.14 226.555h12.5v6.404h-12.5zM1108.89 211.52h12.5v6.405h-12.5zM1034.14 211.52h12.5v6.405h-12.5zM1121.39 218.353h12.5v6.404h-12.5zM1148.64 226.555h12.5v6.404h-12.5zM1074.89 234.945h12.5v6.404h-12.5zM1105.14 211.52v-50.478c0-4.9-3.973-8.875-8.875-8.875-4.9 0-8.875 3.974-8.875 8.875v50.48M1087.39 161.042h17.75M1110.14 170.71v-5.668h5.834zM1105.14 201.125h3.75v5.667h-3.75zM1105.14 165.042h5v5.667h-5z"/><g fill="none" stroke="#3380CF" stroke-width="2" stroke-linecap="round" stroke-linejoin="round"><path d="M1113.058 172.125"/><path stroke-dasharray="0,4.8397" d="M1114.672 176.688l10.493 29.656"/><path d="M1125.973 208.625"/></g><g fill="none" stroke="#3380CF" stroke-width="2" stroke-linecap="round" stroke-linejoin="round"><path d="M1115.14 169.792"/><path stroke-dasharray="0,4.7914" d="M1117.223 174.106l15.625 32.362"/><path d="M1133.89 208.625"/></g><g fill="none" stroke="#3380CF" stroke-width="2" stroke-linecap="round" stroke-linejoin="round"><path d="M1117.307 167.875"/><path stroke-dasharray="0,4.7808" d="M1119.807 171.95l21.25 34.638"/><path d="M1142.307 208.625"/></g><path fill="none" stroke="#3380CF" stroke-width="2" stroke-linecap="round" stroke-linejoin="round" stroke-miterlimit="10" d="M1082.39 181.71v-5.668h-5.833zM1082.39 176.042h5v5.667h-5z"/><g fill="none" stroke="#3380CF" stroke-width="2" stroke-linecap="round" stroke-linejoin="round"><path d="M1079.473 183.125"/><path stroke-dasharray="0,4.764" d="M1077.32 187.375l-9.686 19.125"/><path d="M1066.558 208.625"/></g><g fill="none" stroke="#3380CF" stroke-width="2" stroke-linecap="round" stroke-linejoin="round"><path d="M1077.39 180.792"/><path stroke-dasharray="0,4.7942" d="M1074.712 184.768l-14.733 21.87"/><path d="M1058.64 208.625"/></g><g fill="none" stroke="#3380CF" stroke-width="2" stroke-linecap="round" stroke-linejoin="round"><path d="M1075.224 178.875"/><path stroke-dasharray="0,4.8574" d="M1072.1 182.594l-20.314 24.172"/><path d="M1050.224 208.625"/></g><path fill="none" stroke="#3380CF" stroke-width="2" stroke-linecap="round" stroke-linejoin="round" stroke-miterlimit="10" d="M443.832 212.626H502.5v28.93H443.83z"/><path fill="none" stroke="#3380CF" stroke-width="2" stroke-linecap="round" stroke-linejoin="round" stroke-miterlimit="10" d="M466.5 236.96h13.332v4.317H466.5zM466.5 212.626h13.332v4.317H466.5zM466.5 228.277h13.332v3.35H466.5z"/><path fill="none" stroke="#3380CF" stroke-width="2" stroke-linecap="round" stroke-linejoin="round" stroke-miterlimit="10" d="M466.5 220.277h13.332v11.35H466.5zM464 205.293h18.332v7.333H464z"/><circle fill="none" stroke="#3380CF" stroke-width="2" stroke-linecap="round" stroke-linejoin="round" stroke-miterlimit="10" cx="455.565" cy="230.285" r="8.008"/><path fill="none" stroke="#3380CF" stroke-width="2" stroke-linecap="round" stroke-linejoin="round" stroke-miterlimit="10" d="M458.232 230.285c0 1.473-1.194 2.667-2.667 2.667s-2.667-1.194-2.667-2.667 1.194-2.667 2.667-2.667c.736 0 1.403.298 1.886.78.484.484.782 1.15.782 1.887zM452.058 218.527c0 1.426-1.156 2.583-2.583 2.583s-2.583-1.157-2.583-2.583c0-1.427 1.156-2.584 2.583-2.584.713 0 1.36.29 1.827.756.467.468.756 1.113.756 1.827z"/><circle fill="none" stroke="#3380CF" stroke-width="2" stroke-linecap="round" stroke-linejoin="round" stroke-miterlimit="10" cx="490.315" cy="230.285" r="8.008"/><path fill="none" stroke="#3380CF" stroke-width="2" stroke-linecap="round" stroke-linejoin="round" stroke-miterlimit="10" d="M487.648 230.285c0 1.473 1.194 2.667 2.667 2.667s2.667-1.194 2.667-2.667-1.194-2.667-2.667-2.667c-.736 0-1.403.298-1.886.78-.483.484-.782 1.15-.782 1.887zM493.823 218.527c0 1.426 1.156 2.583 2.583 2.583s2.583-1.157 2.583-2.583c0-1.427-1.157-2.584-2.584-2.584-.713 0-1.36.29-1.827.756-.468.468-.757 1.113-.757 1.827z"/><g fill="none" stroke="#3380CF" stroke-width="2" stroke-linecap="round" stroke-linejoin="round" stroke-miterlimit="10"><path d="M514.39 189.626l10 35.65 35.333-3M515.056 241.277l9.334-16M549.723 223.277l10 18.278M549.723 222.277v-9.65"/><path d="M520.653 211.96l32.07-3v3.666l-31.07 3z"/></g><path fill="none" stroke="#3380CF" stroke-width="2" stroke-linecap="round" stroke-linejoin="round" stroke-miterlimit="10" d="M574.232 229.315v-6.038h1v6.038c1.132.18 2 1.154 2 2.337v9.625h-5v-9.625c0-1.182.87-2.156 2-2.337zM1155.162 102.426c-.938-3.855-4.208-6.795-8.236-7.233 0-.032.005-.064.005-.097 0-4.197-3.4-7.6-7.6-7.6-2.812 0-5.263 1.533-6.576 3.805-1.6-2.296-4.253-3.804-7.264-3.804-3.737 0-6.926 2.32-8.223 5.596-1.015-.295-2.084-.46-3.193-.46-6.305 0-11.416 5.11-11.416 11.415 0 .213.02.422.032.634-5.578 1.203-9.76 6.158-9.76 12.094 0 6.836 5.542 12.38 12.377 12.38 1.754 0 3.42-.37 4.93-1.028 2.3 1.875 5.235 3 8.435 3 2.88 0 5.546-.914 7.728-2.465 2.038 1.896 4.762 3.063 7.764 3.063 2.69 0 5.16-.937 7.11-2.494 1.963.93 4.156 1.452 6.472 1.452 8.342 0 15.103-6.762 15.103-15.102-.002-5.644-3.1-10.562-7.688-13.154zM178.07 88.767c-.94-3.855-4.21-6.795-8.237-7.233 0-.032.005-.064.005-.097 0-4.197-3.402-7.6-7.6-7.6-2.813 0-5.264 1.533-6.577 3.805-1.598-2.297-4.252-3.805-7.263-3.805-3.737 0-6.926 2.32-8.223 5.596-1.015-.295-2.084-.46-3.193-.46-6.304 0-11.415 5.11-11.415 11.415 0 .213.02.422.032.634-5.578 1.202-9.76 6.157-9.76 12.093 0 6.836 5.542 12.38 12.377 12.38 1.754 0 3.42-.37 4.93-1.028 2.3 1.875 5.235 3 8.435 3 2.88 0 5.545-.914 7.727-2.465 2.038 1.895 4.762 3.062 7.764 3.062 2.692 0 5.16-.937 7.112-2.494 1.962.93 4.155 1.453 6.47 1.453 8.343 0 15.104-6.762 15.104-15.102-.002-5.644-3.1-10.562-7.687-13.153zM1062.43 77.177c-.48 0-.948.044-1.41.105-2.67-3.813-7.09-6.313-12.1-6.313-7.375 0-13.47 5.412-14.57 12.478-3.793.087-6.84 3.18-6.84 6.992 0 3.866 3.133 7 7 7 1.48 0 2.853-.463 3.983-1.248 2.672 2.664 6.356 4.312 10.428 4.312 3.487 0 6.686-1.215 9.212-3.235 1.312.59 2.765.925 4.298.925 5.804 0 10.51-4.705 10.51-10.51s-4.707-10.508-10.51-10.508zM514.705 113.215c-.48 0-.948.044-1.41.105-2.67-3.813-7.09-6.313-12.1-6.313-7.375 0-13.47 5.413-14.57 12.48-3.793.086-6.84 3.18-6.84 6.99 0 3.867 3.133 7 7 7 1.48 0 2.853-.462 3.983-1.247 2.672 2.664 6.356 4.312 10.428 4.312 3.486 0 6.685-1.215 9.21-3.235 1.313.59 2.766.926 4.3.926 5.803 0 10.508-4.705 10.508-10.51s-4.705-10.508-10.51-10.508zM596.64 241.555s5.204-.24 9.187-3.28c4.584-3.503 8.727-3.503 13.395-1.49 2.378 1.023 8.704 1.423 13.173-2.312 4.47-3.732 12.167-4.988 18.623-1.505 0 0 12.124 8.587 27.88-3.174 18.692-13.953 19.985-4.222 35.827 3.77 0 0 20.96 8.997 40.215-5.373 19.254-14.368 11.942-38.375 11.942-38.375s-6.093-21.57-32.17-20.107c0 0 24.772-15.19 58.493 16.33 35.935 33.588 69.297 55.018 109.755 55.018M601.118 153.795s10.5-4.785 15.5 3.357c0 0 2.25-8.357 15-3.607M631.158 165.7s7.92-3.61 11.69 2.532c0 0 1.697-6.304 11.314-2.72M657.745 148.727s10.5-4.785 15.5 3.357c0 0 2.25-8.357 15-3.607M916.96 119.757V78.5M916.96 82.95h18.18v11.526h-18.18zM916.96 99.135h18.18v11.527h-18.18zM916.96 104.898h18.18M926.05 99.135v11.527"/></svg>