<svg xmlns="http://www.w3.org/2000/svg" width="1588.42" height="242.707" viewBox="0 0 1588.42 242.707"><g fill="none"><path stroke="#3380CF" stroke-width="2.016" stroke-linecap="round" stroke-linejoin="round" stroke-miterlimit="10" d="M1454.456 58.662s21.39 96.227 1.684 182.728M1461.118 59.908s23.97 92.123 4.934 182.824"/><path d="M898.78 241.74v-47.365h-64.497v47.365h5.038v-41.32h54.42v41.32z"/><path stroke="#3380CF" stroke-width="2.016" stroke-linecap="round" stroke-linejoin="round" stroke-miterlimit="10" d="M898.78 241.74v-47.365h-64.497v47.365h5.038v-41.32h54.42v41.32zM34.265 76.464h99.77V241.74h-99.77zM722.418 242.732V100.488H606.522v142.244M161.246 139.955v50.557c0 18.414 14.843 33.34 33.257 33.34 18.413 0 33.257-14.926 33.257-33.34v-50.557h-66.514z"/><path d="M230.783 197.903a2.52 2.52 0 0 1-2.52 2.52h-67.52a2.52 2.52 0 0 1 0-5.04h67.52a2.52 2.52 0 0 1 2.52 2.52"/><path stroke="#3380CF" stroke-width="2.016" stroke-linecap="round" stroke-linejoin="round" stroke-miterlimit="10" d="M230.783 197.903a2.52 2.52 0 0 1-2.52 2.52h-67.52a2.52 2.52 0 0 1 0-5.04h67.52a2.52 2.52 0 0 1 2.52 2.52z"/><path d="M192.487 200.42h5.04v41.32h-5.04z"/><path stroke="#3380CF" stroke-width="2.016" stroke-linecap="round" stroke-linejoin="round" stroke-miterlimit="10" d="M192.487 200.42h5.04v41.32h-5.04z"/><path d="M163.26 241.74h-5.037l4.03-41.32h5.04z"/><path stroke="#3380CF" stroke-width="2.016" stroke-linecap="round" stroke-linejoin="round" stroke-miterlimit="10" d="M163.26 241.74h-5.037l4.03-41.32h5.04z"/><path d="M230.783 242.732h-5.04l-4.03-41.318h5.04z"/><path stroke="#3380CF" stroke-width="2.016" stroke-linecap="round" stroke-linejoin="round" stroke-miterlimit="10" d="M230.783 241.74h-5.04l-4.03-41.32h5.04zM158.223 134.916h72.56v5.04h-72.56zM262.024 157.086h58.452v5.04h-58.452z"/><path stroke="#3380CF" stroke-width="2.016" stroke-linecap="round" stroke-linejoin="round" stroke-miterlimit="10" d="M197.526 139.955v21.33c0 1.764 1.764 3.192 3.527 3.192s3.527-1.43 3.527-3.19V149.23c0-1.763 1.26-3.192 3.023-3.192 1.762 0 3.023 1.43 3.023 3.19V154.903c0 1.763 1.26 3.193 3.023 3.193s3.023-1.43 3.023-3.193v-14.947h-19.147zM201.557 134.916v5.04M220.705 134.916v5.04"/><circle stroke="#3380CF" stroke-width="2.016" stroke-linecap="round" stroke-linejoin="round" stroke-miterlimit="10" cx="169.434" cy="122.192" r="5.165"/><circle stroke="#3380CF" stroke-width="2.016" stroke-linecap="round" stroke-linejoin="round" stroke-miterlimit="10" cx="201.683" cy="103.043" r="5.165"/><path stroke="#3380CF" stroke-width="2.016" stroke-linecap="round" stroke-linejoin="round" stroke-miterlimit="10" d="M205.588 134.285a5.163 5.163 0 0 1 5.165-5.163 5.164 5.164 0 0 1 5.165 5.163"/><circle stroke="#3380CF" stroke-width="2.016" stroke-linecap="round" stroke-linejoin="round" stroke-miterlimit="10" cx="192.613" cy="122.192" r="3.803"/><circle stroke="#3380CF" stroke-width="2.016" stroke-linecap="round" stroke-linejoin="round" stroke-miterlimit="10" cx="216.8" cy="118.161" r="3.804"/><circle stroke="#3380CF" stroke-width="2.016" stroke-linecap="round" stroke-linejoin="round" stroke-miterlimit="10" cx="178.504" cy="107.076" r="3.804"/><path stroke="#3380CF" stroke-width="2.016" stroke-linecap="round" stroke-linejoin="round" stroke-miterlimit="10" d="M34.265 76.758c0-27.46 22.26-49.718 49.718-49.718 27.458 0 49.717 22.258 49.717 49.718M73.81 35.796a42.775 42.775 0 0 1 10.1-1.203M45.173 59.39A42.8 42.8 0 0 1 66.65 38.23"/><circle stroke="#3380CF" stroke-width="2.142" stroke-linecap="round" stroke-linejoin="round" stroke-miterlimit="10" cx="85.158" cy="128.67" r="33.814"/><circle stroke="#3380CF" stroke-width="2.016" stroke-linecap="round" stroke-linejoin="round" stroke-miterlimit="10" cx="85.158" cy="128.67" r="23.528"/><circle stroke="#3380CF" stroke-width="2.016" stroke-linecap="round" stroke-linejoin="round" stroke-miterlimit="10" cx="85.158" cy="99.895" r="2.015"/><circle stroke="#3380CF" stroke-width="2.016" stroke-linecap="round" stroke-linejoin="round" stroke-miterlimit="10" cx="85.158" cy="157.338" r="2.015"/><circle stroke="#3380CF" stroke-width="2.016" stroke-linecap="round" stroke-linejoin="round" stroke-miterlimit="10" cx="113.879" cy="128.617" r="2.016"/><circle stroke="#3380CF" stroke-width="2.016" stroke-linecap="round" stroke-linejoin="round" stroke-miterlimit="10" cx="56.436" cy="128.617" r="2.016"/><circle stroke="#3380CF" stroke-width="2.016" stroke-linecap="round" stroke-linejoin="round" stroke-miterlimit="10" cx="105.467" cy="108.308" r="2.016"/><circle stroke="#3380CF" stroke-width="2.016" stroke-linecap="round" stroke-linejoin="round" stroke-miterlimit="10" cx="64.848" cy="148.926" r="2.016"/><circle stroke="#3380CF" stroke-width="2.016" stroke-linecap="round" stroke-linejoin="round" stroke-miterlimit="10" cx="105.468" cy="148.926" r="2.016"/><circle stroke="#3380CF" stroke-width="2.016" stroke-linecap="round" stroke-linejoin="round" stroke-miterlimit="10" cx="64.848" cy="108.308" r="2.016"/><path stroke="#3380CF" stroke-width="2.016" stroke-linecap="round" stroke-linejoin="round" stroke-miterlimit="10" d="M62.338 134.412s12.238.61 22.82-5.74c10.582-6.354 22.845-5.637 22.845-5.637"/><path stroke="#3380CF" stroke-width="2.016" stroke-linecap="round" stroke-linejoin="round" stroke-miterlimit="10" d="M62.637 123.074s5.64-.252 11.688 1.008c6.047 1.26 15.844 1.84 18.967.998M75.584 118.287s-1.51-2.52 0-5.038c1.512-2.522 0-4.94 0-4.94M95.74 118.287s-1.512-2.52 0-5.038c1.51-2.522 0-4.94 0-4.94M85.662 118.287s-1.512-3.317 0-6.637c1.51-3.318 0-6.51 0-6.51"/><path d="M130.004 167.165h8.062v20.155h-8.062z"/><path stroke="#3380CF" stroke-width="2.016" stroke-linecap="round" stroke-linejoin="round" stroke-miterlimit="10" d="M130.004 167.165h8.062v20.155h-8.062z"/><path d="M157.214 167.165h8.063v20.155h-8.063z"/><path stroke="#3380CF" stroke-width="2.016" stroke-linecap="round" stroke-linejoin="round" stroke-miterlimit="10" d="M157.214 167.165h8.063v20.155h-8.063z"/><path d="M223.73 167.165h8.06v20.155h-8.06z"/><path stroke="#3380CF" stroke-width="2.016" stroke-linecap="round" stroke-linejoin="round" stroke-miterlimit="10" d="M223.73 167.165h8.06v20.155h-8.06z"/><path d="M138.066 170.19h19.148v14.106h-19.148z"/><path stroke="#3380CF" stroke-width="2.016" stroke-linecap="round" stroke-linejoin="round" stroke-miterlimit="10" d="M138.066 170.19h19.148v14.106h-19.148z"/><path d="M142.098 169.18v16.125"/><path stroke="#3380CF" stroke-width="2.016" stroke-linecap="round" stroke-linejoin="round" stroke-miterlimit="10" d="M142.098 169.18v16.125"/><path d="M146.128 169.18v16.125"/><path stroke="#3380CF" stroke-width="2.016" stroke-linecap="round" stroke-linejoin="round" stroke-miterlimit="10" d="M146.128 169.18v16.125"/><path d="M150.16 169.18v16.125"/><path stroke="#3380CF" stroke-width="2.016" stroke-linecap="round" stroke-linejoin="round" stroke-miterlimit="10" d="M150.16 169.18v16.125"/><path d="M154.19 169.18v16.125"/><path stroke="#3380CF" stroke-width="2.016" stroke-linecap="round" stroke-linejoin="round" stroke-miterlimit="10" d="M154.19 169.18v16.125M0 209.492h8.062v7.055H0z"/><path d="M31.242 210.483h5.04v7.055h-5.04z"/><path stroke="#3380CF" stroke-width="2.016" stroke-linecap="round" stroke-linejoin="round" stroke-miterlimit="10" d="M31.242 209.492h5.04v7.055h-5.04zM8.062 213.523h3.024s2.015-.002 2.015 3.023v17.133s-.335 3.022 3.024 3.022h7.055c3.358 0 3.022-3.023 3.022-3.023v-17.134c0-3.025 2.016-3.023 2.016-3.023h3.023M317.957 218.562a2.52 2.52 0 0 0 0-5.04h-.504v-25.195h.504a2.52 2.52 0 0 0 0-5.04h-.504v-21.163h-52.405v21.164h-.504a2.52 2.52 0 0 0 0 5.04h.504v25.194h-.504a2.52 2.52 0 0 0 0 5.04h.504v18.14h-3.024v5.038h58.452v-5.037h-3.023v-18.14h.504zM262.024 236.703h35.273M265.048 183.29h24.186M292.258 183.29h3.023M265.048 188.328h9.07M278.148 188.328h26.204M312.414 183.29h5.04M265.048 218.562h15.116M283.188 218.562h8.062M274.118 213.523h24.187M307.375 213.523h10.078M311.406 236.703h6.047"/><path stroke="#3380CF" stroke-width="2.016" stroke-linecap="round" stroke-linejoin="round" stroke-miterlimit="10" d="M269.08 157.086v-3.023c0-5.75-6.42-5.823-6.455-5.827-6.396 0-6.647 4.734-6.647 4.82v12.43c0 15.788-7.936 15.788-10.078 15.788h-14.11v-7.055h11.885c4.24 0 5.25-1.607 5.25-8.735V153.15c0-.99.493-5.207 3.575-8.524 1.535-1.652 4.753-3.57 9.726-3.57 11.515 0 13.91 8.222 13.91 13.26v2.772M502.885 205.445c0 5.564-4.512 10.078-10.078 10.078h-155.2c-5.565 0-10.077-4.514-10.077-10.078 0-5.565 4.512-10.078 10.077-10.078h155.2c5.566 0 10.078 4.512 10.078 10.078z"/><circle stroke="#3380CF" stroke-width="2.016" stroke-linecap="round" stroke-linejoin="round" stroke-miterlimit="10" cx="337.923" cy="205.739" r="6.928"/><path d="M335.593 241.724v-35.776a2.52 2.52 0 0 1 5.04 0v35.776"/><path stroke="#3380CF" stroke-width="2.016" stroke-linecap="round" stroke-linejoin="round" stroke-miterlimit="10" d="M335.593 241.724v-35.776a2.52 2.52 0 0 1 5.04 0v35.776"/><circle stroke="#3380CF" stroke-width="2.016" stroke-linecap="round" stroke-linejoin="round" stroke-miterlimit="10" cx="492.115" cy="205.739" r="6.928"/><path d="M489.784 241.724v-35.776a2.52 2.52 0 0 1 5.04 0v35.776"/><path stroke="#3380CF" stroke-width="2.016" stroke-linecap="round" stroke-linejoin="round" stroke-miterlimit="10" d="M489.784 241.724v-35.776a2.52 2.52 0 0 1 5.04 0v35.776"/><path d="M349.702 144.994h5.04v96.746h-5.04z"/><path stroke="#3380CF" stroke-width="2.016" stroke-linecap="round" stroke-linejoin="round" stroke-miterlimit="10" d="M349.702 144.994h5.04v96.746h-5.04z"/><path d="M412.184 144.994h5.04v96.746h-5.04z"/><path stroke="#3380CF" stroke-width="2.016" stroke-linecap="round" stroke-linejoin="round" stroke-miterlimit="10" d="M412.184 144.994h5.04v96.746h-5.04z"/><path d="M346.678 119.798h73.568v25.195h-73.568z"/><path stroke="#3380CF" stroke-width="2.016" stroke-linecap="round" stroke-linejoin="round" stroke-miterlimit="10" d="M346.678 119.798h73.568v25.195h-73.568z"/><path d="M358.772 114.76h48.374v5.038h-48.374z"/><path stroke="#3380CF" stroke-width="2.016" stroke-linecap="round" stroke-linejoin="round" stroke-miterlimit="10" d="M358.772 114.76h48.374v5.038h-48.374zM358.772 144.994v5.038h48.374v-5.038"/><path stroke="#3380CF" stroke-width="2.016" stroke-linejoin="round" stroke-miterlimit="10" d="M363.223 115.053c0-10.528 8.535-19.063 19.064-19.063 10.528 0 19.063 8.535 19.063 19.063"/><path stroke="#3380CF" stroke-width="1.643" stroke-linecap="round" stroke-linejoin="round" stroke-miterlimit="10" d="M369.122 107.304c2.748-4.374 7.617-7.285 13.166-7.285"/><path stroke="#3380CF" stroke-width="2.016" stroke-linecap="round" stroke-linejoin="round" stroke-miterlimit="10" d="M372.88 97.627v-7.054h18.14v7.054"/><path stroke="#3380CF" stroke-width="2.016" stroke-linecap="round" stroke-linejoin="round" stroke-miterlimit="10" d="M303.596 157.12c-.007-.797.062-7.93 4.794-12.708 2.62-2.645 6.05-3.984 10.196-3.984 9.632 0 10.96-4.708 10.96-9.795V88.556c-.01-.492-.002-5.542 3.703-9.32 2.457-2.508 5.83-3.78 10.027-3.78h30.36c4.96 0 12.345 3.22 12.345 12.095v3.023h-7.055V87.55c0-1.487-.52-4.95-5.32-5.04h-30.33c-2.23 0-3.908.56-4.99 1.663-1.635 1.67-1.687 4.29-1.687 4.314v42.145c0 10.865-6.397 16.85-18.014 16.85-2.226 0-3.92.618-5.184 1.893-2.285 2.307-2.765 6.42-2.752 7.68l-7.054.065zM385.982 130.884h26.202v5.04h-26.202z"/><path d="M402.107 128.87H414.2v9.07h-12.093z"/><path stroke="#3380CF" stroke-width="2.016" stroke-linecap="round" stroke-linejoin="round" stroke-miterlimit="10" d="M402.107 128.87H414.2v9.07h-12.093z"/><path d="M362.3 132.396a3.528 3.528 0 1 1-7.056 0 3.528 3.528 0 0 1 7.055 0"/><circle stroke="#3380CF" stroke-width="2.016" stroke-linecap="round" stroke-linejoin="round" stroke-miterlimit="10" cx="358.772" cy="132.396" r="3.527"/><path d="M374.393 132.396a3.528 3.528 0 1 1-7.055 0 3.528 3.528 0 0 1 7.055 0"/><circle stroke="#3380CF" stroke-width="2.016" stroke-linecap="round" stroke-linejoin="round" stroke-miterlimit="10" cx="370.865" cy="132.396" r="3.527"/><path stroke="#3380CF" stroke-width="2.016" stroke-linecap="round" stroke-linejoin="round" stroke-miterlimit="10" d="M402.904 150.663s-.775 9.134-5.794 11.654c-5.02 2.52-10.457 4.848-10.457 7.872h-6.97c0-3.025-5.543-5.355-10.56-7.873-5.02-2.52-5.9-11.654-5.9-11.654M386.226 180.508a2.77 2.77 0 0 1-5.54 0c0-1.528 1.24-7.177 2.77-7.177 1.53.002 2.77 5.65 2.77 7.178zM359.78 189.32h47.366v6.047H359.78zM430.324 189.32h47.367v6.047h-47.366zM824.27 205.445c0 5.564-4.512 10.078-10.078 10.078h-66.644c-5.566 0-10.078-4.514-10.078-10.078 0-5.565 4.512-10.078 10.078-10.078h66.644c5.566 0 10.078 4.512 10.078 10.078z"/><circle stroke="#3380CF" stroke-width="2.016" stroke-linecap="round" stroke-linejoin="round" stroke-miterlimit="10" cx="747.863" cy="205.739" r="6.928"/><path d="M745.532 241.724v-35.776a2.52 2.52 0 0 1 2.52-2.52 2.52 2.52 0 0 1 2.52 2.52v35.776"/><path stroke="#3380CF" stroke-width="2.016" stroke-linecap="round" stroke-linejoin="round" stroke-miterlimit="10" d="M745.532 241.724v-35.776a2.52 2.52 0 0 1 2.52-2.52 2.52 2.52 0 0 1 2.52 2.52v35.776"/><circle stroke="#3380CF" stroke-width="2.016" stroke-linecap="round" stroke-linejoin="round" stroke-miterlimit="10" cx="813.499" cy="205.739" r="6.928"/><path d="M811.17 241.724v-35.776a2.52 2.52 0 0 1 5.038 0v35.776"/><path stroke="#3380CF" stroke-width="2.016" stroke-linecap="round" stroke-linejoin="round" stroke-miterlimit="10" d="M811.17 241.724v-35.776a2.52 2.52 0 0 1 5.038 0v35.776M995.09 205.445c0 5.564-4.514 10.078-10.078 10.078h-66.645c-5.566 0-10.078-4.514-10.078-10.078 0-5.565 4.51-10.078 10.077-10.078h66.645c5.565 0 10.078 4.512 10.078 10.078z"/><circle stroke="#3380CF" stroke-width="2.016" stroke-linecap="round" stroke-linejoin="round" stroke-miterlimit="10" cx="918.683" cy="205.739" r="6.929"/><path d="M916.352 241.724v-35.776a2.52 2.52 0 0 1 5.04 0v35.776"/><path stroke="#3380CF" stroke-width="2.016" stroke-linecap="round" stroke-linejoin="round" stroke-miterlimit="10" d="M916.352 241.724v-35.776a2.52 2.52 0 0 1 5.04 0v35.776"/><circle stroke="#3380CF" stroke-width="2.016" stroke-linecap="round" stroke-linejoin="round" stroke-miterlimit="10" cx="984.319" cy="205.739" r="6.928"/><path d="M981.99 241.724v-35.776a2.52 2.52 0 0 1 5.04 0v35.776"/><path stroke="#3380CF" stroke-width="2.016" stroke-linecap="round" stroke-linejoin="round" stroke-miterlimit="10" d="M981.99 241.724v-35.776a2.52 2.52 0 0 1 5.04 0v35.776M571.415 204.453v-6.047H524.05v6.047M571.415 190.344v-6.048H524.05v6.048M571.415 176.235v-6.046H524.05v6.045M571.415 162.125v-6.046H524.05v6.045M571.415 148.017v-6.047H524.05v6.047"/><circle stroke="#3380CF" stroke-width="2.016" stroke-linecap="round" stroke-linejoin="round" stroke-miterlimit="10" cx="576.769" cy="233.805" r="6.928"/><circle stroke="#3380CF" stroke-width="2.016" stroke-linecap="round" stroke-linejoin="round" stroke-miterlimit="10" cx="517.31" cy="233.805" r="6.928"/><path d="M579.477 125.846v107.75a2.52 2.52 0 0 1-5.04 0V131.89h-54.42v101.705a2.52 2.52 0 0 1-5.04 0v-107.75h64.5z"/><path stroke="#3380CF" stroke-width="2.016" stroke-linecap="round" stroke-linejoin="round" stroke-miterlimit="10" d="M579.477 125.846v107.75a2.52 2.52 0 0 1-5.04 0V131.89h-54.42v101.705a2.52 2.52 0 0 1-5.04 0v-107.75h64.5z"/><path d="M520.018 214.53h54.42v5.04h-54.42z"/><path stroke="#3380CF" stroke-width="2.016" stroke-linecap="round" stroke-linejoin="round" stroke-miterlimit="10" d="M520.018 214.53h54.42v5.04h-54.42z"/><path d="M520.018 148.017h54.42"/><path stroke="#3380CF" stroke-width="2.016" stroke-linecap="round" stroke-linejoin="round" stroke-miterlimit="10" d="M520.018 148.017h54.42"/><path d="M520.018 162.125h54.42"/><path stroke="#3380CF" stroke-width="2.016" stroke-linecap="round" stroke-linejoin="round" stroke-miterlimit="10" d="M520.018 162.125h54.42"/><path d="M520.018 176.235h54.42"/><path stroke="#3380CF" stroke-width="2.016" stroke-linecap="round" stroke-linejoin="round" stroke-miterlimit="10" d="M520.018 176.235h54.42"/><path d="M520.018 190.344h54.42"/><path stroke="#3380CF" stroke-width="2.016" stroke-linecap="round" stroke-linejoin="round" stroke-miterlimit="10" d="M520.018 190.344h54.42"/><path d="M520.018 204.453h54.42"/><path stroke="#3380CF" stroke-width="2.016" stroke-linecap="round" stroke-linejoin="round" stroke-miterlimit="10" d="M520.018 204.453h54.42"/><path d="M721.2 108.676c3.895 0 7.075-3.22 7.075-7.116 0-3.898-2.97-7.12-6.865-7.12H607.53a7.055 7.055 0 0 0 0 14.11h15.117l5.71 18.476 6.13-18.475h4.285l4.03 11.34 4.284-11.34h37.036l3.78 24.818 3.526-24.817h19.904l4.787 13.858 5.08-13.732z"/><path stroke="#3380CF" stroke-width="2.016" stroke-linecap="round" stroke-linejoin="round" stroke-miterlimit="10" d="M721.2 108.676c3.895 0 7.075-3.22 7.075-7.116 0-3.898-2.97-7.12-6.865-7.12H607.53a7.055 7.055 0 0 0 0 14.11h15.117l5.71 18.476 6.13-18.475h4.285l4.03 11.34 4.284-11.34h37.036l3.78 24.818 3.526-24.817h19.904l4.787 13.858 5.08-13.732z"/><path d="M636.756 50.1h55.43v44.34h-55.43z"/><path stroke="#3380CF" stroke-width="2.016" stroke-linecap="round" stroke-linejoin="round" stroke-miterlimit="10" d="M636.756 50.1h55.43v44.34h-55.43z"/><path d="M691.04 53.25c1.83 0 3.32-1.26 3.32-3.087 0-1.83-1.393-3.088-3.22-3.088H637.7c-1.827 0-3.31 1.698-3.31 3.526 0 1.83 1.482 3.53 3.31 3.53h7.095l2.68 7.66 2.877-8.67h2.01l1.892 5.32 2.01-5.32 34.777.13z"/><path stroke="#3380CF" stroke-width="2.016" stroke-linecap="round" stroke-linejoin="round" stroke-miterlimit="10" d="M691.04 53.25c1.83 0 3.32-1.26 3.32-3.087 0-1.83-1.393-3.088-3.22-3.088H637.7c-1.827 0-3.31 1.698-3.31 3.526 0 1.83 1.482 3.53 3.31 3.53h7.095l2.68 7.66 2.877-8.67h2.01l1.892 5.32 2.01-5.32 34.777.13z"/><path d="M679.083 74.286c0 8.07-6.543 14.612-14.613 14.612s-14.613-6.542-14.613-14.612 6.543-14.614 14.613-14.614 14.613 6.543 14.613 14.614"/><circle stroke="#3380CF" stroke-width="2.016" stroke-linecap="round" stroke-linejoin="round" stroke-miterlimit="10" cx="664.47" cy="74.286" r="14.613"/><path d="M663.286 76.705s-.985 2.187-1.47 5.264c-.488 3.075-3.635 2.607-5.428.65-1.794-1.952-3.113-6.45 4.65-7.71"/><path stroke="#3380CF" stroke-width="2.016" stroke-linecap="round" stroke-linejoin="round" stroke-miterlimit="10" d="M663.286 76.705s-.985 2.187-1.47 5.264c-.488 3.075-3.635 2.607-5.428.65-1.794-1.952-3.113-6.45 4.65-7.71"/><path d="M665.75 71.385s.985-2.188 1.47-5.263c.488-3.077 3.635-2.61 5.427-.655 1.794 1.955 3.114 6.452-4.65 7.713"/><path stroke="#3380CF" stroke-width="2.016" stroke-linecap="round" stroke-linejoin="round" stroke-miterlimit="10" d="M665.75 71.385s.985-2.188 1.47-5.263c.488-3.077 3.635-2.61 5.427-.655 1.794 1.955 3.114 6.452-4.65 7.713"/><path d="M661.858 72.815s-2.187-.987-5.264-1.474c-3.076-.484-2.608-3.632-.654-5.425 1.954-1.795 6.452-3.113 7.714 4.65"/><path stroke="#3380CF" stroke-width="2.016" stroke-linecap="round" stroke-linejoin="round" stroke-miterlimit="10" d="M661.858 72.815s-2.187-.987-5.264-1.474c-3.076-.484-2.608-3.632-.654-5.425 1.954-1.795 6.452-3.113 7.714 4.65"/><path d="M667.178 75.275s2.187.987 5.263 1.473c3.077.486 2.61 3.634.655 5.427-1.954 1.794-6.452 3.114-7.713-4.65"/><path stroke="#3380CF" stroke-width="2.016" stroke-linecap="round" stroke-linejoin="round" stroke-miterlimit="10" d="M667.178 75.275s2.187.987 5.263 1.473c3.077.486 2.61 3.634.655 5.427-1.954 1.794-6.452 3.114-7.713-4.65"/><path d="M666.274 76.14a2.772 2.772 0 1 1 0-3.92 2.77 2.77 0 0 1 0 3.92"/><circle stroke="#3380CF" stroke-width="2.016" stroke-linecap="round" stroke-linejoin="round" stroke-miterlimit="10" cx="664.314" cy="74.182" r="2.771"/><path stroke="#3380CF" stroke-width="2.016" stroke-linecap="round" stroke-linejoin="round" stroke-miterlimit="10" d="M676.337 66.76s4.426-2.82 10.137 0c5.71 2.822 10.582 0 10.582 0s5.544-2.654 10.918 0M676.337 73.814s4.426-2.82 10.137 0c5.71 2.823 10.582 0 10.582 0s5.544-2.652 10.918 0M676.337 80.87s4.426-2.822 10.137 0c5.71 2.82 10.582 0 10.582 0s5.544-2.653 10.918 0M615.87 66.76s4.426-2.82 10.137 0c5.71 2.822 10.582 0 10.582 0M615.87 73.814s4.426-2.82 10.137 0c5.71 2.823 10.582 0 10.582 0M615.87 80.87s4.426-2.822 10.137 0c5.71 2.82 10.582 0 10.582 0M461.117 161.358s2.82 4.425 0 10.136c-2.822 5.71 0 10.582 0 10.582M454.062 161.358s2.822 4.425 0 10.136c-2.82 5.71 0 10.582 0 10.582M447.007 161.358s2.822 4.425 0 10.136c-2.82 5.71 0 10.582 0 10.582"/><path d="M733.168 243.708c0-5.938-7.97-12.732-17.805-12.732-5.63 0-10.642 1.583-13.904 4.046-3.55-4.36-8.957-7.15-15.017-7.15-2.78 0-5.418.596-7.808 1.652-4.97-5.98-13.917-9.97-24.132-9.97-11.31 0-21.067 4.896-25.588 11.965a41.975 41.975 0 0 0-6.77-.544c-11.968 0-21.668 6.795-21.668 12.732"/><path stroke="#3380CF" stroke-width="2.016" stroke-linecap="round" stroke-linejoin="round" stroke-miterlimit="10" d="M733.168 241.724c0-5.938-7.97-10.75-17.805-10.75-5.63 0-10.642 1.584-13.904 4.047-3.55-4.36-8.957-7.15-15.017-7.15-2.78 0-5.418.597-7.808 1.653-4.97-5.98-13.917-9.97-24.132-9.97-11.31 0-21.067 4.896-25.588 11.965a41.975 41.975 0 0 0-6.77-.543c-11.968 0-21.668 4.812-21.668 10.75M843.352 188.328h47.368v6.047h-47.368zM866.532 188.328v6.047M854.438 188.328v6.047M878.625 188.328v6.047M843.352 182.28h47.368v6.048h-47.368zM866.532 182.28v6.048M854.438 182.28v6.048M878.625 182.28v6.048"/><path stroke="#3380CF" stroke-width="2.016" stroke-linecap="round" stroke-linejoin="round" stroke-miterlimit="10" d="M843.352 176.235h47.368v6.046h-47.368zM866.532 176.235v6.046M854.438 176.235v6.046M878.625 176.235v6.046M849.4 170.19h35.27v6.045H849.4zM872.58 170.19v6.045M860.485 170.19v6.045M855.446 164.142h23.18v6.047h-23.18zM866.532 164.142v6.047M860.485 158.095h12.094v6.047h-12.095zM928.006 171.18h47.365v24.187h-47.364z"/><path stroke="#3380CF" stroke-width="2.016" stroke-linecap="round" stroke-linejoin="round" stroke-miterlimit="10" d="M947.155 171.18h10.078v12.093h-10.078zM1192.047 217.554h47.365v24.186h-47.365z"/><path stroke="#3380CF" stroke-width="2.016" stroke-linecap="round" stroke-linejoin="round" stroke-miterlimit="10" d="M1211.194 217.554h10.078v12.094h-10.078z"/><path d="M1097.315 197.398h5.04v23.18h-5.04z"/><path stroke="#3380CF" stroke-width="2.016" stroke-linecap="round" stroke-linejoin="round" stroke-miterlimit="10" d="M1097.315 197.398h5.04v23.18h-5.04z"/><path d="M1173.907 189.25v26.456c0 4.74-2.143 9.91-6.88 9.91h-3.26c.026 0 .04-1.534.04-1.975 0-12.437-10.084-22.855-22.523-22.855s-22.523 10.584-22.523 23.022c0 .44.017 1.81.042 1.81h-6.117c-4.74 0-10.33-5.17-10.33-9.91v-59.35c0-4.738 5.59-6.325 10.33-6.325h34.32c4.74 0 8.582 2.76 8.582 7.498l5.72 22.362 11.933 6.838s.667.436.667 2.52"/><path stroke="#3380CF" stroke-width="2.016" stroke-linecap="round" stroke-linejoin="round" stroke-miterlimit="10" d="M1173.907 189.25v26.456c0 4.74-2.143 9.91-6.88 9.91h-3.26c.026 0 .04-1.534.04-1.975 0-12.437-10.084-21.854-22.523-21.854s-22.523 9.583-22.523 22.02c0 .442.017 1.81.042 1.81h-6.117c-4.74 0-10.33-5.17-10.33-9.91v-59.348c0-4.74 5.59-6.326 10.33-6.326h34.32c4.74 0 8.582 2.76 8.582 7.498l5.72 22.362 11.933 6.838s.667.436.667 2.52z"/><path stroke="#3380CF" stroke-width="2.016" stroke-linecap="round" stroke-linejoin="round" stroke-miterlimit="10" d="M1014.676 114.76v109.85h21.14c.065-12.095 10.124-23.408 22.524-23.408 12.398 0 22.457 11.313 22.52 23.407h16.455v-80.624h44.342V114.76h-126.98z"/><path d="M1008.63 212.515h17.132v15.116h-17.133z"/><path stroke="#3380CF" stroke-width="2.016" stroke-linecap="round" stroke-linejoin="round" stroke-miterlimit="10" d="M1008.63 212.515h17.132v15.116h-17.133z"/><path d="M1166.852 212.515h10.078v15.116h-10.078z"/><path stroke="#3380CF" stroke-width="2.016" stroke-linecap="round" stroke-linejoin="round" stroke-miterlimit="10" d="M1166.852 212.515h10.078v15.116h-10.078z"/><circle stroke="#3380CF" stroke-width="2.016" stroke-linecap="round" stroke-linejoin="round" stroke-miterlimit="10" cx="1058.339" cy="223.094" r="17.638"/><circle stroke="#3380CF" stroke-width="2.016" stroke-linecap="round" stroke-linejoin="round" stroke-miterlimit="10" cx="1058.339" cy="222.857" r="9.534"/><path d="M1058.34 216.183a6.793 6.793 0 0 0-6.795 6.793"/><path stroke="#3380CF" stroke-width="2.016" stroke-linecap="round" stroke-linejoin="round" stroke-miterlimit="10" d="M1058.34 216.183a6.793 6.793 0 0 0-6.795 6.793"/><circle stroke="#3380CF" stroke-width="2.016" stroke-linecap="round" stroke-linejoin="round" stroke-miterlimit="10" cx="1141.285" cy="223.094" r="17.638"/><circle stroke="#3380CF" stroke-width="2.016" stroke-linecap="round" stroke-linejoin="round" stroke-miterlimit="10" cx="1141.285" cy="222.857" r="9.534"/><path d="M1141.284 216.183a6.793 6.793 0 0 0-6.793 6.793"/><path stroke="#3380CF" stroke-width="2.016" stroke-linecap="round" stroke-linejoin="round" stroke-miterlimit="10" d="M1141.284 216.183a6.793 6.793 0 0 0-6.793 6.793"/><path d="M1009.637 114.76h8.062v9.07h-8.063z"/><path stroke="#3380CF" stroke-width="2.016" stroke-linecap="round" stroke-linejoin="round" stroke-miterlimit="10" d="M1009.637 114.76h8.062v9.07h-8.063zM1173.907 190.344h-5.535c-1.264 0-1.52 1.718-1.52 2.98v6.736c0 1.264.256 2.376 1.52 2.376h5.535M1169.875 191.35v10.08M1155.766 158.095h-7.053v23.18h14.108M1140.04 199.066c.97 0 1.617-.652 1.617-.55v-38.023c0-2.283.637-2.397-1.648-2.397h-29.366c-2.285 0-2.244.114-2.244 2.397V213c0 2.284 3.992 5.562 6.275 5.562h1.664c2.64-11.086 11.56-19.496 23.7-19.496zM1109.41 182.28h34.262"/><path stroke="#3380CF" stroke-width="2.016" stroke-linecap="round" stroke-linejoin="round" stroke-miterlimit="10" d="M1111.422 186.312h11.086v4.032h-11.086zM1108.522 165.177l8.937 8.938"/><path d="M1119.477 158.373l6.256 6.257"/><path stroke="#3380CF" stroke-width="2.016" stroke-linecap="round" stroke-linejoin="round" stroke-miterlimit="10" d="M1119.477 158.373l6.256 6.257"/><path d="M1126.924 172.566l7.836 7.836"/><path stroke="#3380CF" stroke-width="2.016" stroke-linecap="round" stroke-linejoin="round" stroke-miterlimit="10" d="M1126.924 172.566l7.836 7.836"/><path d="M1134.604 171.196h10.076v15.116h-10.076z"/><path stroke="#3380CF" stroke-width="2.016" stroke-linecap="round" stroke-linejoin="round" stroke-miterlimit="10" d="M1134.604 171.196h10.076v15.116h-10.076zM1254.15 102.666h142.478V241.74h-142.48z"/><circle stroke="#3380CF" stroke-width="2.016" stroke-linecap="round" stroke-linejoin="round" stroke-miterlimit="10" cx="1274.348" cy="224.609" r="15.789"/><circle stroke="#3380CF" stroke-width="2.016" stroke-linecap="round" stroke-linejoin="round" stroke-miterlimit="10" cx="1332.8" cy="224.609" r="15.788"/><path stroke="#3380CF" stroke-width="2.016" stroke-linecap="round" stroke-linejoin="round" stroke-miterlimit="10" d="M1274.348 224.61c6.72-3.36 10.078-15.79 10.078-15.79l2.352-9.07s-6.383-4.033-1.344-8.734c2.52-2.35 6.635-1.68 10.12-.418"/><path stroke="#3380CF" stroke-width="2.016" stroke-linecap="round" stroke-linejoin="round" stroke-miterlimit="10" d="M1286.778 199.75l28.22 7.28 17.8 17.58-28.55 2.35-19.357-19.93zM1304.247 226.96l14.11-24.86M1311.3 199.75s8.4 2.686 11.76 2.35c3.357-.334 6.444-3.98-11.76-2.35z"/><circle stroke="#3380CF" stroke-width="2.016" stroke-linecap="round" stroke-linejoin="round" stroke-miterlimit="10" cx="1304.246" cy="226.96" r="4.599"/><circle stroke="#3380CF" stroke-width="2.016" stroke-linecap="round" stroke-linejoin="round" stroke-miterlimit="10" cx="1332.799" cy="224.609" r="3.023"/><path stroke="#3380CF" stroke-width="2.016" stroke-linecap="round" stroke-linejoin="round" stroke-miterlimit="10" d="M1306.426 231.26l26.373-3.63M1303.91 221.584v-6.045M1301.895 215.54h4.03M1303.91 231.663v6.045M1296.014 238.7h-4.03M1304.247 222.362l28.552-.778M1253.524 130.204l-28.217 13.773h28.217M1225.307 143.977v3.694a3.36 3.36 0 0 0 3.36 3.36h.335a3.36 3.36 0 0 0 3.36-3.36v-3.693h-7.055zM1232.362 143.977v3.694a3.36 3.36 0 0 0 3.36 3.36h.335a3.36 3.36 0 0 0 3.36-3.36v-3.693h-7.055z"/><path stroke="#3380CF" stroke-width="2.016" stroke-linecap="round" stroke-linejoin="round" stroke-miterlimit="10" d="M1239.417 143.977v3.694a3.36 3.36 0 0 0 3.36 3.36h.335a3.36 3.36 0 0 0 3.36-3.36v-3.693h-7.055z"/><path stroke="#3380CF" stroke-width="2.016" stroke-linecap="round" stroke-linejoin="round" stroke-miterlimit="10" d="M1246.47 143.977v3.694a3.358 3.358 0 0 0 3.36 3.36h.336a3.358 3.358 0 0 0 3.357-3.36v-3.693h-7.052zM1371.887 238.717l4.03 3.022c14.612-42.327-4.03-74.576-4.03-74.576h-.455s-18.645 32.25-4.03 74.575l4.03-3.023h.455zM1371.432 167.165v71.552M1396.627 218.562h47.365v9.07h-47.365z"/><path stroke="#3380CF" stroke-width="2.016" stroke-linecap="round" stroke-linejoin="round" stroke-miterlimit="10" d="M1433.915 227.63h6.047v14.11h-6.047zM1405.698 227.63h6.045v14.11h-6.045zM1437.948 197.398h3.02v21.164h-3.02zM1419.807 197.398h3.02v21.164h-3.02zM1401.667 197.398h3.023v21.164h-3.023z"/><path stroke="#3380CF" stroke-width="2.016" stroke-linecap="round" stroke-linejoin="round" stroke-miterlimit="10" d="M1396.627 192.36h47.365v5.038h-47.365zM1428.875 180.304v-6.085h-1.008v6.084a2.388 2.388 0 0 0-2.016 2.354v9.7h5.042v-9.7c0-1.19-.874-2.172-2.017-2.354z"/><path d="M1425.542 94.774c-3.605-20.534 9.23-40.143 29.033-45.355a27.504 27.504 0 0 0-15.982-1.953c-15.033 2.637-25.078 16.963-22.44 31.996a27.538 27.538 0 0 0 9.636 16.532c-.086-.408-.176-.81-.248-1.22"/><path stroke="#3380CF" stroke-width="2.016" stroke-linecap="round" stroke-linejoin="round" stroke-miterlimit="10" d="M1425.542 94.774c-3.605-20.534 9.23-40.143 29.033-45.355a27.504 27.504 0 0 0-15.982-1.953c-15.033 2.637-25.078 16.963-22.44 31.996a27.538 27.538 0 0 0 9.636 16.532c-.086-.408-.176-.81-.248-1.22z"/><path d="M1456.01 49.047c20.533-3.604 40.143 9.232 45.355 29.035a27.51 27.51 0 0 0 1.955-15.982c-2.64-15.033-16.965-25.08-31.996-22.438a27.51 27.51 0 0 0-16.535 9.633c.408-.085.81-.173 1.22-.248"/><path stroke="#3380CF" stroke-width="2.016" stroke-linecap="round" stroke-linejoin="round" stroke-miterlimit="10" d="M1456.01 49.047c20.533-3.604 40.143 9.232 45.355 29.035a27.51 27.51 0 0 0 1.955-15.982c-2.64-15.033-16.965-25.08-31.996-22.438a27.51 27.51 0 0 0-16.535 9.633c.408-.085.81-.173 1.22-.248z"/><path d="M1401.223 54.624c13.836-15.595 37.176-17.74 53.572-5.478a27.5 27.5 0 0 0-8.41-13.73c-11.418-10.127-28.883-9.084-39.01 2.332a27.52 27.52 0 0 0-6.953 17.828c.266-.32.528-.64.8-.952"/><path stroke="#3380CF" stroke-width="2.016" stroke-linecap="round" stroke-linejoin="round" stroke-miterlimit="10" d="M1401.223 54.624c13.836-15.595 37.176-17.74 53.572-5.478a27.5 27.5 0 0 0-8.41-13.73c-11.418-10.127-28.883-9.084-39.01 2.332a27.52 27.52 0 0 0-6.953 17.828c.266-.32.528-.64.8-.952z"/><path d="M1506.815 36.085c-18.322-9.95-40.994-4.02-52.234 13.098a27.51 27.51 0 0 1 3.23-15.773c7.284-13.41 24.062-18.38 37.472-11.096a27.512 27.512 0 0 1 12.61 14.393c-.356-.208-.712-.422-1.077-.622"/><path stroke="#3380CF" stroke-width="2.016" stroke-linecap="round" stroke-linejoin="round" stroke-miterlimit="10" d="M1506.815 36.085c-18.322-9.95-40.994-4.02-52.234 13.098a27.51 27.51 0 0 1 3.23-15.773c7.284-13.41 24.062-18.38 37.472-11.096a27.512 27.512 0 0 1 12.61 14.393c-.356-.208-.712-.422-1.077-.622z"/><path d="M1454.153 47.027s-8.363-15.063-7.236-41.226c0 0 10.246 24.15 7.236 41.227"/><path stroke="#3380CF" stroke-width="2.016" stroke-linecap="round" stroke-linejoin="round" stroke-miterlimit="10" d="M1454.153 47.027s-8.363-15.063-7.236-41.226c0 0 10.246 24.15 7.236 41.227z"/><path d="M1444.608 57.47"/><circle stroke="#3380CF" stroke-width="2.016" stroke-linecap="round" stroke-linejoin="round" stroke-miterlimit="10" cx="1450.128" cy="56.5" r="5.605"/><path d="M1467.975 53a5.963 5.963 0 0 1-11.744 2.063 5.962 5.962 0 0 1 11.744-2.062"/><path stroke="#3380CF" stroke-width="2.016" stroke-linecap="round" stroke-linejoin="round" stroke-miterlimit="10" d="M1467.975 53a5.963 5.963 0 0 1-11.744 2.063 5.962 5.962 0 0 1 11.744-2.062z"/><path d="M1461.737 47.903a6.46 6.46 0 0 1-12.726 2.233 6.462 6.462 0 0 1 5.247-7.48 6.46 6.46 0 0 1 7.48 5.247"/><circle stroke="#3380CF" stroke-width="2.016" stroke-linecap="round" stroke-linejoin="round" stroke-miterlimit="10" cx="1455.374" cy="49.02" r="6.461"/><path stroke="#3380CF" stroke-width="2.016" stroke-linecap="round" stroke-linejoin="round" stroke-miterlimit="10" d="M1420.645 73.927l4.832 7.41M1426.188 67.542l2.62 3.243M1425.852 41.175V34.12M1434.922 41.175v-5.04M1408.72 48.23v-6.048M1473.397 49.852l2.676-4.645M1488.124 57.484l4.412-7.632M1490.33 59.427l3.212-3.945M1484.97 31.362l-1.34-4.947M1496.975 32.324l-1.25-3.87M1479.99 32.042l-2.406-9.513"/><path stroke="#3380CF" stroke-width="1.906" stroke-linecap="round" stroke-linejoin="round" stroke-miterlimit="10" d="M662.96 151.843v34.313M658.193 155.656l4.766 3.574 4.764-3.574M667.724 183.058l-4.765-3.574-4.767 3.574M680.115 169h-34.312M670.822 161.136l-15.727 15.73M670.822 176.863l-15.727-15.728M676.66 164.592l-3.574 4.765 3.574 4.766M649.257 174.123l3.575-4.766-3.575-4.765"/><path stroke="#3380CF" stroke-width="2.016" stroke-linecap="round" stroke-linejoin="round" stroke-miterlimit="10" d="M1352.297 182.317v-31.884c0-3.34.934-3.51-2.41-3.51h-42.973c-3.34 0-3.28.17-3.28 3.51v31.884s48.663-.153 48.663 0zM1305.11 182.317h47.187M1303.813 157.29l13.08 13.077M1319.842 147.332l9.157 9.157M1330.743 168.1l11.465 11.465M1254.15 123.83v3.694a3.36 3.36 0 0 0 3.358 3.36h.338a3.358 3.358 0 0 0 3.357-3.36v-3.694h-7.054z"/><path stroke="#3380CF" stroke-width="2.016" stroke-linecap="round" stroke-linejoin="round" stroke-miterlimit="10" d="M1261.204 123.83v3.694a3.36 3.36 0 0 0 3.36 3.36h.335a3.36 3.36 0 0 0 3.358-3.36v-3.694h-7.054zM1268.258 123.83v3.694a3.36 3.36 0 0 0 3.357 3.36h.338a3.36 3.36 0 0 0 3.36-3.36v-3.694h-7.055zM1275.313 123.83v3.694a3.36 3.36 0 0 0 3.36 3.36h.335a3.36 3.36 0 0 0 3.36-3.36v-3.694h-7.055z"/><path stroke="#3380CF" stroke-width="2.016" stroke-linecap="round" stroke-linejoin="round" stroke-miterlimit="10" d="M1282.368 123.83v3.694a3.36 3.36 0 0 0 3.36 3.36h.335a3.36 3.36 0 0 0 3.36-3.36v-3.694h-7.055z"/><path stroke="#3380CF" stroke-width="2.016" stroke-linecap="round" stroke-linejoin="round" stroke-miterlimit="10" d="M1289.422 123.83v3.694a3.36 3.36 0 0 0 3.36 3.36h.335a3.36 3.36 0 0 0 3.36-3.36v-3.694h-7.055z"/><path stroke="#3380CF" stroke-width="2.016" stroke-linecap="round" stroke-linejoin="round" stroke-miterlimit="10" d="M1296.477 123.83v3.694a3.358 3.358 0 0 0 3.36 3.36h.335a3.358 3.358 0 0 0 3.357-3.36v-3.694h-7.053zM1303.53 123.83v3.694a3.36 3.36 0 0 0 3.36 3.36h.337a3.358 3.358 0 0 0 3.357-3.36v-3.694h-7.054zM1310.897 123.83v3.694a3.358 3.358 0 0 0 3.357 3.36h.336a3.36 3.36 0 0 0 3.36-3.36v-3.694h-7.053zM1317.95 123.83v3.694a3.36 3.36 0 0 0 3.36 3.36h.335a3.36 3.36 0 0 0 3.36-3.36v-3.694h-7.055z"/><path stroke="#3380CF" stroke-width="2.016" stroke-linecap="round" stroke-linejoin="round" stroke-miterlimit="10" d="M1325.004 123.83v3.694a3.36 3.36 0 0 0 3.36 3.36h.335a3.36 3.36 0 0 0 3.358-3.36v-3.694h-7.054zM1332.06 123.83v3.694a3.36 3.36 0 0 0 3.358 3.36h.336a3.36 3.36 0 0 0 3.36-3.36v-3.694h-7.055zM1339.64 123.83v3.694a3.36 3.36 0 0 0 3.36 3.36h.338a3.36 3.36 0 0 0 3.36-3.36v-3.694h-7.057z"/><path stroke="#3380CF" stroke-width="2.016" stroke-linecap="round" stroke-linejoin="round" stroke-miterlimit="10" d="M1346.698 123.83v3.694a3.358 3.358 0 0 0 3.357 3.36h.338a3.358 3.358 0 0 0 3.357-3.36v-3.694h-7.052z"/><path stroke="#3380CF" stroke-width="2.016" stroke-linecap="round" stroke-linejoin="round" stroke-miterlimit="10" d="M1353.75 123.83v3.694a3.36 3.36 0 0 0 3.36 3.36h.337a3.358 3.358 0 0 0 3.357-3.36v-3.694h-7.054zM1360.805 123.83v3.694a3.36 3.36 0 0 0 3.36 3.36h.335a3.36 3.36 0 0 0 3.36-3.36v-3.694h-7.055z"/><path stroke="#3380CF" stroke-width="2.016" stroke-linecap="round" stroke-linejoin="round" stroke-miterlimit="10" d="M1367.86 123.83v3.694a3.36 3.36 0 0 0 3.36 3.36h.335a3.36 3.36 0 0 0 3.36-3.36v-3.694h-7.055zM1374.915 123.83v3.694a3.36 3.36 0 0 0 3.36 3.36h.335a3.36 3.36 0 0 0 3.36-3.36v-3.694h-7.055z"/><path stroke="#3380CF" stroke-width="2.016" stroke-linecap="round" stroke-linejoin="round" stroke-miterlimit="10" d="M1381.97 123.83v3.694a3.36 3.36 0 0 0 3.358 3.36h.336a3.36 3.36 0 0 0 3.36-3.36v-3.694h-7.055z"/><path stroke="#3380CF" stroke-width="2.016" stroke-linecap="round" stroke-linejoin="round" stroke-miterlimit="10" d="M1389.024 123.83v3.694a3.358 3.358 0 0 0 3.36 3.36h.335a3.358 3.358 0 0 0 3.356-3.36v-3.694h-7.052zM1282.368 102.666v21.164M1310.897 102.666v21.164M1339.114 102.666v21.164M1367.86 102.666v21.164M1034.834 149.91h43.16v28.344h-43.16zM757.187 189.32h47.365v6.047h-47.365z"/></g><g fill="none" stroke="#3380CF" stroke-width="2.016" stroke-linecap="round" stroke-linejoin="round" stroke-miterlimit="10"><path d="M1588.42 189.387s-35.464-20.495-49.608 2.676c-10.98 17.985 13.102 24.522 17.982 16.286 0 0 9.087 4.91 13.853-.247 4.765-5.157 2.002-13.612-5.207-14.394"/><path d="M1476.846 242.732s67.838 1.867 88.68-11.985c17.632-11.722 10.354-28.896 6.367-32.886M1565.525 210.447s2.934 32.285-88.008 32.285M1556.794 208.35s-2.27 34.382-79.277 34.382"/></g></svg>