<svg width="256" height="315" viewBox="0 0 256 315" xmlns="http://www.w3.org/2000/svg" preserveAspectRatio="xMidYMid"><path d="M213.803 167.03c.442 47.58 41.74 63.413 42.197 63.615-.35 1.116-6.6 22.563-21.757 44.716-13.104 19.154-26.705 38.236-48.13 38.632-21.05.387-27.82-12.484-51.888-12.484-24.06 0-31.582 12.088-51.51 12.87-20.68.784-36.428-20.71-49.64-39.792-27-39.033-47.633-110.3-19.928-158.406 13.763-23.89 38.36-39.017 65.056-39.405 20.307-.387 39.475 13.662 51.89 13.662 12.405 0 35.698-16.895 60.185-14.414 10.25.427 39.026 4.14 57.503 31.186-1.488.922-34.334 20.043-33.977 59.82M174.24 50.2C185.217 36.91 192.607 18.407 190.59 0c-15.826.636-34.962 10.546-46.314 23.828-10.173 11.763-19.082 30.59-16.678 48.633 17.64 1.366 35.66-8.963 46.64-22.26"/></svg>