<svg width="256" height="256" viewBox="0 0 256 256" xmlns="http://www.w3.org/2000/svg" preserveAspectRatio="xMidYMid"><defs><linearGradient x1="50%" y1="3.961%" x2="50%" y2="100%" id="a"><stop stop-color="#FDFDFD" offset="0%"/><stop stop-color="#CBCBCB" offset="100%"/></linearGradient><linearGradient x1="50%" y1="3.961%" x2="50%" y2="100%" id="b"><stop stop-color="#B2E198" offset="0%"/><stop stop-color="#04A171" offset="100%"/></linearGradient></defs><circle fill="url(#a)" cx="128" cy="128" r="127.858"/><circle fill="url(#b)" cx="127.858" cy="128.142" r="116.907"/><path d="M100.453 110.097c-1.376 2.12-2.705 4.25-3.988 6.382-1.403-3.864-2.635-7.668-3.684-11.378 3.73-.535 7.696-.957 11.875-1.25-1.42 2.036-2.82 4.117-4.202 6.245zm103.138 7.475c-4.13-3.967-10.04-7.602-17.557-10.804-14.926-6.356-34.918-10.474-56.295-11.595-2.578-.136-5.095-.228-7.53-.277 16.322-19.48 32.084-29.846 41.264-30.195 1.944-.073 3.576.31 4.854 1.142 4.296 2.792 5.488 11.453 3.19 23.166-.455 2.313 1.05 4.555 3.364 5.01 2.312.45 4.554-1.053 5.008-3.366 3.953-20.137-1.576-28.497-6.91-31.965-2.786-1.81-6.094-2.655-9.83-2.513-14.12.536-33.905 15.592-51.957 38.803-7.147.247-14.037.864-20.482 1.827-.708-3.286-1.255-6.47-1.625-9.522-1.62-13.344.367-22.816 5.312-25.337.794-.405 1.662-.64 2.654-.713 4.417-.332 10.65 2.637 17.54 8.36 1.813 1.504 4.504 1.255 6.01-.558 1.505-1.813 1.256-4.503-.557-6.008-8.85-7.35-16.8-10.817-23.633-10.303-2.112.158-4.095.703-5.892 1.62-4.593 2.342-7.732 6.828-9.33 13.33-1.368 5.57-1.562 12.514-.576 20.637.39 3.213.96 6.556 1.695 9.998-5.04 1.062-9.71 2.356-13.897 3.87-18.316 6.615-22.544 15.336-22.866 21.487-.308 5.876 2.7 14.62 18.775 22.91 2.093 1.08 4.667.258 5.747-1.836 1.08-2.095.258-4.67-1.837-5.748-9.247-4.77-14.41-10.193-14.165-14.88.346-6.605 11.417-13.596 30.274-17.535 1.746 6.31 3.99 12.86 6.68 19.505-6.778 12.723-11.723 25.262-14.287 36.416-1.833 7.97-2.37 14.89-1.592 20.567.907 6.63 3.56 11.418 7.882 14.228 2.205 1.433 5.176 2.553 9.08 2.553 5.657 0 13.274-2.357 23.342-9.538 1.918-1.37 2.365-4.033.996-5.952-1.368-1.918-4.032-2.364-5.95-.996-9.926 7.08-18.455 9.613-22.817 6.778-4.652-3.023-5.633-12.642-2.624-25.728 1.994-8.678 5.554-18.296 10.382-28.21 1.048 2.244 2.142 4.49 3.283 6.73 9.717 19.088 21.612 35.695 33.494 46.763 5.983 5.573 11.707 9.497 17.01 11.663 3.218 1.314 6.24 1.97 9.045 1.97 2.596 0 5.008-.562 7.216-1.688 4.43-2.26 7.512-6.52 9.158-12.666 1.41-5.263 1.726-11.827.942-19.512-1.543-15.11-7.253-33.54-16.077-51.89-1.02-2.125-3.57-3.02-5.695-1.998-2.123 1.02-3.017 3.57-1.996 5.694 8.408 17.485 13.834 34.908 15.28 49.06 1.27 12.447-.782 21.31-5.487 23.71-4.942 2.52-13.756-1.438-23.58-10.588-11.17-10.404-22.43-26.168-31.706-44.388-2.12-4.166-4.075-8.34-5.852-12.483 2.206-3.945 4.592-7.903 7.143-11.836 2.603-4.008 5.237-7.787 7.878-11.332.7-.01 1.405-.017 2.115-.02 3.664-.01 7.592.09 11.688.306 20.405 1.07 39.37 4.95 53.4 10.925 12.34 5.255 19.534 11.703 19.244 17.25-.246 4.707-5.967 9.574-15.696 13.35-2.196.854-3.286 3.327-2.433 5.523.656 1.69 2.27 2.724 3.98 2.724.512 0 1.034-.094 1.54-.29 16.906-6.564 20.822-14.968 21.13-20.862.27-5.15-2.04-10.11-6.864-14.743z" fill="#F2F8F6"/><path d="M119.194 129.133c0 5.153 4.174 9.33 9.323 9.33 5.15 0 9.323-4.177 9.323-9.33 0-5.154-4.174-9.33-9.323-9.33-5.15 0-9.323 4.176-9.323 9.33" fill="#F1F8F3"/></svg>