<svg width="256" height="225" viewBox="0 0 256 225" xmlns="http://www.w3.org/2000/svg" preserveAspectRatio="xMidYMid"><path d="M250.863 110.127c-13.126-12.61-78.758-20.485-99.468-22.776 1.003-2.368 1.857-4.82 2.563-7.342 2.823-1.236 5.87-2.386 9.02-3.347.385 1.134 2.194 5.474 3.224 7.533 41.644 1.15 43.782-30.947 45.476-39.74 1.656-8.597 1.572-16.904 15.856-32.09-21.28-6.202-51.884 9.61-62.134 33.147-3.852-1.444-7.713-2.51-11.53-3.17C151.13 31.304 136.882.553 99.49.553 52.15.552.552 39.608.552 105.722c0 55.575 37.943 104.28 59.38 104.28 9.363 0 17.416-7.01 19.307-13.296 1.584 4.31 6.448 17.705 8.045 21.115 2.36 5.044 13.28 9.408 18.057 4.174 6.143 3.413 17.416 5.47 23.56-3.633 11.83 2.504 22.29-4.55 22.52-12.97 5.806-.31 8.654-8.462 7.386-14.954-.935-4.78-10.918-21.93-14.812-27.85 7.708 6.27 27.234 8.045 29.606.004 12.428 9.755 31.797 4.635 33.333-3.3 15.102 3.925 32.423-4.693 29.58-15.13 24.26-1.678 21.155-27.49 14.348-34.033z" fill="#543729"/><path d="M183.31 55.076c5.227-10.368 11.793-21.688 20.086-28.69-9.128 3.677-18.14 14.675-23.47 26.43-2.715-1.727-5.472-3.267-8.253-4.614 7.433-15.866 24.705-29.117 43.74-30.152-12.75 11.563-8.223 35.596-18.706 48.32-3-3.014-9.888-8.828-13.396-11.294zm-8.24 16.882c.005-.397.154-3.457.432-4.854-.73-.172-5.275-1.06-7.644-1.005-.172 2.974 1.25 8.036 2.657 11.083 9.685-.203 16.68-3.103 20.8-5.77-3.507-1.634-9.49-3.086-14.037-3.955-.508 1.05-1.757 3.725-2.208 4.5z" fill="#00ACEE"/><path d="M139.08 153.98l.01.047c-1.227-2.642-2.53-5.85-4.088-10.045 6.062 8.825 25.063 4.273 24.066-3.634 9.3 6.998 28.443-1.166 24.09-10.978 9.317 4.34 19.95-4.393 17.565-8.2 15.883 3.064 31.103 6.118 35.88 7.34-3.173 5.176-10.402 8.83-21.298 6.29 5.888 8.022-5.544 17.644-21.467 12.344 3.505 7.874-10.672 14.964-26.785 6.756.205 7.878-19.99 8.785-27.973.08zm31.506-39.816c18.434 1.416 48.918 4.164 67.79 6.805-1.192-6.142-4.45-7.897-14.694-10.65-11.018 1.176-38.972 3.922-53.096 3.844z" fill="#2BAF2B"/><path d="M159.068 140.348c9.3 6.998 28.443-1.166 24.09-10.978 9.317 4.34 19.95-4.393 17.565-8.2-18.777-3.62-38.48-7.253-42.95-7.888 2.71.144 7.205.452 12.813.883 14.124.078 42.078-2.668 53.096-3.843-17.84-4.524-54.265-11.125-79.42-12.752-1.166 1.704-3.31 4.593-7.042 7.664C126.215 128.52 106.274 144 84.21 144c-6.43 0-13.624-1.086-21.687-3.663-5.028 5.387-26.468 9.47-43.864.93 13.798 32.31 45.798 53.878 81.22 53.878 29.83 0 43.06-30.463 40.164-38.523-.702-1.957-3.486-8.445-5.043-12.64 6.064 8.825 25.064 4.273 24.068-3.634z" fill="#FFCC2F"/><path d="M140.99 79.04c2.633-1.434 11.736-6.95 20.41-9.025-.138-.96-.24-1.93-.305-2.903-5.69 1.362-16.42 5.96-22.566-.376 12.97 3.914 19.445-3.487 28.978-3.487 5.68 0 13.787 1.585 20.176 4.094-5.14-4.748-21.992-19.076-42.858-19.126-4.66 5.648-9.694 17.883-3.837 30.82z" fill="#CECECE"/><path d="M62.523 140.337C70.586 142.914 77.78 144 84.21 144c22.064 0 42.004-15.48 53.01-38.766-8.14 6.795-22.287 12.61-44.38 12.61 19.68-4.464 36.62-14.27 45.238-28.605-6.058-9.643-12.63-30.974 4.01-47.837-2.56-8.223-15.017-29.93-42.596-29.93-48.13 0-88.018 40.274-88.018 94.248 0 12.778 2.58 24.76 7.186 35.547 17.395 8.54 38.835 4.457 43.863-.93z" fill="#EF5734"/><path d="M76.963 58.156c0 12.277 9.953 22.23 22.23 22.23 12.278 0 22.232-9.953 22.232-22.23 0-12.278-9.954-22.23-22.232-22.23-12.277 0-22.23 9.952-22.23 22.23z" fill="#FFCC2F"/><path d="M85.884 58.156c0 7.35 5.96 13.31 13.31 13.31 7.35 0 13.31-5.96 13.31-13.31 0-7.35-5.96-13.31-13.31-13.31-7.35 0-13.31 5.96-13.31 13.31z" fill="#543729"/><ellipse fill="#FFF" cx="99.193" cy="52.25" rx="7.756" ry="4.822"/></svg>