<svg width="256" height="262" viewBox="0 0 256 262" xmlns="http://www.w3.org/2000/svg" preserveAspectRatio="xMidYMid"><path d="M136.442 1.515c38.04 17.645 76.703 35.867 114.69 53.622 2.027.948 4.685 1.593 4.688 4.463.004 2.875-2.65 3.515-4.682 4.464-38.14 17.837-76.283 35.663-114.45 53.437-5.814 2.708-11.784 2.673-17.605-.04C80.843 99.635 42.62 81.778 4.403 63.907 2.436 62.987-.04 62.29.038 59.494c.072-2.617 2.44-3.297 4.332-4.182 38.377-17.93 77.143-36.146 115.57-53.968 4.062-1.88 12.27-1.753 16.502.17zm-8.562 260.047c-2.767 0-4.84-1.05-8.794-2.53C80.9 241.32 42.763 223.507 4.628 205.687 2.6 204.74-.024 204.07 0 201.182c.025-2.873 2.652-3.507 4.68-4.47 6.325-3.01 12.683-5.95 19.038-8.894 6.35-2.943 12.657-2.902 19.025.083 25.28 11.85 50.586 23.642 75.876 35.466 6.278 2.936 12.505 2.875 18.777-.063 25.36-11.876 50.733-23.727 76.108-35.573 5.992-2.797 12.063-2.875 18.083-.147 6.77 3.067 13.49 6.244 20.214 9.405.997.47 2.008.998 2.843 1.7 1.797 1.515 1.82 3.566-.013 5.035-1.115.893-2.45 1.55-3.757 2.16-37.827 17.674-75.65 35.358-113.527 52.922-2.944 1.364-6.7 2.757-9.468 2.757zm-.134-70.823c-1.265 0-6.18-1.343-8.978-2.642-38.028-17.66-76.005-35.43-113.985-53.19-2.04-.955-4.7-1.57-4.753-4.413-.056-3.015 2.728-3.618 4.828-4.617 6.396-3.045 12.81-6.056 19.247-9.014 6.104-2.804 12.218-2.738 18.317.11 25.535 11.928 51.07 23.858 76.623 35.746 5.915 2.752 11.922 2.73 17.842-.025 25.627-11.933 51.236-23.903 76.86-35.844 5.924-2.76 11.91-2.758 17.838-.053 6.756 3.082 13.47 6.257 20.19 9.414.924.435 1.87.893 2.66 1.52 2.04 1.62 2.024 3.76-.04 5.382-.793.624-1.736 1.085-2.66 1.517-38.37 17.936-76.73 35.89-115.147 53.724-2.64 1.227-7.578 2.385-8.842 2.385z"/></svg>