<svg width="256" height="256" viewBox="0 0 256 256" xmlns="http://www.w3.org/2000/svg" preserveAspectRatio="xMidYMid"><g fill="#F35045"><path d="M160.445 208c2 2.89 3.222 2.667 4.777 2 1.555-.667 81.556-27.667 84-28.555 2.444-.89 1.667-1.667.89-2.89-.778-1.222-27.445-37.444-28.78-39.555-1.332-2.11-2-1.667-4.11-1l-84.805 22.067S158.445 205.11 160.445 208zM256 171.115v-42.398c-9.54 2.542-21.61 5.756-26.373 7.023 7.187 9.616 18.423 24.665 26.373 35.375zM229.545 83.52c-1.307.298-30.247 5.528-32.03 5.765-1.782.238-1.188 1.248-.475 2.258l25.467 34.943s31.14-7.725 33.04-8.14c.155-.035.306-.07.453-.108v-4.627c-5.66-7.176-21.08-26.717-22.413-28.543-1.604-2.2-2.734-1.842-4.042-1.546z"/><path d="M47.456 28.634c6.267-.285 6.84 1.14 9.592 5.224l69.17 115.642 86.974-20.835c-4.82-6.83-26.695-37.846-28.81-40.806-2.376-3.33.06-4.874 3.923-5.527 3.862-.654 37.14-6.24 39.992-6.656 2.853-.416 5.112-1.426 9.746 4.16 2.372 2.858 10.412 12.87 17.957 22.255V48c0-13.222-4.695-24.528-14.083-33.917C232.527 4.695 221.222 0 208 0H48C34.778 0 23.472 4.695 14.083 14.083 8.698 19.47 4.865 25.487 2.57 32.133c15.677-1.287 40.5-3.3 44.886-3.5z"/><path d="M168.29 223.564c-7.335 2.222-10.624 3.325-15.4-3.342-3.58-4.993-22.928-39.843-32.415-57.023-17.955 4.7-50.814 13.277-60.29 15.554-9.248 2.222-13.198-3.323-14.717-6.74C44.403 169.616 17.288 111.158 0 73.65V208c0 13.223 4.695 24.527 14.083 33.917C23.473 251.305 34.778 256 48 256h160c13.222 0 24.528-4.695 33.917-14.083C251.305 232.527 256 221.223 256 208v-15.78c-19.64 7.183-82.77 29.847-87.71 31.344z"/><path d="M60.412 165.288c2.6-.595 51.313-12.253 52.353-12.476 1.04-.223 1.708-.817.594-2.747-1.115-1.93-64.935-112.09-64.935-112.09-.59-1.01-.42-1.348-2.022-1.264-1.427.077-37.538 3.3-45.898 3.997-.247 1.74-.396 3.518-.46 5.33 8.486 17.376 57.198 117.838 57.47 118.656.298.892.298 1.19 2.897.595z"/></g></svg>