<svg width="256" height="343" viewBox="0 0 256 343" xmlns="http://www.w3.org/2000/svg" preserveAspectRatio="xMidYMid"><path d="M125.822 340.082c-34.877-8.796-66.623-31.14-89.39-62.914C14.285 246.262 2.09 208.728 2.09 171.482c0-46.772 12.914-85.74 38.382-115.823 20.94-24.724 50.382-42.953 85.145-52.72l2.144-.6 2.146.6c34.762 9.767 64.203 27.995 85.14 52.72 25.473 30.08 38.388 69.05 38.388 115.822 0 37.25-12.197 74.784-34.344 105.686-22.762 31.773-54.507 54.116-89.388 62.914l-1.94.49-1.94-.49" fill="#151614"/><path d="M160.113 260.513c-1.628-.546-3.492-1.147-5.558-1.753l-.01.012-2.85-.81c-2.614-.697-5.69-1.38-9.205-1.923l-.194-.03-.653-.096c-3.592-.518-7.62-.897-12.063-1.004l-.098-.002-.096-.003-.427-.027h-2.513l-.427.027-.094.003-.097.002c-4.444.107-8.47.486-12.068 1.004l-.65.096-.197.03c-3.514.542-6.59 1.225-9.205 1.92l-2.85.812-.01-.012c-2.062.606-3.93 1.207-5.557 1.753-1.03.347-1.97.673-2.808.963l-.084.033h70.608l-.083-.034c-.838-.29-1.778-.616-2.812-.963M151.153 229.292l-.06.007-.072.008c-1.147.125-3.047.42-5.047 1.066-.015.004-.024.01-.038.015-.01 0-.02.004-.023.008-.12.038-.24.074-.357.115-.082.032-.17.065-.257.096-.39.14-.778.297-1.17.47 0 0-.002.002-.006.002h-.003c-.008.004-.014.01-.02.01-.49.222-.976.464-1.446.735-1.147.67-2.18 1.52-2.984 2.573-.02.023-.037.053-.06.078-.107.15-.213.302-.315.46-.046.067-.097.13-.14.197-.015.03-.035.05-.054.08l-.1.165-.045.08-.053.124-.01.02c-.02.063-.047.13-.08.198-.144.296-.285.597-.39.925-.237.755-.36 1.586-.362 2.492-.32-1.17-.555-2.35-.652-3.51-.015-.16-.008-.315-.01-.473l-.005-.084v-.036c-.015-.217-.03-.425-.035-.64v-.329c0-.138 0-.27.003-.404.004-.133.01-.27.02-.4.02-.304.07-.6.11-.895.077-.503.176-1 .316-1.483.074-.255.172-.507.26-.756.003-.005.008-.012.008-.016.23-.606.494-1.2.84-1.77.163-.275.313-.553.51-.812.106-.148.216-.306.338-.45.23-.28.478-.554.746-.818.015-.02.034-.034.053-.05.254-.253.523-.496.817-.734l.006-.006c0-.002.003-.004.007-.01.004 0 .005-.005.005-.005h.006l.012-.013v-.005l.03-.017c.346-.15.705-.266 1.06-.37.574-.165 1.156-.28 1.73-.337.986-.096 1.957-.03 2.85.208.14.035.273.086.407.133.633.21 1.222.508 1.742.9.18.135.358.28.52.44.534.518.897 1.12 1.138 1.76.006.02.016.036.02.052.11.302.202.613.255.926l.007.074h-.02zm-15.208-4.54l.005-.005h.002l-.007.006zm-2.204.838h-.01l.087-.027-.076.027zm-6.035 6.206v-.006c.033-.03.063-.057.093-.088-.036.033-.065.062-.093.094zm-.004-.004c-.03-.03-.06-.057-.088-.09.03.03.062.057.09.088v.002zm-9.65 2.686c-.01.214-.02.422-.036.64v.017l-.002.018-.004.084c0 .158.004.314-.01.473-.098 1.16-.333 2.34-.647 3.51-.006-.907-.125-1.738-.365-2.493-.107-.328-.245-.63-.39-.925-.032-.067-.06-.135-.082-.2l-.01-.018-.05-.125-.047-.08-.1-.165c-.02-.03-.04-.05-.054-.08-.042-.067-.095-.13-.137-.198-.102-.157-.208-.31-.324-.46-.014-.024-.033-.054-.05-.077-.81-1.052-1.84-1.902-2.988-2.573-.467-.27-.956-.513-1.446-.735-.007 0-.012-.006-.018-.01h-.008c-.39-.175-.782-.333-1.172-.473l-.257-.097c-.118-.04-.234-.077-.353-.115l-.023-.01c-.017-.004-.026-.01-.04-.014-2-.647-3.898-.94-5.05-1.066l-.072-.01-.055-.006h-.02l.004-.074c.054-.313.145-.624.256-.926.003-.016.013-.032.022-.05.238-.643.6-1.244 1.136-1.762.162-.16.338-.305.52-.44.518-.392 1.11-.69 1.742-.9.137-.048.272-.1.408-.134.892-.238 1.864-.304 2.85-.208.573.058 1.157.172 1.73.337.357.104.715.22 1.064.37l.023.017.004.005.015.012s0 .005.004.005c.003.005.006.007.01.01.003 0 .005.003.005.005.292.238.563.48.815.733.02.017.04.032.054.05.268.265.516.54.744.82.124.143.23.3.34.45.196.258.344.536.51.81.34.57.61 1.165.838 1.77.002.005.002.012.007.018.09.25.187.502.26.757.14.484.24.98.316 1.484.047.297.092.592.11.896.013.13.014.267.02.4.003.134 0 .266 0 .403v.046l.003.223v.058zm45.38-13.268c-.764-.973-1.503-1.78-2.214-2.434-.674-.633-1.327-1.133-1.942-1.52-.767-.474-1.48-.784-2.177-.984-.696-.202-1.382-.29-2.092-.29-.817 0-1.667.125-2.574.36-.134.035-.278.087-.414.132-.132.042-.256.075-.386.12-.465.15-.94.337-1.43.54-.1.04-.203.083-.308.127-.41.177-.826.367-1.243.575l-.035.015c-.335.163-.668.336-1.005.514l-.015.008c-.11.057-.222.112-.334.172-.155.085-.317.177-.474.265-.024.01-.043.02-.066.036-.085.044-.168.09-.256.138-.023.016-.05.03-.076.045-1.067.6-2.166 1.254-3.294 1.923-.49.288-.988.58-1.49.872-.074.04-.144.08-.22.124l-.004.003c-.134.078-.27.154-.403.233-.023.015-.048.028-.074.04l-.1.056c-.145.084-.292.167-.44.247-.038.024-.077.044-.115.067-.006.004-.008.005-.015.007-.004.002-.01.002-.012.006-.257.146-.513.29-.772.426-.006.005-.017.01-.023.013-.012.005-.02.01-.028.012-.027.017-.058.03-.086.047-.015.01-.03.016-.047.023-.033.016-.058.033-.088.047-.005.004-.01.004-.014.01l-.362.19c-.164.088-.326.176-.494.26-.107.056-.226.11-.335.165-.528.263-1.065.516-1.606.756-.043.022-.09.043-.135.065-.058.022-.107.05-.163.07-.022.01-.042.022-.065.03-.015.006-.03.014-.05.02-.02.013-.04.017-.055.027l-.447.18c-.238.097-.474.195-.707.28-.224.082-.443.16-.663.234-.088.032-.17.06-.257.088-.074.028-.148.054-.223.08-.038.008-.075.025-.11.036-.085.028-.165.057-.248.083-.093.03-.19.054-.28.078l-.023.005c-.127.036-.256.07-.38.106-.124.036-.247.07-.372.1-.02.01-.035.013-.053.017-.01 0-.02.007-.024.007-.3.077-.608.137-.92.2-.156.035-.32.073-.477.1-.082.014-.162.03-.246.042-.213.035-.43.058-.646.086-.2.023-.4.055-.603.077-.29.03-.59.033-.89.044-.187.01-.378.032-.568.032v.004h-.11v-.004c-.193 0-.38-.02-.573-.032-.297-.01-.593-.015-.89-.045-.2-.023-.402-.055-.602-.078-.217-.028-.434-.05-.648-.086-.08-.012-.164-.028-.244-.042-.16-.027-.32-.065-.48-.1-.306-.063-.612-.123-.917-.2-.01 0-.017-.007-.023-.007-.02-.004-.036-.008-.054-.016-.126-.03-.25-.064-.376-.1l-.377-.105c-.006-.002-.014-.002-.017-.004-.092-.023-.19-.048-.283-.077-.083-.026-.166-.055-.25-.083-.034-.01-.075-.028-.11-.037-.077-.025-.15-.05-.227-.08-.082-.026-.167-.055-.256-.087-.22-.074-.44-.152-.657-.233-.235-.086-.474-.184-.712-.28-.146-.06-.295-.12-.447-.18-.018-.01-.034-.015-.052-.028l-.052-.02c-.022-.008-.043-.02-.064-.03-.055-.02-.11-.048-.16-.07-.045-.022-.094-.043-.14-.064-.54-.24-1.075-.492-1.602-.755-.11-.056-.23-.11-.338-.165-.163-.084-.325-.172-.493-.26-.118-.063-.24-.126-.357-.19-.007-.006-.016-.006-.02-.01l-.088-.047c-.013-.007-.032-.014-.045-.024-.03-.018-.06-.03-.09-.048l-.024-.013c-.01-.003-.018-.01-.023-.014-.26-.137-.515-.28-.773-.426-.005-.004-.007-.004-.013-.006-.003-.002-.01-.003-.013-.007-.037-.023-.076-.043-.118-.068-.147-.08-.292-.164-.437-.248-.036-.02-.07-.036-.102-.055l-.074-.04c-.136-.08-.27-.156-.4-.234 0 0-.007-.002-.007-.004-.073-.044-.148-.085-.22-.125-.503-.292-1-.584-1.49-.872-1.13-.67-2.228-1.324-3.296-1.924-.022-.015-.05-.03-.078-.046-.087-.047-.17-.094-.253-.138-.023-.015-.044-.026-.066-.037-.16-.09-.317-.18-.474-.266-.114-.06-.225-.115-.336-.172l-.01-.008c-.34-.178-.677-.35-1.008-.514-.012-.004-.022-.01-.032-.015-.42-.208-.838-.398-1.245-.574-.104-.043-.203-.086-.31-.127-.485-.202-.964-.39-1.43-.54-.126-.044-.255-.077-.384-.12-.137-.044-.275-.096-.414-.13-.907-.236-1.76-.36-2.576-.36-.71 0-1.39.087-2.09.29-.695.2-1.412.51-2.175.984-.62.386-1.27.886-1.946 1.52-.71.654-1.45 1.46-2.213 2.433-.08.1-.152.194-.233.297-4.37 7.193 1.12 18.924 1.12 18.924.115.266.217.543.34.807 2.07 4.513 5.015 7.955 8.1 10.508.257.214.51.413.77.606l.09-.023c.687-.184 1.408-.366 2.152-.545 2.335-.563 4.948-1.096 7.835-1.535l.11-.018c2.26-.344 4.686-.63 7.26-.834 1.97-.163 4.02-.274 6.166-.325.215-.012.42-.03.637-.035h2.763c.215.006.424.023.634.036 2.146.052 4.196.163 6.166.326 2.573.204 5.002.49 7.26.833l.11.017c2.886.44 5.5.972 7.833 1.535.747.18 1.468.36 2.155.545l.086.024c.262-.192.516-.39.77-.605 3.088-2.553 6.03-5.995 8.106-10.508.12-.264.22-.54.337-.806 0 0 5.49-11.73 1.12-18.923-.077-.103-.156-.197-.233-.297z" fill="#8F202F"/><path d="M190.517 155.893c-.03-1.17-.068-2.356-.13-3.552v-.015c-.09-1.767-.23-3.454-.406-5.083l-.002-.01c-1.363-4.307-3.896-8.2-7.286-11.4-1.815-1.717-3.88-3.223-6.15-4.488-4.383-2.452-9.518-3.988-15.08-4.247-.15-.005-.297 0-.446-.005-.644-.02-1.287-.032-1.918-.02-2.21.047-4.363.302-6.445.74-.89.183-1.77.4-2.633.65-4.765 1.382-9.36 3.756-13.2 6.853l-.06.042c-.963.783-1.88 1.608-2.738 2.478l-.013.014c-.243.24-.477.487-.707.74l-.143.147c-.19.214-.374.427-.56.64l-.01.008-.24.274c-.157.188-.307.377-.454.562-.106.135-.213.26-.308.385-.126.166-.252.335-.376.502-.116.156-.23.316-.345.473-.102.148-.196.29-.298.44-.125.184-.258.37-.38.56-.077.128-.158.258-.232.388-.134.21-.26.422-.386.635-.07.118-.132.24-.2.365-.12.22-.252.447-.37.675-.06.12-.112.242-.172.357-.113.238-.232.472-.343.712-.052.118-.097.242-.154.36-.054.13-.107.27-.168.402-.044.11-.092.214-.135.322-.052.128-.094.254-.14.383-.064.172-.128.344-.185.52v-.003l-.002.002-.002.004v-.014c-.063-.17-.12-.343-.185-.51-.047-.128-.088-.254-.14-.382-.043-.108-.088-.213-.136-.322-.058-.133-.112-.272-.166-.402-.053-.118-.102-.242-.155-.36-.108-.24-.228-.474-.34-.712-.065-.115-.117-.236-.175-.357-.12-.228-.25-.454-.37-.675-.067-.125-.13-.247-.202-.365-.123-.213-.25-.426-.385-.634-.075-.13-.156-.26-.232-.388-.122-.19-.254-.375-.38-.56-.096-.148-.195-.29-.298-.44-.108-.156-.23-.316-.345-.473-.122-.168-.247-.337-.372-.503-.1-.126-.206-.25-.31-.385-.147-.185-.298-.374-.454-.563l-.242-.275-.008-.01c-.185-.21-.366-.424-.56-.638l-.144-.147c-.228-.253-.46-.5-.705-.74l-.01-.015c-.862-.87-1.776-1.695-2.74-2.478l-.06-.042c-3.843-3.097-8.436-5.47-13.202-6.852-.865-.25-1.744-.468-2.632-.652-2.08-.436-4.233-.69-6.443-.737-.63-.013-1.277 0-1.92.02-.15.004-.293 0-.447.004-5.56.26-10.692 1.795-15.08 4.247-2.27 1.265-4.333 2.77-6.15 4.488-3.388 3.2-5.922 7.093-7.287 11.4l-.002.01c-.175 1.63-.314 3.316-.403 5.083v.016c-.064 1.197-.1 2.382-.128 3.553-.027 1.095-.04 2.175-.037 3.24l.002.267v.3c0 .13 0 .262.003.392v.156c.014 1.27.04 2.54.09 3.78l.003.073v.072l.003.002v.114l.013.22v.022l.002-.007.004-.006.022-.05c.026-.047.047-.088.093-.166l.02-.037.002-.007.03-.05.058-.105.002-.003.005-.015c.082-.146.177-.31.3-.513.456-.778 1.195-1.95 2.21-3.322l.006-.01c.28-.383.583-.777.91-1.19.295-.367.6-.742.923-1.13.066-.073.135-.15.2-.225.333-.378.676-.764 1.038-1.153 1.27-1.363 2.737-2.768 4.42-4.08 1.98-1.544 4.23-2.98 6.785-4.098 1.543-.676 3.19-1.246 4.946-1.655 7.35-1.7 13.965.56 18.764 3.257 1.856 1.044 3.438 2.15 4.682 3.117 1.337 1.04 2.286 1.925 2.77 2.392l.065.1c1.042.937 2.087 1.98 3.13 3.13 1.608 1.767 3.203 3.794 4.732 6.12.627.954 1.207 2.048 1.724 3.258.148.34.29.677.426 1.035 1.434 3.736 2.35 8.477 2.5 13.906.013.513.028 1.02.028 1.54 0 .108-.006.21-.006.316 0 .077 0 .16-.003.24l-.003.045-.004.14.012-.14.003-.044v.045l-.01.14-.005.176c-.014.873-.043 1.757-.116 2.66l-.003.042-.006.032c-.167 1.713-.514 3.342-1.01 4.886-.474 1.482-1.086 2.884-1.804 4.205-.235.43-.478.853-.735 1.27l-.015.018c-1.39 2.245-3.084 4.24-4.936 6.027-1.103 1.063-2.268 2.034-3.46 2.963-1.523 1.187-3.096 2.28-4.666 3.29l-.084.028c-.154.12-.6.394-1.094.686-.097.06-.2.12-.303.176l.002.003c.104.043.207.097.31.14.424.184.84.376 1.257.576.106.053.217.102.33.154.355.178.706.366 1.057.552.018.01.038.018.052.028.01.005.016.01.022.01v.003c.154.08.314.157.465.24l.085.045c.023.01.046.03.068.04.21.11.418.226.625.343.29.162.577.33.86.494.382.222.765.437 1.14.66.682.4 1.35.795 2.022 1.187.103.066.213.126.314.19.09.052.172.096.26.146.55.322 1.093.633 1.635.935.11.06.223.133.335.192.26.143.517.274.775.41.276.145.554.298.826.437.09.044.175.083.263.128.47.232.938.454 1.402.653.04.02.08.04.12.056l.05.022c.12.05.235.094.356.143.185.08.377.152.562.226.19.07.383.135.57.202.075.024.15.05.22.08.03.01.062.014.086.024.283.09.558.174.836.25.074.017.148.04.224.058.252.065.502.123.752.17.1.022.203.045.304.062.198.035.39.06.586.084.15.02.3.045.447.06.086.004.168.004.257.012.214.016.43.033.647.033H127.675c.005 0 .016.007.025.007h.005c.01 0 .016-.006.025-.006h.02c.22 0 .437-.016.66-.032.082-.008.168-.008.25-.012.148-.015.3-.04.45-.06.193-.024.386-.05.585-.084.098-.017.2-.04.305-.062.25-.047.5-.105.75-.17.076-.018.152-.04.227-.06.274-.074.55-.157.833-.248.027-.01.054-.014.083-.025.077-.028.15-.055.223-.08.188-.066.38-.132.568-.2.188-.075.38-.148.563-.226.12-.048.237-.09.357-.142l.05-.022c.043-.016.08-.037.12-.055.464-.198.932-.42 1.405-.652.086-.045.17-.084.26-.13.274-.138.55-.29.825-.435.258-.137.515-.268.773-.41.113-.06.228-.132.342-.192.54-.3 1.084-.612 1.635-.934.086-.05.17-.094.255-.146.104-.064.214-.124.32-.19.667-.39 1.34-.785 2.018-1.187.376-.222.756-.437 1.138-.66.285-.162.57-.33.863-.492.207-.116.414-.232.624-.343.026-.01.043-.028.07-.04l.084-.044c.154-.083.31-.16.463-.24l.005-.002c.007 0 .01-.005.018-.01.016-.01.034-.02.055-.028.353-.186.705-.374 1.062-.552.107-.052.215-.1.326-.154.414-.2.834-.392 1.255-.576.038-.016.073-.032.11-.05.064-.03.132-.062.2-.09v-.002c-.1-.057-.2-.117-.302-.176-.49-.292-.935-.565-1.09-.686l-.082-.028c-1.573-1.01-3.146-2.103-4.67-3.29-1.19-.93-2.358-1.9-3.46-2.963-1.85-1.788-3.548-3.782-4.93-6.027l-.02-.02c-.254-.415-.5-.837-.736-1.267-.717-1.32-1.325-2.722-1.8-4.204-.494-1.544-.846-3.173-1.012-4.886l-.005-.032-.002-.04c-.07-.905-.102-1.79-.117-2.662l-.004-.176-.014-.14v-.044l.002.045.015.14v-.14l-.004-.044c-.004-.08-.004-.163-.004-.24-.002-.105-.01-.208-.01-.317 0-.52.017-1.027.032-1.54.146-5.428 1.063-10.17 2.498-13.905.136-.358.28-.696.424-1.035.522-1.21 1.1-2.304 1.725-3.258 1.533-2.326 3.127-4.353 4.735-6.12 1.04-1.15 2.086-2.193 3.127-3.13l.07-.1c.48-.467 1.435-1.35 2.77-2.39 1.242-.97 2.824-2.074 4.68-3.118 4.795-2.698 11.417-4.957 18.766-3.257 1.752.41 3.404.98 4.944 1.655 2.555 1.118 4.808 2.554 6.784 4.1 1.685 1.31 3.152 2.715 4.425 4.078.36.39.707.775 1.035 1.153.064.074.136.152.2.226.327.386.633.76.926 1.128.326.413.63.807.91 1.19l.003.01c1.014 1.372 1.755 2.544 2.21 3.32.12.203.215.368.3.514v.015l.008.004.055.107.03.05.003.006.02.038c.046.08.066.12.09.166l.03.05.002.007v-.014l.01-.222v-.114l.008-.002v-.145c.05-1.24.076-2.508.088-3.78v-.155c.004-.13.004-.26.004-.39l.002-.25v-.32c.003-1.064-.01-2.144-.033-3.24" fill="#8F202F"/><path d="M189.972 147.14c-3.804-34.66-26.368-38.136-31.816-38.47-.394-.015-.786-.03-1.177-.03h-.006c-6.723 0-12.99 2.403-18.31 6.046-.757.522-1.5 1.083-2.21 1.662l-.058.042-.242.21c-1.445 1.19-2.795 2.492-4.048 3.91-.29.33-.57.676-.85 1.016-.142.17-.284.337-.427.51-.25.317-.487.647-.733.975-.43.585-.846 1.186-1.252 1.798-.177.274-.344.56-.516.84-.188.295-.375.588-.55.888l-.075.125-.078-.124c-.176-.3-.363-.593-.552-.888-.17-.28-.337-.566-.513-.84-.407-.612-.82-1.213-1.256-1.797-.24-.327-.48-.657-.73-.975-.137-.172-.286-.338-.427-.51-.28-.34-.564-.685-.85-1.015-1.254-1.418-2.604-2.72-4.043-3.91l-.247-.21-.054-.042c-.715-.58-1.458-1.14-2.214-1.662-5.32-3.643-11.588-6.045-18.31-6.045h-.006c-.39 0-.783.015-1.176.03-5.444.334-28.01 3.81-31.816 38.47l-.008.093c1.365-4.308 3.9-8.202 7.288-11.4 1.816-1.718 3.88-3.224 6.15-4.49 4.387-2.45 9.52-3.987 15.08-4.246.153-.005.297 0 .446-.005.643-.02 1.29-.032 1.92-.02 2.21.047 4.364.302 6.443.74.888.183 1.767.4 2.632.65 4.766 1.382 9.36 3.756 13.203 6.853l.06.042c.963.783 1.877 1.608 2.74 2.478l.01.014c.244.24.476.487.704.74l.143.147c.195.214.376.427.56.64l.01.008.24.274c.157.188.308.377.455.562.104.135.21.26.31.385.126.166.25.335.373.502.116.156.237.316.345.473.103.148.202.29.3.44.124.184.256.37.378.56.076.128.157.258.232.388.134.21.262.422.385.635.072.118.135.24.203.365.12.22.248.447.37.675.057.12.11.242.173.357.112.238.232.472.34.712.052.118.1.242.154.36.054.13.108.27.165.402.047.11.092.214.136.322.05.128.092.254.14.383.064.167.12.34.185.51v.014l.003-.003v-.002l.002-.002v-.006c.065-.17.125-.343.186-.51.046-.128.088-.254.14-.382.043-.108.09-.213.135-.322.06-.133.114-.272.168-.402.057-.118.102-.242.154-.36.11-.24.23-.474.343-.712.06-.115.11-.236.173-.357.117-.228.248-.454.368-.675.07-.125.133-.247.202-.365.125-.213.252-.426.386-.634.074-.13.155-.26.232-.388.122-.19.255-.375.38-.56l.297-.44.345-.473c.124-.168.25-.337.376-.503.095-.126.202-.25.308-.385.147-.185.297-.374.454-.563l.24-.275.01-.01c.186-.21.37-.424.56-.638l.143-.147c.23-.253.464-.5.706-.74l.012-.015c.86-.87 1.775-1.695 2.738-2.478l.06-.042c3.84-3.097 8.435-5.47 13.2-6.852.864-.25 1.744-.468 2.633-.652 2.082-.436 4.234-.69 6.445-.737.63-.013 1.274 0 1.918.02.15.004.297 0 .445.004 5.564.26 10.7 1.795 15.083 4.247 2.27 1.265 4.334 2.77 6.15 4.488 3.39 3.2 5.922 7.093 7.285 11.4l-.006-.093" fill="#F4BE5E"/><path d="M75.067 160.525h-.003l.003-.003v.003zM73.2 162.69v-.005l.01-.007-.01.01zm46.7 20.488c0-5.514-1.495-10.166-3.392-13.85-1.228-2.39-2.62-4.375-3.892-5.926-.35-.43-.693-.825-1.016-1.19-.125-.138-.25-.277-.37-.406-.004 0-.006-.005-.013-.006l-.097-.058c-2.197-1.407-5.086-2.64-9.02-3.428-1.914-.385-4.074-.667-6.518-.81-.558-.034-1.127-.06-1.713-.08l-.016-.046c-.128-.003-.253-.003-.385-.003-.433 0-.86-.03-1.293-.03l-.25.006c-.513.005-1.023.025-1.537.046-.374.008-.75.02-1.123.04-2.153.09-4.253.347-6.264.71-2.29.417-4.462.97-6.45 1.58-.88.272-1.723.55-2.527.835-.132.048-.258.094-.39.14-.892.32-1.73.648-2.508.97-.46.187-.9.37-1.32.554l-.024.01c-.096.043-.188.083-.278.125-1.133.496-2.088.955-2.816 1.327-.116.06-.23.117-.333.176h-.007c-.144.072-.27.142-.395.205-.156.084-.293.158-.41.224-.086.042-.163.084-.224.12l-.002.002c-.077.04-.14.08-.184.103l-.13.07v.004l.01-.002-.005.01h-.012l-.004.003v.01l.004.027.005.074.193 3.396.1 1.094.028.286.35 3.836c.146 1.3.322 2.57.51 3.827.05.35.102.7.153 1.048 1.07 6.802 2.622 12.898 4.373 18.237 3.235 9.85 7.13 17.133 9.87 21.56.115.18.228.363.34.536.4.633.77 1.197 1.106 1.7l.285.42c.18.26.35.51.507.72.212.308.4.567.56.786l.418.55.093.118.01-.007c.26.337.53.66.79.96.016-.093.03-.182.05-.28.27-1.166.667-2.358 1.22-3.523l-.518-.664.002-.004.517.668c.15-.333.326-.664.512-.99.092-.17.175-.343.278-.508l.164-.27.19-.247c.174-.23.275-.345.28-.354l.032-.045c.255-.318.508-.627.763-.927.665-.78 1.34-1.496 2.032-2.136v-.005c.91-.84 1.84-1.573 2.84-2.196l-.005.002.005-.004c.006-.002.01-.004.014-.008.526-.326 1.064-.613 1.606-.866.673-.312 1.353-.57 2.027-.764h.007c.49-.144.985-.246 1.485-.33l.254-.04 7.017-4.15.885-.52c.71-.463 1.41-.95 2.105-1.444.55-.392 1.092-.788 1.622-1.203l.01-.008c1.09-.845 2.09-1.686 2.983-2.545l.008-.01c.787-.76 1.526-1.547 2.2-2.37.672-.808 1.28-1.646 1.816-2.52l.083-.13c.17-.287.345-.578.51-.882.02-.035.03-.07.052-.105.52-.98.97-2.004 1.317-3.085.375-1.17.633-2.386.757-3.668.062-.737.09-1.484.1-2.26l.005-.038v-.035l.004-.12h-.005v-.2l.007-.083v-.156l.003-.237c0-.39-.01-.828-.025-1.338v-.004z" fill="#1B82AD"/><path d="M110.096 202.956l-.01.006-.004.003.014-.01M162.36 212.298l-.005-.002v.002h.004" fill="#1B82AD"/><path d="M182.204 162.69l-.007-.012.007.007v.004zm-1.863-2.165v-.003l.004.003h-.003zm10.067 4.072h-.01v-.01l.007.004v-.002l-.13-.07-.182-.104-.006-.002c-.064-.036-.138-.078-.226-.12-.117-.066-.25-.14-.406-.224-.126-.063-.255-.133-.397-.205h-.006c-.1-.06-.218-.117-.334-.175-.73-.373-1.682-.832-2.815-1.33-.09-.04-.183-.08-.278-.124l-.024-.01c-.42-.184-.858-.367-1.322-.555-.777-.322-1.614-.65-2.51-.97l-.386-.14c-.803-.283-1.645-.562-2.526-.835-1.988-.608-4.16-1.162-6.448-1.58-2.01-.362-4.113-.618-6.262-.71-.375-.02-.75-.03-1.126-.04-.51-.02-1.028-.04-1.536-.044l-.25-.006c-.436 0-.865.03-1.294.03-.13 0-.26 0-.388.004l-.01.047c-.592.02-1.16.045-1.716.08-2.444.142-4.603.424-6.514.81-3.938.787-6.828 2.02-9.024 3.427l-.1.058c-.004 0-.006.006-.008.006-.122.13-.244.268-.37.407-.326.364-.668.76-1.017 1.19-1.27 1.55-2.662 3.535-3.893 5.924-1.892 3.685-3.39 8.337-3.39 13.85v.005c-.012.51-.028.95-.028 1.337.003.035.003.105.008.236v.156l.007.084v.2h-.007l.007.12v.072c.012.775.04 1.522.1 2.26.124 1.28.386 2.497.758 3.667.347 1.08.795 2.106 1.32 3.085.016.035.03.07.05.105.166.304.34.595.51.882l.08.13c.54.874 1.15 1.712 1.815 2.52.675.823 1.416 1.61 2.205 2.37l.007.01c.89.86 1.897 1.702 2.99 2.548l-.018-.01.02.014c.528.414 1.074.81 1.62 1.202.694.495 1.398.98 2.11 1.445l.88.52 7.02 4.15.258.04c.495.083.994.185 1.482.33h.007c.675.192 1.353.45 2.026.763.542.253 1.078.538 1.6.866.007.002.01.006.017.008l.002.002c1 .623 1.93 1.355 2.84 2.196v.005c.693.64 1.365 1.355 2.032 2.136.268.314.53.635.798.973.007.01.103.123.28.353l.19.246.162.27c.102.165.185.337.28.508.184.326.358.657.51.99l.518-.668v.004l-.517.664c.55 1.165.953 2.357 1.22 3.524.02.097.033.186.057.278.255-.298.522-.622.787-.96l.008.008.09-.118c.107-.136.244-.318.417-.55.165-.22.35-.478.567-.786.152-.21.32-.46.5-.72.177-.258.286-.42.286-.42.338-.503.708-1.067 1.11-1.7.107-.172.22-.356.334-.536 2.746-4.426 6.637-11.71 9.873-21.56 1.75-5.338 3.303-11.434 4.37-18.236.053-.347.106-.698.156-1.05.187-1.256.36-2.526.51-3.826l.353-3.836.024-.286.1-1.094.086-1.53.108-1.865.003-.073.004-.028v-.01l-.003-.003z" fill="#1B82AD"/><path d="M127.76 332.395C58.393 314.9 10.018 243.955 10.018 171.482c0-25.76 4.066-47.976 11.148-67.034 22.453-46.82 76.572-46.968 81.26-43.186 0 0-.83-2.21-2.75-4.708 5.853.305 11.36 2 15.012 6.288 0 0-.89-5.08-4.65-9.296 13.585 2.778 17.255 13.605 17.447 14.202v.03h.197v-.027c.173-.532 3.82-11.417 17.45-14.204-3.76 4.215-4.652 9.296-4.652 9.296 3.653-4.287 9.16-5.983 15.014-6.288-1.923 2.498-2.753 4.708-2.753 4.708 4.815-3.885 61.75-3.617 82.998 47.073 6.224 18.175 9.766 39.117 9.766 63.147 0 72.473-48.375 143.417-117.743 160.913zM216.643 54.31c-21.208-25.043-51.005-43.502-86.17-53.38l-2.71-.762-2.71.762c-35.167 9.878-64.965 28.337-86.174 53.38C13.082 84.775 0 124.195 0 171.48c0 37.68 12.337 75.647 34.732 106.904 23.052 32.17 55.218 54.804 90.58 63.723l2.45.617 2.45-.618c35.358-8.92 67.53-31.555 90.576-63.724 22.4-31.257 34.736-69.225 34.736-106.904 0-47.286-13.085-86.706-38.882-117.173z" fill="#3C3C3A"/><path d="M224.057 136.905c-12.92-35.87-46.337-56.752-75.055-47.15-9.66 3.775-18.225 10.294-21.297 12.774-3.07-2.48-11.636-9-21.292-12.774-28.723-9.603-62.136 11.28-75.06 47.15-3.56 9.884-5.167 19.885-5.07 29.42-.004.2-.006.397-.006.602 0 .352.012.703.017 1.05.017.944.044 1.88.095 2.81.012.21.022.406.03.607.683 11.82 4.06 22.866 9.496 32.484 1.174 2.386 2.57 4.7 4.027 6.863.224.335.45.658.674.986.17.244.346.483.52.726 1.01 1.418 2.028 2.752 3.007 3.968 3.527 4.4 6.498 7.307 6.498 7.307s-6.124-21.444-5.945-27.444c4.77 7.545 10.275 13.15 10.275 13.15s-4.806-17.282-5.02-23.395c4.733 7.574 10.268 13.373 10.268 13.373s-4.977-17.792-5.08-23.71l.085-.117c2.59 5.485 5.557 10.084 7.04 12.264-.642-2.782-1.22-5.693-1.7-8.745v-.023c-.06-.377-.11-.745-.16-1.098l.003.027c-.196-1.298-.38-2.634-.54-4.026l-.012-.133-.35-3.802-.027-.287-.003-.03-.098-1.093-.018-.204-.085-1.53v.006l-.09-1.568c-.022-.176-.042-.353-.05-.53h-.002l-.012-.22-.005-.265c0-.007-.004-.018-.004-.03l-.002-.076v.036c-.05-1.31-.077-2.63-.092-3.958l-.002-.05V159.35c0-.044-.006-.117-.006-.218v-.277c0-1.023.014-2.056.037-3.096v-.014c.03-1.192.07-2.416.133-3.68v-.045c.097-1.878.246-3.674.435-5.404 0-.025.003-.043.005-.064.004-.014.004-.032.004-.048.625-5.713 1.746-10.732 3.24-15.138l1.298-3.453c.937-2.255 1.98-4.332 3.115-6.23 3.715-6.255 8.377-10.564 12.907-13.38 3.02-1.883 5.98-3.118 8.596-3.932 3.49-1.087 6.375-1.425 8.108-1.53l.154-.01c.37-.01.833-.034 1.382-.034h.005c4.06 0 7.96.73 11.582 1.977 3.628 1.244 6.983 3.006 10.03 5.093l.02.01c.84.582 1.645 1.19 2.413 1.81l.038.028.064.05.058.047.18.15.247.21c1.636 1.36 3.18 2.846 4.614 4.473l.025.025s0 .002.005.005v-.005l.022-.025c1.436-1.627 2.986-3.112 4.62-4.472h-.004l.247-.21.18-.15.06-.045.062-.05.04-.028c.77-.62 1.576-1.23 2.414-1.81l.016-.01c3.05-2.088 6.406-3.85 10.03-5.094 3.624-1.248 7.525-1.977 11.582-1.977h.005c.552 0 1.012.024 1.385.033l.152.01c1.947.12 5.36.533 9.443 1.97 4.078 1.437 8.846 3.933 13.283 8.17 2.96 2.82 5.752 6.404 8.093 10.858.673 1.282 1.306 2.643 1.902 4.07l1.302 3.452c1.493 4.405 2.615 9.427 3.238 15.144.005.016 0 .034.005.048.003.02.005.04.01.064.182 1.73.332 3.526.43 5.405l.004.047c.06 1.263.1 2.487.13 3.68v.012c.022 1.04.036 2.072.036 3.095V159.45c0 .163-.007.247-.003.25 0 .117 0 .256-.004.418v.18c-.01 1.297-.04 2.587-.09 3.866V164.25v-.03.036-.007l-.005.048v.03l-.004.263-.012.22h-.006c-.007.18-.025.356-.048.532l-.09 1.567v-.007l-.085 1.53-.017.204-.1 1.092v.03l-.03.288-.346 3.803-.014.134c-.158 1.392-.343 2.728-.54 4.027l.007-.026c-.05.353-.104.72-.163 1.098l-.002.023c-.48 3.054-1.058 5.968-1.7 8.753 1.482-2.178 4.453-6.78 7.048-12.272l.077.117c-.097 5.918-5.07 23.71-5.07 23.71s5.534-5.8 10.265-13.372c-.215 6.114-5.02 23.395-5.02 23.395s5.506-5.604 10.272-13.15c.182 6-5.94 27.446-5.94 27.446s2.968-2.905 6.496-7.306c.98-1.216 1.998-2.55 3.01-3.968.174-.243.345-.482.517-.727.226-.33.448-.652.674-.987 1.455-2.162 2.852-4.477 4.024-6.864 5.44-9.62 8.813-20.666 9.495-32.485.01-.2.022-.398.037-.606.045-.932.077-1.868.09-2.812.01-.347.02-.698.02-1.05 0-.205 0-.403-.01-.602.093-9.535-1.506-19.536-5.07-29.42" fill="#3C3C3A"/><path d="M73.2 162.69l.01-.012-.01.007v.004M75.067 160.525v-.003l-.003.003h.003M68.722 131.566l-.022.02h.003l.02-.02" fill="#B4B5B4"/><path d="M119.9 183.178c0-5.514-1.495-10.166-3.392-13.85.01.634.013 1.28 0 1.936-.042 2.405-.208 4.916-.527 7.514-.137 1.137-.217 2.26-.236 3.374-.08 4.366.726 8.49 1.993 12.248.52-.98.97-2.004 1.317-3.085.375-1.17.633-2.386.757-3.668.062-.737.09-1.484.1-2.26l.005-.038v-.035l.004-.12h-.005v-.2l.007-.083v-.156l.003-.237c0-.39-.01-.828-.025-1.338v-.004M87.758 187.89c.02-1.222.112-2.473.265-3.734.308-2.48.46-4.868.5-7.16.11-5.812-.532-10.974-1.4-15.23-.082-.392-.166-.78-.248-1.158-3.245.27-6.28.67-8.98 1.12.148.64.3 1.285.44 1.96.135.636.262 1.29.382 1.964.755 4.15 1.277 9.008 1.182 14.426-.043 2.292-.206 4.686-.493 7.155l-.016.127-.01.14v.012l-.003.015-.006.05v.027l-.003.004c-.016.13-.025.257-.038.39-.11 1-.18 1.996-.2 2.98-.08 4.506.772 8.757 2.108 12.616 1.06 3.05 2.423 5.843 3.86 8.312.242.417.483.837.736 1.235.784 1.276 1.576 2.436 2.345 3.493.665-.78 1.34-1.496 2.032-2.136v-.005c.91-.84 1.84-1.573 2.84-2.196l-.005.002.005-.004c.006-.002.01-.004.014-.008.526-.326 1.064-.613 1.606-.866-1.7-2.813-3.347-6.06-4.612-9.703-1.45-4.176-2.39-8.837-2.302-13.827" fill="#4CB2D4"/><path d="M102.26 198.933c-1.443-4.17-2.39-8.84-2.302-13.822.024-1.226.105-2.473.268-3.74.298-2.468.456-4.866.498-7.155.083-4.54-.294-8.68-.876-12.308-.084-.533-.173-1.06-.266-1.572-3.13-.148-6.18-.12-9.1.023.08.37.16.735.232 1.118.206 1.038.394 2.133.564 3.264.554 3.664.908 7.8.83 12.32-.048 2.41-.213 4.924-.533 7.516-.14 1.14-.21 2.27-.23 3.38-.08 4.502.767 8.752 2.102 12.608.756 2.19 1.675 4.23 2.662 6.126.638 1.233 1.305 2.388 1.98 3.478l.02.03c.026.04.053.088.082.128l.254-.04 7.017-4.15c-.604-1.125-1.195-2.3-1.743-3.536-.523-1.175-1.018-2.39-1.46-3.667M73.2 162.69v-.005l.01-.007-.01.01zm12.81 56.974l-.017.022c-.176-.23-.358-.5-.54-.74-.733-1-1.482-2.068-2.24-3.258-.08-.127-.16-.257-.237-.384-.432-.687-.864-1.402-1.284-2.15-.24-.423-.472-.878-.708-1.32-1.157-2.17-2.245-4.525-3.13-7.088-1.03-2.985-1.802-6.222-2.125-9.646-.08-.81-.136-1.63-.16-2.46-.017-.574-.025-1.146-.012-1.728.017-1.092.096-2.2.22-3.324l.015-.145.002-.036c.01-.076.01-.15.022-.223v-.015c.018-.133.023-.26.036-.388l.005-.037c.007-.077.013-.152.022-.23.11-.986.21-1.964.284-2.923.085-1.22.135-2.414.156-3.575.105-5.792-.533-10.933-1.39-15.173-.18-.864-.363-1.678-.554-2.464-5.764 1.148-9.373 2.33-9.373 2.33l.193 3.396.1 1.094.028.286.35 3.836c.146 1.3.322 2.57.51 3.827.05.35.102.7.153 1.048 1.07 6.802 2.622 12.898 4.373 18.237 3.235 9.85 7.13 17.133 9.87 21.56.115.18.228.363.34.536.4.633.77 1.197 1.106 1.7l.285.42c.18.26.35.51.507.72.212.308.4.567.56.786l.418.55.093.118.01-.007c.26.337.53.66.79.96.016-.093.03-.182.05-.28.27-1.166.667-2.358 1.22-3.523l-.518-.664.002-.004.517.668c.15-.333.326-.664.512-.99-.083.104-.167.21-.237.314-.085.124-.15.243-.226.366zM114.463 195.905c-.17-.5-.338-1.01-.5-1.527-1.157-3.77-1.876-7.907-1.797-12.29.023-1.233.106-2.475.263-3.74.302-2.468.456-4.86.494-7.15.027-1.437.003-2.826-.052-4.176-.046-1.066-.116-2.096-.206-3.107-.012-.17-.03-.34-.05-.513-.35-.43-.693-.825-1.016-1.19-.92-.235-1.957-.48-3.128-.722-1.134-.24-2.378-.47-3.725-.686-.387-.06-.78-.118-1.18-.178-.103-.008-.203-.022-.305-.03.114.638.202 1.315.295 1.984.144 1.022.275 2.077.38 3.165.264 2.663.422 5.5.363 8.535-.04 2.408-.21 4.92-.52 7.52-.143 1.14-.223 2.266-.24 3.378-.08 4.502.77 8.75 2.108 12.61.79 2.292 1.764 4.42 2.805 6.384.55-.392 1.092-.788 1.622-1.203l.01-.008c1.09-.845 2.09-1.686 2.983-2.545l.008-.01c.787-.76 1.526-1.547 2.2-2.37-.012-.03-.028-.065-.04-.1-.27-.66-.532-1.332-.773-2.032M110.096 202.956l-.01.006-.004.003.014-.01M162.36 212.298l-.005-.002v.002h.004M138.897 171.264c-.01-.655-.01-1.302 0-1.937-1.892 3.685-3.39 8.337-3.39 13.85v.005c-.012.51-.028.95-.028 1.337.003.035.003.105.008.236v.156l.007.084v.2h-.007l.007.12v.072c.012.775.04 1.522.1 2.26.124 1.28.386 2.497.758 3.667.347 1.08.795 2.106 1.32 3.085 1.266-3.758 2.07-7.882 1.99-12.248-.02-1.113-.097-2.237-.238-3.374-.315-2.598-.48-5.11-.528-7.514" fill="#4CB2D4"/><path d="M170.313 211.906c1.434-2.47 2.798-5.26 3.854-8.312 1.337-3.86 2.19-8.11 2.107-12.616-.02-.984-.09-1.98-.196-2.98-.012-.133-.02-.26-.037-.39l-.003-.004v-.004l-.006-.022v-.066l-.003-.003.003-.01h-.003l-.015-.14-.01-.127c-.287-2.47-.452-4.863-.494-7.155-.097-5.418.427-10.276 1.183-14.426.12-.675.244-1.328.385-1.965.14-.674.287-1.32.435-1.958-2.7-.45-5.734-.85-8.98-1.122-.08.38-.165.766-.246 1.16-.868 4.254-1.507 9.416-1.402 15.228.04 2.292.197 4.68.5 7.16.155 1.26.246 2.512.27 3.734.088 4.99-.855 9.65-2.31 13.827-1.26 3.643-2.908 6.89-4.606 9.703.542.253 1.078.538 1.6.866.007.002.01.006.017.008l.002.002c1 .623 1.93 1.355 2.84 2.196v.005c.693.64 1.365 1.355 2.032 2.136.768-1.057 1.56-2.217 2.35-3.492.247-.397.49-.817.736-1.234" fill="#4CB2D4"/><path d="M164.063 187.955c-.022-1.11-.09-2.238-.232-3.38-.318-2.59-.485-5.105-.526-7.515-.082-4.52.27-8.656.828-12.32.167-1.13.356-2.226.56-3.264.076-.383.153-.747.233-1.118-2.917-.143-5.97-.17-9.098-.023-.095.512-.183 1.04-.272 1.572-.58 3.63-.955 7.77-.875 12.308.042 2.29.2 4.687.504 7.156.16 1.267.242 2.514.264 3.74.088 4.984-.86 9.652-2.304 13.823-.44 1.276-.936 2.492-1.456 3.667-.55 1.237-1.136 2.41-1.745 3.537l7.02 4.15.257.04c.025-.04.05-.088.076-.13l.02-.03c.674-1.09 1.34-2.244 1.985-3.477.982-1.897 1.905-3.937 2.662-6.126 1.334-3.856 2.18-8.106 2.1-12.61M182.204 162.69l-.007-.012.007.007v.004zm-1.175-.31c-.187.786-.377 1.6-.547 2.464-.867 4.24-1.502 9.38-1.398 15.173.02 1.16.072 2.356.162 3.575.066.96.17 1.937.278 2.922.01.08.016.154.025.23l.002.038c.018.128.018.255.04.387v.014c.008.073.012.147.022.223v.036l.012.145c.125 1.123.204 2.232.225 3.324.01.582.003 1.154-.012 1.727-.027.83-.082 1.65-.16 2.46-.324 3.424-1.092 6.66-2.125 9.646-.886 2.563-1.975 4.918-3.13 7.087-.237.443-.466.898-.71 1.32-.42.75-.848 1.464-1.282 2.15-.075.128-.158.258-.236.385-.758 1.19-1.508 2.26-2.242 3.257-.18.24-.36.51-.54.74l-.015-.02c-.077-.124-.142-.243-.228-.367-.067-.103-.15-.21-.233-.314.184.326.358.657.51.99l.518-.668v.004l-.517.664c.55 1.165.953 2.357 1.22 3.524.02.097.033.186.057.278.255-.298.522-.622.787-.96l.008.008.09-.118c.107-.136.244-.318.417-.55.165-.22.35-.478.567-.786.152-.21.32-.46.5-.72.177-.258.286-.42.286-.42.338-.503.708-1.067 1.11-1.7.107-.172.22-.356.334-.536 2.746-4.426 6.637-11.71 9.873-21.56 1.75-5.338 3.303-11.434 4.37-18.236.053-.347.106-.698.156-1.05.187-1.256.36-2.526.51-3.826l.353-3.836.024-.286.1-1.094.086-1.53.108-1.865s-3.61-1.182-9.375-2.33zM151.63 181.8c-.315-2.6-.48-5.112-.525-7.52-.054-3.035.102-5.872.365-8.535.105-1.088.235-2.143.38-3.165.095-.67.183-1.346.292-1.985-.1.01-.2.023-.302.03-.4.06-.795.118-1.18.18-1.348.214-2.593.446-3.723.685-1.17.242-2.207.487-3.13.723-.325.364-.667.76-1.016 1.19-.017.172-.035.34-.048.512-.093 1.01-.163 2.04-.204 3.107-.06 1.35-.08 2.74-.06 4.176.045 2.29.197 4.682.503 7.15.154 1.265.24 2.507.26 3.74.08 4.383-.64 8.52-1.798 12.29-.162.518-.324 1.028-.497 1.527-.244.7-.502 1.37-.77 2.032l-.047.1c.675.823 1.416 1.61 2.205 2.37l.007.01c.89.86 1.897 1.702 2.99 2.548l-.018-.01.02.014c.528.414 1.074.81 1.62 1.202 1.042-1.965 2.017-4.092 2.806-6.384 1.337-3.86 2.19-8.108 2.107-12.61-.015-1.112-.097-2.24-.235-3.38" fill="#4CB2D4"/><path d="M115.98 178.778c.32-2.598.486-5.11.528-7.514.013-.655.01-1.302 0-1.937-1.228-2.39-2.62-4.374-3.892-5.925.02.173.038.342.05.513.09 1.01.16 2.04.206 3.107.055 1.35.08 2.74.052 4.176-.038 2.29-.192 4.682-.495 7.15-.158 1.265-.24 2.507-.264 3.74-.08 4.383.64 8.52 1.797 12.29.162.518.33 1.028.5 1.527.24.7.503 1.37.773 2.032.012.035.028.07.04.1.672-.808 1.28-1.646 1.816-2.52l.083-.13c.17-.287.345-.578.51-.882.02-.035.03-.07.052-.105-1.267-3.758-2.074-7.882-1.993-12.248.02-1.113.1-2.237.237-3.374M75.067 160.525h-.003l.003-.003v.003zm36.15 1.275l-.097-.058c-2.197-1.407-5.086-2.64-9.02-3.428-1.914-.385-4.074-.667-6.518-.81-.558-.034-1.127-.06-1.713-.08l-.016-.046c-.128-.003-.253-.003-.385-.003-.433 0-.86-.03-1.293-.03l-.25.006c-.513.005-1.023.025-1.537.046-.374.008-.75.02-1.123.04-2.153.09-4.253.347-6.264.71-2.29.417-4.462.97-6.45 1.58-.88.272-1.723.55-2.527.835-.132.048-.258.094-.39.14-.892.32-1.73.648-2.508.97-.46.187-.9.37-1.32.554l-.024.01c-.096.043-.188.083-.278.125-1.133.496-2.088.955-2.816 1.327-.116.06-.23.117-.333.176h-.007c-.144.072-.27.142-.395.205-.156.084-.293.158-.41.224-.086.042-.163.084-.224.12l-.002.002c-.077.04-.14.08-.184.103l-.13.07v.004l.01-.002-.005.01h-.012l-.004.003v.01l.004.027.005.074s3.61-1.182 9.373-2.33c.19.786.375 1.6.553 2.464.857 4.24 1.495 9.38 1.39 15.173-.02 1.16-.07 2.356-.156 3.575-.073.96-.174 1.937-.284 2.922-.01.08-.015.154-.022.23l-.005.038c-.013.128-.018.255-.036.387v.014c-.01.073-.013.147-.022.223l-.002.036-.015.145c-.124 1.123-.203 2.232-.22 3.324-.013.582-.005 1.154.012 1.727.024.83.08 1.65.16 2.46.322 3.424 1.094 6.66 2.124 9.646.885 2.563 1.973 4.918 3.13 7.087.236.443.467.898.708 1.32.42.75.852 1.464 1.284 2.15.076.128.157.258.237.385.758 1.19 1.507 2.26 2.24 3.257.182.24.364.51.54.74l.016-.02c.076-.124.14-.243.225-.367.07-.103.154-.21.237-.314.092-.17.175-.343.278-.508l.164-.27.19-.247c.174-.23.275-.345.28-.354l.032-.045c.255-.318.508-.627.763-.927-.77-1.057-1.562-2.217-2.346-3.492-.253-.397-.494-.817-.736-1.234-1.437-2.47-2.8-5.26-3.86-8.312-1.336-3.86-2.188-8.11-2.108-12.616.02-.984.09-1.98.2-2.98.012-.133.02-.26.037-.39l.004-.004v-.026l.007-.05.002-.016v-.013l.01-.14.017-.127c.287-2.47.45-4.863.492-7.155.094-5.418-.428-10.276-1.183-14.426-.12-.675-.247-1.328-.383-1.965-.14-.674-.29-1.32-.438-1.958 2.7-.45 5.734-.85 8.98-1.122.08.38.165.766.248 1.16.867 4.254 1.508 9.416 1.4 15.228-.04 2.292-.193 4.68-.5 7.16-.154 1.26-.245 2.512-.266 3.734-.09 4.99.852 9.65 2.302 13.827 1.265 3.643 2.913 6.89 4.612 9.703.673-.312 1.353-.57 2.027-.764h.007c.49-.144.985-.246 1.485-.33-.03-.04-.056-.087-.08-.128l-.02-.03c-.677-1.09-1.344-2.245-1.983-3.478-.988-1.897-1.907-3.937-2.663-6.126-1.335-3.856-2.182-8.106-2.103-12.61.02-1.108.09-2.237.23-3.378.32-2.592.486-5.106.533-7.516.08-4.52-.275-8.656-.83-12.32-.17-1.13-.357-2.226-.563-3.264-.073-.383-.153-.747-.233-1.118 2.922-.143 5.973-.17 9.102-.023.093.512.182 1.04.266 1.572.582 3.63.96 7.77.876 12.308-.042 2.29-.2 4.687-.498 7.156-.163 1.267-.244 2.514-.268 3.74-.088 4.984.86 9.652 2.303 13.823.442 1.276.937 2.492 1.46 3.667.548 1.237 1.14 2.41 1.743 3.537l.885-.52c.71-.464 1.41-.95 2.105-1.445-1.04-1.965-2.016-4.092-2.805-6.384-1.34-3.86-2.188-8.108-2.108-12.61.017-1.112.097-2.24.24-3.38.31-2.598.48-5.11.52-7.518.06-3.035-.1-5.872-.364-8.535-.104-1.088-.235-2.143-.38-3.165-.092-.67-.18-1.346-.294-1.985.102.01.202.023.305.03.4.06.793.118 1.18.18 1.347.214 2.59.446 3.725.685 1.17.242 2.207.487 3.128.723-.125-.14-.25-.278-.37-.407-.004 0-.006-.005-.013-.006zM142.48 171.198c-.023-1.437-.002-2.826.058-4.176.04-1.066.11-2.096.204-3.107.013-.17.03-.34.05-.513-1.272 1.55-2.664 3.536-3.895 5.925-.01.635-.01 1.282 0 1.937.047 2.405.213 4.916.528 7.514.14 1.137.218 2.26.238 3.374.08 4.366-.724 8.49-1.99 12.248.016.035.03.07.05.105.166.304.34.595.51.882l.08.13c.54.874 1.15 1.712 1.815 2.52l.046-.1c.27-.66.527-1.332.77-2.032.174-.5.336-1.01.498-1.527 1.157-3.77 1.878-7.907 1.798-12.29-.02-1.233-.106-2.475-.26-3.74-.305-2.468-.457-4.86-.5-7.15M180.34 160.525v-.003l.004.003h-.003zm10.067 4.072h-.01v-.01l.007.004v-.002l-.13-.07-.182-.104-.006-.002c-.064-.036-.138-.078-.226-.12-.117-.066-.25-.14-.406-.224-.126-.063-.255-.133-.397-.205h-.006c-.1-.06-.218-.117-.334-.175-.73-.373-1.682-.832-2.815-1.33-.09-.04-.183-.08-.278-.124l-.024-.01c-.42-.184-.858-.367-1.322-.555-.777-.322-1.614-.65-2.51-.97l-.386-.14c-.803-.283-1.645-.562-2.526-.835-1.988-.608-4.16-1.162-6.448-1.58-2.01-.362-4.113-.618-6.262-.71-.375-.02-.75-.03-1.126-.04-.51-.02-1.028-.04-1.536-.044l-.25-.006c-.436 0-.865.03-1.294.03-.13 0-.26 0-.388.004l-.01.047c-.592.02-1.16.045-1.716.08-2.444.142-4.603.424-6.514.81-3.938.787-6.828 2.02-9.024 3.427l-.1.058c-.004 0-.006.006-.008.006-.122.13-.244.268-.37.407.922-.236 1.958-.48 3.13-.723 1.13-.24 2.374-.47 3.72-.686.387-.06.782-.118 1.182-.178.102-.008.202-.022.302-.03-.11.638-.197 1.315-.292 1.984-.145 1.022-.275 2.077-.38 3.165-.263 2.663-.42 5.5-.365 8.535.044 2.408.21 4.92.525 7.52.138 1.14.22 2.266.235 3.378.084 4.502-.77 8.75-2.107 12.61-.79 2.292-1.764 4.42-2.806 6.384.694.495 1.398.98 2.11 1.445l.88.52c.61-1.126 1.196-2.3 1.746-3.537.52-1.175 1.015-2.39 1.456-3.667 1.444-4.17 2.392-8.84 2.304-13.822-.022-1.226-.103-2.473-.264-3.74-.303-2.468-.462-4.866-.504-7.155-.08-4.54.294-8.68.875-12.308.09-.533.177-1.06.272-1.572 3.127-.148 6.18-.12 9.098.023-.08.37-.157.735-.233 1.118-.204 1.038-.393 2.133-.56 3.264-.558 3.664-.91 7.8-.828 12.32.04 2.41.208 4.924.527 7.516.142 1.14.21 2.27.233 3.38.078 4.502-.767 8.752-2.1 12.608-.758 2.19-1.68 4.23-2.662 6.126-.643 1.233-1.31 2.388-1.983 3.478l-.02.03c-.026.04-.052.088-.077.128.495.084.994.186 1.482.33h.007c.675.193 1.353.452 2.026.764 1.698-2.813 3.347-6.06 4.607-9.703 1.454-4.176 2.397-8.837 2.308-13.827-.022-1.222-.113-2.473-.27-3.734-.3-2.48-.457-4.868-.498-7.16-.105-5.812.534-10.974 1.402-15.23.08-.392.165-.78.247-1.158 3.246.27 6.28.67 8.98 1.12-.148.64-.294 1.285-.435 1.96-.14.636-.266 1.29-.384 1.964-.755 4.15-1.28 9.008-1.182 14.426.042 2.292.207 4.686.493 7.155l.012.127.015.14h.003l-.003.01.003.002v.065l.007.023v.004l.004.004c.017.13.026.257.038.39.105 1 .177 1.996.196 2.98.083 4.506-.77 8.757-2.107 12.616-1.056 3.05-2.42 5.843-3.854 8.312-.245.417-.49.837-.735 1.235-.79 1.276-1.583 2.436-2.35 3.493.267.314.53.635.797.973.007.01.103.123.28.353l.19.246.162.27c.102.165.185.337.28.508.084.104.166.21.232.314.085.124.15.243.227.366l.016.022c.18-.23.36-.5.54-.74.733-1 1.483-2.068 2.24-3.258.08-.127.162-.257.238-.384.435-.687.862-1.402 1.283-2.15.244-.423.473-.878.71-1.32 1.155-2.17 2.244-4.525 3.13-7.088 1.033-2.985 1.8-6.222 2.125-9.646.078-.81.133-1.63.16-2.46.015-.574.023-1.146.013-1.728-.02-1.092-.1-2.2-.224-3.324l-.01-.145-.002-.036c-.01-.076-.014-.15-.022-.223v-.015c-.022-.133-.022-.26-.04-.388l-.002-.037c-.01-.077-.016-.152-.025-.23-.11-.986-.212-1.964-.278-2.923-.09-1.22-.14-2.414-.162-3.575-.104-5.792.53-10.933 1.398-15.173.17-.864.36-1.678.546-2.464 5.764 1.148 9.374 2.33 9.374 2.33l.003-.073.004-.028v-.01l-.003-.003z" fill="#1B82AD"/><path d="M113.798 215.043c.682.402 1.35.796 2.022 1.188.103.066.213.126.314.19h.004c.51-.568.99-1.163 1.413-1.724l.006-.002c.136-.18.267-.36.39-.53.392-.515.762-1.052 1.116-1.617.124-.193.198-.318.198-.318h-.003c.083-.14.17-.275.25-.414 3.312-5.714 4.898-13.332 5.644-18.72.49-3.52.62-6.083.642-6.55-.007-.354-.01-.713-.016-1.07v-.176l-.008-.14-.01.14-.005.176c-.014.873-.043 1.757-.116 2.66l-.003.042-.006.032c-.167 1.713-.514 3.342-1.01 4.886-.474 1.482-1.086 2.884-1.804 4.205-.235.43-.478.853-.735 1.27l-.015.018c-1.39 2.245-3.084 4.24-4.936 6.027-1.103 1.063-2.268 2.034-3.46 2.963-1.523 1.187-3.096 2.28-4.666 3.29l-.084.028c-.154.12-.6.394-1.094.686-.097.06-.2.12-.303.176l.002.003c.104.043.207.097.31.14.424.184.84.376 1.257.576.106.053.217.102.33.154.355.178.706.366 1.057.552.018.01.038.018.052.028.01.005.016.01.022.01v.003c.154.08.314.157.465.24l.085.045c.023.01.046.03.068.04.21.11.418.226.625.343.29.162.577.33.86.494.382.222.765.437 1.14.66M113.16 155.472l.067.1c1.042.937 2.087 1.98 3.13 3.13 1.608 1.767 3.203 3.794 4.732 6.12.627.954 1.207 2.048 1.724 3.258.148.34.29.677.426 1.035 0 0-.133-.633-.426-1.7-.513-1.863-1.53-5.07-3.222-8.663-.84-1.787-1.848-3.668-3.05-5.533-.165-.255-.328-.507-.498-.76-.43-.637-.88-1.27-1.357-1.89-.22-.294-.458-.578-.687-.867-1.086-1.33-2.285-2.61-3.608-3.782-2.057-1.82-4.41-3.39-7.095-4.53-1.72-.726-3.57-1.282-5.57-1.61-4.86-.788-9.23-.033-13.09 1.61-1.57.673-3.047 1.498-4.44 2.422-1.81 1.2-3.48 2.578-4.982 4.048l-.043.038c-2.087 2.052-3.862 4.274-5.333 6.415-.837 1.21-1.565 2.397-2.195 3.52-.117.207-.23.416-.344.62-.203.378-.392.747-.57 1.1l-.082.163c-.086.18-.176.356-.258.532-.37.78-.67 1.496-.905 2.127l-.03.08c-.17.46-.302.87-.395 1.225-.025.08-.04.158-.062.227l-.045.194v.072l.003.002v.114l.013.22v.022l.002-.007.004-.006.022-.05c.026-.047.047-.088.093-.166l.02-.037.002-.007.03-.05.058-.105.002-.003.005-.015c.082-.146.177-.31.3-.513.456-.778 1.195-1.95 2.21-3.322l.006-.01c.28-.383.583-.777.91-1.19.295-.367.6-.742.923-1.13.066-.073.135-.15.2-.225.333-.378.676-.764 1.038-1.153 1.27-1.363 2.737-2.768 4.42-4.08 1.98-1.544 4.23-2.98 6.785-4.098 1.543-.676 3.19-1.246 4.946-1.655 7.35-1.7 13.965.56 18.764 3.257 1.856 1.044 3.438 2.15 4.682 3.117 1.337 1.04 2.286 1.925 2.77 2.392M139.67 243.89c-.19-.423-.375-.845-.548-1.273-.362-.906-.678-1.822-.952-2.743-.04-.135-.092-.274-.126-.406l.016-.25c-.32-1.168-.555-2.348-.652-3.508-.015-.16-.008-.315-.01-.473l-.005-.084v-.036c-.015-.217-.03-.425-.035-.64v-.329c0-.138 0-.27.003-.404.004-.133.01-.27.02-.4.02-.304.07-.6.11-.895.077-.503.176-1 .316-1.483.074-.255.172-.507.26-.756.003-.005.008-.012.008-.016.23-.606.494-1.2.84-1.77.163-.275.313-.553.51-.812.106-.148.216-.306.338-.45.23-.28.478-.554.746-.818.015-.02.034-.034.053-.05.254-.253.523-.496.817-.734l.006-.006c0-.002.003-.004.007-.01.004 0 .005-.005.005-.005h.006l.012-.013v-.005l.03-.017-.03.008-.002.002-.026.007-.007.005-.024.008.024-.02h.003v-.002l.004-.004.017-.012.012-.012-.022.002-.006.004h-.004l-.007.002h-.015l-.02.004h-.017c-.165.02-.57.07-1.14.172-.82.15-1.993.398-3.36.828l-.06.013-.162.06c-.89.286-1.84.66-2.823 1.106-.06.024-.118.05-.175.075-.178.075-.357.15-.536.24-.163.076-.316.166-.474.247-.012.01-.032.02-.045.028-1.428.75-2.85 1.687-4.174 2.878l-.018.017c-.165.154-.326.318-.494.48l-.06.062c-.036.033-.065.062-.093.094h-.004v-.004c-.03-.03-.06-.057-.088-.09-.022-.02-.045-.04-.064-.063-.168-.162-.33-.326-.495-.48l-.018-.017c-1.32-1.19-2.746-2.13-4.17-2.878-.02-.01-.03-.017-.05-.028-.155-.08-.31-.17-.472-.247-.182-.09-.356-.165-.535-.24-.06-.023-.12-.05-.178-.074-.98-.447-1.934-.82-2.822-1.105l-.16-.06-.06-.012c-1.37-.43-2.543-.68-3.364-.828-.567-.103-.974-.153-1.14-.172h-.017l-.02-.004h-.01l-.008-.002h-.007l-.006-.004h-.003l-.018-.002.013.012.013.01.004.005.002.002.024.02-.025-.008-.007-.005h-.003l-.02-.007-.006-.002-.026-.008.023.017.004.005.015.012s0 .005.004.005c.003.005.006.007.01.01.003 0 .005.003.005.005.292.238.563.48.815.733.02.017.04.032.054.05.268.265.516.54.744.82.124.143.23.3.34.45.196.258.344.536.51.81.34.57.61 1.165.838 1.77.002.005.002.012.007.018.09.25.187.502.26.757.14.484.24.98.316 1.484.047.297.092.592.11.896.013.13.014.267.02.4.003.134 0 .266 0 .403v.046l.003.223v.058c-.01.214-.02.422-.036.64v.017l-.002.018-.004.084c0 .158.004.314-.01.473-.098 1.16-.333 2.34-.647 3.51l.015.248c-.037.132-.09.27-.128.406-.27.92-.592 1.837-.953 2.743-.174.428-.36.85-.547 1.272-.155.337-.313.676-.473 1.008-.938 1.94-1.988 3.747-3.003 5.33 2.26-.342 4.686-.628 7.26-.832 1.97-.163 4.02-.274 6.166-.325.215-.012.42-.03.637-.035h2.763c.215.006.424.023.634.036 2.146.052 4.196.163 6.166.326 2.573.204 5.002.49 7.26.833-1.017-1.585-2.065-3.393-3-5.332-.164-.332-.322-.67-.476-1.01M146.49 210.896l-.084-.028c-1.573-1.01-3.146-2.103-4.67-3.29-1.19-.93-2.358-1.9-3.46-2.963-1.85-1.788-3.548-3.782-4.93-6.027l-.02-.02c-.254-.415-.5-.837-.736-1.267-.717-1.32-1.325-2.722-1.8-4.204-.494-1.544-.846-3.173-1.012-4.886l-.005-.032-.002-.04c-.07-.905-.102-1.79-.117-2.662l-.004-.176-.014-.14-.006.14v.176c-.01.357-.01.716-.015 1.07.02.467.15 3.03.64 6.55.744 5.388 2.332 13.006 5.644 18.72.08.14.167.274.25.413h-.006s.076.124.2.317c.353.565.725 1.102 1.118 1.618.07.092.142.195.215.293.057.08.115.157.175.236l.005.002c.424.56.9 1.156 1.413 1.724.104-.064.214-.124.32-.19.667-.39 1.34-.785 2.018-1.187.376-.222.756-.437 1.138-.66.285-.162.57-.33.863-.492.207-.116.414-.232.624-.343.026-.01.043-.028.07-.04l.084-.044c.154-.083.31-.16.463-.24l.005-.002c.007 0 .01-.005.018-.01.016-.01.034-.02.055-.028.353-.186.705-.374 1.062-.552.107-.052.215-.1.326-.154.414-.2.834-.392 1.255-.576.038-.016.073-.032.11-.05.064-.03.132-.062.2-.09v-.002c-.1-.057-.2-.117-.302-.176-.49-.292-.935-.565-1.09-.686M190.447 164.06l-.04-.153c-.02-.07-.035-.147-.06-.227-.092-.354-.227-.765-.395-1.226l-.03-.08c-.235-.63-.536-1.345-.905-2.126-.082-.176-.17-.352-.26-.532l-.08-.163c-.177-.353-.367-.722-.572-1.1-.11-.204-.226-.413-.343-.62-.625-1.123-1.356-2.31-2.194-3.52-1.472-2.14-3.25-4.363-5.336-6.415l-.04-.038c-1.505-1.47-3.173-2.848-4.984-4.048-1.392-.924-2.87-1.75-4.436-2.422-3.86-1.643-8.232-2.398-13.094-1.61-2 .328-3.85.884-5.567 1.61-2.684 1.14-5.04 2.71-7.092 4.53-1.327 1.173-2.526 2.452-3.608 3.783-.235.29-.472.573-.693.866-.475.62-.922 1.253-1.355 1.89-.17.253-.332.505-.498.76-1.198 1.864-2.207 3.745-3.048 5.532-1.694 3.592-2.712 6.8-3.226 8.663-.29 1.067-.424 1.7-.424 1.7.136-.358.28-.696.424-1.035.522-1.21 1.1-2.304 1.725-3.258 1.533-2.326 3.127-4.353 4.735-6.12 1.04-1.15 2.086-2.193 3.127-3.13l.07-.1c.48-.467 1.435-1.35 2.77-2.39 1.242-.97 2.824-2.074 4.68-3.118 4.795-2.698 11.417-4.957 18.766-3.257 1.752.41 3.404.98 4.944 1.655 2.555 1.118 4.808 2.554 6.784 4.1 1.685 1.31 3.152 2.715 4.425 4.078.36.39.707.775 1.035 1.153.064.074.136.152.2.226.327.386.633.76.926 1.128.326.413.63.807.91 1.19l.003.01c1.014 1.372 1.755 2.544 2.21 3.32.12.203.215.368.3.514v.015l.008.004.055.107.03.05.003.006.02.038c.046.08.066.12.09.166l.03.05.002.007v-.014l.01-.222v-.114l.008-.002v-.07l-.01-.042" fill="#C02439"/><path d="M160.113 260.513c-1.628-.546-3.492-1.147-5.558-1.753l-.01.012-2.85-.81c-2.614-.697-5.69-1.38-9.205-1.923l-.194-.03-.653-.096c-3.592-.518-7.62-.897-12.063-1.004l-.098-.002-.096-.003-.427-.027h-2.513l-.427.027-.094.003-.097.002c-4.444.107-8.47.486-12.068 1.004l-.65.096-.197.03c-3.514.542-6.59 1.225-9.205 1.92l-2.85.812-.01-.012c-2.062.606-3.93 1.207-5.557 1.753-1.03.347-1.97.673-2.808.963l-.084.033h70.608l-.083-.034c-.838-.29-1.778-.616-2.812-.963M135.945 224.753l.005-.006h.002l-.007.006zm-2.204.837h-.01l.087-.027-.076.027zm29.69-4.38c-.764-.973-1.503-1.78-2.214-2.434-.674-.633-1.327-1.133-1.942-1.52-.767-.474-1.48-.784-2.177-.984-.696-.202-1.382-.29-2.092-.29-.817 0-1.667.125-2.574.36-.134.035-.278.087-.414.132-.132.042-.256.075-.386.12-.465.15-.94.337-1.43.54-.1.04-.203.083-.308.127-.41.177-.826.367-1.243.575l-.035.015c-.335.163-.668.336-1.005.514l-.015.008c-.11.057-.222.112-.334.172-.155.085-.317.177-.474.265-.024.01-.043.02-.066.036-.085.044-.168.09-.256.138-.023.016-.05.03-.076.045-1.067.6-2.166 1.254-3.294 1.923-.49.288-.988.58-1.49.872-.074.04-.144.08-.22.124l-.004.003c-.134.078-.27.154-.403.233-.023.015-.048.028-.074.04l-.1.056c-.145.084-.292.167-.44.247-.038.024-.077.044-.115.067-.006.004-.008.005-.015.007-.004.002-.01.002-.012.006-.257.146-.513.29-.772.426-.006.005-.017.01-.023.013-.012.005-.02.01-.028.012-.027.017-.058.03-.086.047-.015.01-.03.016-.047.023-.033.016-.058.033-.088.047-.005.004-.01.004-.014.01l-.362.19c-.164.088-.326.176-.494.26-.107.056-.226.11-.335.165-.528.263-1.065.516-1.606.756-.043.022-.09.043-.135.065-.058.022-.107.05-.163.07-.022.01-.042.022-.065.03-.015.006-.03.014-.05.02-.02.013-.04.017-.055.027l-.447.18c-.238.097-.474.195-.707.28-.224.082-.443.16-.663.234-.088.032-.17.06-.257.088-.074.028-.148.054-.223.08-.038.008-.075.025-.11.036-.085.028-.165.057-.248.083-.093.03-.19.054-.28.078l-.023.005c-.127.036-.256.07-.38.106-.124.036-.247.07-.372.1-.02.01-.035.013-.053.017-.01 0-.02.007-.024.007-.3.077-.608.137-.92.2-.156.035-.32.073-.477.1-.082.014-.162.03-.246.042-.213.035-.43.058-.646.086-.2.023-.4.055-.603.077-.29.03-.59.033-.89.044-.187.01-.378.032-.568.032v.004h-.11v-.004c-.193 0-.38-.02-.573-.032-.297-.01-.593-.015-.89-.045-.2-.023-.402-.055-.602-.078-.217-.028-.434-.05-.648-.086-.08-.012-.164-.028-.244-.042-.16-.027-.32-.065-.48-.1-.306-.063-.612-.123-.917-.2-.01 0-.017-.007-.023-.007-.02-.004-.036-.008-.054-.016-.126-.03-.25-.064-.376-.1l-.377-.105c-.006-.002-.014-.002-.017-.004-.092-.023-.19-.048-.283-.077-.083-.026-.166-.055-.25-.083-.034-.01-.075-.028-.11-.037-.077-.025-.15-.05-.227-.08-.082-.026-.167-.055-.256-.087-.22-.074-.44-.152-.657-.233-.235-.086-.474-.184-.712-.28-.146-.06-.295-.12-.447-.18-.018-.01-.034-.015-.052-.028l-.052-.02c-.022-.008-.043-.02-.064-.03-.055-.02-.11-.048-.16-.07-.045-.022-.094-.043-.14-.064-.54-.24-1.075-.492-1.602-.755-.11-.056-.23-.11-.338-.165-.163-.084-.325-.172-.493-.26-.118-.063-.24-.126-.357-.19-.007-.006-.016-.006-.02-.01l-.088-.047c-.013-.007-.032-.014-.045-.024-.03-.018-.06-.03-.09-.048l-.024-.013c-.01-.003-.018-.01-.023-.014-.26-.137-.515-.28-.773-.426-.005-.004-.007-.004-.013-.006-.003-.002-.01-.003-.013-.007-.037-.023-.076-.043-.118-.068-.147-.08-.292-.164-.437-.248-.036-.02-.07-.036-.102-.055l-.074-.04c-.136-.08-.27-.156-.4-.234 0 0-.007-.002-.007-.004-.073-.044-.148-.085-.22-.125-.503-.292-1-.584-1.49-.872-1.13-.67-2.228-1.324-3.296-1.924-.022-.015-.05-.03-.078-.046-.087-.047-.17-.094-.253-.138-.023-.015-.044-.026-.066-.037-.16-.09-.317-.18-.474-.266-.114-.06-.225-.115-.336-.172l-.01-.008c-.34-.178-.677-.35-1.008-.514-.012-.004-.022-.01-.032-.015-.42-.208-.838-.398-1.245-.574-.104-.043-.203-.086-.31-.127-.485-.202-.964-.39-1.43-.54-.126-.044-.255-.077-.384-.12-.137-.044-.275-.096-.414-.13-.907-.236-1.76-.36-2.576-.36-.71 0-1.39.087-2.09.29-.695.2-1.412.51-2.175.984-.62.386-1.27.886-1.946 1.52-.71.654-1.45 1.46-2.213 2.433-.08.1-.152.194-.233.297-4.37 7.193 1.12 18.924 1.12 18.924.115.266.217.543.34.807 2.07 4.513 5.015 7.955 8.1 10.508.257.214.51.413.77.606l.09-.023c.687-.184 1.408-.366 2.152-.545 2.335-.563 4.948-1.096 7.835-1.535l.11-.018c1.016-1.585 2.066-3.393 3.004-5.332.16-.332.318-.67.473-1.01.188-.42.373-.843.547-1.27.36-.907.682-1.823.953-2.744.04-.135.09-.274.128-.406l-.014-.25c-.006-.905-.125-1.736-.365-2.49-.107-.33-.245-.63-.39-.926-.032-.067-.06-.135-.082-.2l-.01-.018-.05-.125-.047-.08-.1-.165c-.02-.03-.04-.05-.054-.08-.042-.067-.095-.13-.137-.198-.102-.157-.208-.31-.324-.46-.014-.024-.033-.054-.05-.077-.81-1.052-1.84-1.902-2.988-2.573-.467-.27-.956-.513-1.446-.735-.007 0-.012-.006-.018-.01h-.008c-.39-.175-.782-.333-1.172-.473l-.257-.097c-.118-.04-.234-.077-.353-.115l-.023-.01c-.017-.004-.026-.01-.04-.014-2-.647-3.898-.94-5.05-1.066l-.072-.01-.055-.006h-.02l.004-.074c.054-.313.145-.624.256-.926.003-.016.013-.032.022-.05.238-.643.6-1.244 1.136-1.762.162-.16.338-.305.52-.44.518-.392 1.11-.69 1.742-.9.137-.048.272-.1.408-.134.892-.238 1.864-.304 2.85-.208.573.058 1.157.172 1.73.337.357.104.715.22 1.064.37l.026.008.006.002.02.007h.003l.006.005.024.008-.025-.02-.003-.002-.004-.004-.014-.012-.014-.012.018.002h.003l.006.004h.006l.006.002h.01l.02.004h.018c.166.02.573.07 1.14.172.82.15 1.995.398 3.364.828l.06.013.16.06c.888.286 1.84.66 2.822 1.106l.178.075c.18.075.353.15.535.24.16.076.317.166.47.247.02.01.033.02.052.028 1.424.75 2.85 1.687 4.17 2.878l.018.017c.166.154.327.318.495.48l.064.062c.03.03.062.057.09.088v.006h.003v-.006c.033-.03.063-.057.093-.088.018-.02.04-.04.06-.063.168-.162.33-.326.494-.48l.02-.017c1.323-1.19 2.745-2.13 4.173-2.878.013-.01.033-.017.045-.028.158-.08.31-.17.474-.247.18-.09.358-.165.536-.24.057-.023.116-.05.175-.074.983-.447 1.934-.82 2.823-1.105l.162-.06.06-.012c1.367-.43 2.54-.68 3.36-.828.57-.103.975-.153 1.14-.172h.018l.02-.004h.015l.007-.002h.004l.006-.004.022-.002-.01.012-.018.01-.004.005v.002h-.003l-.024.02.024-.008.006-.005.027-.007.003-.002.03-.008c.345-.15.704-.266 1.058-.37.576-.165 1.158-.28 1.73-.337.988-.096 1.96-.03 2.852.208.14.035.273.086.407.133.633.21 1.222.508 1.742.9.18.135.358.28.52.44.534.518.897 1.12 1.138 1.76.006.02.016.036.02.052.11.302.202.613.255.926l.007.074h-.02l-.058.007-.073.008c-1.147.125-3.047.42-5.047 1.066-.015.004-.024.01-.038.015-.01 0-.02.004-.023.008-.12.038-.24.074-.357.115-.082.032-.17.065-.257.096-.39.14-.778.297-1.17.47 0 0-.002.002-.006.002h-.003c-.008.004-.014.01-.02.01-.49.222-.976.464-1.446.735-1.147.67-2.18 1.52-2.984 2.573-.02.023-.037.053-.06.078-.107.15-.213.302-.315.46-.046.067-.097.13-.14.197-.015.03-.035.05-.054.08l-.1.165-.045.08-.053.124-.01.02c-.02.063-.047.13-.08.198-.144.296-.285.597-.39.925-.237.755-.36 1.586-.362 2.492l-.016.248c.034.132.085.27.126.406.274.92.59 1.837.952 2.743.173.428.358.85.548 1.272.154.337.312.676.477 1.008.934 1.94 1.982 3.747 3 5.33l.11.02c2.885.438 5.5.97 7.832 1.534.747.18 1.468.36 2.155.545l.086.024c.262-.192.516-.39.77-.605 3.088-2.553 6.03-5.995 8.106-10.508.12-.264.22-.54.337-.806 0 0 5.49-11.73 1.12-18.923-.077-.103-.156-.197-.233-.297z" fill="#8F202F"/><path d="M190.517 155.893c-.03-1.17-.068-2.356-.13-3.552v-.015c-.09-1.767-.23-3.454-.406-5.083l-.002-.01c-1.363-4.307-3.896-8.2-7.286-11.4-1.815-1.717-3.88-3.223-6.15-4.488-4.383-2.452-9.518-3.988-15.08-4.247-.15-.005-.297 0-.446-.005-.644-.02-1.287-.032-1.918-.02-2.21.047-4.363.302-6.445.74-.89.183-1.77.4-2.633.65-4.765 1.382-9.36 3.756-13.2 6.853l-.06.042c-.963.783-1.88 1.608-2.738 2.478l-.013.014c-.243.24-.477.487-.707.74l-.143.147c-.19.214-.374.427-.56.64l-.01.008-.24.274c-.157.188-.307.377-.454.562-.106.135-.213.26-.308.385-.126.166-.252.335-.376.502-.116.156-.23.316-.345.473-.102.148-.196.29-.298.44-.125.184-.258.37-.38.56-.077.128-.158.258-.232.388-.134.21-.26.422-.386.635-.07.118-.132.24-.2.365-.12.22-.252.447-.37.675-.06.12-.112.242-.172.357-.113.238-.232.472-.343.712-.052.118-.097.242-.154.36-.054.13-.107.27-.168.402-.044.11-.092.214-.135.322-.052.128-.094.254-.14.383-.064.172-.128.344-.185.52v-.003l-.002.002-.002.004v-.014c-.063-.17-.12-.343-.185-.51-.047-.128-.088-.254-.14-.382-.043-.108-.088-.213-.136-.322-.058-.133-.112-.272-.166-.402-.053-.118-.102-.242-.155-.36-.108-.24-.228-.474-.34-.712-.065-.115-.117-.236-.175-.357-.12-.228-.25-.454-.37-.675-.067-.125-.13-.247-.202-.365-.123-.213-.25-.426-.385-.634-.075-.13-.156-.26-.232-.388-.122-.19-.254-.375-.38-.56-.096-.148-.195-.29-.298-.44-.108-.156-.23-.316-.345-.473-.122-.168-.247-.337-.372-.503-.1-.126-.206-.25-.31-.385-.147-.185-.298-.374-.454-.563l-.242-.275-.008-.01c-.185-.21-.366-.424-.56-.638l-.144-.147c-.228-.253-.46-.5-.705-.74l-.01-.015c-.862-.87-1.776-1.695-2.74-2.478l-.06-.042c-3.843-3.097-8.436-5.47-13.202-6.852-.865-.25-1.744-.468-2.632-.652-2.08-.436-4.233-.69-6.443-.737-.63-.013-1.277 0-1.92.02-.15.004-.293 0-.447.004-5.56.26-10.692 1.795-15.08 4.247-2.27 1.265-4.333 2.77-6.15 4.488-3.388 3.2-5.922 7.093-7.287 11.4l-.002.01c-.175 1.63-.314 3.316-.403 5.083v.016c-.064 1.197-.1 2.382-.128 3.553-.027 1.095-.04 2.175-.037 3.24l.002.267v.3c0 .13 0 .262.003.392v.156c.014 1.27.04 2.54.09 3.78l.003.073.045-.193c.023-.07.037-.147.062-.227.093-.354.225-.765.396-1.226l.03-.08c.235-.63.534-1.345.904-2.126.082-.176.172-.352.258-.532l.08-.163c.18-.353.37-.722.573-1.1.115-.204.228-.413.345-.62.63-1.123 1.358-2.31 2.194-3.52 1.47-2.14 3.245-4.363 5.332-6.415l.043-.038c1.503-1.47 3.173-2.848 4.983-4.048 1.392-.924 2.87-1.75 4.44-2.422 3.86-1.643 8.23-2.398 13.088-1.61 2 .328 3.852.884 5.57 1.61 2.687 1.14 5.04 2.71 7.096 4.53 1.323 1.173 2.522 2.452 3.608 3.783.23.29.468.573.687.866.477.62.927 1.253 1.357 1.89.17.253.333.505.497.76 1.204 1.864 2.21 3.745 3.052 5.532 1.69 3.592 2.71 6.8 3.222 8.663.293 1.067.426 1.7.426 1.7 1.434 3.736 2.35 8.477 2.5 13.906.013.513.028 1.02.028 1.54 0 .108-.006.21-.006.316 0 .077 0 .16-.003.24l-.003.045-.004.14.012-.14.003-.044v.045l.008.14v.176c.007.357.01.716.016 1.07-.02.467-.15 3.03-.64 6.55-.747 5.388-2.333 13.006-5.646 18.72-.08.14-.166.274-.25.413h.004s-.074.124-.198.317c-.354.565-.724 1.102-1.115 1.618-.124.17-.255.35-.39.53h-.006c-.423.562-.903 1.157-1.412 1.725h-.004c.09.052.172.096.26.146.55.322 1.093.633 1.635.935.11.06.223.133.335.192.26.143.517.274.775.41.276.145.554.298.826.437.09.044.175.083.263.128.47.232.938.454 1.402.653.04.02.08.04.12.056l.05.022c.12.05.235.094.356.143.185.08.377.152.562.226.19.07.383.135.57.202.075.024.15.05.22.08.03.01.062.014.086.024.283.09.558.174.836.25.074.017.148.04.224.058.252.065.502.123.752.17.1.022.203.045.304.062.198.035.39.06.586.084.15.02.3.045.447.06.086.004.168.004.257.012.214.016.43.033.647.033H127.675c.005 0 .016.007.025.007h.005c.01 0 .016-.006.025-.006h.02c.22 0 .437-.016.66-.032.082-.008.168-.008.25-.012.148-.015.3-.04.45-.06.193-.024.386-.05.585-.084.098-.017.2-.04.305-.062.25-.047.5-.105.75-.17.076-.018.152-.04.227-.06.274-.074.55-.157.833-.248.027-.01.054-.014.083-.025.077-.028.15-.055.223-.08.188-.066.38-.132.568-.2.188-.075.38-.148.563-.226.12-.048.237-.09.357-.142l.05-.022c.043-.016.08-.037.12-.055.464-.198.932-.42 1.405-.652.086-.045.17-.084.26-.13.274-.138.55-.29.825-.435.258-.137.515-.268.773-.41.113-.06.228-.132.342-.192.54-.3 1.084-.612 1.635-.934.086-.05.17-.094.255-.146-.512-.568-.99-1.163-1.413-1.724l-.005-.002c-.06-.08-.118-.157-.175-.236l-.215-.293c-.393-.516-.765-1.053-1.117-1.618-.125-.193-.2-.318-.2-.318h.004c-.083-.14-.17-.275-.25-.414-3.313-5.714-4.9-13.332-5.646-18.72-.49-3.52-.618-6.083-.64-6.55.007-.354.007-.713.016-1.07v-.176l.006-.14v-.044l.002.045.015.14v-.14l-.004-.044c-.004-.08-.004-.163-.004-.24-.002-.105-.01-.208-.01-.317 0-.52.017-1.027.032-1.54.146-5.428 1.063-10.17 2.498-13.905 0 0 .134-.633.424-1.7.514-1.863 1.532-5.07 3.226-8.663.84-1.787 1.85-3.668 3.048-5.533.166-.255.33-.507.498-.76.433-.637.88-1.27 1.355-1.89.22-.294.458-.578.693-.867 1.082-1.33 2.28-2.61 3.608-3.782 2.052-1.82 4.408-3.39 7.093-4.53 1.718-.726 3.568-1.282 5.568-1.61 4.862-.788 9.234-.033 13.094 1.61 1.565.673 3.044 1.498 4.436 2.422 1.81 1.2 3.48 2.578 4.983 4.048l.042.038c2.086 2.052 3.864 4.274 5.336 6.415.838 1.21 1.57 2.397 2.194 3.52.117.207.234.416.343.62.205.378.395.747.57 1.1l.082.163c.09.18.178.356.26.532.37.78.67 1.496.904 2.127l.032.08c.168.46.303.87.394 1.225.026.08.04.158.06.227l.04.153.01.04v-.073c.05-1.24.076-2.508.088-3.78v-.155c.004-.13.004-.26.004-.39l.002-.25v-.32c.003-1.064-.01-2.144-.033-3.24" fill="#8F202F"/><path d="M135.95 224.747l-.005.006.007-.006h-.002M133.817 225.563l-.087.027h.01l.077-.027M182.204 162.685l-.007-.007.007.01v-.003M180.34 160.525h.004l-.003-.003v.003M186.703 131.585l-.02-.02.023.02h-.003" fill="#B4B5B4"/><path d="M158.156 108.67c-.394-.015-.786-.03-1.177-.03h-.006c-6.723 0-12.99 2.403-18.31 6.046-.757.522-1.5 1.083-2.21 1.662l-.058.042-.242.21c-1.445 1.19-2.795 2.492-4.048 3.91-.29.33-.57.676-.85 1.016-.142.17-.284.337-.427.51-.25.317-.487.647-.733.975-.43.585-.846 1.186-1.252 1.798-.177.274-.344.56-.516.84-.188.295-.375.588-.55.888l-.075.125-.078-.124c-.176-.3-.363-.593-.552-.888-.17-.28-.337-.566-.513-.84-.407-.612-.82-1.213-1.256-1.797-.24-.327-.48-.657-.73-.975-.137-.172-.286-.338-.427-.51-.28-.34-.564-.685-.85-1.015-1.254-1.418-2.604-2.72-4.043-3.91l-.247-.21-.054-.042c-.715-.58-1.458-1.14-2.214-1.662-5.32-3.643-11.588-6.045-18.31-6.045h-.006c-.39 0-.783.015-1.176.03-5.444.334-28.01 3.81-31.816 38.47.18-1.122 2.177-12.26 11.085-19.978 3.68-3.192 8.54-5.808 14.956-6.875 7.618-1.278 13.748.105 18.675 2.872.722.4 1.405.844 2.073 1.305 4.66 3.2 8.103 7.638 10.59 12 1.476 2.587 2.628 5.14 3.49 7.394.358.928.67 1.808.936 2.616.047.11.092.214.136.322.05.128.092.254.14.383.064.167.12.34.185.51v.014l.003-.003v-.002l.002-.002v-.006c.065-.17.125-.343.186-.51.046-.128.088-.254.14-.382.043-.108.09-.213.135-.322.27-.808.582-1.688.935-2.617.868-2.254 2.017-4.808 3.49-7.394 2.494-4.363 5.932-8.8 10.593-12 .666-.462 1.35-.905 2.072-1.307 4.927-2.768 11.062-4.15 18.675-2.873 6.414 1.067 11.275 3.683 14.96 6.875 8.905 7.72 10.902 18.856 11.082 19.977-3.804-34.66-26.368-38.136-31.816-38.47" fill="#ED9D4A"/><path d="M122.814 136.466c-2.488-4.363-5.932-8.8-10.59-12-.67-.462-1.352-.905-2.073-1.307-4.926-2.768-11.056-4.15-18.674-2.873-6.416 1.067-11.276 3.683-14.957 6.875-8.91 7.72-10.906 18.856-11.086 19.977l-.008.093c1.365-4.308 3.9-8.202 7.288-11.4 1.816-1.718 3.88-3.224 6.15-4.49 4.387-2.45 9.52-3.987 15.08-4.246.153-.005.297 0 .446-.005.643-.02 1.29-.032 1.92-.02 2.21.047 4.364.302 6.443.74.888.183 1.767.4 2.632.65 4.766 1.382 9.36 3.756 13.203 6.853l.06.042c.963.783 1.877 1.608 2.74 2.478l.01.014c.244.24.476.487.704.74l.143.147c.195.214.376.427.56.64l.01.008.24.274c.157.188.308.377.455.562.104.135.21.26.31.385.126.166.25.335.373.502.116.156.237.316.345.473.103.148.202.29.3.44.124.184.256.37.378.56.076.128.157.258.232.388.134.21.262.422.385.635.072.118.135.24.203.365.12.22.248.447.37.675.057.12.11.242.173.357.112.238.232.472.34.712.052.118.1.242.154.36.054.13.108.27.165.402-.268-.808-.58-1.688-.936-2.617-.863-2.254-2.015-4.808-3.49-7.394M189.972 147.14c-.18-1.122-2.177-12.26-11.083-19.978-3.685-3.192-8.546-5.808-14.96-6.875-7.613-1.278-13.748.105-18.675 2.872-.72.4-1.406.844-2.072 1.305-4.66 3.2-8.1 7.638-10.593 12-1.473 2.587-2.622 5.14-3.49 7.394-.353.928-.665 1.808-.935 2.616.06-.133.114-.272.168-.402.057-.118.102-.242.154-.36.11-.24.23-.474.343-.712.06-.115.11-.236.173-.357.117-.228.248-.454.368-.675.07-.125.133-.247.202-.365.125-.213.252-.426.386-.634.074-.13.155-.26.232-.388.122-.19.255-.375.38-.56l.297-.44.345-.473c.124-.168.25-.337.376-.503.095-.126.202-.25.308-.385.147-.185.297-.374.454-.563l.24-.275.01-.01c.186-.21.37-.424.56-.638l.143-.147c.23-.253.464-.5.706-.74l.012-.015c.86-.87 1.775-1.695 2.738-2.478l.06-.042c3.84-3.097 8.435-5.47 13.2-6.852.864-.25 1.744-.468 2.633-.652 2.082-.436 4.234-.69 6.445-.737.63-.013 1.274 0 1.918.02.15.004.297 0 .445.004 5.564.26 10.7 1.795 15.083 4.247 2.27 1.265 4.334 2.77 6.15 4.488 3.39 3.2 5.922 7.093 7.285 11.4l-.006-.093" fill="#F4BE5E"/><path d="M208.188 252.398c-.67.812-1.33 1.578-1.993 2.32-1.117 1.248-2.243 2.405-3.354 3.472 2.5-6.89 1.655-15.116 1.655-15.116-1.656 4.063-3.537 7.57-5.485 10.575.125-1.974.166-3.87.157-5.625-.02-5.63-1.11-9.557-1.11-9.557-.484 2.2-1.05 4.265-1.676 6.204-1.614-4.553-3.673-8.496-5.874-11.85-.6-.91-1.212-1.78-1.826-2.61-3.067-4.136-6.23-7.193-8.78-9.32l-.112.182-.015.022-.334.535-.014.027c-.427.674-.82 1.278-1.183 1.81-.005.004-.005.008-.005.008-.013.02-.136.205-.333.49l.008-.008c-.185.268-.37.53-.544.778-.246.35-.464.647-.64.888l-.006.006c-.18.246-.333.446-.465.618l-.077.096c-.052.07-.116.133-.172.203 2.37 3.054 4.292 6.34 5.66 9.81.418 1.078.785 2.168 1.105 3.28.754 2.653 1.202 5.396 1.314 8.2l.005.217c.012.364.022.728.022 1.096 0 5.965-1.546 11.646-4.333 16.836-2.334 4.34-5.527 8.343-9.442 11.86-6.52 5.875-14.99 10.428-24.655 13.06-.652-.773-1.25-1.532-1.796-2.3-3.347-4.692-4.785-9.914-5.26-14.36v-.417l-.03.03c-.554.507-1.09 1.038-1.59 1.597-1.09 1.223-2.044 2.567-2.83 4.068 0 0-.205-4.317 1.543-9.366-3.134 2.09-5.742 4.77-7.492 8.175l-.01.164v-.202c-.004.015-.01.03-.02.037-.003.074-.007.092-.007.117l-.014-.03-.016.03-.01-.03-.02.03v-.117c-.01-.008-.016-.022-.025-.037v.2l-.01-.163c-1.753-3.404-4.358-6.084-7.49-8.176 1.75 5.048 1.544 9.365 1.544 9.365-.79-1.5-1.743-2.845-2.83-4.068-.498-.56-1.035-1.09-1.588-1.598l-.032-.03v.417c-.475 4.445-1.914 9.667-5.263 14.36-.543.767-1.144 1.526-1.792 2.3-9.665-2.633-18.14-7.186-24.66-13.06-3.91-3.518-7.106-7.52-9.437-11.86-2.785-5.19-4.336-10.872-4.336-16.837 0-.368.01-.732.023-1.096l.01-.217c.108-2.804.555-5.547 1.31-8.2.323-1.112.688-2.202 1.11-3.28 1.277-3.25 3.053-6.334 5.22-9.222-.08-.097-.162-.194-.24-.29-.148-.156-.29-.325-.427-.5l-.073-.097c-.132-.172-.284-.372-.464-.62l-.007-.005c-.176-.24-.39-.537-.636-.888 0 .004.003.01.007.012l-.01-.012h.003c-.178-.25-.36-.51-.544-.778l.007.01c-.197-.287-.322-.47-.333-.492 0 0-.002-.004-.006-.007-.357-.533-.756-1.137-1.183-1.81l-.014-.027c-.056-.087-.093-.148-.142-.226-2.435 2.097-5.345 5-8.172 8.81-.613.828-1.227 1.697-1.822 2.61-2.203 3.352-4.267 7.295-5.877 11.848-.63-1.94-1.194-4.003-1.678-6.204 0 0-1.087 3.926-1.108 9.557-.01 1.755.033 3.65.158 5.624-1.947-3.007-3.83-6.513-5.488-10.576 0 0-.84 8.226 1.657 15.116-1.115-1.067-2.237-2.224-3.355-3.47-.666-.744-1.33-1.51-1.992-2.322l-.63-.78s1.625 8.825 8.015 17.697c.487.75.997 1.502 1.524 2.238 1.467 2.05 3.076 4 4.81 5.68 13.757 16.04 30.81 28.735 50.05 37.283 2.114.938 4.248 1.82 6.41 2.65l.055.022c3.19 1.227 6.435 2.33 9.727 3.317v.034c.024-.007.036-.01.054-.018.022.01.044.01.056.017v-.035c3.297-.987 6.54-2.09 9.73-3.317l.056-.02c2.16-.83 4.294-1.714 6.408-2.652 19.238-8.548 36.294-21.242 50.052-37.283 1.73-1.68 3.347-3.63 4.813-5.68.52-.736 1.03-1.488 1.518-2.238 6.394-8.872 8.014-17.698 8.014-17.698-.208.263-.42.524-.624.78" fill="#CDCDC8"/><path d="M92.28 250.82c.248 1.377.662 2.762 1.317 4.1.033.07.056.14.09.206.788-.32 1.747-.683 2.852-1.07 1.546-.544 3.39-1.13 5.534-1.705-.26-.192-.513-.39-.77-.605-3.085-2.553-6.03-5.995-8.1-10.508-.123-.264-.225-.54-.34-.806l-.027.085c-.397 1.48-1.105 4.753-.818 8.382.05.632.143 1.277.26 1.923M161.723 255.126c.036-.066.058-.137.09-.205.656-1.338 1.073-2.73 1.32-4.107.116-.646.21-1.286.258-1.916.29-3.63-.422-6.9-.817-8.382l-.02-.084c-.117.266-.22.543-.34.807-2.077 4.513-5.022 7.955-8.108 10.508-.254.214-.51.413-.763.606 2.14.575 3.985 1.162 5.53 1.705 1.1.388 2.066.75 2.85 1.07" fill="#CDCDC8"/><path d="M213.67 312.26c-.53.35-1.075.523-1.64.523-.84 0-1.567-.3-2.18-.9-.612-.6-.918-1.388-.918-2.363 0-.91.263-1.686.792-2.326.527-.64 1.25-.96 2.17-.96.586 0 1.094.12 1.523.36.7.392 1.136 1.078 1.306 2.055l-1.41-.023c-.086-.453-.265-.758-.54-.914-.23-.146-.483-.218-.758-.218-.415 0-.754.17-1.02.512-.265.342-.398.858-.398 1.546 0 .685.146 1.18.44 1.49.292.31.643.464 1.053.464.375 0 .66-.1.852-.307.192-.205.316-.463.37-.773h1.374c-.15.873-.49 1.484-1.017 1.833zm-5.023-5.96c-.88.9-1.32 1.97-1.32 3.204 0 1.28.447 2.37 1.342 3.263.89.897 1.965 1.344 3.225 1.344 1.255 0 2.33-.45 3.218-1.35.89-.905 1.336-1.99 1.336-3.256 0-1.23-.443-2.298-1.33-3.203-.894-.92-1.97-1.38-3.225-1.38-1.27 0-2.353.46-3.248 1.38zm7.12 7.173c-1.076 1.04-2.367 1.56-3.872 1.56-1.555 0-2.866-.532-3.93-1.598-1.066-1.065-1.6-2.375-1.6-3.93 0-1.615.576-2.96 1.726-4.03 1.082-1 2.35-1.5 3.805-1.5 1.525 0 2.828.54 3.908 1.62s1.62 2.383 1.62 3.91c0 1.57-.55 2.892-1.657 3.968z" fill="#3C3C3A"/></svg>