<svg width="512" height="108" viewBox="0 0 512 108" xmlns="http://www.w3.org/2000/svg" preserveAspectRatio="xMidYMid"><g fill="#090"><path d="M96.174 107.15c-2.89 0-5.734-1.124-7.86-3.254L22.545 38.12v57.917c0 6.14-4.976 11.114-11.115 11.114-6.136 0-11.115-4.974-11.115-11.113v-84.75c0-4.5 2.712-8.55 6.864-10.27 4.147-1.724 8.93-.772 12.11 2.41l65.77 65.777V11.287c0-6.14 4.975-11.114 11.114-11.114 6.14 0 11.114 4.975 11.114 11.114v84.75c0 4.494-2.712 8.55-6.864 10.27-1.373.568-2.814.844-4.25.844M147.64.28l-3.054 5.7-23.62 42.925-3.053 5.42 3.054 5.414 23.62 41.538 3.19 5.695h61.825l3.054-6.25L230.3 65.157l7.918-16.115h-17.92l-45.15.138c-5.87-.08-11.273 5.242-11.273 11.115 0 5.872 5.402 11.198 11.274 11.114l27.228-.14-6.668 13.475H160.7l-17.368-30.563 17.507-31.674h37.24l8.68 17.817h22.37l-14.1-33.79L211.97.28h-64.33M260.232.142c-5.824.07-11.05 5.433-10.976 11.252v28.963h22.228V11.394C271.554 5.48 266.14.067 260.232.142M295.86 107.364c-1.433 0-2.878-.276-4.25-.845-4.153-1.72-6.86-5.775-6.86-10.27V11.5c0-6.14 4.974-11.113 11.113-11.113 6.14 0 11.114 4.974 11.114 11.114v57.917L372.75 3.64c3.168-3.173 7.943-4.133 12.108-2.41 4.152 1.722 6.86 5.776 6.86 10.27v84.75c0 6.14-4.975 11.114-11.114 11.114-6.14 0-11.114-4.975-11.114-11.114V38.334l-65.772 65.776c-2.12 2.125-4.965 3.254-7.86 3.254M474.044 53.79l34.573-34.447c4.348-4.33 4.36-11.368.027-15.72-4.33-4.348-11.363-4.357-15.715-.027l-34.627 34.507-34.627-34.507c-4.352-4.334-11.385-4.32-15.714.027-4.335 4.352-4.322 11.39.022 15.72l34.573 34.448-34.47 34.352c-4.353 4.334-4.362 11.367-.028 15.714 2.17 2.183 5.018 3.272 7.872 3.272 2.837 0 5.673-1.08 7.842-3.245l34.53-34.404 34.523 34.403c2.174 2.165 5.005 3.245 7.846 3.245 2.854 0 5.7-1.09 7.873-3.272 4.33-4.347 4.32-11.38-.027-15.714l-34.476-34.35M260.232 107.048c-5.824-.07-11.05-5.432-10.976-11.25V49.273h22.228v46.523c.07 5.908-5.344 11.322-11.252 11.25"/></g></svg>