<svg width="256" height="256" viewBox="0 0 256 256" xmlns="http://www.w3.org/2000/svg" preserveAspectRatio="xMidYMid"><path d="M118.923.37c56.56-3.92 94.064 23.758 115.507 57.482 10.752 16.908 21.302 42.59 21.35 68.976.052 28.67-9.235 53.496-21.35 71.713-12.45 18.724-28.555 34.19-48.72 44.343-33.71 16.974-80.82 17.438-111.677 1.095-34.365-18.2-60.786-44.18-70.618-89.23C-.52 136.717-.972 113.42 4.51 93.434c1.286-4.69 3.624-9.623 5.474-14.234 8.893-22.153 24.03-41.418 42.7-54.742 7.502-5.354 16.604-10.68 24.634-14.233C87.31 5.802 104.132 1.397 118.923.37z" fill="#FFF"/><path d="M226.212 130.016c0 53.456-43.335 96.788-96.79 96.788-53.456 0-96.79-43.332-96.79-96.788 0-53.455 43.334-96.79 96.79-96.79 53.455 0 96.79 43.335 96.79 96.79z"/><path d="M118.923.37c56.56-3.92 94.064 23.758 115.507 57.482 10.752 16.908 21.302 42.59 21.35 68.976.052 28.67-9.235 53.496-21.35 71.713-12.45 18.724-28.555 34.19-48.72 44.343-33.71 16.974-80.82 17.438-111.677 1.095-34.365-18.2-60.786-44.18-70.618-89.23C-.52 136.717-.972 113.42 4.51 93.434c1.286-4.69 3.624-9.623 5.474-14.234 8.893-22.153 24.03-41.418 42.7-54.742 7.502-5.354 16.604-10.68 24.634-14.233C87.31 5.802 104.132 1.397 118.923.37zM99.763 9.68c-21.01 5.447-36.413 15.205-49.817 25.73C30.62 50.582 18.298 71.76 11.08 97.267c-8.032 28.375-2.874 62.714 8.21 84.303 11.494 22.39 26.927 39.767 48.72 52.007 21.205 11.907 51.027 19.553 82.116 13.686 27.623-5.214 48.602-17.247 65.692-35.036 22.866-23.802 41.244-67.64 29.014-113.866-3.27-12.353-7.543-25.23-14.233-36.13-3.616-5.888-8.92-11.68-14.234-17.517-20.056-22.025-52.47-41.004-94.16-38.32-7.932.51-14.904 1.33-22.444 3.285z"/><g fill="#FFF"><path d="M135.576 246.4l111.846-111.844-.603-.604-111.847 111.843.603.604zM125.8 237.54L238.13 125.21l-.603-.603-112.335 112.33.604.604zM116.02 228.685l112.823-112.82-.604-.604-112.822 112.82.603.605zM106.243 219.827l113.31-113.307-.603-.604-113.31 113.308.603.603zM96.466 210.97L210.264 97.174l-.604-.604L95.862 210.367l.604.603zM86.688 202.115L200.973 87.83l-.603-.605L86.084 201.512l.604.603zM76.91 193.256L191.684 78.483l-.604-.603L76.306 192.652l.604.604zM67.132 184.4L182.394 69.137l-.604-.604-115.262 115.26.604.605zM57.354 175.54L173.102 59.793l-.604-.603L56.75 174.937l.604.603zM47.576 166.684L163.814 50.447l-.603-.603L46.974 166.08l.603.604zM37.798 157.827L154.525 41.102l-.604-.604L37.196 157.224l.603.603zM28.02 148.97L145.236 31.756l-.603-.603L27.417 148.366l.604.604zM18.243 140.112l117.702-117.7-.603-.605L17.64 139.51l.603.602zM8.465 131.255l118.19-118.19-.603-.603-118.19 118.19.603.603z"/><g><path d="M7.823 132.386l114.08 114.085.604-.602L8.427 131.782l-.604.604zM17.075 123.002L131.377 237.31l.603-.603L17.678 122.4l-.603.602zM26.326 113.618l114.524 114.53.604-.604L26.93 113.014l-.604.604zM35.578 104.235l114.746 114.75.603-.602L36.18 103.63l-.602.605zM44.83 94.85l114.967 114.974.603-.603L45.432 94.25l-.603.603zM54.08 85.467l115.19 115.195.604-.603L54.684 84.863l-.604.603zM63.33 76.084L178.745 191.5l.604-.603L63.935 75.48l-.604.604zM72.582 66.7l115.636 115.638.603-.603L73.187 66.097l-.604.603zM81.834 57.316l115.857 115.86.605-.603L82.437 56.713l-.603.603zM91.085 47.933l116.08 116.08.603-.603L91.688 47.33l-.603.603zM100.337 38.55l116.3 116.303.604-.604-116.3-116.304-.603.603zM109.588 29.165L226.11 145.69l.605-.603L110.19 28.562l-.602.603zM118.84 19.782L235.583 136.53l.604-.604L119.442 19.18l-.603.602zM128.09 10.398l116.968 116.97.603-.605L128.695 9.795l-.603.603z"/></g></g><path d="M209.796 45.26c-10.066-10.066-22.442-19.137-37.225-24.634-15.322-5.698-32.656-10.5-53.1-8.76-32.566 2.777-55.43 17.388-72.808 34.49C34.49 58.332 25.334 73.01 19.29 90.15c-8.874 25.165-8.335 54.868 1.642 80.472 8.51 21.84 22.44 39.455 42.152 53.1 18.53 12.83 45.127 22.78 74.998 20.256 36.383-3.073 63.003-21.74 80.472-43.247 4.47-5.5 8.914-11.72 11.496-19.16 2.53-5.358 3.768-9 4.927-10.947 4.852-10.873 7.423-22.344 8.21-35.036 2.427-39.036-12.592-69.528-33.39-90.326zm-10.722 118.933c-.07.15-.132.287-.205.44-1.806 5.165-4.915 9.483-8.04 13.305-12.217 14.935-30.832 27.896-56.275 30.03-20.89 1.75-39.49-5.157-52.447-14.065-11.26-7.74-19.82-17.323-25.823-28.84-.366-.692-3.852-8.723-3.862-9.076-4.755-14.75-5.168-38.466-.287-52.698 3.257-9.5 8.686-19.778 15.875-27.92 9.928-11.243 19.862-18.448 35.585-23.54 7.178-2.325 13.605-4.692 22.444-4.927 21.554-.574 43.504 9.104 55.29 19.708 10.83 9.744 23.173 28.725 26.277 46.532 3.193 18.328-.215 36.223-8.533 51.05z"/><path d="M161.608 181.774c-5.308 0-9.966-3.36-11.592-8.364l-5.91-18.013H114.53l-5.493 17.848c-1.658 5.1-6.35 8.515-11.686 8.515-1.28 0-2.552-.203-3.78-.6-6.378-1.916-9.998-8.78-8.044-15.293l24.962-79.07c1.62-5.03 6.393-8.54 11.606-8.54h13.273c5.242 0 10.014 3.45 11.603 8.387l26.252 79.042c2.1 6.462-1.376 13.4-7.744 15.472-1.26.41-2.56.616-3.87.616z" fill="#FFF"/><path d="M161.608 180.067c-4.755 0-8.92-3.005-10.374-7.48l-5.913-18.016-.288-.88h-31.447l-.278.904-5.493 17.848c-1.48 4.552-5.68 7.61-10.463 7.61-1.145 0-2.284-.18-3.386-.537-5.726-1.72-8.963-7.87-7.212-13.707l24.957-79.053c1.447-4.495 5.728-7.644 10.384-7.644h13.273c4.69 0 8.966 3.093 10.385 7.5l26.256 79.053c1.88 5.784-1.233 11.998-6.926 13.852-1.13.367-2.3.552-3.474.552zm0 2.56c1.444 0 2.88-.228 4.265-.678 7.046-2.294 10.883-9.957 8.567-17.086l-26.255-79.05c-1.757-5.457-7.022-9.263-12.818-9.263h-13.273c-5.772 0-11.034 3.87-12.824 9.427l-24.965 79.078c-2.16 7.2 1.833 14.783 8.896 16.903 1.33.432 2.736.655 4.15.655 5.894 0 11.076-3.774 12.905-9.4l5.5-17.866-1.225.903h29.575l-1.217-.88 5.912 18.012c1.797 5.53 6.947 9.245 12.808 9.245z"/><g fill="#FFF"><path d="M63.574 53.058l-.03-.043c-3.114-4.266-2.2-10.234 2.384-13.58 4.584-3.345 10.473-2.406 13.586 1.86l.032.042c3.113 4.266 2.2 10.235-2.385 13.58-4.584 3.346-10.473 2.407-13.586-1.86zm11.8-8.612l-.03-.042c-1.565-2.144-4.478-2.88-6.748-1.224-2.25 1.642-2.425 4.567-.86 6.71l.03.043c1.565 2.144 4.477 2.88 6.727 1.24 2.27-1.658 2.446-4.583.88-6.727zM93.587 25.095l4.678-1.5L111.38 38.84l-5.204 1.67-2.28-2.718-6.754 2.168-.248 3.53-5.103 1.636 1.797-20.03zm7.697 9.37l-3.55-4.354-.378 5.614 3.928-1.26zM119.806 29.682l.04-10.327 5.177.02-.04 10.222c-.01 2.654 1.324 3.92 3.374 3.93 2.05.007 3.394-1.196 3.404-3.77l.042-10.353 5.177.02-.042 10.195c-.023 5.938-3.423 8.526-8.652 8.505-5.23-.022-8.503-2.69-8.48-8.443zM155.673 27.878l-5.277-1.61 1.304-4.273 15.43 4.71-1.304 4.27-5.277-1.61-4.066 13.32-4.875-1.488 4.063-13.32zM180.912 32.665l4.243 2.824-3.813 5.73 5.447 3.625 3.813-5.73 4.243 2.823-10.19 15.313-4.244-2.824 3.873-5.818-5.448-3.625-3.872 5.818-4.243-2.823 10.19-15.312z"/></g><g fill="#FFF"><path d="M195.902 200.057l.033.04c3.274 4.145 2.59 10.145-1.865 13.663-4.453 3.52-10.375 2.805-13.65-1.34l-.03-.04c-3.276-4.145-2.59-10.144 1.863-13.663 4.454-3.517 10.375-2.804 13.65 1.34zm-11.464 9.057l.033.04c1.646 2.084 4.584 2.71 6.79.966 2.186-1.727 2.25-4.656.604-6.74l-.033-.04c-1.643-2.083-4.582-2.708-6.768-.98-2.206 1.742-2.27 4.67-.624 6.754zM167.128 229.198l-4.608 1.705-13.773-14.654 5.125-1.9 2.397 2.617 6.653-2.463.09-3.536 5.028-1.86-.912 20.09zm-8.102-9.02l3.738 4.19.13-5.623-3.868 1.432zM140.752 225.7l.455 10.317-5.17.228-.452-10.212c-.117-2.65-1.51-3.85-3.56-3.76-2.046.09-3.332 1.356-3.218 3.93l.456 10.34-5.17.23-.45-10.186c-.263-5.932 3.01-8.68 8.233-8.91 5.224-.232 8.622 2.274 8.876 8.023zM104.82 229.073l5.327 1.44-1.164 4.312-15.578-4.205 1.164-4.313 5.327 1.438 3.63-13.447 4.922 1.33-3.63 13.445zM79.637 225.326l-4.373-2.62 3.54-5.906-5.612-3.364-3.54 5.906-4.372-2.62 9.457-15.78 4.372 2.622-3.594 5.996 5.612 3.364 3.593-5.996 4.374 2.62-9.457 15.778z"/></g></svg>