<svg width="256" height="192" viewBox="0 0 256 192" xmlns="http://www.w3.org/2000/svg" preserveAspectRatio="xMidYMid"><path d="M220.28 110.514c-8.905.046-16.646 2.19-23.127 5.362-2.38-4.71-4.757-8.906-5.176-11.984-.467-3.59-1.026-5.782-.467-10.072.56-4.29 3.078-10.4 3.03-10.865-.045-.466-.558-2.658-5.688-2.704-5.13-.046-9.56.98-10.072 2.332-.513 1.352-1.492 4.43-2.145 7.6-.886 4.664-10.258 21.31-15.62 30.03-1.726-3.403-3.218-6.388-3.545-8.766-.466-3.59-1.026-5.782-.466-10.072.56-4.29 3.078-10.398 3.03-10.865-.046-.467-.56-2.66-5.688-2.705-5.13-.047-9.56.98-10.072 2.33-.513 1.354-1.073 4.524-2.145 7.602-1.074 3.078-13.524 30.87-16.788 38.05-1.68 3.684-3.124 6.622-4.15 8.627 0 0-.047.14-.187.373-.886 1.725-1.398 2.658-1.398 2.658v.046c-.7 1.26-1.446 2.426-1.82 2.426-.28 0-.792-3.357.094-7.927 1.866-9.653 6.296-24.668 6.25-25.18 0-.28.84-2.892-2.89-4.245-3.64-1.352-4.944.886-5.27.886-.327 0-.56.794-.56.794s4.057-16.88-7.74-16.88c-7.368 0-17.534 8.067-22.57 15.34-3.17 1.727-9.932 5.41-17.16 9.374-2.75 1.54-5.595 3.078-8.253 4.523-.187-.185-.373-.42-.56-.605-14.27-15.248-40.66-26.02-39.542-46.49.42-7.46 2.984-27.046 50.687-50.827 39.262-19.352 70.505-13.99 75.914-2.1 7.74 16.975-16.74 48.497-57.31 53.066-15.48 1.726-23.594-4.243-25.645-6.48-2.144-2.333-2.47-2.473-3.264-2.006-1.305.7-.466 2.798 0 4.01 1.213 3.17 6.202 8.766 14.642 11.518 7.46 2.424 25.6 3.777 47.563-4.71 24.575-9.513 43.787-35.952 38.145-58.1-5.643-22.477-42.947-29.89-78.246-17.348-20.984 7.46-43.74 19.212-60.107 34.507C2.518 59.22-.56 75.028.7 81.65c4.523 23.5 36.93 38.796 49.894 50.127-.653.373-1.26.7-1.772.98-6.482 3.217-31.196 16.133-37.35 29.796-6.995 15.48 1.118 26.58 6.48 28.07 16.648 4.618 33.76-3.682 42.947-17.392 9.185-13.708 8.066-31.52 3.823-39.68-.047-.094-.093-.188-.187-.28 1.68-.98 3.404-2.006 5.083-2.985 3.31-1.96 6.574-3.777 9.372-5.27-1.586 4.337-2.752 9.513-3.31 16.974-.7 8.766 2.89 20.143 7.6 24.62 2.098 1.958 4.57 2.005 6.155 2.005 5.502 0 7.974-4.57 10.725-9.98 3.357-6.62 6.388-14.314 6.388-14.314s-3.777 20.798 6.482 20.798c3.73 0 7.507-4.85 9.186-7.32v.045s.093-.14.28-.466c.373-.606.606-.98.606-.98v-.092c1.492-2.612 4.85-8.534 9.84-18.373 6.434-12.683 12.636-28.537 12.636-28.537s.56 3.87 2.47 10.305c1.12 3.777 3.452 7.927 5.317 11.937-1.492 2.1-2.425 3.264-2.425 3.264l.047.048c-1.214 1.585-2.52 3.31-3.965 4.99-5.083 6.06-11.144 13.01-11.984 15.014-.978 2.378-.745 4.104 1.12 5.503 1.353 1.026 3.777 1.165 6.25 1.026 4.57-.326 7.786-1.445 9.37-2.144 2.473-.886 5.364-2.24 8.068-4.244 4.99-3.684 8.02-8.953 7.74-15.9-.14-3.824-1.398-7.648-2.937-11.24.468-.65.887-1.304 1.354-1.957 7.88-11.518 13.99-24.155 13.99-24.155s.558 3.87 2.47 10.306c.933 3.264 2.845 6.808 4.523 10.258-7.414 6.016-11.984 13.01-13.616 17.58-2.936 8.487-.652 12.31 3.685 13.196 1.958.42 4.756-.513 6.808-1.4 2.61-.838 5.69-2.283 8.627-4.428 4.99-3.684 9.792-8.814 9.512-15.76-.14-3.172-.98-6.297-2.145-9.328 6.295-2.61 14.41-4.056 24.76-2.844 22.197 2.61 26.58 16.46 25.74 22.29-.84 5.828-5.502 9-7.04 9.978-1.54.98-2.052 1.306-1.912 2.005.186 1.026.932.98 2.238.793 1.82-.326 11.658-4.71 12.077-15.435.7-13.708-12.357-28.676-35.44-28.536zM49.056 168.242c-7.368 8.02-17.626 11.05-22.056 8.487-4.757-2.753-2.892-14.597 6.154-23.083 5.502-5.176 12.59-9.98 17.3-12.917 1.072-.653 2.658-1.585 4.57-2.75.326-.188.513-.28.513-.28l1.12-.7c3.31 12.123.14 22.802-7.602 31.242zm53.625-36.465c-2.565 6.25-7.927 22.243-11.19 21.357-2.8-.746-4.525-12.87-.56-24.854 2.004-6.016 6.247-13.197 8.72-15.994 4.01-4.477 8.44-5.97 9.51-4.15 1.354 2.378-4.895 19.724-6.48 23.64zm44.252 21.17c-1.073.56-2.098.933-2.565.653-.326-.187.467-.933.467-.933s5.55-5.968 7.74-8.673c1.26-1.585 2.75-3.45 4.337-5.55v.607c0 7.136-6.9 11.94-9.978 13.897zm34.133-7.787c-.793-.56-.653-2.425 2.005-8.254 1.026-2.285 3.45-6.108 7.6-9.792.467 1.492.794 2.938.747 4.29-.047 9-6.48 12.357-10.352 13.756z" fill="#CD6799"/></svg>