<svg width="512" height="108" viewBox="0 0 512 108" xmlns="http://www.w3.org/2000/svg" preserveAspectRatio="xMidYMid"><path d="M46.797 88.15c-8.4.217-10.026-5.777-10.097-10.13V47.83h19.578V30.332h-19.5V4.326H21.404c-.253 0-.694.218-.756.768-.9 8.01-4.732 22.067-20.648 27.683V47.83h12.116v31.78c0 11.49 7.166 27.815 30.024 27.43 7.713-.127 16.28-3.29 18.177-6.015L55.27 86.378c-1.954.907-5.684 1.7-8.473 1.772zm93.73-1.862V30.334h-34.384v16.43h6.625c2.18 0 3.096.93 3.125 2.96l-.034 25.523c0 2.502-1.806 11.897-14.332 12.135-8.536.163-10.33-4.872-10.33-11.473V30.333h-25.32V77.21c0 11.863 5.416 30.524 30.693 29.84 8.3-.227 17.806-4.4 22.747-10.52l.206 9.425h28.213V89.88s-2.282-.176-3.99-.29c-1.995-.13-3.22-1.202-3.22-3.302zm146.733-.157l.002-22.938c0-8.178-.098-16.626-5.51-23.52-4.955-6.314-13.18-10.944-25.665-10.342-8.29.4-17.136 4.253-22.018 10.853l-.77.97-.47-.563c-5.018-7.248-13.033-11.862-25.517-11.26-8.294.4-17.14 4.253-22.02 10.853l-.735-9.853h-30.594v16.434l7.04.104c2.178 0 3.098.927 3.127 2.958l.003 32.16v4.145c0 2.1-1.234 3.25-3.227 3.378-1.708.114-5.168.36-5.168.36v16.074l41.374.013V89.87s-3.26-.232-5.168-.362c-1.995-.135-3.226-1.278-3.226-3.377 0 0 .033-20.527.033-24.635 0-4.107 3.4-12.532 14.184-12.532 8.7 0 10.483 5.303 10.483 11.473 0 6.17.01 25.697.01 25.697 0 2.1-1.233 3.246-3.226 3.377-1.707.115-5.167.362-5.167.362v16.07h41.33V89.87s-3.26-.232-5.17-.362c-1.993-.135-3.207-1.278-3.207-3.377h-.062s.034-20.527.034-24.635c0-4.107 3.03-12.532 13.817-12.532 8.7 0 10.876 5.303 10.876 11.473v21.55l-.002 4.147c0 2.1-1.234 3.246-3.228 3.377-1.71.115-5.167.362-5.167.362v16.07h41.38V89.87s-3.258-.232-5.165-.362c-1.997-.135-3.208-1.278-3.208-3.377zm54.576 2.208c-3.44.254-9.808-.325-13.904-7.513v-10.53l.003-.005h-.003V58.114c0-5.265 4.862-9.884 12.386-10.164 7.62-.28 14.364 4.92 14.364 19.61 0 19.816-8.69 20.47-12.846 20.778zm3.747-59.088c-6.256.274-12.857 2.667-17.65 6.835V.987h-8.86s-14.48 5.146-25.694 6.52l-.367 16.072 7.09.008c2.176 0 3.112.927 3.14 2.96v79.34l20.256-.023 2.892-6.51c.62.348 9.913 9.083 24.753 7.335 18.685-2.204 28.497-16.997 28.497-39.44 0-11.775-3.613-39.332-34.06-38zm155.68 14.59c-.825-17.93-25.103-18.754-37.795-6.643l-2.315-6.944h-29.347v16.432l6.153-.01c2.18 0 2.987.926 3.016 2.958v36.434c0 2.1-1.238 3.248-3.23 3.376-1.71.113-5.15.36-5.15.36v16.073h41.32V89.803s-3.417-.247-5.123-.36c-1.997-.128-3.233-1.277-3.233-3.376l-.01-24.704c0-4.63 1.06-12.358 9.233-14.334 1.01 7.726 8.474 10.034 12.116 10.034 9.195 0 14.363-6.886 14.363-13.224zm-85.21 42.227l.022-85.08h-8.95s-14.868 5.378-25.578 6.52V23.58h6.76c2.177 0 3.087.926 3.117 2.958v59.53c0 2.098-1.23 3.247-3.226 3.375-1.708.113-5.535.362-5.535.362v16.07h42.154v-16.07l-5.537-.362c-1.997-.128-3.227-1.277-3.227-3.376zm81.13-8.254c-8.185 0-14.815 6.497-14.815 14.508 0 8.006 6.63 14.505 14.815 14.505 8.187 0 14.817-6.5 14.817-14.504 0-8.01-6.63-14.507-14.817-14.507z" fill="#303D4D"/></svg>