<svg width="256" height="313" viewBox="0 0 256 313" xmlns="http://www.w3.org/2000/svg" preserveAspectRatio="xMidYMid"><path d="M255.28 19.166c-1.842-1.51-16.32-9.274-16.32-9.274l-15.446 8.975-.01-.005 15.45-8.974L223.51.685l-.005 18.177-16.11-9.018s-13.18 7.704-19.578 11.397c-8.055 4.648-27.81 16.41-27.81 16.41v17.37l-16.274 42.4v23.023l-11.422 6.666-4.544 11.888L95.74 55.914l.004-18.22L31.914.663.032 19.122 0 19.115V37.89l19.884 47.89L31.967 92.9l.01 21.84 47.9 116.344 47.873 27.396v.158l47.81-27.666 79.893-193.462-.173-18.342" fill="#3185B8"/><path d="M127.786 258.498l-47.908-27.416-47.9-116.344-.01-21.84-12.084-7.117L0 37.89V19.114l15.733 9.173V46.77l16.262 9.438.002-18.592L63.77 56l1.53 18.197 46.19 119.892 32.098 18.697v36.668l-15.847-9.322.046 18.365" fill="#3185B8"/><path d="M95.74 55.914l32.026 83.084-.066 45.767-16.233 9.233L65.3 74.064 63.77 56l31.974-18.307-.005 18.22M15.733 28.287V46.77l16.264-9.154-16.264-9.33" fill="#61A5CE"/><path d="M31.995 56.208l.002-18.592-16.264 9.155 16.262 9.438" fill="#EAE9E6"/><path d="M127.7 184.765l16.01 9.16 17.827-44.756 13.728 8.168v-42.895l4.38-10.357 11.688 6.845V92.8l-15.91-9.245 16-9.288-15.734-9.067-.043-18.43-15.64-9.118v17.37l-16.274 42.4v23.023l-11.422 6.666-4.544 11.888-.066 45.767" fill="#3185B8"/><path d="M127.48 203.5l16.108 9.287-.08 36.676 32.05-18.493 79.895-193.462-.173-18.342-47.886 27.602v36.825l-16.06 9.205v18.133l-11.69-6.844-4.38 10.357v42.805l-22.243 13.08-9.31 23.598-16.23 9.575" fill="#61A5CE"/><path d="M63.667 74.398l16.066-9.333V83.53L63.667 74.4" fill="#EAE9E6"/><path d="M79.733 83.53l15.933 9V74.4l-15.933-9.333V83.53" fill="#3185B8"/><path d="M47.845 120.196v18.6l16.087-9.257-16.087-9.344" fill="#61A5CE"/><path d="M79.988 138.882l-16.143 9.4-16-9.486 16.087-9.257 16.056 9.342" fill="#EAE9E6"/><path d="M79.77 194.133v18.758l16.17-9.35-16.17-9.407" fill="#61A5CE"/><path d="M111.522 230.883l16.287 9.467.058-19.052-16.346 9.585" fill="#EAE9E6"/><path d="M127.75 258.636l.06-18.286 15.698 9.113-15.758 9.173" fill="#61A5CE"/><path d="M127.7 184.765l-16.233 9.233 16.014 9.503 16.23-9.574-16.01-9.16" fill="#EAE9E6"/><path d="M207.394 83.593V46.768l-15.854-9.025V56.09l-15.85 9.108 31.704 18.395" fill="#3185B8"/><path d="M175.422 83.553l16-9.288 15.972 9.328-16.06 9.205-15.912-9.245" fill="#EAE9E6"/><path d="M175.69 65.198l15.85-9.108V37.743l-15.893 9.025.042 18.43" fill="#61A5CE"/><path d="M223.505 18.863L223.51.685l15.443 9.203-15.448 8.975" fill="#3185B8"/><path d="M255.28 19.166l-47.886 27.602-15.854-9.025-15.893 9.025-15.64-9.118s19.755-11.762 27.81-16.41c6.398-3.692 19.577-11.396 19.577-11.396l16.12 9.023 15.447-8.975s14.478 7.763 16.32 9.274c-4.356 2.545 0 0 0 0M95.744 37.693L63.77 56 .03 19.12 31.916.666l63.83 37.028" fill="#EAE9E6"/><path d="M239.204 46.348V28.432l-15.58 8.99 15.58 8.926M191.98 129.638l15.503-8.893v17.837l-15.503-8.944" fill="#3185B8"/><path d="M159.583 203.378v18.484l16.148-9.34-16.147-9.144" fill="#EAE9E6"/><path d="M175.83 212.52l-.198-18.334-16.05 9.192 16.25 9.143" fill="#3185B8"/><path d="M17.417 311.467h6.93l13.14-39.783H32.53l-11.65 35.303-11.647-35.303H4.275l13.142 39.783zm39.9-39.783H50.39l-13.44 39.783h5.196l3.226-9.558h16.904l3.286 9.557h5.196l-13.44-39.783zm3.645 25.745H46.746l7.108-22.042 7.108 22.04zm20.37-14.337c0-5.376 1.97-7.347 8.54-7.347 3.286 0 6.87.36 10.693 1.016l.598-4.42c-3.704-.837-7.646-1.255-11.05-1.255-9.917 0-13.92 3.703-13.92 11.767v17.502c0 7.347 3.107 11.708 13.262 11.708 4.122 0 8.72-.597 12.604-1.732v-17.144H97.1v13.5c-2.747.538-5.375.717-7.466.717-6.81 0-8.303-2.27-8.303-7.347v-16.965zm55.073 28.374h5.914l-10.335-14.993c4.6-1.315 6.332-4.54 6.332-9.26v-5.733c0-6.092-2.987-9.796-11.53-9.796h-15.17v39.783h5.136V297.07h9.737l9.915 14.397zm-3.225-29.927v5.735c0 3.882-1.673 5.256-6.57 5.256h-9.857v-16.246h9.856c4.897 0 6.57 1.314 6.57 5.256zm33.63-9.856h-6.93l-13.44 39.783h5.197l3.226-9.558h16.904l3.286 9.557h5.197l-13.44-39.783zm3.643 25.745h-14.216l7.108-22.042 7.108 22.04zm38.767 14.037h7.05v-39.783h-4.9v34.048l-17.322-34.048h-7.05v39.783h4.9v-33.87l17.322 33.87zm25.208 0h5.137v-35.183h11.887v-4.6h-28.91v4.6h11.886v35.183z" fill="#3285B7"/></svg>